<?xml version="1.0" encoding="UTF-8" standalone="no"?>
<!-- Created with Inkscape (http://www.inkscape.org/) -->

<svg
   xmlns:dc="http://purl.org/dc/elements/1.1/"
   xmlns:cc="http://creativecommons.org/ns#"
   xmlns:rdf="http://www.w3.org/1999/02/22-rdf-syntax-ns#"
   xmlns:svg="http://www.w3.org/2000/svg"
   xmlns="http://www.w3.org/2000/svg"
   xmlns:sodipodi="http://sodipodi.sourceforge.net/DTD/sodipodi-0.dtd"
   xmlns:inkscape="http://www.inkscape.org/namespaces/inkscape"
   version="1.1"
   id="svg5128"
   xml:space="preserve"
   width="339.84"
   height="196.8"
   viewBox="0 0 339.84 196.8"
   sodipodi:docname="Business Card BNVK.svg"
   inkscape:version="0.92.4 (5da689c313, 2019-01-14)"><metadata
     id="metadata5134"><rdf:RDF><cc:Work
         rdf:about=""><dc:format>image/svg+xml</dc:format><dc:type
           rdf:resource="http://purl.org/dc/dcmitype/StillImage" /><dc:title></dc:title></cc:Work></rdf:RDF></metadata><defs
     id="defs5132" /><sodipodi:namedview
     pagecolor="#ffffff"
     bordercolor="#666666"
     borderopacity="1"
     objecttolerance="10"
     gridtolerance="10"
     guidetolerance="10"
     inkscape:pageopacity="0"
     inkscape:pageshadow="2"
     inkscape:window-width="1366"
     inkscape:window-height="744"
     id="namedview5130"
     showgrid="false"
     inkscape:zoom="1.7867485"
     inkscape:cx="202.19898"
     inkscape:cy="53.625934"
     inkscape:window-x="0"
     inkscape:window-y="24"
     inkscape:window-maximized="0"
     inkscape:current-layer="g5138" /><g
     id="g5136"
     inkscape:groupmode="layer"
     inkscape:label="ink_ext_XXXXXX"
     transform="matrix(1.3333333,0,0,-1.3333333,0,196.8)"><g
       id="g5138"
       transform="scale(0.1)"><path
         d="m 966.641,473.879 v -66 h 25.039 c 13.68,0 21.6,7.519 21.6,18.402 0,10.641 -5.84,15.199 -14.081,16.641 5.601,2.879 8.241,8.078 8.241,14.156 0,12.563 -8.96,16.801 -20.319,16.801 z m 15.039,-25.84 v 14.242 h 1.199 c 6.562,0 10,-2 10,-6.722 0,-5.52 -3.52,-7.52 -10,-7.52 z m 0,-28.559 v 15.598 h 4.718 c 7.122,0 11.043,-2.156 11.043,-8.238 0,-5.199 -3.921,-7.36 -11.043,-7.36 h -4.718"
         style="fill:#000000;fill-opacity:1;fill-rule:nonzero;stroke:none"
         id="path5140"
         inkscape:connector-curvature="0" /><path
         d="m 1019.92,407.879 h 14.16 v 21.601 c 0,1.04 1.04,8.321 8.4,8.321 4.72,0 7.36,-2.242 7.36,-2.242 l 5.92,12 c 0,0 -3.68,2.562 -8.96,2.562 -8.08,0 -12.56,-7.121 -12.56,-7.121 h -0.16 v 5.922 h -14.16 v -41.043"
         style="fill:#000000;fill-opacity:1;fill-rule:nonzero;stroke:none"
         id="path5142"
         inkscape:connector-curvature="0" /><path
         d="m 1100.8,426.441 c 0.08,0.481 0.08,1.36 0.08,1.918 0,14.403 -9.52,21.762 -22,21.762 -12.4,0 -22.56,-9.762 -22.56,-21.762 0,-11.918 10.16,-21.679 22.56,-21.679 9.12,0 16.64,2.961 21.28,10.718 l -10.24,5.122 c -3.44,-3.68 -5.44,-4.559 -10,-4.559 -3.6,0 -8.88,2.16 -8.88,8.48 z m -29.36,7.84 c 0.24,3.758 2.96,6.641 7.84,6.641 4.16,0 7.12,-2.32 7.76,-6.641 h -15.6"
         style="fill:#000000;fill-opacity:1;fill-rule:nonzero;stroke:none"
         id="path5144"
         inkscape:connector-curvature="0" /><path
         d="m 1107.36,407.879 h 14.16 v 23.199 c 0,4.082 4.16,8 8.4,8 4.56,0 7.36,-3.918 7.36,-8 v -23.199 h 14.16 v 27.043 c 0,11.437 -10.48,15.199 -18,15.199 -4.48,0 -8.56,-2.32 -11.76,-5.519 h -0.16 v 4.32 h -14.16 v -41.043"
         style="fill:#000000;fill-opacity:1;fill-rule:nonzero;stroke:none"
         id="path5146"
         inkscape:connector-curvature="0" /><path
         d="m 1160.24,407.879 h 14.16 v 23.199 c 0,4.082 4.16,8 8.4,8 4.56,0 7.36,-3.918 7.36,-8 v -23.199 h 14.16 v 27.043 c 0,11.437 -10.48,15.199 -18,15.199 -4.48,0 -8.56,-2.32 -11.76,-5.519 h -0.16 v 4.32 h -14.16 v -41.043"
         style="fill:#000000;fill-opacity:1;fill-rule:nonzero;stroke:none"
         id="path5148"
         inkscape:connector-curvature="0" /><path
         d="m 1210.16,428.359 c 0,-12 8.4,-21.679 20.4,-21.679 5.6,0 10.4,2.48 13.44,5.84 h 0.16 v -4.641 h 14 v 41.043 H 1244 V 445 c -3.36,3.281 -7.92,5.121 -13.44,5.121 -12,0 -20.4,-9.762 -20.4,-21.762 z m 15.04,0 c 0,5.68 4.24,9.68 9.6,9.68 5.28,0 9.52,-4 9.52,-9.68 0,-5.597 -4,-9.597 -9.52,-9.597 -5.76,0 -9.6,4 -9.6,9.597"
         style="fill:#000000;fill-opacity:1;fill-rule:nonzero;stroke:none"
         id="path5150"
         inkscape:connector-curvature="0" /><path
         d="m 1267.76,407.879 h 14.16 v 23.199 c 0,4.082 4.16,8 8.4,8 4.56,0 7.36,-3.918 7.36,-8 v -23.199 h 14.16 v 27.043 c 0,11.437 -10.48,15.199 -18,15.199 -4.48,0 -8.56,-2.32 -11.76,-5.519 h -0.16 v 4.32 h -14.16 v -41.043"
         style="fill:#000000;fill-opacity:1;fill-rule:nonzero;stroke:none"
         id="path5152"
         inkscape:connector-curvature="0" /><path
         d="m 1357.52,448.84 h 0.16 l 26.24,-40.961 h 15.04 v 66 h -15.04 v -40.957 h -0.16 l -26.24,40.957 h -15.04 v -66 h 15.04 v 40.961"
         style="fill:#000000;fill-opacity:1;fill-rule:nonzero;stroke:none"
         id="path5154"
         inkscape:connector-curvature="0" /><path
         d="m 1405.6,428.359 c 0,-12.64 9.92,-21.679 24.72,-21.679 14.16,0 24.48,9.039 24.48,21.679 0,12.801 -10.88,21.762 -24.48,21.762 -13.84,0 -24.72,-8.961 -24.72,-21.762 z m 15.04,0 c 0,5.68 4.24,9.68 9.6,9.68 5.28,0 9.52,-4 9.52,-9.68 0,-5.597 -4,-9.597 -9.52,-9.597 -5.76,0 -9.6,4 -9.6,9.597"
         style="fill:#000000;fill-opacity:1;fill-rule:nonzero;stroke:none"
         id="path5156"
         inkscape:connector-curvature="0" /><path
         d="m 1471.44,448.922 h -16.8 l 22,-41.043 h 9.6 l 22,41.043 h -16.8 l -10,-22.32 -10,22.32"
         style="fill:#000000;fill-opacity:1;fill-rule:nonzero;stroke:none"
         id="path5158"
         inkscape:connector-curvature="0" /><path
         d="m 1507.92,428.359 c 0,-12 8.4,-21.679 20.4,-21.679 5.6,0 10.4,2.48 13.44,5.84 h 0.16 v -4.641 h 14 v 41.043 h -14.16 V 445 c -3.36,3.281 -7.92,5.121 -13.44,5.121 -12,0 -20.4,-9.762 -20.4,-21.762 z m 15.04,0 c 0,5.68 4.24,9.68 9.6,9.68 5.28,0 9.52,-4 9.52,-9.68 0,-5.597 -4,-9.597 -9.52,-9.597 -5.76,0 -9.6,4 -9.6,9.597"
         style="fill:#000000;fill-opacity:1;fill-rule:nonzero;stroke:none"
         id="path5160"
         inkscape:connector-curvature="0" /><path
         d="M 1612.4,448.922 H 1594 l -14.32,-14.32 v 42.078 h -14.16 v -68.801 h 14.16 v 16.402 l 16.4,-16.402 h 18.24 l -21.44,21.441 19.52,19.602"
         style="fill:#000000;fill-opacity:1;fill-rule:nonzero;stroke:none"
         id="path5162"
         inkscape:connector-curvature="0" /><path
         d="M 746.398,877.422 H 771.27 V 793.68 h 23.859 v 83.742 H 820 v 20.93 h -73.602 v -20.93"
         style="fill:#000000;fill-opacity:1;fill-rule:nonzero;stroke:none"
         id="path5164"
         inkscape:connector-curvature="0" /><path
         d="M 828.621,898.352 V 793.68 h 23.859 v 41.359 l 31.969,-41.359 h 30.332 l -36.043,43.261 c 12.821,4.059 21.453,14.59 21.453,30.329 0,20.55 -14.722,31.082 -34.14,31.082 z m 23.859,-46.43 v 27.398 h 2.79 c 9.011,0 19.789,-0.629 19.789,-13.699 0,-13.07 -10.778,-13.699 -19.789,-13.699 h -2.79"
         style="fill:#000000;fill-opacity:1;fill-rule:nonzero;stroke:none"
         id="path5166"
         inkscape:connector-curvature="0" /><path
         d="M 972.641,898.352 H 950.559 L 908.309,793.68 h 25.632 l 7.739,20.929 h 39.84 l 7.742,-20.929 h 25.628 z m 0.757,-62.801 H 949.801 L 961.469,866 h 0.25 l 11.679,-30.449"
         style="fill:#000000;fill-opacity:1;fill-rule:nonzero;stroke:none"
         id="path5168"
         inkscape:connector-curvature="0" /><path
         d="m 1042.8,858.641 h 0.26 l 41.61,-64.961 h 23.86 v 104.672 h -23.86 v -64.961 h -0.25 l -41.62,64.961 h -23.85 V 793.68 h 23.85 v 64.961"
         style="fill:#000000;fill-opacity:1;fill-rule:nonzero;stroke:none"
         id="path5170"
         inkscape:connector-curvature="0" /><path
         d="m 1159.79,900.262 c -16.88,0 -34.13,-12.442 -34.13,-31.981 0,-10.91 7.36,-20.679 19.92,-26.902 12.43,-6.207 23.6,-9.641 23.6,-17.25 0,-9.77 -9.9,-10.277 -15.1,-10.277 -11.67,0 -25.63,11.796 -25.63,11.796 l -11.93,-20.046 c 0,0 14.85,-13.832 39.34,-13.832 20.42,0 39.46,8.761 39.46,33.75 0,13.71 -12.82,23.601 -24.49,28.55 -11.93,5.078 -21.83,9.258 -21.83,15.102 0,5.707 4.32,9.387 12.44,9.387 10.78,0 21.19,-7.231 21.19,-7.231 l 9.64,19.031 c 0,0 -13.45,9.903 -32.48,9.903"
         style="fill:#000000;fill-opacity:1;fill-rule:nonzero;stroke:none"
         id="path5172"
         inkscape:connector-curvature="0" /><path
         d="M 1206.48,898.352 V 793.68 h 23.86 v 38.82 h 14.34 c 20.42,0 35.78,12.059 35.78,33.629 0,21.691 -15.36,32.223 -35.78,32.223 z m 23.86,-46.821 v 27.789 h 6.72 c 9.39,0 18.27,-3.172 18.27,-13.949 0,-10.66 -8.88,-13.84 -18.27,-13.84 h -6.72"
         style="fill:#000000;fill-opacity:1;fill-rule:nonzero;stroke:none"
         id="path5174"
         inkscape:connector-curvature="0" /><path
         d="m 1336.03,898.352 h -22.08 L 1271.7,793.68 h 25.63 l 7.74,20.929 h 39.84 l 7.74,-20.929 h 25.63 z m 0.76,-62.801 h -23.6 L 1324.87,866 h 0.25 l 11.67,-30.449"
         style="fill:#000000;fill-opacity:1;fill-rule:nonzero;stroke:none"
         id="path5176"
         inkscape:connector-curvature="0" /><path
         d="M 1382.34,898.352 V 793.68 h 23.86 v 41.359 l 31.97,-41.359 h 30.33 l -36.04,43.261 c 12.82,4.059 21.45,14.59 21.45,30.329 0,20.55 -14.72,31.082 -34.14,31.082 z m 23.86,-46.43 v 27.398 h 2.79 c 9.01,0 19.79,-0.629 19.79,-13.699 0,-13.07 -10.78,-13.699 -19.79,-13.699 h -2.79"
         style="fill:#000000;fill-opacity:1;fill-rule:nonzero;stroke:none"
         id="path5178"
         inkscape:connector-curvature="0" /><path
         d="m 1533.08,898.352 h -59.89 V 793.68 h 59.89 v 20.929 h -36.03 v 21.063 h 34.51 v 20.937 h -34.51 v 20.813 h 36.03 v 20.93"
         style="fill:#000000;fill-opacity:1;fill-rule:nonzero;stroke:none"
         id="path5180"
         inkscape:connector-curvature="0" /><path
         d="m 1570.64,858.641 h 0.25 l 41.62,-64.961 h 23.86 v 104.672 h -23.86 v -64.961 h -0.25 l -41.62,64.961 h -23.85 V 793.68 h 23.85 v 64.961"
         style="fill:#000000;fill-opacity:1;fill-rule:nonzero;stroke:none"
         id="path5182"
         inkscape:connector-curvature="0" /><path
         d="m 1703.23,815.25 c -23.98,0 -34.51,16.738 -34.51,30.828 0,13.961 10.53,30.703 34.51,30.703 12.18,0 20.56,-6.472 20.56,-6.472 l 10.15,20.3 c 0,0 -11.67,9.653 -34.39,9.653 -29.69,0 -56.71,-24.364 -56.71,-54.442 0,-29.941 27.15,-54.05 56.71,-54.05 22.72,0 34.39,9.652 34.39,9.652 l -10.15,20.297 c 0,0 -8.38,-6.469 -20.56,-6.469"
         style="fill:#000000;fill-opacity:1;fill-rule:nonzero;stroke:none"
         id="path5184"
         inkscape:connector-curvature="0" /><path
         d="m 1731.66,898.352 38.57,-57.731 V 793.68 h 23.85 v 46.941 l 38.57,57.731 h -28.67 l -21.82,-33.493 -21.83,33.493 h -28.67"
         style="fill:#000000;fill-opacity:1;fill-rule:nonzero;stroke:none"
         id="path5186"
         inkscape:connector-curvature="0" /><path
         d="m 1000.99,744.191 h 24.87 v -83.742 h 23.86 v 83.742 h 24.87 v 20.938 h -73.6 v -20.938"
         style="fill:#000000;fill-opacity:1;fill-rule:nonzero;stroke:none"
         id="path5188"
         inkscape:connector-curvature="0" /><path
         d="m 1074.46,712.852 c 0,-30.582 21.82,-54.313 52.78,-54.313 30.08,0 52.66,23.731 52.66,54.313 0,30.578 -23.6,54.179 -52.66,54.179 -28.8,0 -52.78,-23.601 -52.78,-54.179 z m 25.76,0 c 0,15.609 8.63,31.207 27.02,31.207 18.53,0 26.9,-15.598 26.9,-31.207 0,-15.614 -7.86,-31.211 -26.9,-31.211 -19.54,0 -27.02,15.597 -27.02,31.211"
         style="fill:#000000;fill-opacity:1;fill-rule:nonzero;stroke:none"
         id="path5190"
         inkscape:connector-curvature="0" /><path
         d="m 1185.74,712.852 c 0,-30.582 21.82,-54.313 52.78,-54.313 30.07,0 52.66,23.731 52.66,54.313 0,30.578 -23.6,54.179 -52.66,54.179 -28.8,0 -52.78,-23.601 -52.78,-54.179 z m 25.76,0 c 0,15.609 8.62,31.207 27.02,31.207 18.53,0 26.9,-15.598 26.9,-31.207 0,-15.614 -7.87,-31.211 -26.9,-31.211 -19.54,0 -27.02,15.597 -27.02,31.211"
         style="fill:#000000;fill-opacity:1;fill-rule:nonzero;stroke:none"
         id="path5192"
         inkscape:connector-curvature="0" /><path
         d="m 1325.56,765.129 h -23.85 v -104.68 h 59.89 v 20.93 h -36.04 v 83.75"
         style="fill:#000000;fill-opacity:1;fill-rule:nonzero;stroke:none"
         id="path5194"
         inkscape:connector-curvature="0" /><path
         d="m 1468.69,660.449 -48.72,55.071 42.12,49.609 h -28.93 l -35.91,-42.758 v 42.758 h -23.85 v -104.68 h 23.85 v 44.41 l 38.58,-44.41 h 32.86"
         style="fill:#000000;fill-opacity:1;fill-rule:nonzero;stroke:none"
         id="path5196"
         inkscape:connector-curvature="0" /><path
         d="m 1497.11,765.129 h -23.85 v -104.68 h 23.85 v 104.68"
         style="fill:#000000;fill-opacity:1;fill-rule:nonzero;stroke:none"
         id="path5198"
         inkscape:connector-curvature="0" /><path
         d="m 1499.65,744.191 h 24.87 v -83.742 h 23.85 v 83.742 h 24.87 v 20.938 h -73.59 v -20.938"
         style="fill:#000000;fill-opacity:1;fill-rule:nonzero;stroke:none"
         id="path5200"
         inkscape:connector-curvature="0" /><path
         d="m 886.828,338.609 c 4.223,0 7.5,-1.437 9.832,-4.32 2.34,-2.879 3.5,-6.961 3.5,-12.23 0,-5.27 -1.172,-9.368 -3.531,-12.289 -2.348,-2.918 -5.617,-4.379 -9.801,-4.379 -2.09,0 -3.988,0.39 -5.719,1.16 -1.73,0.769 -3.179,1.961 -4.347,3.558 h -0.364 l -1.019,-4.129 h -3.488 v 45.579 h 4.871 v -11.071 c 0,-2.476 -0.082,-4.707 -0.242,-6.679 h 0.242 c 2.258,3.203 5.617,4.8 10.066,4.8 z m -0.699,-4.07 c -3.32,0 -5.707,-0.949 -7.18,-2.859 -1.461,-1.899 -2.187,-5.11 -2.187,-9.621 0,-4.508 0.75,-7.739 2.25,-9.68 1.508,-1.949 3.918,-2.918 7.238,-2.918 2.988,0 5.211,1.09 6.68,3.269 1.461,2.18 2.199,5.309 2.199,9.391 0,4.18 -0.738,7.289 -2.199,9.34 -1.469,2.059 -3.731,3.078 -6.801,3.078"
         style="fill:#000000;fill-opacity:1;fill-rule:nonzero;stroke:none"
         id="path5202"
         inkscape:connector-curvature="0" /><path
         d="m 930.629,305.98 v 20.77 c 0,2.609 -0.59,4.57 -1.777,5.859 -1.204,1.289 -3.063,1.93 -5.602,1.93 -3.359,0 -5.82,-0.91 -7.379,-2.719 -1.562,-1.82 -2.351,-4.82 -2.351,-9 v -16.84 h -4.86 v 32.11 h 3.961 l 0.789,-4.399 h 0.231 c 1,1.579 2.39,2.809 4.187,3.68 1.801,0.867 3.801,1.301 6.012,1.301 3.859,0 6.769,-0.934 8.73,-2.801 1.95,-1.859 2.93,-4.851 2.93,-8.949 V 305.98 h -4.871"
         style="fill:#000000;fill-opacity:1;fill-rule:nonzero;stroke:none"
         id="path5204"
         inkscape:connector-curvature="0" /><path
         d="m 952.52,305.98 -12.192,32.11 h 5.223 l 6.91,-19.051 c 1.559,-4.449 2.48,-7.34 2.75,-8.668 h 0.238 c 0.211,1.039 0.891,3.18 2.031,6.43 1.149,3.25 3.711,10.347 7.692,21.289 h 5.219 l -12.192,-32.11 h -5.679"
         style="fill:#000000;fill-opacity:1;fill-rule:nonzero;stroke:none"
         id="path5206"
         inkscape:connector-curvature="0" /><path
         d="m 980.352,322.41 c 0.839,1.192 2.117,2.762 3.839,4.692 l 10.368,10.988 h 5.771 l -13.01,-13.692 13.92,-18.418 h -5.888 l -11.34,15.168 -3.66,-3.16 V 305.98 h -4.801 v 45.579 h 4.801 v -24.168 c 0,-1.071 -0.082,-2.731 -0.231,-4.981 h 0.231"
         style="fill:#000000;fill-opacity:1;fill-rule:nonzero;stroke:none"
         id="path5208"
         inkscape:connector-curvature="0" /><path
         d="m 1052.27,327.328 c 0,-2.769 -0.43,-5.308 -1.29,-7.609 -0.85,-2.309 -2.07,-4.098 -3.63,-5.367 -1.56,-1.262 -3.36,-1.903 -5.39,-1.903 -1.68,0 -3.09,0.512 -4.25,1.52 -1.15,1.019 -1.83,2.32 -2.05,3.902 h -0.23 c -0.78,-1.699 -1.9,-3.031 -3.36,-3.98 -1.45,-0.961 -3.17,-1.442 -5.17,-1.442 -2.93,0 -5.22,1 -6.87,3 -1.65,2.012 -2.47,4.731 -2.47,8.16 0,3.993 1.15,7.219 3.45,9.711 2.31,2.489 5.34,3.739 9.09,3.739 1.32,0 2.83,-0.118 4.51,-0.368 1.68,-0.242 3.19,-0.582 4.54,-1.011 l -0.73,-13.77 v -0.64 c 0,-3.481 1.3,-5.219 3.89,-5.219 1.78,0 3.23,1.051 4.34,3.148 1.11,2.102 1.67,4.832 1.67,8.192 0,3.539 -0.72,6.629 -2.17,9.289 -1.44,2.66 -3.5,4.699 -6.17,6.14 -2.66,1.43 -5.72,2.149 -9.18,2.149 -4.36,0 -8.15,-0.899 -11.37,-2.707 -3.22,-1.813 -5.68,-4.383 -7.38,-7.731 -1.7,-3.351 -2.55,-7.23 -2.55,-11.621 0,-5.961 1.57,-10.539 4.72,-13.738 3.14,-3.203 7.67,-4.813 13.59,-4.813 4.1,0 8.36,0.84 12.77,2.52 v -3.891 c -3.75,-1.636 -8,-2.457 -12.77,-2.457 -7.09,0 -12.59,1.949 -16.51,5.84 -3.91,3.899 -5.87,9.34 -5.87,16.328 0,5.082 1.04,9.602 3.13,13.571 2.09,3.96 5.07,7.039 8.94,9.21 3.87,2.18 8.3,3.27 13.3,3.27 4.2,0 7.93,-0.879 11.21,-2.648 3.27,-1.774 5.8,-4.282 7.58,-7.532 1.79,-3.25 2.68,-7 2.68,-11.242 z m -30.29,-3.828 c 0,-4.969 1.91,-7.449 5.71,-7.449 4.05,0 6.24,3.058 6.6,9.168 l 0.41,7.652 c -1.41,0.391 -2.94,0.59 -4.6,0.59 -2.54,0 -4.53,-0.883 -5.97,-2.641 -1.43,-1.761 -2.15,-4.199 -2.15,-7.32"
         style="fill:#000000;fill-opacity:1;fill-rule:nonzero;stroke:none"
         id="path5210"
         inkscape:connector-curvature="0" /><path
         d="m 1071.35,309.398 c 0.86,0 1.69,0.071 2.49,0.192 0.8,0.129 1.43,0.262 1.9,0.398 v -3.718 c -0.53,-0.25 -1.3,-0.461 -2.33,-0.629 -1.02,-0.172 -1.95,-0.25 -2.77,-0.25 -6.21,0 -9.31,3.269 -9.31,9.808 v 19.11 h -4.6 v 2.339 l 4.6,2.024 2.05,6.859 h 2.81 v -7.441 h 9.32 v -3.781 h -9.32 V 315.41 c 0,-1.93 0.46,-3.422 1.38,-4.449 0.91,-1.039 2.17,-1.563 3.78,-1.563"
         style="fill:#000000;fill-opacity:1;fill-rule:nonzero;stroke:none"
         id="path5212"
         inkscape:connector-curvature="0" /><path
         d="m 1096.81,338.672 c 1.42,0 2.7,-0.121 3.83,-0.352 l -0.67,-4.511 c -1.33,0.293 -2.5,0.441 -3.52,0.441 -2.59,0 -4.82,-1.059 -6.66,-3.172 -1.85,-2.109 -2.77,-4.726 -2.77,-7.879 V 305.98 h -4.86 v 32.11 h 4.01 l 0.56,-5.949 h 0.23 c 1.19,2.089 2.63,3.699 4.31,4.828 1.68,1.133 3.52,1.703 5.54,1.703"
         style="fill:#000000;fill-opacity:1;fill-rule:nonzero;stroke:none"
         id="path5214"
         inkscape:connector-curvature="0" /><path
         d="m 1125.19,305.98 -0.96,4.571 h -0.24 c -1.6,-2.02 -3.2,-3.379 -4.79,-4.09 -1.59,-0.711 -3.58,-1.07 -5.96,-1.07 -3.18,0 -5.68,0.82 -7.48,2.461 -1.81,1.636 -2.71,3.976 -2.71,7 0,6.488 5.18,9.886 15.55,10.199 l 5.45,0.168 v 2 c 0,2.519 -0.54,4.383 -1.62,5.582 -1.09,1.199 -2.82,1.801 -5.2,1.801 -2.68,0 -5.71,-0.821 -9.09,-2.461 l -1.49,3.718 c 1.58,0.86 3.31,1.532 5.2,2.02 1.88,0.492 3.77,0.73 5.67,0.73 3.83,0 6.66,-0.847 8.51,-2.55 1.84,-1.7 2.77,-4.418 2.77,-8.168 V 305.98 Z m -10.98,3.418 c 3.02,0 5.4,0.832 7.13,2.493 1.73,1.66 2.59,3.988 2.59,6.98 v 2.899 l -4.86,-0.211 c -3.87,-0.129 -6.65,-0.739 -8.36,-1.797 -1.71,-1.063 -2.57,-2.723 -2.57,-4.973 0,-1.75 0.54,-3.09 1.6,-4.008 1.06,-0.922 2.55,-1.383 4.47,-1.383"
         style="fill:#000000;fill-opacity:1;fill-rule:nonzero;stroke:none"
         id="path5216"
         inkscape:connector-curvature="0" /><path
         d="m 1160.79,305.98 v 20.77 c 0,2.609 -0.6,4.57 -1.79,5.859 -1.19,1.289 -3.05,1.93 -5.59,1.93 -3.36,0 -5.82,-0.91 -7.39,-2.719 -1.56,-1.82 -2.34,-4.82 -2.34,-9 v -16.84 h -4.86 v 32.11 h 3.95 l 0.79,-4.399 h 0.24 c 0.99,1.579 2.39,2.809 4.19,3.68 1.79,0.867 3.8,1.301 6,1.301 3.87,0 6.78,-0.934 8.73,-2.801 1.96,-1.859 2.93,-4.851 2.93,-8.949 V 305.98 h -4.86"
         style="fill:#000000;fill-opacity:1;fill-rule:nonzero;stroke:none"
         id="path5218"
         inkscape:connector-curvature="0" /><path
         d="m 1196.36,314.738 c 0,-2.988 -1.12,-5.297 -3.34,-6.918 -2.23,-1.621 -5.36,-2.429 -9.38,-2.429 -4.26,0 -7.58,0.668 -9.96,2.019 v 4.512 c 1.54,-0.781 3.2,-1.391 4.97,-1.844 1.76,-0.449 3.47,-0.68 5.11,-0.68 2.54,0 4.49,0.411 5.86,1.223 1.36,0.809 2.05,2.051 2.05,3.707 0,1.25 -0.54,2.313 -1.63,3.203 -1.08,0.891 -3.2,1.938 -6.34,3.149 -2.99,1.121 -5.11,2.09 -6.37,2.922 -1.26,0.828 -2.2,1.769 -2.81,2.828 -0.62,1.05 -0.93,2.308 -0.93,3.769 0,2.621 1.07,4.692 3.2,6.199 2.12,1.512 5.04,2.274 8.76,2.274 3.45,0 6.83,-0.703 10.13,-2.113 l -1.73,-3.95 c -3.22,1.332 -6.14,1.993 -8.76,1.993 -2.3,0 -4.04,-0.364 -5.21,-1.082 -1.17,-0.731 -1.76,-1.719 -1.76,-2.989 0,-0.859 0.22,-1.59 0.66,-2.203 0.44,-0.609 1.15,-1.18 2.12,-1.726 0.98,-0.551 2.86,-1.34 5.63,-2.372 3.81,-1.39 6.38,-2.789 7.72,-4.191 1.34,-1.41 2.01,-3.18 2.01,-5.301"
         style="fill:#000000;fill-opacity:1;fill-rule:nonzero;stroke:none"
         id="path5220"
         inkscape:connector-curvature="0" /><path
         d="m 1219.21,305.391 c -2.09,0 -4,0.39 -5.73,1.16 -1.73,0.769 -3.18,1.961 -4.35,3.558 h -0.35 c 0.23,-1.879 0.35,-3.66 0.35,-5.339 v -13.211 h -4.86 v 46.531 h 3.95 l 0.68,-4.399 h 0.23 c 1.25,1.758 2.7,3.028 4.36,3.809 1.66,0.781 3.57,1.172 5.72,1.172 4.26,0 7.54,-1.453 9.86,-4.363 2.31,-2.911 3.47,-7 3.47,-12.25 0,-5.27 -1.18,-9.368 -3.53,-12.289 -2.36,-2.918 -5.62,-4.379 -9.8,-4.379 z m -0.71,29.148 c -3.28,0 -5.65,-0.91 -7.11,-2.719 -1.47,-1.82 -2.22,-4.711 -2.26,-8.679 v -1.082 c 0,-4.508 0.75,-7.739 2.26,-9.68 1.5,-1.949 3.91,-2.918 7.23,-2.918 2.78,0 4.95,1.129 6.52,3.367 1.57,2.25 2.36,5.344 2.36,9.293 0,4 -0.79,7.07 -2.36,9.207 -1.57,2.141 -3.78,3.211 -6.64,3.211"
         style="fill:#000000;fill-opacity:1;fill-rule:nonzero;stroke:none"
         id="path5222"
         inkscape:connector-curvature="0" /><path
         d="m 1260.78,305.98 -0.97,4.571 h -0.23 c -1.6,-2.02 -3.2,-3.379 -4.79,-4.09 -1.59,-0.711 -3.58,-1.07 -5.96,-1.07 -3.19,0 -5.68,0.82 -7.49,2.461 -1.81,1.636 -2.71,3.976 -2.71,7 0,6.488 5.19,9.886 15.56,10.199 l 5.45,0.168 v 2 c 0,2.519 -0.54,4.383 -1.63,5.582 -1.08,1.199 -2.82,1.801 -5.2,1.801 -2.67,0 -5.7,-0.821 -9.08,-2.461 l -1.5,3.718 c 1.59,0.86 3.32,1.532 5.21,2.02 1.88,0.492 3.77,0.73 5.66,0.73 3.83,0 6.67,-0.847 8.51,-2.55 1.85,-1.7 2.77,-4.418 2.77,-8.168 V 305.98 Z m -10.99,3.418 c 3.03,0 5.41,0.832 7.14,2.493 1.73,1.66 2.59,3.988 2.59,6.98 v 2.899 l -4.86,-0.211 c -3.87,-0.129 -6.66,-0.739 -8.37,-1.797 -1.71,-1.063 -2.56,-2.723 -2.56,-4.973 0,-1.75 0.53,-3.09 1.6,-4.008 1.06,-0.922 2.55,-1.383 4.46,-1.383"
         style="fill:#000000;fill-opacity:1;fill-rule:nonzero;stroke:none"
         id="path5224"
         inkscape:connector-curvature="0" /><path
         d="m 1289.05,338.672 c 1.43,0 2.71,-0.121 3.84,-0.352 l -0.67,-4.511 c -1.33,0.293 -2.5,0.441 -3.52,0.441 -2.6,0 -4.82,-1.059 -6.67,-3.172 -1.84,-2.109 -2.76,-4.726 -2.76,-7.879 V 305.98 h -4.87 v 32.11 h 4.02 l 0.55,-5.949 h 0.24 c 1.19,2.089 2.62,3.699 4.3,4.828 1.68,1.133 3.53,1.703 5.54,1.703"
         style="fill:#000000;fill-opacity:1;fill-rule:nonzero;stroke:none"
         id="path5226"
         inkscape:connector-curvature="0" /><path
         d="m 1311.26,305.391 c -4.75,0 -8.49,1.449 -11.24,4.339 -2.74,2.891 -4.11,6.899 -4.11,12.04 0,5.171 1.27,9.281 3.82,12.332 2.55,3.046 5.97,4.57 10.27,4.57 4.02,0 7.21,-1.32 9.55,-3.973 2.34,-2.64 3.52,-6.14 3.52,-10.469 v -3.082 h -22.12 c 0.09,-3.769 1.05,-6.628 2.85,-8.578 1.81,-1.961 4.35,-2.929 7.63,-2.929 3.46,0 6.88,0.718 10.26,2.168 v -4.34 c -1.72,-0.739 -3.35,-1.27 -4.88,-1.598 -1.53,-0.32 -3.38,-0.48 -5.55,-0.48 z m -1.32,29.211 c -2.58,0 -4.63,-0.84 -6.17,-2.524 -1.53,-1.68 -2.43,-4 -2.71,-6.969 h 16.79 c 0,3.063 -0.68,5.411 -2.05,7.039 -1.37,1.633 -3.32,2.454 -5.86,2.454"
         style="fill:#000000;fill-opacity:1;fill-rule:nonzero;stroke:none"
         id="path5228"
         inkscape:connector-curvature="0" /><path
         d="m 1353.33,305.98 v 20.77 c 0,2.609 -0.6,4.57 -1.79,5.859 -1.19,1.289 -3.06,1.93 -5.59,1.93 -3.36,0 -5.82,-0.91 -7.39,-2.719 -1.56,-1.82 -2.34,-4.82 -2.34,-9 v -16.84 h -4.86 v 32.11 h 3.95 l 0.79,-4.399 h 0.24 c 0.99,1.579 2.39,2.809 4.19,3.68 1.79,0.867 3.79,1.301 6,1.301 3.87,0 6.78,-0.934 8.73,-2.801 1.96,-1.859 2.93,-4.851 2.93,-8.949 V 305.98 h -4.86"
         style="fill:#000000;fill-opacity:1;fill-rule:nonzero;stroke:none"
         id="path5230"
         inkscape:connector-curvature="0" /><path
         d="m 1381.01,305.391 c -4.64,0 -8.24,1.429 -10.79,4.289 -2.55,2.859 -3.82,6.91 -3.82,12.148 0,5.371 1.29,9.524 3.88,12.453 2.58,2.93 6.27,4.391 11.06,4.391 1.54,0 3.08,-0.16 4.63,-0.5 1.54,-0.332 2.75,-0.723 3.63,-1.172 l -1.5,-4.129 c -1.07,0.43 -2.24,0.789 -3.51,1.07 -1.27,0.278 -2.39,0.418 -3.37,0.418 -6.52,0 -9.79,-4.16 -9.79,-12.48 0,-3.938 0.8,-6.969 2.39,-9.078 1.59,-2.11 3.95,-3.16 7.08,-3.16 2.67,0 5.42,0.57 8.23,1.73 v -4.312 c -2.15,-1.11 -4.85,-1.668 -8.12,-1.668"
         style="fill:#000000;fill-opacity:1;fill-rule:nonzero;stroke:none"
         id="path5232"
         inkscape:connector-curvature="0" /><path
         d="m 1391.65,338.09 h 5.21 l 7.04,-18.32 c 1.54,-4.168 2.5,-7.192 2.87,-9.051 h 0.23 c 0.25,1 0.79,2.703 1.6,5.109 0.81,2.422 3.46,9.832 7.95,22.262 h 5.22 l -13.8,-36.57 c -1.37,-3.61 -2.97,-6.168 -4.79,-7.692 -1.83,-1.508 -4.07,-2.269 -6.73,-2.269 -1.48,0 -2.95,0.171 -4.39,0.5 v 3.902 c 1.07,-0.242 2.27,-0.359 3.6,-0.359 3.34,0 5.73,1.878 7.15,5.628 l 1.79,4.571 -12.95,32.289"
         style="fill:#000000;fill-opacity:1;fill-rule:nonzero;stroke:none"
         id="path5234"
         inkscape:connector-curvature="0" /><path
         d="m 1437.35,309.398 c 0.86,0 1.69,0.071 2.49,0.192 0.8,0.129 1.44,0.262 1.91,0.398 v -3.718 c -0.53,-0.25 -1.31,-0.461 -2.33,-0.629 -1.03,-0.172 -1.95,-0.25 -2.77,-0.25 -6.21,0 -9.32,3.269 -9.32,9.808 v 19.11 h -4.6 v 2.339 l 4.6,2.024 2.05,6.859 h 2.82 v -7.441 h 9.31 v -3.781 h -9.31 V 315.41 c 0,-1.93 0.45,-3.422 1.37,-4.449 0.92,-1.039 2.18,-1.563 3.78,-1.563"
         style="fill:#000000;fill-opacity:1;fill-rule:nonzero;stroke:none"
         id="path5236"
         inkscape:connector-curvature="0" /><path
         d="m 1475.88,322.059 c 0,-5.231 -1.32,-9.321 -3.96,-12.258 -2.63,-2.942 -6.28,-4.41 -10.93,-4.41 -2.87,0 -5.42,0.668 -7.64,2.019 -2.23,1.352 -3.95,3.281 -5.16,5.801 -1.21,2.519 -1.81,5.469 -1.81,8.848 0,5.23 1.3,9.312 3.92,12.23 2.62,2.922 6.25,4.383 10.9,4.383 4.49,0 8.06,-1.492 10.71,-4.481 2.64,-2.992 3.97,-7.031 3.97,-12.132 z m -24.47,0 c 0,-4.098 0.82,-7.231 2.47,-9.368 1.64,-2.152 4.05,-3.23 7.23,-3.23 3.19,0 5.6,1.07 7.25,3.211 1.65,2.137 2.48,5.269 2.48,9.387 0,4.082 -0.83,7.179 -2.48,9.3 -1.65,2.121 -4.08,3.18 -7.31,3.18 -3.18,0 -5.58,-1.039 -7.2,-3.129 -1.62,-2.09 -2.44,-5.211 -2.44,-9.351"
         style="fill:#000000;fill-opacity:1;fill-rule:nonzero;stroke:none"
         id="path5238"
         inkscape:connector-curvature="0" /><path
         d="m 1512.12,322.059 c 0,-5.231 -1.32,-9.321 -3.96,-12.258 -2.63,-2.942 -6.28,-4.41 -10.93,-4.41 -2.87,0 -5.41,0.668 -7.64,2.019 -2.23,1.352 -3.95,3.281 -5.16,5.801 -1.21,2.519 -1.81,5.469 -1.81,8.848 0,5.23 1.3,9.312 3.92,12.23 2.62,2.922 6.25,4.383 10.9,4.383 4.49,0 8.06,-1.492 10.71,-4.481 2.64,-2.992 3.97,-7.031 3.97,-12.132 z m -24.47,0 c 0,-4.098 0.83,-7.231 2.47,-9.368 1.64,-2.152 4.05,-3.23 7.23,-3.23 3.19,0 5.6,1.07 7.25,3.211 1.65,2.137 2.48,5.269 2.48,9.387 0,4.082 -0.83,7.179 -2.48,9.3 -1.65,2.121 -4.08,3.18 -7.31,3.18 -3.18,0 -5.58,-1.039 -7.2,-3.129 -1.62,-2.09 -2.44,-5.211 -2.44,-9.351"
         style="fill:#000000;fill-opacity:1;fill-rule:nonzero;stroke:none"
         id="path5240"
         inkscape:connector-curvature="0" /><path
         d="m 1525.51,305.98 h -4.87 v 45.579 h 4.87 V 305.98"
         style="fill:#000000;fill-opacity:1;fill-rule:nonzero;stroke:none"
         id="path5242"
         inkscape:connector-curvature="0" /><path
         d="m 1540.62,322.41 c 0.84,1.192 2.12,2.762 3.84,4.692 l 10.37,10.988 h 5.77 l -13,-13.692 13.91,-18.418 h -5.89 l -11.33,15.168 -3.67,-3.16 V 305.98 h -4.8 v 45.579 h 4.8 v -24.168 c 0,-1.071 -0.07,-2.731 -0.23,-4.981 h 0.23"
         style="fill:#000000;fill-opacity:1;fill-rule:nonzero;stroke:none"
         id="path5244"
         inkscape:connector-curvature="0" /><path
         d="m 1572.18,305.98 h -4.87 v 32.11 h 4.87 z m -5.28,40.809 c 0,1.109 0.28,1.93 0.82,2.441 0.55,0.52 1.23,0.782 2.05,0.782 0.79,0 1.46,-0.262 2.03,-0.793 0.56,-0.528 0.85,-1.34 0.85,-2.43 0,-1.098 -0.29,-1.91 -0.85,-2.449 -0.57,-0.539 -1.24,-0.809 -2.03,-0.809 -0.82,0 -1.5,0.27 -2.05,0.809 -0.54,0.539 -0.82,1.351 -0.82,2.449"
         style="fill:#000000;fill-opacity:1;fill-rule:nonzero;stroke:none"
         id="path5246"
         inkscape:connector-curvature="0" /><path
         d="m 1592.86,309.398 c 0.86,0 1.69,0.071 2.49,0.192 0.8,0.129 1.44,0.262 1.9,0.398 v -3.718 c -0.52,-0.25 -1.3,-0.461 -2.32,-0.629 -1.03,-0.172 -1.95,-0.25 -2.77,-0.25 -6.21,0 -9.32,3.269 -9.32,9.808 v 19.11 h -4.6 v 2.339 l 4.6,2.024 2.05,6.859 h 2.81 v -7.441 h 9.32 v -3.781 h -9.32 V 315.41 c 0,-1.93 0.46,-3.422 1.38,-4.449 0.92,-1.039 2.18,-1.563 3.78,-1.563"
         style="fill:#000000;fill-opacity:1;fill-rule:nonzero;stroke:none"
         id="path5248"
         inkscape:connector-curvature="0" /><path
         d="m 1602.97,309.078 c 0,1.313 0.3,2.301 0.89,2.981 0.6,0.671 1.45,1.011 2.56,1.011 1.14,0 2.02,-0.34 2.66,-1.011 0.63,-0.68 0.95,-1.668 0.95,-2.981 0,-1.269 -0.32,-2.238 -0.97,-2.93 -0.64,-0.679 -1.52,-1.019 -2.64,-1.019 -0.99,0 -1.82,0.301 -2.47,0.922 -0.66,0.609 -0.98,1.629 -0.98,3.027"
         style="fill:#000000;fill-opacity:1;fill-rule:nonzero;stroke:none"
         id="path5250"
         inkscape:connector-curvature="0" /><path
         d="m 1647.35,322.059 c 0,-5.231 -1.32,-9.321 -3.95,-12.258 -2.64,-2.942 -6.28,-4.41 -10.93,-4.41 -2.87,0 -5.42,0.668 -7.65,2.019 -2.22,1.352 -3.94,3.281 -5.15,5.801 -1.21,2.519 -1.82,5.469 -1.82,8.848 0,5.23 1.31,9.312 3.93,12.23 2.61,2.922 6.25,4.383 10.89,4.383 4.5,0 8.07,-1.492 10.71,-4.481 2.65,-2.992 3.97,-7.031 3.97,-12.132 z m -24.46,0 c 0,-4.098 0.82,-7.231 2.46,-9.368 1.64,-2.152 4.05,-3.23 7.24,-3.23 3.18,0 5.6,1.07 7.25,3.211 1.65,2.137 2.47,5.269 2.47,9.387 0,4.082 -0.82,7.179 -2.47,9.3 -1.65,2.121 -4.09,3.18 -7.31,3.18 -3.19,0 -5.59,-1.039 -7.21,-3.129 -1.62,-2.09 -2.43,-5.211 -2.43,-9.351"
         style="fill:#000000;fill-opacity:1;fill-rule:nonzero;stroke:none"
         id="path5252"
         inkscape:connector-curvature="0" /><path
         d="m 1670.53,338.672 c 1.42,0 2.7,-0.121 3.83,-0.352 l -0.67,-4.511 c -1.33,0.293 -2.5,0.441 -3.52,0.441 -2.59,0 -4.81,-1.059 -6.66,-3.172 -1.85,-2.109 -2.77,-4.726 -2.77,-7.879 V 305.98 h -4.86 v 32.11 h 4.01 l 0.56,-5.949 h 0.23 c 1.19,2.089 2.63,3.699 4.31,4.828 1.68,1.133 3.52,1.703 5.54,1.703"
         style="fill:#000000;fill-opacity:1;fill-rule:nonzero;stroke:none"
         id="path5254"
         inkscape:connector-curvature="0" /><path
         d="m 1706.06,338.09 v -3.078 l -5.94,-0.703 c 0.54,-0.688 1.03,-1.579 1.46,-2.68 0.43,-1.109 0.65,-2.348 0.65,-3.738 0,-3.141 -1.08,-5.653 -3.23,-7.532 -2.15,-1.871 -5.1,-2.808 -8.85,-2.808 -0.95,0 -1.85,0.078 -2.69,0.23 -2.07,-1.09 -3.11,-2.472 -3.11,-4.133 0,-0.878 0.37,-1.527 1.09,-1.949 0.72,-0.418 1.96,-0.629 3.72,-0.629 h 5.68 c 3.48,0 6.15,-0.73 8.02,-2.191 1.86,-1.469 2.79,-3.598 2.79,-6.391 0,-3.547 -1.42,-6.258 -4.27,-8.129 -2.86,-1.871 -7.02,-2.8 -12.48,-2.8 -4.2,0 -7.44,0.781 -9.72,2.351 -2.27,1.559 -3.41,3.77 -3.41,6.621 0,1.949 0.63,3.641 1.88,5.071 1.25,1.418 3,2.386 5.27,2.898 -0.82,0.371 -1.51,0.941 -2.07,1.719 -0.55,0.793 -0.83,1.691 -0.83,2.73 0,1.172 0.31,2.199 0.94,3.071 0.62,0.878 1.61,1.73 2.95,2.55 -1.66,0.692 -3.01,1.852 -4.05,3.489 -1.05,1.64 -1.57,3.519 -1.57,5.632 0,3.508 1.05,6.219 3.16,8.118 2.11,1.91 5.1,2.863 8.97,2.863 1.68,0 3.19,-0.192 4.54,-0.582 z m -25.6,-37.5 c 0,-1.738 0.73,-3.059 2.19,-3.961 1.47,-0.899 3.57,-1.348 6.3,-1.348 4.09,0 7.11,0.61 9.07,1.828 1.96,1.219 2.95,2.879 2.95,4.969 0,1.742 -0.54,2.942 -1.62,3.621 -1.07,0.672 -3.09,1.012 -6.06,1.012 h -5.83 c -2.21,0 -3.93,-0.531 -5.16,-1.582 -1.23,-1.059 -1.84,-2.57 -1.84,-4.539 z m 2.63,27.211 c 0,-2.242 0.64,-3.942 1.91,-5.102 1.27,-1.148 3.04,-1.719 5.3,-1.719 4.75,0 7.12,2.301 7.12,6.911 0,4.82 -2.4,7.238 -7.21,7.238 -2.28,0 -4.04,-0.617 -5.27,-1.848 -1.23,-1.23 -1.85,-3.062 -1.85,-5.48"
         style="fill:#000000;fill-opacity:1;fill-rule:nonzero;stroke:none"
         id="path5256"
         inkscape:connector-curvature="0" /><path
         d="m 1395.18,1010.14 c 10.75,0.14 19.93,11.98 20.29,22.95 -0.07,10.96 -8.93,21.32 -19.9,20.97 L 1250,1049.38 c -11.41,0.07 -16.82,3.47 -19.96,9.67 -2.93,6.42 -10.17,16.31 -20.47,18.33 -21.88,4.46 -43.86,-1.27 -43.86,-1.27 l 3.68,-26.04 c 0,0 22.32,1.18 24.68,0.57 3.44,-0.39 13.26,-0.7 9.84,-16.01 -3.21,-15.53 -12.48,-16.61 -15.27,-16.01 -2.36,0.62 -22.22,4.04 -22.22,4.04 l -7.65,-24.07 c 0,0 35.86,-9.262 38.23,-9.442 15.91,-0.66 26.71,12.172 32.19,20.632 5.04,7.6 8.5,8.5 18.83,9.07 z m 0.36,12.37 -10.19,10.19 10.24,10.24 10.41,-9.97 -10.46,-10.46"
         style="fill:#000000;fill-opacity:1;fill-rule:nonzero;stroke:none"
         id="path5258"
         inkscape:connector-curvature="0" /><path
         d="m 1390.75,1197.93 c -19.02,19.02 -49.98,19.03 -69,0.01 -19.02,-19.02 -19.01,-49.98 0.01,-69 19.02,-19.02 49.96,-19.01 68.98,0.01 19.02,19.02 19.03,49.96 0.01,68.98 z m -118.89,-23.33 0.19,-22.74 -48.29,-8.1 -58.28,3.3 c -6.5,-0.11 -12.02,13.82 -12.02,13.82 0,0 5.01,14.11 11.53,14.23 l 58.77,7.14 z m 21.26,2.23 c 2.49,11.83 8.32,23.09 17.49,32.25 25.17,25.17 66.11,25.18 91.29,0 25.17,-25.17 25.17,-66.12 0,-91.29 -25.17,-25.17 -66.12,-25.17 -91.29,0 -8.48,8.48 -14.1,18.75 -16.87,29.6 -0.6,-0.08 -11.71,3.38 -11.71,3.38 l -0.07,24.2 c 0,0 10.91,1.88 11.16,1.86 z m 23.64,-10.53 c -0.04,-0.63 -0.06,-1.27 -0.08,-1.92 l 0.64,-0.63 h 2 z m 0.42,3.77 c -0.09,-0.57 -0.17,-1.16 -0.23,-1.75 l 4.57,-4.57 h 1.99 z m 1.69,6.7 c -0.17,-0.5 -0.34,-0.99 -0.48,-1.5 l 11.52,-11.52 h 1.97 z m 1.18,3.01 c -0.2,-0.47 -0.4,-0.93 -0.59,-1.41 l 14.62,-14.62 h 1.98 z m 1.36,2.8 c -0.23,-0.43 -0.46,-0.86 -0.68,-1.31 l 17.52,-17.52 h 2 z m 1.55,2.64 c -0.26,-0.4 -0.51,-0.82 -0.76,-1.24 l 20.25,-20.23 h 1.99 z m 1.72,2.47 c -0.27,-0.38 -0.55,-0.76 -0.83,-1.17 l 22.79,-22.77 h 1.98 z m 1.9,2.31 c -0.31,-0.36 -0.62,-0.72 -0.92,-1.09 l 25.16,-25.16 h 1.99 z m 2.03,2.15 c -0.34,-0.33 -0.67,-0.67 -1,-1.01 l 27.4,-27.39 h 1.99 z m 4.52,3.83 c -0.38,-0.28 -0.76,-0.56 -1.13,-0.85 l 31.38,-31.38 h 1.99 z m 2.52,1.69 c -0.41,-0.25 -0.83,-0.51 -1.21,-0.78 l 33.13,-33.14 h 1.98 z m 2.68,1.5 c -0.44,-0.21 -0.87,-0.46 -1.3,-0.69 l 34.72,-34.73 h 1.99 z m 2.85,1.32 c -0.46,-0.2 -0.93,-0.4 -1.38,-0.6 l 36.14,-36.14 h 1.99 z m 3.07,1.13 c -0.5,-0.15 -0.99,-0.32 -1.49,-0.51 l 37.37,-37.36 h 1.98 z m 3.27,0.92 c -0.53,-0.13 -1.07,-0.27 -1.59,-0.41 l 38.38,-38.38 h 1.99 z m 3.55,0.63 c -0.57,-0.07 -1.14,-0.17 -1.72,-0.26 l 39.15,-39.16 h 1.98 z m 3.85,0.34 c -0.64,-0.03 -1.26,-0.06 -1.88,-0.1 l 39.65,-39.66 h 1.98 z m -37.03,-29.96 c -0.14,-0.55 -0.26,-1.07 -0.37,-1.62 l 8.17,-8.17 h 2 z m 12.9,20.6 c -0.35,-0.31 -0.71,-0.62 -1.07,-0.93 l 29.46,-29.46 h 2 z m 28.38,9.3 c -0.69,0.05 -1.38,0.08 -2.08,0.08 l 39.16,-39.16 c -0.01,0.69 -0.05,1.39 -0.08,2.07 z m 4.8,-0.62 c -0.79,0.16 -1.58,0.28 -2.37,0.39 l 34.34,-34.36 c -0.11,0.81 -0.23,1.6 -0.39,2.38 z m 5.72,-1.55 c -0.94,0.34 -1.9,0.64 -2.88,0.9 l 28.09,-28.09 c -0.26,0.97 -0.56,1.94 -0.9,2.88 z m 8.17,-3.97 c -1.42,0.92 -2.91,1.72 -4.45,2.45 l 19.07,-19.07 c -0.72,1.54 -1.55,3.03 -2.45,4.45 l -12.17,12.17"
         style="fill:#000000;fill-opacity:1;fill-rule:evenodd;stroke:none"
         id="path5260"
         inkscape:connector-curvature="0" /><text
         xml:space="preserve"
         style="font-style:normal;font-weight:normal;font-size:300px;line-height:1.25;font-family:sans-serif;letter-spacing:0px;word-spacing:0px;fill:#000000;fill-opacity:1;stroke:none;stroke-width:7.5"
         x="563.23456"
         y="-205.24777"
         id="text5352"
         transform="scale(1,-1)"><tspan
           sodipodi:role="line"
           id="tspan5350"
           x="563.23456"
           y="-205.24777"
           style="font-style:normal;font-variant:normal;font-weight:normal;font-stretch:normal;font-size:60px;font-family:'Open Sans';-inkscape-font-specification:'Open Sans';stroke-width:7.5">AA0B28294A637731AD529F34E3E838B0D4EBE62A</tspan></text>
</g></g></svg>