<?xml version="1.0" standalone="no"?>
<!DOCTYPE svg PUBLIC "-//W3C//DTD SVG 1.1//EN" "http://www.w3.org/Graphics/SVG/1.1/DTD/svg11.dtd">
<svg width="100%" height="100%" viewBox="0 0 1280 2200" version="1.1" xmlns="http://www.w3.org/2000/svg" xmlns:xlink="http://www.w3.org/1999/xlink" xml:space="preserve" style="fill-rule:evenodd;clip-rule:evenodd;stroke-linecap:round;stroke-linejoin:round;stroke-miterlimit:1.41421;">
    <g id="Layer2">
        <rect x="-13.109" y="73.109" width="1299.77" height="2140.42" style="fill:white;"/>
    </g>
    <g id="Layer1">
        <g transform="matrix(1,0,0,1,-8,0)">
            <g transform="matrix(0.687754,0,0,0.687754,-138.526,33.394)">
                <circle cx="300.235" cy="181.934" r="30.619" style="fill:none;stroke-width:5.82px;stroke:rgb(206,206,206);"/>
            </g>
            <g transform="matrix(1,0,0,1,-444.457,-72.0191)">
                <text x="553.785px" y="237.533px" style="font-family:Open Sans;font-size:24px;font-weight:700;fill:black;">Data Collection</text>
            </g>
            <g transform="matrix(1,0,0,1,-229.696,-13.9349)">
                <text x="292.249px" y="181.545px" style="font-family:League Spartan;font-size:24px;font-weight:700;fill:black;">1</text>
            </g>
            <g transform="matrix(1.12548,0,0,1,-153.673,-888.299)">
                <path d="M414.092,1043.4L1240.64,1043.4" style="fill:none;stroke-width:3.76px;stroke-dasharray:3.76,11.27,0,0;stroke:rgb(206,206,206);"/>
            </g>
        </g>
        <g transform="matrix(1.91239,0,0,0.708826,-862.29,-430.957)">
            <rect x="450.712" y="606.751" width="503.026" height="117.49" style="fill:black;"/>
        </g>
        <g transform="matrix(0.685619,0,0,0.403479,-228.496,482.537)">
            <rect x="399.625" y="648.318" width="624.042" height="410.453" style="fill:rgb(206,206,206);"/>
        </g>
        <g transform="matrix(0.576601,0,0,0.403479,641.383,482.03)">
            <rect x="399.625" y="648.318" width="624.042" height="410.453" style="fill:rgb(206,206,206);"/>
        </g>
        <g transform="matrix(0.430201,0,0,0.403479,365.909,482.537)">
            <rect x="399.625" y="648.318" width="624.042" height="410.453" style="fill:rgb(206,206,206);"/>
        </g>
        <g transform="matrix(1,0,0,1,-488.185,570.912)">
            <text x="553.785px" y="237.533px" style="font-family:Open Sans;font-size:36px;font-weight:700;fill:black;">Sno<tspan x="618.842px 649.656px " y="237.533px 237.533px ">wd</tspan>en Documents</text>
        </g>
        <g transform="matrix(1,0,0,1,-349.092,631.265)">
            <text x="553.785px" y="237.533px" style="font-family:Arial;font-size:24px;fill:black;">PDFs + URLs</text>
        </g>
        <g transform="matrix(1,0,0,1,345.055,1244.99)">
            <text x="495.768px" y="237.533px" style="font-family:Open Sans;font-size:36px;font-weight:700;fill:black;">Intuitive + Robust </text>
            <text x="573.367px" y="282.533px" style="font-family:Open Sans;font-size:36px;font-weight:700;fill:black;">Interface</text>
        </g>
        <g transform="matrix(1,0,0,1,235.081,1856.16)">
            <text x="497.728px" y="237.533px" style="font-family:Open Sans;font-size:36px;font-weight:700;fill:black;">T<tspan x="516.783px 532.41px 554.154px " y="237.533px 237.533px 237.533px ">rad</tspan>itional Media</text>
        </g>
        <g transform="matrix(1,0,0,1,236.081,1792.41)">
            <text x="564.173px" y="237.533px" style="font-family:Open Sans;font-size:36px;font-weight:700;fill:black;">WikiLeaks</text>
        </g>
        <g transform="matrix(1,0,0,1,30.0047,630.789)">
            <text x="553.785px" y="237.533px" style="font-family:Arial;font-size:24px;fill:black;">Raw JSON Data</text>
        </g>
        <g transform="matrix(1,0,0,1,35.274,570.436)">
            <text x="553.785px" y="237.533px" style="font-family:Open Sans;font-size:36px;font-weight:700;fill:black;">ICW<tspan x="622.006px 644.33px 664.457px 687.397px " y="237.533px 237.533px 237.533px 237.533px ">ATCH</tspan></text>
        </g>
        <g transform="matrix(0.430201,0,0,0.232156,365.671,219.479)">
            <rect x="399.625" y="648.318" width="624.042" height="410.453" style="fill:rgb(206,206,206);"/>
        </g>
        <g transform="matrix(1,0,0,1,29.3196,173.321)">
            <text x="559.123px" y="237.533px" style="font-family:Arial;font-size:24px;fill:black;">Scraping Public </text>
            <text x="568.451px" y="267.533px" style="font-family:Arial;font-size:24px;fill:black;">LinkedIn Data</text>
        </g>
        <g transform="matrix(1,0,0,1,403.254,172.909)">
            <text x="609.819px" y="237.533px" style="font-family:Arial;font-size:24px;fill:black;">Public </text>
            <text x="547.111px" y="267.533px" style="font-family:Arial;font-size:24px;fill:black;">Released Dataset</text>
        </g>
        <g transform="matrix(0.30996,0,0,0.232156,-74.0907,219.479)">
            <rect x="399.625" y="648.318" width="624.042" height="410.453" style="fill:rgb(206,206,206);"/>
        </g>
        <g transform="matrix(1,0,0,1,-496.011,173.321)">
            <text x="589.135px" y="237.533px" style="font-family:Arial;font-size:24px;fill:black;">Download </text>
            <text x="589.832px" y="267.533px" style="font-family:Arial;font-size:24px;fill:black;">PDF Files</text>
        </g>
        <g transform="matrix(0.30996,0,0,0.232156,151.249,219.479)">
            <rect x="399.625" y="648.318" width="624.042" height="410.453" style="fill:rgb(206,206,206);"/>
        </g>
        <g transform="matrix(1,0,0,1,-270.671,173.321)">
            <text x="603.819px" y="237.533px" style="font-family:Arial;font-size:24px;fill:black;">Record </text>
            <text x="603.162px" y="267.533px" style="font-family:Arial;font-size:24px;fill:black;">Articles</text>
        </g>
        <g transform="matrix(1,0,0,1,433.608,630.282)">
            <text x="553.785px" y="237.533px" style="font-family:Arial;font-size:24px;fill:black;">200 GB Email</text>
        </g>
        <g transform="matrix(1,0,0,1,350.328,1364.33)">
            <text x="573.139px" y="237.533px" style="font-family:Arial;font-size:24px;fill:black;">Full text search </text>
            <text x="557.108px" y="285.533px" style="font-family:Arial;font-size:24px;fill:black;">T<tspan x="569.108px 582.455px " y="285.533px 285.533px ">ag</tspan> based ﬁltering </text>
            <text x="549.789px" y="333.533px" style="font-family:Arial;font-size:24px;fill:black;">Force-graph search </text>
            <text x="594.467px" y="381.533px" style="font-family:Arial;font-size:24px;fill:black;">Themeable</text>
        </g>
        <g transform="matrix(1,0,0,1,350.328,1364.33)">
            <text x="573.139px" y="237.533px" style="font-family:Arial;font-size:24px;fill:black;">Full text search </text>
            <text x="557.108px" y="285.533px" style="font-family:Arial;font-size:24px;fill:black;">T<tspan x="569.108px 582.455px " y="285.533px 285.533px ">ag</tspan> based ﬁltering </text>
            <text x="549.789px" y="333.533px" style="font-family:Arial;font-size:24px;fill:black;">Force-graph search </text>
            <text x="594.467px" y="381.533px" style="font-family:Arial;font-size:24px;fill:black;">Themeable</text>
        </g>
        <g transform="matrix(1,0,0,1,354.808,1111.23)">
            <text x="574.453px" y="237.533px" style="font-family:Arial;font-size:20px;fill:rgb(206,206,206);">(used as stopgap)</text>
        </g>
        <g transform="matrix(1,0,0,1,375.767,569.929)">
            <text x="553.785px" y="237.533px" style="font-family:Open Sans;font-size:36px;font-weight:700;fill:black;">Hacking T<tspan x="726.578px 747.848px " y="237.533px 237.533px ">ea</tspan>m</text>
        </g>
        <g transform="matrix(0.631466,0,0,0.707844,679.231,-430.304)">
            <rect x="450.712" y="606.751" width="503.026" height="117.49" style="fill:black;"/>
        </g>
        <g transform="matrix(0.613237,0,0,0.613237,873.152,-147.161)">
            <text x="291.616px" y="296.449px" style="font-family:League Spartan;font-size:40px;font-weight:700;fill:white;">TRAN<tspan x="407.696px 434.576px 458.656px " y="296.449px 296.449px 296.449px ">SPA</tspan>REN<tspan x="573.616px " y="296.449px ">C</tspan>Y</text>
        </g>
        <g transform="matrix(0.613237,0,0,0.613237,872.055,-116.49)">
            <text x="291.616px" y="296.449px" style="font-family:League Spartan;font-size:40px;font-weight:700;fill:white;">T<tspan x="314.176px " y="296.449px ">O</tspan>OLKI<tspan x="448.816px " y="296.449px ">T</tspan></text>
        </g>
        <g transform="matrix(0.531309,0.531309,-0.531309,0.531309,576.966,839.539)">
            <g transform="matrix(0.367474,0,0,0.367474,198.898,457.11)">
                <path d="M111.349,152.783L129.949,171.072L97.346,216.819L47.39,261.411C42.209,266.782 26.428,259.961 26.428,259.961C26.428,259.961 19.048,244.441 24.241,239.059L66.116,185.59L111.349,152.783Z" style="fill:black;fill-rule:nonzero;"/>
            </g>
            <g transform="matrix(0.432589,0,0,0.432589,192.288,445.775)">
                <path d="M122.986,139.793C116.552,129.926 112.81,118.151 112.81,105.519C112.81,70.825 141.021,42.608 175.721,42.608C210.409,42.608 238.632,70.825 238.632,105.519C238.632,140.206 210.408,168.429 175.721,168.429C164.035,168.429 153.085,165.228 143.701,159.657C143.339,160.121 133.305,165.395 133.305,165.395L116.571,148.771C116.571,148.771 122.799,139.954 122.986,139.793ZM175.721,57.973C149.506,57.973 128.164,79.304 128.164,105.519C128.164,131.734 149.506,153.064 175.721,153.064C201.936,153.064 223.255,131.734 223.255,105.519C223.255,79.304 201.936,57.973 175.721,57.973Z" style="fill:black;"/>
            </g>
            <g transform="matrix(-0.371436,-0.371436,0.371436,-0.371436,348.245,704.151)">
                <path d="M426.091,181.084C426.128,180.536 426.153,179.976 426.153,179.416L394.721,210.848C395.281,210.835 395.841,210.81 396.389,210.786L426.091,181.084ZM425.593,184.941C425.717,184.307 425.817,183.672 425.904,183.037L398.33,210.599C398.977,210.512 399.612,210.412 400.234,210.288L425.593,184.941ZM424.349,189.533C424.622,188.774 424.859,188.002 425.07,187.218L402.523,209.765C403.307,209.554 404.079,209.317 404.838,209.044L424.349,189.533ZM426.14,177.674C426.115,177.164 426.091,176.666 426.053,176.169L394.224,207.986L394.224,209.579L426.14,177.674ZM421.163,196.09C421.897,194.945 422.544,193.751 423.129,192.519L407.824,207.824C409.056,207.239 410.25,206.58 411.395,205.858L421.163,196.09ZM425.867,174.588C425.804,174.128 425.73,173.668 425.655,173.207L394.224,204.626L394.224,206.219L425.867,174.588ZM425.356,171.739C425.257,171.316 425.145,170.88 425.033,170.457L394.224,201.267L394.224,202.859L425.356,171.739ZM424.622,169.113C424.498,168.715 424.361,168.317 424.212,167.919L394.224,197.907L394.224,199.5L424.622,169.113ZM423.714,166.65C423.552,166.276 423.39,165.903 423.229,165.542L394.224,194.547L394.224,196.14L423.714,166.65ZM422.656,164.36C422.482,164.012 422.283,163.663 422.096,163.315L394.224,191.188L394.224,192.78L422.656,164.36ZM421.449,162.208C421.25,161.884 421.039,161.548 420.827,161.237L394.224,187.828L394.224,189.421L421.449,162.208ZM420.093,160.192C419.869,159.881 419.645,159.582 419.409,159.283L394.224,184.468L394.224,186.061L420.093,160.192ZM418.625,158.313C418.376,158.027 418.127,157.74 417.878,157.454L394.236,181.096L394.236,182.701L418.625,158.313ZM417.02,156.558C416.758,156.285 416.484,156.023 416.211,155.762L394.224,177.749L394.224,179.342L417.02,156.558ZM415.29,154.928C415.004,154.679 414.718,154.431 414.419,154.194L394.224,174.389L394.224,175.982L415.29,154.928ZM413.436,153.41C413.137,153.186 412.826,152.962 412.503,152.738L394.224,171.03L394.224,172.622L413.436,153.41ZM411.457,152.029C411.134,151.818 410.798,151.618 410.462,151.419L394.224,167.67L394.224,169.263L411.457,152.029ZM409.342,150.785C408.994,150.598 408.645,150.411 408.284,150.237L394.224,164.298L394.224,165.903L409.342,150.785ZM407.09,149.69C406.717,149.528 406.343,149.366 405.958,149.217L394.224,160.951L394.224,162.544L407.09,149.69ZM404.676,148.744C404.278,148.607 403.88,148.47 403.469,148.358L394.224,157.604L394.224,159.184L404.676,148.744ZM402.088,147.96C401.652,147.848 401.229,147.749 400.794,147.661L394.236,154.219L394.236,155.824L402.088,147.96ZM399.3,147.388C398.84,147.313 398.367,147.251 397.894,147.201L394.224,150.872L394.224,152.465L399.3,147.388ZM396.277,147.052C395.767,147.014 395.256,147.002 394.734,146.99L394.224,147.5L394.224,149.105L396.277,147.052Z" style="fill:black;"/>
            </g>
        </g>
        <path d="M1281.76,82.158L-3.245,82.158" style="fill:none;stroke-width:1px;stroke:black;"/>
        <g transform="matrix(0.870342,0,0,0.870342,38.9852,1054.66)">
            <text x="291.616px" y="296.449px" style="font-family:League Spartan;font-size:40px;font-weight:700;fill:black;">LOOKING GL<tspan x="561.656px 592.216px 618.296px " y="296.449px 296.449px 296.449px ">ASS</tspan></text>
        </g>
        <g transform="matrix(0.870342,0,0,0.870342,46.9019,1781.72)">
            <text x="291.616px" y="296.449px" style="font-family:League Spartan;font-size:40px;font-weight:700;fill:black;">TRAN<tspan x="407.696px 434.576px 458.656px " y="296.449px 296.449px 296.449px ">SPA</tspan>REN<tspan x="573.616px " y="296.449px ">C</tspan>Y </text>
            <text x="291.616px" y="336.449px" style="font-family:League Spartan;font-size:40px;font-weight:700;fill:black;">T<tspan x="314.176px " y="336.449px ">O</tspan>OLKI<tspan x="448.816px " y="336.449px ">T</tspan></text>
        </g>
        <g transform="matrix(0.870342,0,0,0.870342,83.2566,68.0646)">
            <text x="291.616px" y="296.449px" style="font-family:League Spartan;font-size:40px;font-weight:700;fill:black;">DIGGERS</text>
        </g>
        <g transform="matrix(0.870342,0,0,0.870342,623.565,1055.03)">
            <text x="291.616px" y="296.449px" style="font-family:League Spartan;font-size:40px;font-weight:700;fill:rgb(206,206,206);">ARCHI<tspan x="421.136px " y="296.449px ">V</tspan>E PILE</text>
        </g>
        <g transform="matrix(0.870342,0,0,0.870342,-233.117,-189.972)">
            <text x="291.616px" y="296.449px" style="font-family:Open Sans;font-size:20.682px;font-weight:600;fill:white;">For investigative journalism &amp; open sour<tspan x="694.401px 704.64px " y="296.449px 296.449px ">ce</tspan> intelligence analysis</text>
        </g>
        <g transform="matrix(0.870342,0,0,0.870342,-234.78,-212.072)">
            <text x="291.616px" y="296.449px" style="font-family:League Spartan;font-size:41.363px;font-weight:700;fill:white;">OUR <tspan x="397.588px 420.917px " y="296.449px 296.449px ">TO</tspan>OLS</text>
        </g>
        <g transform="matrix(0.450985,0,0,0.450985,967.939,-1.10993)">
            <g transform="matrix(0.542286,0.542286,0.581457,-0.581457,39.9194,132.015)">
                <path d="M90.814,82.588C94.778,86.555 93.782,94.205 89.819,98.331C85.696,102.296 78.517,102.845 74.553,98.72L21.927,44.017C17.638,39.891 14.347,39.161 10.856,40.271C7.365,41.541 0.965,42.51 -3.637,39.494C-13.472,33.15 -19.546,23.063 -19.546,23.063L-8.441,14.921C-8.441,14.921 -0.547,23.477 0.564,24.113C1.994,25.223 5.777,28.69 10.219,21.867C14.821,15.044 11.764,11.277 10.494,10.482C9.382,9.847 0.687,3.862 0.687,3.862L6.819,-7.689C6.819,-7.689 23.675,1.999 24.626,2.793C30.817,8.346 30.056,16.949 28.945,22.026C27.988,26.628 28.945,28.214 32.59,32.181L90.814,82.588ZM86.328,87.225L78.714,87.225L78.714,94.68L86.328,94.84L86.328,87.225Z" style="fill:white;fill-rule:nonzero;"/>
            </g>
            <g transform="matrix(0.772788,0.772788,-0.772788,0.772788,300.096,-526.284)">
                <g transform="matrix(0.367474,0,0,0.367474,198.898,457.11)">
                    <path d="M111.349,152.783L129.949,171.072L97.346,216.819L47.39,261.411C42.209,266.782 26.428,259.961 26.428,259.961C26.428,259.961 19.048,244.441 24.241,239.059L66.116,185.59L111.349,152.783Z" style="fill:white;fill-rule:nonzero;"/>
                </g>
                <g transform="matrix(0.432589,0,0,0.432589,192.288,445.775)">
                    <path d="M122.986,139.793C116.552,129.926 112.81,118.151 112.81,105.519C112.81,70.825 141.021,42.608 175.721,42.608C210.409,42.608 238.632,70.825 238.632,105.519C238.632,140.206 210.408,168.429 175.721,168.429C164.035,168.429 153.085,165.228 143.701,159.657C143.339,160.121 133.305,165.395 133.305,165.395L116.571,148.771C116.571,148.771 122.799,139.954 122.986,139.793ZM175.721,57.973C149.506,57.973 128.164,79.304 128.164,105.519C128.164,131.734 149.506,153.064 175.721,153.064C201.936,153.064 223.255,131.734 223.255,105.519C223.255,79.304 201.936,57.973 175.721,57.973Z" style="fill:white;"/>
                </g>
                <g transform="matrix(-0.371436,-0.371436,0.371436,-0.371436,348.245,704.151)">
                    <path d="M426.091,181.084C426.128,180.536 426.153,179.976 426.153,179.416L394.721,210.848C395.281,210.835 395.841,210.81 396.389,210.786L426.091,181.084ZM425.593,184.941C425.717,184.307 425.817,183.672 425.904,183.037L398.33,210.599C398.977,210.512 399.612,210.412 400.234,210.288L425.593,184.941ZM424.349,189.533C424.622,188.774 424.859,188.002 425.07,187.218L402.523,209.765C403.307,209.554 404.079,209.317 404.838,209.044L424.349,189.533ZM426.14,177.674C426.115,177.164 426.091,176.666 426.053,176.169L394.224,207.986L394.224,209.579L426.14,177.674ZM421.163,196.09C421.897,194.945 422.544,193.751 423.129,192.519L407.824,207.824C409.056,207.239 410.25,206.58 411.395,205.858L421.163,196.09ZM425.867,174.588C425.804,174.128 425.73,173.668 425.655,173.207L394.224,204.626L394.224,206.219L425.867,174.588ZM425.356,171.739C425.257,171.316 425.145,170.88 425.033,170.457L394.224,201.267L394.224,202.859L425.356,171.739ZM424.622,169.113C424.498,168.715 424.361,168.317 424.212,167.919L394.224,197.907L394.224,199.5L424.622,169.113ZM423.714,166.65C423.552,166.276 423.39,165.903 423.229,165.542L394.224,194.547L394.224,196.14L423.714,166.65ZM422.656,164.36C422.482,164.012 422.283,163.663 422.096,163.315L394.224,191.188L394.224,192.78L422.656,164.36ZM421.449,162.208C421.25,161.884 421.039,161.548 420.827,161.237L394.224,187.828L394.224,189.421L421.449,162.208ZM420.093,160.192C419.869,159.881 419.645,159.582 419.409,159.283L394.224,184.468L394.224,186.061L420.093,160.192ZM418.625,158.313C418.376,158.027 418.127,157.74 417.878,157.454L394.236,181.096L394.236,182.701L418.625,158.313ZM417.02,156.558C416.758,156.285 416.484,156.023 416.211,155.762L394.224,177.749L394.224,179.342L417.02,156.558ZM415.29,154.928C415.004,154.679 414.718,154.431 414.419,154.194L394.224,174.389L394.224,175.982L415.29,154.928ZM413.436,153.41C413.137,153.186 412.826,152.962 412.503,152.738L394.224,171.03L394.224,172.622L413.436,153.41ZM411.457,152.029C411.134,151.818 410.798,151.618 410.462,151.419L394.224,167.67L394.224,169.263L411.457,152.029ZM409.342,150.785C408.994,150.598 408.645,150.411 408.284,150.237L394.224,164.298L394.224,165.903L409.342,150.785ZM407.09,149.69C406.717,149.528 406.343,149.366 405.958,149.217L394.224,160.951L394.224,162.544L407.09,149.69ZM404.676,148.744C404.278,148.607 403.88,148.47 403.469,148.358L394.224,157.604L394.224,159.184L404.676,148.744ZM402.088,147.96C401.652,147.848 401.229,147.749 400.794,147.661L394.236,154.219L394.236,155.824L402.088,147.96ZM399.3,147.388C398.84,147.313 398.367,147.251 397.894,147.201L394.224,150.872L394.224,152.465L399.3,147.388ZM396.277,147.052C395.767,147.014 395.256,147.002 394.734,146.99L394.224,147.5L394.224,149.105L396.277,147.052Z" style="fill:white;"/>
                </g>
            </g>
        </g>
        <g transform="matrix(0.130408,0,0,0.130408,974.962,1217.45)">
            <path d="M429.021,335.066L442,260L389.164,292.923L362.922,304.601L380.878,340.218L406.707,377.123L401.805,380.59L382.78,359.492L355.84,307.282L324.754,326.687L298.894,298.932L282.783,315.324L231.03,350.9L225.765,344.235L277.012,308.768L296.631,291.301L269.55,265.416L245.326,271.425L226.001,275.845L213,354.915L278.983,380.865L360.588,391.4L403.026,400L415.296,390.594L429.021,335.066Z" style="fill:rgb(206,206,206);"/>
            <path d="M305.915,285.6L327.201,314L350.801,299.484L387.074,283.227L445,249.554L367.077,234L354.146,253.444L312.276,258.115L291.099,259.996L281,262.572L305.915,285.6Z" style="fill:rgb(206,206,206);"/>
            <path d="M351.692,134.898L332.277,16L271.085,92.216L238.342,123.068L283.211,167.197L340.382,209.21L334.908,216.904L295.935,195.058L229.284,130.699L193.31,175.598L140.789,147.291L125.436,180.023L67.255,259.646L56.027,252.368L113.519,173.168L133.544,137.028L80.174,112.128L15,66.466L21.196,149.947L42.654,274.865L153.508,280L279.564,254.118L346.718,245.323L360,224.98L351.692,134.898Z" style="fill:rgb(206,206,206);"/>
            <path d="M142.807,124.605L188.802,156L216.288,122.372L261.59,79.66L330,0L185.764,18.585L86.894,33.859L12,50.539L85.676,98.914L142.807,124.605Z" style="fill:rgb(206,206,206);"/>
            <path d="M554.787,16L472.258,30.726L389.499,47.986L359,52.837L373.65,132.076L388.745,202L444.348,189.295L530.521,174.161L583,162.463L571.718,113.608L554.787,16ZM506.173,143.134L507,147.926L477.725,152.479L415.158,164L414.27,158.768L413,153.425L437.76,147.943L438.103,147.885L477.612,141.879L505.57,138L506.173,143.134ZM411.008,135.579L411,131.56L442.965,125.066L474.288,119.554L489.118,116.362L501.882,114L503,122.589L487.417,126.138L442.927,133.756L412.632,140L411.008,135.579ZM497.924,94.616L499,99.365L467.786,105.225L433.994,110.238L406.477,115L404,106.132L468.475,94.632L497.493,90L497.924,94.616ZM551,58.909L524.443,63L520.719,50.568L519,35.591L531.193,34.089L546.466,31L550.106,44.992L551,58.909Z" style="fill:rgb(206,206,206);"/>
        </g>
        <g transform="matrix(1,0,0,1,-275.997,733.74)">
            <rect x="399.625" y="648.318" width="624.042" height="410.453" style="fill:rgb(206,206,206);"/>
        </g>
        <g transform="matrix(1,0,0,1,-30.5776,67.3511)">
            <g transform="matrix(-1,0,0,1,498.267,129.145)">
                <path d="M95.833,77.778L90.131,63.268C90.023,63.052 89.86,62.868 89.659,62.734C89.659,62.734 83.49,58.796 81.945,56.945C80.55,55.273 79.167,51.389 77.631,49.38C77.166,48.77 75,48.611 73.611,50C73.611,50 71.815,52.778 70.833,52.778C68.055,52.778 67.555,51.416 66.394,51.416C65.278,51.416 64.081,53.783 63.889,54.166L61.359,60.287L60.277,61.441L55.034,57.247C54.778,57.044 54.472,56.943 54.167,56.943C53.759,56.943 53.356,57.122 53.082,57.464L50.787,60.334L41.607,56.4C41.533,56.025 41.385,55.661 41.149,55.33L34.722,46.331L34.722,34.722C34.722,34.703 34.718,34.687 34.717,34.668C34.673,29.14 27.76,25 22.222,25L22.221,25.002C21.844,25.002 21.461,25.075 21.095,25.238L8.595,30.793C7.79,31.151 7.202,31.87 7.012,32.73L4.234,45.23C3.901,46.728 4.845,48.211 6.342,48.543C6.546,48.588 6.747,48.61 6.947,48.61C8.22,48.61 9.368,47.73 9.655,46.434L9.798,45.79L13.194,47.245L13.194,58.592L2.748,72.956C1.629,74.495 1.961,76.644 3.482,77.778L95.833,77.778ZM47.527,64.41C47.215,64.801 47.136,65.327 47.32,65.789C47.503,66.253 47.922,66.582 48.415,66.653L54.57,67.532L52.778,69.445C52.778,69.445 48.322,70.283 47.222,70.834C44.444,72.223 44.707,73.162 44.444,73.612C43.229,75.695 40.277,77.779 40.277,77.779L32.62,77.779C33.47,77.147 34.028,76.143 34.028,75.001L34.028,61.11C34.028,60.425 33.825,59.754 33.445,59.184L30.403,54.62L35.321,56.728L36.628,58.559C37.17,59.318 38.024,59.723 38.891,59.723C39.45,59.723 40.014,59.555 40.503,59.206C40.576,59.154 40.633,59.09 40.7,59.034L48.987,62.585L47.527,64.41ZM27.778,43.056C28.112,42.546 28.603,41.892 29.168,41.182L29.168,47.221C29.168,47.8 29.349,48.365 29.685,48.835L32.212,52.374L27.583,50.39L26.389,48.599L26.389,45.833C26.567,45.078 27.353,43.705 27.778,43.056ZM12.13,35.301L18.99,32.253L13.825,43.844C13.711,44.007 13.614,44.183 13.529,44.366L10.412,43.03L12.13,35.301ZM8.365,77.041L19.476,61.763C19.907,61.169 20.14,60.454 20.14,59.721L20.14,51.744L27.084,62.161L27.084,75C27.084,76.142 27.642,77.146 28.492,77.778L7.608,77.778C7.888,77.571 8.149,77.337 8.365,77.041Z" style="fill:black;fill-rule:nonzero;"/>
            </g>
            <g transform="matrix(-1,0,0,1,498.267,129.145)">
                <circle cx="31.25" cy="18.75" r="6.25" style="fill:black;"/>
            </g>
        </g>
        <g transform="matrix(-9.34098e-17,0.508499,-1,-1.83697e-16,628.51,417.08)">
            <path d="M148.579,489.877L148.579,475.642L262.082,475.642L262.082,462.423L302.074,482.759L262.082,503.095L262.082,489.877L148.579,489.877Z" style="fill:rgb(206,206,206);"/>
        </g>
        <g transform="matrix(-9.34098e-17,0.508499,-1,-1.83697e-16,853.378,417.08)">
            <path d="M148.579,489.877L148.579,475.642L262.082,475.642L262.082,462.423L302.074,482.759L262.082,503.095L262.082,489.877L148.579,489.877Z" style="fill:rgb(206,206,206);"/>
        </g>
        <g transform="matrix(-9.34098e-17,0.508499,-1,-1.83697e-16,725.233,876.148)">
            <path d="M148.579,489.877L148.579,475.642L262.082,475.642L262.082,462.423L302.074,482.759L262.082,503.095L262.082,489.877L148.579,489.877Z" style="fill:rgb(206,206,206);"/>
        </g>
        <g transform="matrix(-9.34098e-17,0.508499,-1,-1.83697e-16,1156.46,417.08)">
            <path d="M148.579,489.877L148.579,475.642L262.082,475.642L262.082,462.423L302.074,482.759L262.082,503.095L262.082,489.877L148.579,489.877Z" style="fill:rgb(206,206,206);"/>
        </g>
        <g transform="matrix(-9.34098e-17,0.508499,-1,-1.83697e-16,1534.75,417.08)">
            <path d="M148.579,489.877L148.579,475.642L262.082,475.642L262.082,462.423L302.074,482.759L262.082,503.095L262.082,489.877L148.579,489.877Z" style="fill:rgb(206,206,206);"/>
        </g>
        <g transform="matrix(-9.34098e-17,0.508499,-1,-1.83697e-16,1156.46,886.457)">
            <path d="M148.579,489.877L148.579,475.642L262.082,475.642L262.082,462.423L302.074,482.759L262.082,503.095L262.082,489.877L148.579,489.877Z" style="fill:rgb(206,206,206);"/>
        </g>
        <g transform="matrix(-0.937614,9.33675e-17,-6.60828e-17,-0.663616,939.766,1570.75)">
            <path d="M148.579,489.877L148.579,475.642L287.681,475.642L287.681,462.423L302.074,482.759L287.681,503.095L287.681,489.877L148.579,489.877Z" style="fill:rgb(206,206,206);"/>
        </g>
        <g transform="matrix(-9.34098e-17,0.508499,-1,-1.83697e-16,1502.11,886.457)">
            <path d="M148.579,489.877L148.579,475.642L262.082,475.642L262.082,462.423L302.074,482.759L262.082,503.095L262.082,489.877L148.579,489.877Z" style="fill:rgb(206,206,206);"/>
        </g>
        <g transform="matrix(1,0,0,1,-8,65)">
            <g transform="matrix(0.687754,0,0,0.687754,-138.526,922.48)">
                <circle cx="300.235" cy="181.934" r="30.619" style="fill:none;stroke-width:5.82px;stroke:rgb(206,206,206);"/>
            </g>
            <g transform="matrix(1,0,0,1,-443.457,817.067)">
                <text x="553.785px" y="237.533px" style="font-family:Open Sans;font-size:24px;font-weight:700;fill:black;">Visualization &amp; Analysis</text>
            </g>
            <g transform="matrix(1,0,0,1,-229.696,875.151)">
                <text x="289.225px" y="181.545px" style="font-family:League Spartan;font-size:24px;font-weight:700;fill:black;">3</text>
            </g>
            <g transform="matrix(1,0,0,1,2,3)">
                <path d="M414.092,1043.4L1240.64,1043.4" style="fill:none;stroke-width:4px;stroke-dasharray:4,12,0,0;stroke:rgb(206,206,206);"/>
            </g>
        </g>
        <g transform="matrix(1,0,0,1,-8,851.82)">
            <g transform="matrix(0.687754,0,0,0.687754,-138.526,922.48)">
                <circle cx="300.235" cy="181.934" r="30.619" style="fill:none;stroke-width:5.82px;stroke:rgb(206,206,206);"/>
            </g>
            <g transform="matrix(1,0,0,1,-443.457,817.067)">
                <text x="553.785px" y="237.533px" style="font-family:Open Sans;font-size:24px;font-weight:700;fill:black;">Publication &amp; Impact</text>
            </g>
            <g transform="matrix(1,0,0,1,-229.696,875.151)">
                <text x="289.213px" y="181.545px" style="font-family:League Spartan;font-size:24px;font-weight:700;fill:black;">4</text>
            </g>
            <g transform="matrix(1.04458,0,0,1,-53.308,3)">
                <path d="M414.092,1043.4L1240.64,1043.4" style="fill:none;stroke-width:3.91px;stroke-dasharray:3.91,11.74,0,0;stroke:rgb(206,206,206);"/>
            </g>
        </g>
        <g transform="matrix(1,0,0,1,-8,34)">
            <g transform="matrix(0.687754,0,0,0.687754,-138.526,506.326)">
                <circle cx="300.235" cy="181.934" r="30.619" style="fill:none;stroke-width:5.82px;stroke:rgb(206,206,206);"/>
            </g>
            <g transform="matrix(1,0,0,1,-444.457,400.913)">
                <text x="553.785px" y="237.533px" style="font-family:Open Sans;font-size:24px;font-weight:700;fill:black;">Import &amp; Or<tspan x="696.895px 710.453px " y="237.533px 237.533px ">ga</tspan>nization</text>
            </g>
            <g transform="matrix(1,0,0,1,-229.696,458.997)">
                <text x="288.169px" y="181.545px" style="font-family:League Spartan;font-size:24px;font-weight:700;fill:black;">2</text>
            </g>
            <g transform="matrix(1.02667,0,0,1,-31.0843,-415.12)">
                <path d="M414.092,1043.4L1240.64,1043.4" style="fill:none;stroke-width:3.95px;stroke-dasharray:3.95,11.84,0,0;stroke:rgb(206,206,206);"/>
            </g>
        </g>
        <g id="path-1" transform="matrix(0.647611,0,0,0.647611,207.737,2009.14)">
            <path d="M100,77.313C100,83.485 94.657,89 89.046,89L13.208,89C3.95,89 0,84.198 0,74.338L0,28.908C0,28.908 0,23.872 4,23.872C5.426,23.872 13.82,23.872 13.82,23.872L13.82,16.036C13.82,16.036 13.82,11 18.313,11C44.807,11 69.302,11 95.797,11C100,11 100,16.036 100,16.036L100,77.313ZM13,31L7,31L7,72.12C7,78.125 8.269,81 9.881,81C11.844,81 13,78.125 13,72.12L13,31ZM83,41L59,41L59,68L83,68M90,24L27,24L27,31L90,31M33,72L50,72L50,68L33,68M33,59L50,59L50,54L33,54M50,46L50,43.699L50,41L33,41L33,46" style="fill:black;"/>
        </g>
    </g>
</svg>
