<?xml version="1.0" encoding="UTF-8" standalone="no"?>
<svg
   xmlns:dc="http://purl.org/dc/elements/1.1/"
   xmlns:cc="http://creativecommons.org/ns#"
   xmlns:rdf="http://www.w3.org/1999/02/22-rdf-syntax-ns#"
   xmlns:svg="http://www.w3.org/2000/svg"
   xmlns="http://www.w3.org/2000/svg"
   xmlns:sodipodi="http://sodipodi.sourceforge.net/DTD/sodipodi-0.dtd"
   xmlns:inkscape="http://www.inkscape.org/namespaces/inkscape"
   version="1.1"
   id="One_Stack_1_"
   x="0px"
   y="0px"
   width="256"
   height="256"
   viewBox="0 0 240.00002 240.00002"
   xml:space="preserve"
   inkscape:version="0.92.1 r15371"
   sodipodi:docname="Logo-Archive-Network-nodes.svg"><metadata
     id="metadata16"><rdf:RDF><cc:Work
         rdf:about=""><dc:format>image/svg+xml</dc:format><dc:type
           rdf:resource="http://purl.org/dc/dcmitype/StillImage" /><dc:title></dc:title></cc:Work></rdf:RDF></metadata><defs
     id="defs14" /><sodipodi:namedview
     pagecolor="#ffffff"
     bordercolor="#666666"
     borderopacity="1"
     objecttolerance="10"
     gridtolerance="10"
     guidetolerance="10"
     inkscape:pageopacity="0"
     inkscape:pageshadow="2"
     inkscape:window-width="1920"
     inkscape:window-height="1177"
     id="namedview12"
     showgrid="false"
     inkscape:zoom="0.87160328"
     inkscape:cx="116.21041"
     inkscape:cy="120.95479"
     inkscape:window-x="0"
     inkscape:window-y="23"
     inkscape:window-maximized="1"
     inkscape:current-layer="One_Stack_1_"
     showguides="false" /><rect
     style="opacity:1;fill:#ffffff;fill-opacity:1;stroke:none;stroke-width:2.61365509;stroke-miterlimit:4;stroke-dasharray:none;stroke-opacity:1"
     id="rect439"
     width="172.05397"
     height="106.3221"
     x="38.27655"
     y="74.983414" /><path
     style="fill:#000000;stroke-width:1.66818953"
     d="M 180.74609 2.4921875 L 135.23047 10.634766 L 89.410156 4.4589844 L 88.455078 11.548828 L 79.078125 11.556641 L 79.082031 20.681641 L 57.117188 22.822266 L 67.388672 80.234375 L 46.412109 80.234375 L 46.412109 73.773438 L 30.998047 73.773438 L 30.998047 89.1875 L 46.412109 89.1875 L 46.412109 83.234375 L 67.925781 83.234375 L 68.421875 86.009766 L 67.830078 90.412109 L 91.943359 90.412109 L 91.898438 24.369141 L 153.92578 24.320312 L 153.94141 52.134766 L 181.71484 52.117188 L 181.74219 90.412109 L 194.0332 90.412109 C 193.88105 89.226459 193.69118 87.775025 193.57812 86.833984 L 199.14453 62.599609 L 211.34375 62.599609 L 211.34375 68.806641 L 226.75781 68.806641 L 226.75781 53.392578 L 211.34375 53.392578 L 211.34375 59.599609 L 199.83398 59.599609 L 210.49023 13.207031 L 190.03906 10.451172 L 180.74609 2.4921875 z M 179.11719 9.6230469 L 180.30469 19.597656 L 172.49609 18.996094 L 165.0957 12.660156 L 179.11719 9.6230469 z M 187.83984 20.142578 L 200.24219 21.814453 L 195.13477 38.316406 L 185.42188 28.591797 L 187.83984 20.142578 z M 163.4082 21.998047 L 184.04688 42.642578 L 163.41797 42.650391 L 163.4082 21.998047 z M 79.087891 30.259766 L 79.103516 78.242188 L 67.583984 31.125 L 79.087891 30.259766 z M 101.84375 36.103516 L 101.84375 38.605469 L 142.7793 38.605469 L 142.7793 36.103516 L 101.84375 36.103516 z M 101.84375 49.611328 L 101.84375 52.115234 L 142.7793 52.115234 L 142.7793 49.611328 L 101.84375 49.611328 z M 101.84375 62.28125 L 101.84375 64.783203 L 173.56641 64.783203 L 173.56641 62.28125 L 101.84375 62.28125 z M 101.84375 73.970703 L 101.84375 76.472656 L 173.56641 76.472656 L 173.56641 73.970703 L 101.84375 73.970703 z "
     id="path3-5"
     transform="scale(0.93750008)" /><path
     style="fill:#000000;fill-opacity:1;stroke:none;stroke-width:2.16427588"
     d="M 36.158203 99.714844 L 36.158203 150.29688 L 18.335938 150.29688 L 18.335938 124.20312 L 24.414062 124.20312 L 24.414062 108.78711 L 9 108.78711 L 9 124.20312 L 15.335938 124.20312 L 15.335938 153.29688 L 16.335938 153.29688 L 18.335938 153.29688 L 36.158203 153.29688 L 36.158203 193 L 16.251953 193 L 16.251953 186.79297 L 0.83789062 186.79297 L 0.83789062 202.20703 L 7.0449219 202.20703 L 7.0449219 222.61523 L 0.83789062 222.61523 L 0.83789062 238.0293 L 16.251953 238.0293 L 16.251953 222.61523 L 10.044922 222.61523 L 10.044922 202.20703 L 16.251953 202.20703 L 16.251953 196 L 36.158203 196 L 36.158203 256.97656 L 225.21875 256.97656 L 225.21875 231.91602 L 240.75781 231.91602 L 240.75781 238.12305 L 256.17188 238.12305 L 256.17188 222.70898 L 240.75781 222.70898 L 240.75781 228.91602 L 225.21875 228.91602 L 225.21875 154.98047 L 241.83789 154.98047 L 241.83789 163.64844 L 235.63086 163.64844 L 235.63086 179.0625 L 251.04492 179.0625 L 251.04492 163.64844 L 244.83789 163.64844 L 244.83789 125.56836 L 251.04492 125.56836 L 251.04492 110.1543 L 235.63086 110.1543 L 235.63086 125.56836 L 241.83789 125.56836 L 241.83789 151.98047 L 225.21875 151.98047 L 225.21875 99.71875 L 36.158203 99.714844 z M 104.7207 136.50781 L 104.74219 166.79102 L 157.64453 166.79102 L 157.68164 136.50781 L 174.83594 136.54102 L 174.83594 183.59766 L 88.263672 183.59766 L 88.263672 136.54102 L 104.7207 136.50781 z M 122.35156 200.61523 L 140.75195 200.61523 L 140.75195 219.01562 L 122.35156 219.01562 L 122.35156 200.61523 z "
     transform="scale(0.93750008)"
     id="path6-0" /></svg>