<?xml version="1.0" encoding="UTF-8" standalone="no"?>
<svg
   xmlns:dc="http://purl.org/dc/elements/1.1/"
   xmlns:cc="http://creativecommons.org/ns#"
   xmlns:rdf="http://www.w3.org/1999/02/22-rdf-syntax-ns#"
   xmlns:svg="http://www.w3.org/2000/svg"
   xmlns="http://www.w3.org/2000/svg"
   xmlns:sodipodi="http://sodipodi.sourceforge.net/DTD/sodipodi-0.dtd"
   xmlns:inkscape="http://www.inkscape.org/namespaces/inkscape"
   width="100px"
   height="100px"
   version="1.1"
   xml:space="preserve"
   style="fill-rule:evenodd;clip-rule:evenodd;stroke-linejoin:round;stroke-miterlimit:1.41421;"
   id="svg2"
   inkscape:version="0.48.5 r10040"
   sodipodi:docname="addresses.svg"><metadata
     id="metadata13"><rdf:RDF><cc:Work
         rdf:about=""><dc:format>image/svg+xml</dc:format><dc:type
           rdf:resource="http://purl.org/dc/dcmitype/StillImage" /></cc:Work></rdf:RDF></metadata><defs
     id="defs11" /><sodipodi:namedview
     pagecolor="#ffffff"
     bordercolor="#666666"
     borderopacity="1"
     objecttolerance="10"
     gridtolerance="10"
     guidetolerance="10"
     inkscape:pageopacity="0"
     inkscape:pageshadow="2"
     inkscape:window-width="1058"
     inkscape:window-height="1017"
     id="namedview9"
     showgrid="false"
     inkscape:zoom="2.4035737"
     inkscape:cx="45.853398"
     inkscape:cy="62.063266"
     inkscape:window-x="821"
     inkscape:window-y="25"
     inkscape:window-maximized="0"
     inkscape:current-layer="addresses" /><g
     id="g4"><g
       id="addresses"><path
         d="M 88.092408,7.2665267 88,99.7252 11.0265,99.5749 11.130512,0.41014211 76.349335,0.2296339 76.5486,86.6417 c -0.6974,0 -56.7082,-0.2142 -56.7082,-0.2142 l 0.174829,5.1008 61.123871,0 -0.100617,-80.291808 z M 49.8684,45.2157 c -0.6256,-0.7102 -0.6256,-0.7102 -0.2056,-3.3503 0.716,-2.955 1.3656,-1.1207 2.39,-7.0142 0.8592,-4.9502 -0.9756,-9.2031 -6.5504,-9.2031 -5.5733,0 -7.4097,4.2529 -6.5489,9.2031 1.0241,5.8938 1.6715,4.0592 2.3894,7.0142 0.42,2.6404 0.42,2.6404 -0.2062,3.3503 -2.9664,3.3689 -11.2474,2.058 -12.1435,6.3592 l 0,2.8475 c 0,0 -0.165,1.3319 1.8146,1.3319 9.3943,0 20.1083,0 29.529,0 1.6632,0 1.6497,-1.3319 1.6497,-1.3319 0,0 0,-1.5985 0.0135,-2.2644 -0.8968,-4.3013 -9.1632,-3.5734 -12.1316,-6.9423 z"
         style="fill:#000000"
         id="path7"
         inkscape:connector-curvature="0"
         sodipodi:nodetypes="ccccccccccccccscccccssccc" /></g></g></svg>