<?xml version="1.0" encoding="UTF-8" standalone="no"?>
<svg width="100px" height="100px" viewBox="0 0 100 100" version="1.1" xmlns="http://www.w3.org/2000/svg" xmlns:xlink="http://www.w3.org/1999/xlink" xmlns:sketch="http://www.bohemiancoding.com/sketch/ns">
    <!-- Generator: Sketch 3.3.3 (12072) - http://www.bohemiancoding.com/sketch -->
    <title>agencies</title>
    <desc>Created with Sketch.</desc>
    <defs></defs>
    <g id="Page-1" stroke="none" stroke-width="1" fill="none" fill-rule="evenodd" sketch:type="MSPage">
        <g id="agencies" sketch:type="MSArtboardGroup" fill="#000000">
            <path d="M96.0000253,88.51301 L96.0000253,84.1200095 L91.0529973,84.1200095 L91.0529973,43.1799911 L78.2290035,43.1799911 L78.2290035,84.1200095 L67.9690018,84.1200095 L67.9690018,43.1799911 L55.145008,43.1799911 L55.145008,84.1200095 L44.8850063,84.1200095 L44.8850063,43.1799911 L32.0600042,43.1799911 L32.0600042,84.1200095 L21.8000025,84.1200095 L21.8000025,43.1799911 L8.97600078,43.1799911 L8.96499948,84.1200095 L4.00000237,84.1200095 L4.00000237,88.51301 L0,88.51301 L0,97.9070129 L100,97.9070129 L100,88.51301 L96.0000253,88.51301 L96.0000253,88.51301 Z M97.4509954,32.8270201 L2.54900029,32.8270201 L2.54900029,40.2960043 L97.4509954,40.2960043 L97.4509954,32.8270201 L97.4509954,32.8270201 Z M49.998003,3 L2.54900029,29.8270094 L97.4509954,29.8270094 L49.998003,3 L49.998003,3 Z" sketch:type="MSShapeGroup"></path>
        </g>
    </g>
</svg>