<?xml version="1.0" encoding="UTF-8" standalone="no"?>
<svg
   xmlns:sketch="http://www.bohemiancoding.com/sketch/ns"
   xmlns:dc="http://purl.org/dc/elements/1.1/"
   xmlns:cc="http://creativecommons.org/ns#"
   xmlns:rdf="http://www.w3.org/1999/02/22-rdf-syntax-ns#"
   xmlns:svg="http://www.w3.org/2000/svg"
   xmlns="http://www.w3.org/2000/svg"
   xmlns:sodipodi="http://sodipodi.sourceforge.net/DTD/sodipodi-0.dtd"
   xmlns:inkscape="http://www.inkscape.org/namespaces/inkscape"
   width="100px"
   height="100px"
   viewBox="0 0 100 100"
   version="1.1"
   id="svg2"
   inkscape:version="0.91 r13725"
   sodipodi:docname="agencies.svg">
  <metadata
     id="metadata16">
    <rdf:RDF>
      <cc:Work
         rdf:about="">
        <dc:format>image/svg+xml</dc:format>
        <dc:type
           rdf:resource="http://purl.org/dc/dcmitype/StillImage" />
      </cc:Work>
    </rdf:RDF>
  </metadata>
  <sodipodi:namedview
     pagecolor="#ffffff"
     bordercolor="#666666"
     borderopacity="1"
     objecttolerance="10"
     gridtolerance="10"
     guidetolerance="10"
     inkscape:pageopacity="0"
     inkscape:pageshadow="2"
     inkscape:window-width="794"
     inkscape:window-height="480"
     id="namedview14"
     showgrid="false"
     inkscape:zoom="2.36"
     inkscape:cx="50"
     inkscape:cy="50"
     inkscape:window-x="1122"
     inkscape:window-y="27"
     inkscape:window-maximized="0"
     inkscape:current-layer="svg2" />
  <!-- Generator: Sketch 3.3.3 (12072) - http://www.bohemiancoding.com/sketch -->
  <title
     id="title4">agencies</title>
  <desc
     id="desc6">Created with Sketch.</desc>
  <defs
     id="defs8" />
  <g
     style="fill:#000000;fill-rule:evenodd;stroke:none;stroke-width:1"
     sketch:type="MSArtboardGroup"
     id="agencies">
    <path
       inkscape:connector-curvature="0"
       id="path12"
       sketch:type="MSShapeGroup"
       d="m 96.000025,88.51301 0,-4.393001 -4.947028,0 0,-40.940018 -12.823993,0 0,40.940018 -10.260002,0 0,-40.940018 -12.823994,0 0,40.940018 -10.260002,0 0,-40.940018 -12.825002,0 0,40.940018 -10.260001,0 0,-40.940018 -12.8240022,0 -0.011001,40.940018 -4.9649971,0 0,4.393001 -4.00000240000001,0 0,9.394003 99.9999997,0 0,-9.394003 -3.999975,0 0,0 z m 1.45097,-55.68599 -94.9019947,0 0,7.468984 94.9019947,0 0,-7.468984 0,0 z M 49.998003,3 2.5490003,29.827009 l 94.9019947,0 L 49.998003,3 l 0,0 z" />
  </g>
</svg>
