<?xml version="1.0" encoding="UTF-8" standalone="no"?>
<!-- Created with Inkscape (http://www.inkscape.org/) -->

<svg
   xmlns:dc="http://purl.org/dc/elements/1.1/"
   xmlns:cc="http://creativecommons.org/ns#"
   xmlns:rdf="http://www.w3.org/1999/02/22-rdf-syntax-ns#"
   xmlns:svg="http://www.w3.org/2000/svg"
   xmlns="http://www.w3.org/2000/svg"
   xmlns:sodipodi="http://sodipodi.sourceforge.net/DTD/sodipodi-0.dtd"
   xmlns:inkscape="http://www.inkscape.org/namespaces/inkscape"
   width="100"
   height="100"
   viewBox="0 0 26.458334 26.458333"
   version="1.1"
   id="svg8"
   inkscape:version="0.92.1 r15371"
   sodipodi:docname="audio.svg">
  <defs
     id="defs2">
    <symbol
       id="symbol76240">
      <title
         id="title76228">Mail Send Receive</title>
      <g
         id="g76238">
        <path
           d="M9 7V6c0-.265-.093-.53-.28-.72l-3-3L5.437 2h-.875l-.282.28-3 3C1.094 5.47 1 5.736 1 6v1h1c.265 0 .53-.093.72-.28L5 4.437l2.28 2.28c.19.19.455.282.72.282h1z"
           id="path76230" />
        <path
           d="M4 4v7h2V4H4z"
           id="path76232" />
        <path
           d="M15 8v1c0 .265-.093.53-.28.72l-3 3-.283.28h-.874l-.282-.28-3-3C7.094 9.53 7 9.264 7 9V8h1c.265 0 .53.093.72.28L11 10.563l2.28-2.28c.19-.19.455-.282.72-.282h1z"
           id="path76234" />
        <path
           d="M10 4v7h2V4h-2z"
           id="path76236" />
      </g>
    </symbol>
    <symbol
       id="icon-list"
       viewBox="0 0 28 28">
      <title
         id="title70649">list</title>
      <path
         d="M4 20.5v3c0 0.266-0.234 0.5-0.5 0.5h-3c-0.266 0-0.5-0.234-0.5-0.5v-3c0-0.266 0.234-0.5 0.5-0.5h3c0.266 0 0.5 0.234 0.5 0.5zM4 14.5v3c0 0.266-0.234 0.5-0.5 0.5h-3c-0.266 0-0.5-0.234-0.5-0.5v-3c0-0.266 0.234-0.5 0.5-0.5h3c0.266 0 0.5 0.234 0.5 0.5zM4 8.5v3c0 0.266-0.234 0.5-0.5 0.5h-3c-0.266 0-0.5-0.234-0.5-0.5v-3c0-0.266 0.234-0.5 0.5-0.5h3c0.266 0 0.5 0.234 0.5 0.5zM28 20.5v3c0 0.266-0.234 0.5-0.5 0.5h-21c-0.266 0-0.5-0.234-0.5-0.5v-3c0-0.266 0.234-0.5 0.5-0.5h21c0.266 0 0.5 0.234 0.5 0.5zM4 2.5v3c0 0.266-0.234 0.5-0.5 0.5h-3c-0.266 0-0.5-0.234-0.5-0.5v-3c0-0.266 0.234-0.5 0.5-0.5h3c0.266 0 0.5 0.234 0.5 0.5zM28 14.5v3c0 0.266-0.234 0.5-0.5 0.5h-21c-0.266 0-0.5-0.234-0.5-0.5v-3c0-0.266 0.234-0.5 0.5-0.5h21c0.266 0 0.5 0.234 0.5 0.5zM28 8.5v3c0 0.266-0.234 0.5-0.5 0.5h-21c-0.266 0-0.5-0.234-0.5-0.5v-3c0-0.266 0.234-0.5 0.5-0.5h21c0.266 0 0.5 0.234 0.5 0.5zM28 2.5v3c0 0.266-0.234 0.5-0.5 0.5h-21c-0.266 0-0.5-0.234-0.5-0.5v-3c0-0.266 0.234-0.5 0.5-0.5h21c0.266 0 0.5 0.234 0.5 0.5z"
         id="path70651" />
    </symbol>
    <symbol
       id="icon-lock"
       viewBox="0 0 18 28">
      <title
         id="title70534">lock</title>
      <path
         d="M5 12h8v-3c0-2.203-1.797-4-4-4s-4 1.797-4 4v3zM18 13.5v9c0 0.828-0.672 1.5-1.5 1.5h-15c-0.828 0-1.5-0.672-1.5-1.5v-9c0-0.828 0.672-1.5 1.5-1.5h0.5v-3c0-3.844 3.156-7 7-7s7 3.156 7 7v3h0.5c0.828 0 1.5 0.672 1.5 1.5z"
         id="path70536" />
    </symbol>
    <symbol
       id="icon-film"
       viewBox="0 0 30 28">
      <title
         id="title70414">film</title>
      <path
         d="M6 25v-2c0-0.547-0.453-1-1-1h-2c-0.547 0-1 0.453-1 1v2c0 0.547 0.453 1 1 1h2c0.547 0 1-0.453 1-1zM6 19v-2c0-0.547-0.453-1-1-1h-2c-0.547 0-1 0.453-1 1v2c0 0.547 0.453 1 1 1h2c0.547 0 1-0.453 1-1zM6 13v-2c0-0.547-0.453-1-1-1h-2c-0.547 0-1 0.453-1 1v2c0 0.547 0.453 1 1 1h2c0.547 0 1-0.453 1-1zM22 25v-8c0-0.547-0.453-1-1-1h-12c-0.547 0-1 0.453-1 1v8c0 0.547 0.453 1 1 1h12c0.547 0 1-0.453 1-1zM6 7v-2c0-0.547-0.453-1-1-1h-2c-0.547 0-1 0.453-1 1v2c0 0.547 0.453 1 1 1h2c0.547 0 1-0.453 1-1zM28 25v-2c0-0.547-0.453-1-1-1h-2c-0.547 0-1 0.453-1 1v2c0 0.547 0.453 1 1 1h2c0.547 0 1-0.453 1-1zM22 13v-8c0-0.547-0.453-1-1-1h-12c-0.547 0-1 0.453-1 1v8c0 0.547 0.453 1 1 1h12c0.547 0 1-0.453 1-1zM28 19v-2c0-0.547-0.453-1-1-1h-2c-0.547 0-1 0.453-1 1v2c0 0.547 0.453 1 1 1h2c0.547 0 1-0.453 1-1zM28 13v-2c0-0.547-0.453-1-1-1h-2c-0.547 0-1 0.453-1 1v2c0 0.547 0.453 1 1 1h2c0.547 0 1-0.453 1-1zM28 7v-2c0-0.547-0.453-1-1-1h-2c-0.547 0-1 0.453-1 1v2c0 0.547 0.453 1 1 1h2c0.547 0 1-0.453 1-1zM30 4.5v21c0 1.375-1.125 2.5-2.5 2.5h-25c-1.375 0-2.5-1.125-2.5-2.5v-21c0-1.375 1.125-2.5 2.5-2.5h25c1.375 0 2.5 1.125 2.5 2.5z"
         id="path70416" />
    </symbol>
    <symbol
       id="icon-volume-up"
       viewBox="0 0 26 28">
      <title
         id="title70559">volume-up</title>
      <path
         d="M12 5.5v17c0 0.547-0.453 1-1 1-0.266 0-0.516-0.109-0.703-0.297l-5.203-5.203h-4.094c-0.547 0-1-0.453-1-1v-6c0-0.547 0.453-1 1-1h4.094l5.203-5.203c0.187-0.187 0.438-0.297 0.703-0.297 0.547 0 1 0.453 1 1zM18 14c0 1.563-0.953 3.078-2.422 3.672-0.125 0.063-0.266 0.078-0.391 0.078-0.547 0-1-0.438-1-1 0-1.188 1.813-0.859 1.813-2.75s-1.813-1.563-1.813-2.75c0-0.562 0.453-1 1-1 0.125 0 0.266 0.016 0.391 0.078 1.469 0.578 2.422 2.109 2.422 3.672zM22 14c0 3.172-1.906 6.125-4.844 7.359-0.125 0.047-0.266 0.078-0.391 0.078-0.562 0-1.016-0.453-1.016-1 0-0.438 0.25-0.734 0.609-0.922 0.422-0.219 0.812-0.406 1.188-0.688 1.547-1.125 2.453-2.922 2.453-4.828s-0.906-3.703-2.453-4.828c-0.375-0.281-0.766-0.469-1.188-0.688-0.359-0.187-0.609-0.484-0.609-0.922 0-0.547 0.453-1 1-1 0.141 0 0.281 0.031 0.406 0.078 2.938 1.234 4.844 4.188 4.844 7.359zM26 14c0 4.797-2.859 9.141-7.266 11.031-0.125 0.047-0.266 0.078-0.406 0.078-0.547 0-1-0.453-1-1 0-0.453 0.234-0.703 0.609-0.922 0.219-0.125 0.469-0.203 0.703-0.328 0.438-0.234 0.875-0.5 1.281-0.797 2.562-1.891 4.078-4.875 4.078-8.062s-1.516-6.172-4.078-8.062c-0.406-0.297-0.844-0.562-1.281-0.797-0.234-0.125-0.484-0.203-0.703-0.328-0.375-0.219-0.609-0.469-0.609-0.922 0-0.547 0.453-1 1-1 0.141 0 0.281 0.031 0.406 0.078 4.406 1.891 7.266 6.234 7.266 11.031z"
         id="path70561" />
    </symbol>
  </defs>
  <sodipodi:namedview
     id="base"
     pagecolor="#ffffff"
     bordercolor="#666666"
     borderopacity="1.0"
     inkscape:pageopacity="0.0"
     inkscape:pageshadow="2"
     inkscape:zoom="3.128125"
     inkscape:cx="59.078715"
     inkscape:cy="73.934562"
     inkscape:document-units="px"
     inkscape:current-layer="use88386"
     showgrid="false"
     units="px"
     showguides="true"
     inkscape:guide-bbox="true"
     inkscape:window-width="1366"
     inkscape:window-height="744"
     inkscape:window-x="0"
     inkscape:window-y="24"
     inkscape:window-maximized="1" />
  <metadata
     id="metadata5">
    <rdf:RDF>
      <cc:Work
         rdf:about="">
        <dc:format>image/svg+xml</dc:format>
        <dc:type
           rdf:resource="http://purl.org/dc/dcmitype/StillImage" />
        <dc:title></dc:title>
      </cc:Work>
    </rdf:RDF>
  </metadata>
  <g
     inkscape:label="Layer 1"
     inkscape:groupmode="layer"
     id="layer1"
     transform="translate(0,-270.54167)">
    <g
       id="use85069"
       style="fill:#000000;stroke:none"
       transform="matrix(1.7427093,0,0,1.7427093,-1.4416843,268.85365)">
      <title
         id="title85091">Mail Send Receive</title>
      <g
         id="g85101">
        <g
           id="use88230"
           style="fill:#000000;stroke:none"
           transform="matrix(0.38715534,0,0,0.38715534,4.1725855,4.1371815)">
          <title
             id="title88244">list</title>
          <g
             id="use88280"
             style="fill:#000000;stroke:none"
             transform="matrix(1.2961365,0,0,1.2961365,-7.9941489,-9.3572052)">
            <title
               id="title88294">lock</title>
            <g
               id="use88336"
               style="fill:#000000;stroke:none"
               transform="matrix(0.94115476,0,0,0.94115476,0.33460606,2.9811904)">
              <title
                 id="title88350">film</title>
              <g
                 id="use88386"
                 style="fill:#000000;stroke:none"
                 transform="matrix(1.028382,0,0,1.028382,0.25691845,0.53156166)">
                <title
                   id="title88400">volume-up</title>
                <path
                   style="stroke-width:1.36363471"
                   d="M 16.354754,1.0496986 6.9374803,8.0386021 H -0.35026915 V 18.947467 H 6.9374803 l 9.4172737,6.988903 z m 5.151753,0.6379338 c -0.581286,0 -1.062783,0.4814966 -1.062783,1.0627828 0,0.4813944 0.248664,0.7469334 0.647169,0.9796606 0.232728,0.1328352 0.49812,0.2154888 0.746785,0.3483237 0.464393,0.2497297 0.930181,0.5314559 1.36163,0.8470597 2.722587,2.0084665 4.333595,5.1808128 4.333595,8.5675748 0,3.386764 -1.611008,6.557386 -4.333595,8.566915 -0.431449,0.315615 -0.896174,0.598393 -1.36163,0.847061 -0.248665,0.132835 -0.514057,0.216147 -0.746785,0.348983 -0.398505,0.232727 -0.647169,0.498265 -0.647169,0.97966 0,0.581286 0.481497,1.062783 1.062783,1.062783 0.148777,0 0.29861,-0.03317 0.431447,-0.08312 4.683234,-2.008469 7.721174,-6.6246 7.721174,-11.72228 0,-5.097677 -3.039003,-9.7127502 -7.721174,-11.7222794 -0.132837,-0.049947 -0.281608,-0.083122 -0.431447,-0.083122 z M 19.828221,5.587802 c -0.581286,0 -1.062784,0.4814967 -1.062784,1.062783 0,0.465454 0.265666,0.7809392 0.64717,0.9796604 0.448451,0.2327272 0.860762,0.4369512 1.262673,0.7309518 1.640594,1.2001415 2.606491,3.1050498 2.606491,5.1305178 0,2.02547 -0.962523,3.935002 -2.606491,5.130518 -0.399566,0.299674 -0.814222,0.498883 -1.262673,0.731611 -0.381504,0.199784 -0.64717,0.514207 -0.64717,0.979661 0,0.581286 0.482711,1.062782 1.079936,1.062782 0.132837,0 0.28278,-0.03317 0.415613,-0.08312 3.122157,-1.311349 5.147671,-4.449306 5.147671,-7.820131 l -0.0012,-0.002 c 0,-3.369761 -2.025512,-6.5094431 -5.147669,-7.820791 C 20.126952,5.6203 19.978181,5.587781 19.828341,5.587781 Z"
                   id="path88402"
                   inkscape:connector-curvature="0"
                   sodipodi:nodetypes="ccccccccscccscccsscsccccsccsccsscccccc" />
              </g>
            </g>
          </g>
        </g>
      </g>
    </g>
  </g>
</svg>
