<?xml version="1.0" encoding="UTF-8" standalone="no"?>
<svg width="100px" height="100px" viewBox="0 0 100 100" version="1.1" xmlns="http://www.w3.org/2000/svg" xmlns:xlink="http://www.w3.org/1999/xlink" xmlns:sketch="http://www.bohemiancoding.com/sketch/ns">
    <g id="Page-1" stroke="none" stroke-width="1" fill="none" fill-rule="evenodd" sketch:type="MSPage">
        <g id="briefcase" sketch:type="MSArtboardGroup" fill="#000000">
            <path d="M78.000352,79.9578301 L72.0004802,79.9578301 L72.0004802,73.95793 L28.0012091,73.95793 L28.0012091,79.9578301 L22.0013125,79.9578301 L22.0013125,73.95793 L0.00168197705,73.95793 C0.00168197705,82.2417912 6.71756782,92.4992837 15.001429,92.4992837 L85.000232,92.4992837 C93.2841215,92.4992837 100,82.2417912 100,73.95793 L78.000352,73.95793 L78.000352,79.9578301 L78.000352,79.9578301 Z M71.0004721,24.5004298 L71.0004721,16.5005771 C71.0004721,11.5386441 66.963536,7.50071629 62.0006467,7.50071629 L38.0010533,7.50071629 C33.038125,7.50071629 29.0011925,11.5386441 29.0011925,16.5005771 L29.0011925,24.5004298 C29.0011925,24.5004298 10.2410914,24.5596809 5.00159903,24.5004298 C-0.23789732,24.4411787 0.00168197705,29.930032 0.00168197705,29.930032 L0.00168197705,68.9580132 L22.0013125,68.9580132 L22.0013125,59.9581665 L28.0012091,59.9581665 L28.0012091,68.9580132 L72.0004802,68.9580132 L72.0004802,59.9581665 L78.000352,59.9581665 L78.000352,68.9580132 L100,68.9580132 L100,30.4341089 C100,30.4341089 99.833332,24.4444724 95.0000655,24.5004298 C90.1668345,24.5563872 71.0004721,24.5004298 71.0004721,24.5004298 L71.0004721,24.5004298 Z M37.0010451,16.5005771 C37.0010451,15.9495739 37.4490584,15.500569 38.0010533,15.500569 L62.0006467,15.500569 C62.5526416,15.500569 63.0006194,15.9495739 63.0006194,16.5005771 L63.0006194,24.5004298 L37.0010451,24.5004298 L37.0010451,16.5005771 L37.0010451,16.5005771 Z" sketch:type="MSShapeGroup"></path>
        </g>
    </g>
</svg>
