<?xml version="1.0" encoding="UTF-8" standalone="no"?>
<svg width="100px" height="100px" viewBox="0 0 100 100" version="1.1" xmlns="http://www.w3.org/2000/svg" xmlns:xlink="http://www.w3.org/1999/xlink" xmlns:sketch="http://www.bohemiancoding.com/sketch/ns">
    <g id="Page-1" stroke="none" stroke-width="1" fill="none" fill-rule="evenodd" sketch:type="MSPage">
        <g id="building" sketch:type="MSArtboardGroup" fill="#000000">
            <path d="M43.9580365,83.4818376 L43.9580365,100 L23,100 L23,4.69130501 L33.1832338,4.69130501 L33.1832338,0 L64.5663297,0 L64.5663297,4.69130501 L74.7495635,4.69130501 L74.7495635,10.7263245 C74.7501285,10.7263245 74.7501285,86.6831123 74.7501285,86.6831123 L74.7501285,100 L53.7915271,100 L53.7915271,83.4818376 L43.9580365,83.4818376 L43.9580365,83.4818376 Z M59.6501494,64.6931639 L69.483075,64.6931639 L69.483075,77.142711 L59.6501494,77.142711 L59.6501494,64.6931639 L59.6501494,64.6931639 Z M43.9580365,64.6931639 L53.7915271,64.6931639 L53.7915271,77.142711 L43.9580365,77.142711 L43.9580365,64.6931639 L43.9580365,64.6931639 Z M28.5489951,64.6931639 L38.3824857,64.6931639 L38.3824857,77.142711 L28.5489951,77.142711 L28.5489951,64.6931639 L28.5489951,64.6931639 Z M59.6501494,46.3106273 L69.483075,46.3106273 L69.483075,58.7601801 L59.6501494,58.7601801 L59.6501494,46.3106273 L59.6501494,46.3106273 Z M43.9580365,46.3106273 L53.7915271,46.3106273 L53.7915271,58.7601801 L43.9580365,58.7601801 L43.9580365,46.3106273 L43.9580365,46.3106273 Z M28.5489951,46.3106273 L38.3824857,46.3106273 L38.3824857,58.7601801 L28.5489951,58.7601801 L28.5489951,46.3106273 L28.5489951,46.3106273 Z M59.6501494,29.5151621 L69.483075,29.5151621 L69.483075,41.9647206 L59.6501494,41.9647206 L59.6501494,29.5151621 L59.6501494,29.5151621 Z M43.9580365,29.5151621 L53.7915271,29.5151621 L53.7915271,41.9647206 L43.9580365,41.9647206 L43.9580365,29.5151621 L43.9580365,29.5151621 Z M28.5489951,29.5151621 L38.3824857,29.5151621 L38.3824857,41.9647206 L28.5489951,41.9647206 L28.5489951,29.5151621 L28.5489951,29.5151621 Z M59.6501494,13.2431196 L69.483075,13.2431196 L69.483075,25.692678 L59.6501494,25.692678 L59.6501494,13.2431196 L59.6501494,13.2431196 Z M43.9580365,13.2431196 L53.7915271,13.2431196 L53.7915271,25.692678 L43.9580365,25.692678 L43.9580365,13.2431196 L43.9580365,13.2431196 Z M28.5489951,13.2431196 L38.3824857,13.2431196 L38.3824857,25.692678 L28.5489951,25.692678 L28.5489951,13.2431196 L28.5489951,13.2431196 Z" sketch:type="MSShapeGroup"></path>
        </g>
    </g>
</svg>
