<?xml version="1.0" encoding="UTF-8" standalone="no"?>
<!-- Generator: Adobe Illustrator 15.1.0, SVG Export Plug-In . SVG Version: 6.00 Build 0)  -->

<svg
   xmlns:dc="http://purl.org/dc/elements/1.1/"
   xmlns:cc="http://creativecommons.org/ns#"
   xmlns:rdf="http://www.w3.org/1999/02/22-rdf-syntax-ns#"
   xmlns:svg="http://www.w3.org/2000/svg"
   xmlns="http://www.w3.org/2000/svg"
   xmlns:sodipodi="http://sodipodi.sourceforge.net/DTD/sodipodi-0.dtd"
   xmlns:inkscape="http://www.inkscape.org/namespaces/inkscape"
   version="1.1"
   id="Layer_1"
   x="0px"
   y="0px"
   width="100"
   height="100"
   viewBox="0 0 100 100"
   enable-background="new 0 0 88 100"
   xml:space="preserve"
   sodipodi:docname="calendar.svg"
   inkscape:version="0.92.1 r15371"><metadata
     id="metadata4721"><rdf:RDF><cc:Work
         rdf:about=""><dc:format>image/svg+xml</dc:format><dc:type
           rdf:resource="http://purl.org/dc/dcmitype/StillImage" /><dc:title></dc:title></cc:Work></rdf:RDF></metadata><defs
     id="defs4719" /><sodipodi:namedview
     pagecolor="#ffffff"
     bordercolor="#666666"
     borderopacity="1"
     objecttolerance="10"
     gridtolerance="10"
     guidetolerance="10"
     inkscape:pageopacity="0"
     inkscape:pageshadow="2"
     inkscape:window-width="1366"
     inkscape:window-height="744"
     id="namedview4717"
     showgrid="false"
     inkscape:zoom="1.0167503"
     inkscape:cx="103.14125"
     inkscape:cy="19.301015"
     inkscape:window-x="0"
     inkscape:window-y="24"
     inkscape:window-maximized="1"
     inkscape:current-layer="Layer_1" /><path
     style="fill:#000000;fill-rule:evenodd;stroke:none;stroke-width:1.02040803"
     d="M 30.292969 -0.46679688 C 28.602149 -0.46679688 26.210938 0.90191341 26.210938 2.59375 L 26.210938 9.7363281 L 5.8046875 9.8320312 L 5.8046875 24.023438 L 5.8046875 25.042969 L 95.599609 25.042969 L 95.599609 9.8320312 L 75.191406 9.7363281 L 75.191406 2.59375 C 75.191406 0.90191341 72.8001 -0.46679688 71.111328 -0.46679688 C 69.420508 -0.46679688 67.027344 0.90191341 67.027344 2.59375 L 67.027344 9.7363281 L 34.375 9.7363281 L 34.375 2.59375 C 34.375 0.90191341 31.983779 -0.46679688 30.292969 -0.46679688 z M 5.8046875 30.144531 L 5.8046875 91.273438 L 13.966797 99.533203 L 87.435547 99.533203 L 95.599609 91.273438 L 95.599609 30.144531 L 5.8046875 30.144531 z M 16.214844 40.720703 L 27.957031 40.720703 L 27.957031 52.464844 L 16.214844 52.464844 L 16.214844 40.720703 z M 34.882812 40.720703 L 46.626953 40.720703 L 46.626953 52.464844 L 34.882812 52.464844 L 34.882812 40.720703 z M 53.552734 40.720703 L 65.296875 40.720703 L 65.296875 52.464844 L 53.552734 52.464844 L 53.552734 40.720703 z M 72.222656 40.720703 L 83.966797 40.720703 L 83.966797 52.464844 L 72.222656 52.464844 L 72.222656 40.720703 z M 16.214844 58.787109 L 27.957031 58.787109 L 27.957031 70.53125 L 16.214844 70.53125 L 16.214844 58.787109 z M 34.882812 58.787109 L 46.626953 58.787109 L 46.626953 70.53125 L 34.882812 70.53125 L 34.882812 58.787109 z M 53.552734 58.787109 L 65.296875 58.787109 L 65.296875 70.53125 L 53.552734 70.53125 L 53.552734 58.787109 z M 72.222656 58.787109 L 83.966797 58.787109 L 83.966797 70.53125 L 72.222656 70.53125 L 72.222656 58.787109 z M 16.214844 76.855469 L 27.957031 76.855469 L 27.957031 88.597656 L 16.214844 88.597656 L 16.214844 76.855469 z M 34.882812 76.855469 L 46.626953 76.855469 L 46.626953 88.597656 L 34.882812 88.597656 L 34.882812 76.855469 z M 53.552734 76.855469 L 65.296875 76.855469 L 65.296875 88.597656 L 53.552734 88.597656 L 53.552734 76.855469 z M 72.222656 76.855469 L 83.966797 76.855469 L 83.966797 88.597656 L 72.222656 88.597656 L 72.222656 76.855469 z "
     id="path12" /></svg>