<?xml version="1.0" encoding="UTF-8" standalone="no"?>
<svg
   xmlns:sketch="http://www.bohemiancoding.com/sketch/ns"
   xmlns:dc="http://purl.org/dc/elements/1.1/"
   xmlns:cc="http://creativecommons.org/ns#"
   xmlns:rdf="http://www.w3.org/1999/02/22-rdf-syntax-ns#"
   xmlns:svg="http://www.w3.org/2000/svg"
   xmlns="http://www.w3.org/2000/svg"
   xmlns:sodipodi="http://sodipodi.sourceforge.net/DTD/sodipodi-0.dtd"
   xmlns:inkscape="http://www.inkscape.org/namespaces/inkscape"
   width="100px"
   height="100px"
   viewBox="0 0 100 100"
   version="1.1"
   id="svg2"
   inkscape:version="0.92.4 (5da689c313, 2019-01-14)"
   sodipodi:docname="catalyst.svg">
  <metadata
     id="metadata16">
    <rdf:RDF>
      <cc:Work
         rdf:about="">
        <dc:format>image/svg+xml</dc:format>
        <dc:type
           rdf:resource="http://purl.org/dc/dcmitype/StillImage" />
        <dc:title>document</dc:title>
      </cc:Work>
    </rdf:RDF>
  </metadata>
  <sodipodi:namedview
     pagecolor="#ffffff"
     bordercolor="#666666"
     borderopacity="1"
     objecttolerance="10"
     gridtolerance="10"
     guidetolerance="10"
     inkscape:pageopacity="0"
     inkscape:pageshadow="2"
     inkscape:window-width="1920"
     inkscape:window-height="1176"
     id="namedview14"
     showgrid="false"
     inkscape:zoom="4"
     inkscape:cx="69.743404"
     inkscape:cy="42.670198"
     inkscape:window-x="0"
     inkscape:window-y="24"
     inkscape:window-maximized="1"
     inkscape:current-layer="document" />
  <!-- Generator: Sketch 3.3.3 (12072) - http://www.bohemiancoding.com/sketch -->
  <title
     id="title4">document</title>
  <desc
     id="desc6">Created with Sketch.</desc>
  <defs
     id="defs8" />
  <g
     id="Page-1"
     sketch:type="MSPage"
     transform="matrix(0.93353641,0,0,0.93353641,2.8053753,4.0212496)"
     style="fill:none;fill-rule:evenodd;stroke:none;stroke-width:1">
    <g
       id="document"
       sketch:type="MSArtboardGroup"
       style="fill:#000000">
      <path
         style="fill:#000000;fill-opacity:1;stroke:none;stroke-width:1.03279543"
         d="M 0 13.119141 L 0 84.625 L 7.2304688 90.625 L 93.410156 90.625 L 100 84.625 L 100 13.121094 L 0 13.119141 z M 7.2988281 20.310547 L 47.867188 20.310547 L 47.867188 83.679688 L 7.2988281 83.679688 L 7.2988281 20.310547 z M 67.001953 22.59375 C 67.253139 22.569205 67.506651 22.569876 67.757812 22.59375 C 68.762461 22.689248 69.736307 23.169504 70.441406 24.009766 C 71.85152 25.690362 71.652483 28.176456 69.996094 29.566406 C 69.609528 29.89042 68.942719 30.169405 68.460938 30.322266 L 68.523438 39.216797 C 67.804223 39.17307 67.488821 39.114606 66.777344 39.228516 L 66.771484 30.300781 C 65.936697 30.10309 64.998602 29.702791 64.443359 29.042969 C 63.033248 27.362374 63.234239 24.872368 64.890625 23.482422 C 65.511798 22.961222 66.248395 22.667385 67.001953 22.59375 z M 13.933594 25.480469 L 13.748047 30.203125 L 14.525391 30.203125 C 14.846466 28.710056 15.32722 27.742392 15.964844 27.298828 C 16.602467 26.855547 17.801794 26.632812 19.564453 26.632812 L 21.353516 26.632812 L 21.353516 40.533203 C 21.353516 41.731222 21.187293 42.478078 20.855469 42.775391 C 20.523644 43.072703 19.683603 43.265794 18.335938 43.355469 L 18.335938 43.871094 L 27.621094 43.871094 L 27.621094 43.355469 C 26.324913 43.274564 25.484875 43.10647 25.101562 42.849609 C 24.71797 42.593315 24.525391 41.928709 24.525391 40.857422 L 24.525391 26.632812 L 26.298828 26.632812 C 28.14409 26.632813 29.354013 26.856877 29.929688 27.304688 C 30.504794 27.752495 30.980673 28.719108 31.353516 30.203125 L 32.115234 30.203125 L 31.943359 25.480469 L 13.933594 25.480469 z M 30.306641 35.847656 L 30.201172 38.541016 L 30.642578 38.541016 C 30.825888 37.690096 31.099383 37.137665 31.462891 36.884766 C 31.826398 36.631866 32.511099 36.505859 33.515625 36.505859 L 34.535156 36.505859 L 34.535156 44.425781 C 34.535156 45.108384 34.438968 45.535913 34.25 45.705078 C 34.061032 45.874809 33.583053 45.983954 32.814453 46.035156 L 32.814453 46.330078 L 38.107422 46.330078 L 38.107422 46.035156 C 37.368808 45.988763 36.888593 45.892628 36.669922 45.746094 C 36.451817 45.600125 36.34375 45.221512 36.34375 44.611328 L 36.34375 36.505859 L 37.353516 36.505859 C 38.404717 36.505859 39.094294 36.633509 39.421875 36.888672 C 39.750022 37.143834 40.021645 37.695471 40.234375 38.541016 L 40.667969 38.541016 L 40.570312 35.847656 L 30.306641 35.847656 z M 67.691406 41.871094 C 73.050728 41.871094 77.414063 46.234427 77.414062 51.59375 C 77.414062 56.953072 73.050728 61.316406 67.691406 61.316406 C 62.332076 61.316406 57.970703 56.953072 57.970703 51.59375 C 57.970703 46.234427 62.332076 41.871094 67.691406 41.871094 z M 68.523438 43.605469 L 68.523438 46.476562 L 66.832031 46.476562 L 66.832031 43.607422 C 63.070763 44.005205 60.098553 46.986716 59.707031 50.75 L 62.646484 50.75 L 62.646484 52.439453 L 59.707031 52.439453 C 60.098553 56.202576 63.070763 59.182458 66.832031 59.580078 L 66.832031 56.726562 L 68.523438 56.726562 L 68.523438 59.582031 C 72.298076 59.196402 75.285245 56.212012 75.677734 52.439453 L 72.796875 52.439453 L 72.796875 50.75 L 75.677734 50.75 C 75.285245 46.97728 72.298076 43.991255 68.523438 43.605469 z M 86.345703 46.964844 C 87.483292 46.857392 88.656036 47.183867 89.59375 47.970703 C 91.469171 49.544371 91.696211 52.362871 90.099609 54.265625 C 88.503009 56.168376 85.687938 56.435 83.8125 54.861328 C 83.070133 54.238408 82.558417 53.480228 82.375 52.382812 L 79.429688 52.396484 C 79.39986 51.67857 79.421308 51.260722 79.423828 50.566406 L 82.453125 50.517578 C 82.592124 49.673475 82.884329 49.070084 83.308594 48.564453 C 84.106894 47.613077 85.208114 47.072295 86.345703 46.964844 z M 67.509766 49.226562 A 2.375 2.375 0 0 1 69.884766 51.601562 A 2.375 2.375 0 0 1 67.509766 53.976562 A 2.375 2.375 0 0 1 65.134766 51.601562 A 2.375 2.375 0 0 1 67.509766 49.226562 z M 11.195312 52.755859 L 11.195312 54.755859 L 44.025391 54.755859 L 44.025391 52.755859 L 11.195312 52.755859 z M 11.263672 58.755859 L 11.263672 60.755859 L 43.769531 60.755859 L 43.769531 58.755859 L 11.263672 58.755859 z M 66.75 63.498047 C 67.461477 63.611957 67.901882 63.584742 68.621094 63.541016 L 68.621094 72.373047 C 69.102874 72.525908 69.613436 72.867393 70 73.191406 C 71.65639 74.581356 71.855429 77.067453 70.445312 78.748047 C 69.035114 80.428568 66.550995 80.665254 64.894531 79.275391 C 63.238145 77.885444 63.037153 75.395438 64.447266 73.714844 C 65.002508 73.055019 65.971854 72.562925 66.806641 72.365234 L 66.75 63.498047 z M 11.380859 64.5625 L 11.380859 66.5625 L 44.027344 66.5625 L 44.027344 64.5625 L 11.380859 64.5625 z M 11.310547 70.5625 L 11.310547 72.5625 L 44.142578 72.5625 L 44.142578 70.5625 L 11.310547 70.5625 z M 11.380859 76.5625 L 11.380859 78.5625 L 43.886719 78.5625 L 43.886719 76.5625 L 11.380859 76.5625 z "
         id="path6"
         transform="matrix(1.0711955,0,0,1.0711955,-3.0051054,-4.3075445)" />
      <g
         transform="matrix(0.29425016,0,0,0.29425016,11.427294,19.073747)"
         style="fill:none;fill-rule:evenodd;stroke:none;stroke-width:1"
         id="Page-1-7"
         sketch:type="MSPage">
        <g
           style="fill:#000000"
           id="text"
           sketch:type="MSArtboardGroup" />
      </g>
    </g>
  </g>
</svg>
