<?xml version="1.0" encoding="UTF-8" standalone="no"?>
<svg width="100px" height="100px" viewBox="0 0 100 100" version="1.1" xmlns="http://www.w3.org/2000/svg" xmlns:xlink="http://www.w3.org/1999/xlink" xmlns:sketch="http://www.bohemiancoding.com/sketch/ns">
    <g id="Page-1" stroke="none" stroke-width="1" fill="none" fill-rule="evenodd" sketch:type="MSPage">
        <g id="certificate" sketch:type="MSArtboardGroup" fill="#000000">
            <path d="M95.9558699,35.8222198 L82.8031528,27.2332544 L78.701686,12.0722198 L63.011645,12.8538147 L50.7796849,3 L38.5496312,12.8538147 L22.8595902,12.0722198 L18.7581233,27.2332544 L5.6035,35.8222198 L11.1976225,50.5 L5.6035,65.1787334 L18.7581233,73.7686519 L22.8595902,88.9296866 L38.5496312,88.1480917 L50.7796849,98 L63.011645,88.1452322 L78.701686,88.9268271 L82.804106,73.7676988 L95.956823,65.1758739 L90.36556,50.5 L95.9558699,35.8222198 L95.9558699,35.8222198 Z M42.9789866,72.0195951 L24.886018,52.116567 L34.1212289,44.0346852 L44.1075334,54.5671529 L69.3883156,30.5321568 L77.4902139,39.9046233 L42.9789866,72.0195951 L42.9789866,72.0195951 Z" sketch:type="MSShapeGroup"></path>
        </g>
    </g>
</svg>
