<?xml version="1.0" encoding="UTF-8" standalone="no"?>
<!-- Generator: Adobe Illustrator 16.2.1, SVG Export Plug-In . SVG Version: 6.00 Build 0)  -->

<svg
   xmlns:dc="http://purl.org/dc/elements/1.1/"
   xmlns:cc="http://creativecommons.org/ns#"
   xmlns:rdf="http://www.w3.org/1999/02/22-rdf-syntax-ns#"
   xmlns:svg="http://www.w3.org/2000/svg"
   xmlns="http://www.w3.org/2000/svg"
   xmlns:sodipodi="http://sodipodi.sourceforge.net/DTD/sodipodi-0.dtd"
   xmlns:inkscape="http://www.inkscape.org/namespaces/inkscape"
   version="1.1"
   id="Layer_1"
   x="0px"
   y="0px"
   width="100px"
   height="100px"
   viewBox="0 0 100 100"
   enable-background="new 0 0 100 100"
   xml:space="preserve"
   sodipodi:docname="circle-info.svg"
   inkscape:version="0.92.1 r15371"><metadata
     id="metadata4610"><rdf:RDF><cc:Work
         rdf:about=""><dc:format>image/svg+xml</dc:format><dc:type
           rdf:resource="http://purl.org/dc/dcmitype/StillImage" /><dc:title /></cc:Work></rdf:RDF></metadata><defs
     id="defs4608" /><sodipodi:namedview
     pagecolor="#ffffff"
     bordercolor="#666666"
     borderopacity="1"
     objecttolerance="10"
     gridtolerance="10"
     guidetolerance="10"
     inkscape:pageopacity="0"
     inkscape:pageshadow="2"
     inkscape:window-width="1364"
     inkscape:window-height="743"
     id="namedview4606"
     showgrid="false"
     inkscape:zoom="1.9975767"
     inkscape:cx="52.932486"
     inkscape:cy="51.717811"
     inkscape:window-x="0"
     inkscape:window-y="23"
     inkscape:window-maximized="1"
     inkscape:current-layer="Layer_1" /><path
     d="m 50,-0.263 c -27.614,0 -50,22.386 -50,50 0,27.615 22.386,50 50,50 27.613,0 50,-22.385 50,-50 0,-27.614 -22.387,-50 -50,-50 z m -0.222,14.764 c 4.341,0 7.859,3.518 7.859,7.858 0,4.34 -3.519,7.858 -7.859,7.858 -4.34,0 -7.857,-3.518 -7.857,-7.858 0,-4.339 3.517,-7.858 7.857,-7.858 z M 61.184047,83.247 H 38.124 l 4.883,-42.951 h 12.428 z"
     id="path4603"
     inkscape:connector-curvature="0"
     sodipodi:nodetypes="ssssssssssccccc" /><rect
     style="opacity:1;fill:#ffffff;fill-opacity:0;stroke:none;stroke-width:3;stroke-miterlimit:4;stroke-dasharray:none;stroke-opacity:1"
     id="rect6169"
     width="13.451327"
     height="13.451327"
     x="32.743362"
     y="6.0176992" /></svg>