<?xml version="1.0" encoding="UTF-8" standalone="no"?>
<svg width="100px" height="100px" viewBox="0 0 100 100" version="1.1" xmlns="http://www.w3.org/2000/svg" xmlns:xlink="http://www.w3.org/1999/xlink" xmlns:sketch="http://www.bohemiancoding.com/sketch/ns">
    <g id="Page-1" stroke="none" stroke-width="1" fill="none" fill-rule="evenodd" sketch:type="MSPage">
        <g id="classification" sketch:type="MSArtboardGroup" fill="#000000">
            <path d="M98.9336224,47.4248686 L52.5747565,1.06700267 C51.1527529,-0.35600089 48.8467471,-0.35600089 47.4247436,1.06700267 L1.06687228,47.4248686 C-0.356124029,48.8468721 -0.355124068,51.1538779 1.06687228,52.5738814 L47.4247436,98.9327527 C48.8467471,100.355749 51.1527529,100.355749 52.5747565,98.9327527 L98.9326224,52.5738814 C100.355626,51.1528779 100.355626,48.8468721 98.9336224,47.4248686 L98.9336224,47.4248686 Z M77.9486949,48.6238716 C77.9486949,48.6468716 77.9436949,48.6698717 77.9436949,48.6918717 C77.9436949,48.7038718 77.9416949,48.7148718 77.9416949,48.7268718 C77.9386949,48.7428719 77.973695,48.7608719 77.969695,48.7758719 C77.9676949,48.795872 77.999695,48.813872 77.999695,48.8348721 L77.999695,48.8408721 C77.999695,49.2738732 77.6876942,49.6778742 77.3776935,49.989875 C76.791692,50.6858767 76.1306904,51.3388783 75.4856887,51.9778799 C72.00368,55.4338469 67.9977117,58.5158546 63.6217007,60.7548477 C60.8257354,62.183843 57.8327279,63.3338417 54.7317202,63.8898389 C51.3247533,64.4978404 47.9117448,64.4688403 44.521778,63.7468427 C38.65678,62.5018438 33.3437917,59.4038527 28.6978051,55.7018476 C26.540808,53.982885 24.4168152,52.1038803 22.6338191,49.989875 C21.8548213,49.0658727 21.8548213,47.9708699 22.6348191,47.0458676 C23.2188164,46.3518659 23.8618138,45.6989059 24.5058155,45.0599043 C27.9888033,41.6028957 31.9857967,38.519888 36.3617826,36.283924 C39.1577771,34.8549205 42.1447721,33.7019176 45.2447798,33.1469162 C48.6527467,32.5389147 52.0627552,32.5689148 55.452722,33.2889166 C61.3177367,34.5349197 66.6317083,37.6318857 71.2776782,41.334895 C73.4356836,43.0508993 75.592689,44.932904 77.3786935,47.0448676 C77.6886942,47.3588684 78.000695,47.7638694 78.000695,48.1968705 L78.000695,48.2038705 C78.000695,48.2228706 77.9686949,48.2428706 77.970695,48.2628707 C77.974695,48.2778707 77.9576949,48.2958707 77.9576949,48.3118708 C77.9616949,48.3238708 77.9506949,48.3348708 77.9526949,48.3468709 C77.9526949,48.3688709 77.9506949,48.391871 77.9506949,48.414871 C77.9536949,48.4498711 77.9526949,48.4838712 77.9526949,48.5188713 C77.9526949,48.5548714 77.9506949,48.5888715 77.9486949,48.6238716 L77.9486949,48.6238716 Z M50.00075,37.7628861 C44.0607768,37.7628861 39.2457773,42.5788981 39.2457773,48.5188713 C39.2457773,54.4588445 44.0597768,59.2758524 50.00075,59.2758524 C55.9417232,59.2758524 60.7557353,54.4598445 60.7557353,48.5188713 C60.7557353,42.5778981 55.9407232,37.7628861 50.00075,37.7628861 L50.00075,37.7628861 Z M50.00075,51.8148795 C48.0347451,51.8148795 46.4417411,50.2208756 46.4417411,48.2548706 C46.4417411,46.2878657 48.0347451,44.6939034 50.00075,44.6939034 C51.9657549,44.6939034 53.5617589,46.2878657 53.5617589,48.2548706 C53.5617589,50.2218756 51.9657549,51.8148795 50.00075,51.8148795 L50.00075,51.8148795 Z" sketch:type="MSShapeGroup"></path>
        </g>
    </g>
</svg>
