<?xml version="1.0" encoding="UTF-8" standalone="no"?>
<svg
   xmlns:dc="http://purl.org/dc/elements/1.1/"
   xmlns:cc="http://creativecommons.org/ns#"
   xmlns:rdf="http://www.w3.org/1999/02/22-rdf-syntax-ns#"
   xmlns:svg="http://www.w3.org/2000/svg"
   xmlns="http://www.w3.org/2000/svg"
   xmlns:sodipodi="http://sodipodi.sourceforge.net/DTD/sodipodi-0.dtd"
   xmlns:inkscape="http://www.inkscape.org/namespaces/inkscape"
   width="100px"
   height="100px"
   version="1.1"
   xml:space="preserve"
   style="fill-rule:evenodd;clip-rule:evenodd;stroke-linejoin:round;stroke-miterlimit:1.41421;"
   id="svg2"
   inkscape:version="0.91 r13725"
   sodipodi:docname="clock.svg"><metadata
     id="metadata11"><rdf:RDF><cc:Work
         rdf:about=""><dc:format>image/svg+xml</dc:format><dc:type
           rdf:resource="http://purl.org/dc/dcmitype/StillImage" /></cc:Work></rdf:RDF></metadata><defs
     id="defs9" /><sodipodi:namedview
     pagecolor="#ffffff"
     bordercolor="#666666"
     borderopacity="1"
     objecttolerance="10"
     gridtolerance="10"
     guidetolerance="10"
     inkscape:pageopacity="0"
     inkscape:pageshadow="2"
     inkscape:window-width="1912"
     inkscape:window-height="1002"
     id="namedview7"
     showgrid="false"
     inkscape:zoom="3.395"
     inkscape:cx="50"
     inkscape:cy="57.393071"
     inkscape:window-x="4"
     inkscape:window-y="27"
     inkscape:window-maximized="0"
     inkscape:current-layer="g4" /><g
     id="g4"><path
       style="fill:#000000"
       d="m 49.938144,1.9455081 c -26.50967,0 -47.9999997,21.4903299 -47.9999997,47.9999999 0,26.50967 21.4903297,48 47.9999997,48 26.50967,0 48,-21.49033 48,-48 0,-26.50967 -21.49033,-47.9999999 -48,-47.9999999 z m -3.287365,3.4442934 5.217392,0 0,7.9096465 -5.217392,0 0,-7.9096465 z m 34.451088,11.7044835 3.690897,3.688858 -5.594429,5.592392 -3.68886,-3.688858 5.592392,-5.592392 z m -60.116169,0.336278 5.594429,5.592391 -3.690896,3.690897 -5.592392,-5.59443 3.688859,-3.688858 z m 25.665081,1.230977 5.217392,0 0,21.389267 a 10.607449,10.607449 0 0 1 7.663043,7.658968 l 9.684783,0 0,5.217391 -9.688859,0 A 10.607449,10.607449 0 0 1 49.259475,60.926486 10.607449,10.607449 0 0 1 38.65146,50.31847 10.607449,10.607449 0 0 1 46.650779,40.046731 l 0,-21.385191 z m -40.4368196,29.048235 7.9096466,0 0,5.217391 -7.9096466,0 0,-5.217391 z m 80.4639936,0 7.909647,0 0,5.217391 -7.909647,0 0,-5.217391 z m -62.472145,26.28057 3.688858,3.688859 -5.592392,5.594429 -3.688858,-3.690896 5.592392,-5.592392 z m 53.698369,0.356658 5.59239,5.594429 -3.688858,3.688859 -5.594429,-5.592392 3.690897,-3.690896 z m -31.253398,11.535326 5.217392,0 0,7.909647 -5.217392,0 0,-7.909647 z"
       id="clock"
       inkscape:connector-curvature="0" /></g></svg>