<?xml version="1.0" encoding="UTF-8" standalone="no"?>
<svg
   xmlns:dc="http://purl.org/dc/elements/1.1/"
   xmlns:cc="http://creativecommons.org/ns#"
   xmlns:rdf="http://www.w3.org/1999/02/22-rdf-syntax-ns#"
   xmlns:svg="http://www.w3.org/2000/svg"
   xmlns="http://www.w3.org/2000/svg"
   xmlns:sodipodi="http://sodipodi.sourceforge.net/DTD/sodipodi-0.dtd"
   xmlns:inkscape="http://www.inkscape.org/namespaces/inkscape"
   width="100px"
   height="100px"
   version="1.1"
   xml:space="preserve"
   style="fill-rule:evenodd;clip-rule:evenodd;stroke-linejoin:round;stroke-miterlimit:1.41421;"
   id="svg4531"
   sodipodi:docname="clock.svg"
   inkscape:version="0.92.1 r15371"><metadata
     id="metadata4537"><rdf:RDF><cc:Work
         rdf:about=""><dc:format>image/svg+xml</dc:format><dc:type
           rdf:resource="http://purl.org/dc/dcmitype/StillImage" /><dc:title></dc:title></cc:Work></rdf:RDF></metadata><defs
     id="defs4535" /><sodipodi:namedview
     pagecolor="#ffffff"
     bordercolor="#666666"
     borderopacity="1"
     objecttolerance="10"
     gridtolerance="10"
     guidetolerance="10"
     inkscape:pageopacity="0"
     inkscape:pageshadow="2"
     inkscape:window-width="1366"
     inkscape:window-height="768"
     id="namedview4533"
     showgrid="false"
     inkscape:zoom="2.8758042"
     inkscape:cx="52.711435"
     inkscape:cy="47.346169"
     inkscape:window-x="0"
     inkscape:window-y="0"
     inkscape:window-maximized="1"
     inkscape:current-layer="g4529" /><g
     id="g4529"><path
       id="clock"
       d="m 45.543576,40.660354 c -3.639128,1.86028 -6.130434,5.646028 -6.130434,10.013656 0,6.207168 5.031963,11.239131 11.23913,11.239131 4.278124,0 7.997867,-2.390257 9.89677,-5.908105 l 12.560239,0.21242 V 46.000064 H 60.876509 c -1.086722,-2.373091 -2.975304,-4.302441 -5.31897,-5.441067 L 55.760968,19.604149 H 45.543576 v 21.056205 m 5.108696,55.991917 c 25.957385,0 47,-21.042615 47,-47 0,-25.957385 -21.042615,-46.9999998 -47,-46.9999998 -25.957385,0 -47.0000009,21.0426148 -47.0000009,46.9999998 0,25.957385 21.0426159,47 47.0000009,47 m 0,-11.23913 c 19.750217,0 35.76087,-16.010653 35.76087,-35.76087 0,-19.750217 -16.010653,-35.76087 -35.76087,-35.76087 -19.750217,0 -35.76087,16.010653 -35.76087,35.76087 0,19.750217 16.010653,35.76087 35.76087,35.76087"
       style="fill:#000000;stroke-width:1.02173913"
       inkscape:connector-curvature="0"
       sodipodi:nodetypes="csscccccccccsssccsssc" /></g></svg>