<?xml version="1.0" encoding="UTF-8" standalone="no"?>
<svg width="100px" height="100px" viewBox="0 0 100 100" version="1.1" xmlns="http://www.w3.org/2000/svg" xmlns:xlink="http://www.w3.org/1999/xlink" xmlns:sketch="http://www.bohemiancoding.com/sketch/ns">
    <g id="Page-1" stroke="none" stroke-width="1" fill="none" fill-rule="evenodd" sketch:type="MSPage">
        <g id="codewords" sketch:type="MSArtboardGroup" fill="#000000">
            <path d="M97,88.5095042 L93.7145417,93.4290875 L90.07025,100 L56.6888333,100 L50.2639167,93.4290875 L50.2639167,93.0124208 L50.1225833,93.1141792 L35.855225,73.2932667 L44.1281667,67.3382958 L50.2639167,75.8624125 L50.2639167,66.371375 L50.2639167,22.095125 L60.1030833,22.095125 L60.1030833,66.371375 L62.562875,66.371375 L62.562875,44.23325 L72.4020833,44.23325 L72.4020833,66.371375 L74.861875,66.371375 L74.861875,49.1528333 L84.7010417,49.1528333 L84.7010417,66.371375 L87.1608333,66.371375 L87.1608333,54.0724167 L97,54.0724167 L97,88.5095042 L97,88.5095042 Z M40.0686292,45.1363333 L25.3098792,45.1363333 L25.3098792,59.8950792 L40.0686292,59.8950792 L40.0686292,45.1363333 L40.0686292,45.1363333 Z M17.9305,44.27625 L3.17175,44.27625 L3.17175,59.0350083 L17.9305,59.0350083 L17.9305,44.27625 L17.9305,44.27625 Z M40.0686292,22.138125 L25.3098792,22.138125 L25.3098792,36.896875 L40.0686292,36.896875 L40.0686292,22.138125 L40.0686292,22.138125 Z M17.9305,22.138125 L3.17175,22.138125 L3.17175,36.896875 L17.9305,36.896875 L17.9305,22.138125 L17.9305,22.138125 Z M40.0686292,0 L25.3098792,0 L25.3098792,14.75875 L40.0686292,14.75875 L40.0686292,0 L40.0686292,0 Z M17.9305,0 L3.17175,0 L3.17175,14.75875 L17.9305,14.75875 L17.9305,0 L17.9305,0 Z M62.20675,0 L47.448,0 L47.448,14.75875 L62.20675,14.75875 L62.20675,0 L62.20675,0 Z" sketch:type="MSShapeGroup"></path>
        </g>
    </g>
</svg>
