<?xml version="1.0" encoding="UTF-8" standalone="no"?>
<svg
   xmlns:sketch="http://www.bohemiancoding.com/sketch/ns"
   xmlns:dc="http://purl.org/dc/elements/1.1/"
   xmlns:cc="http://creativecommons.org/ns#"
   xmlns:rdf="http://www.w3.org/1999/02/22-rdf-syntax-ns#"
   xmlns:svg="http://www.w3.org/2000/svg"
   xmlns="http://www.w3.org/2000/svg"
   xmlns:sodipodi="http://sodipodi.sourceforge.net/DTD/sodipodi-0.dtd"
   xmlns:inkscape="http://www.inkscape.org/namespaces/inkscape"
   width="106.66666"
   height="106.66666"
   viewBox="0 0 100 100"
   version="1.1"
   id="svg2"
   inkscape:version="0.92.1 r15371"
   sodipodi:docname="countries.svg">
  <metadata
     id="metadata16">
    <rdf:RDF>
      <cc:Work
         rdf:about="">
        <dc:format>image/svg+xml</dc:format>
        <dc:type
           rdf:resource="http://purl.org/dc/dcmitype/StillImage" />
      </cc:Work>
    </rdf:RDF>
  </metadata>
  <sodipodi:namedview
     pagecolor="#ffffff"
     bordercolor="#666666"
     borderopacity="1"
     objecttolerance="10"
     gridtolerance="10"
     guidetolerance="10"
     inkscape:pageopacity="0"
     inkscape:pageshadow="2"
     inkscape:window-width="666"
     inkscape:window-height="480"
     id="namedview14"
     showgrid="false"
     inkscape:zoom="2.36"
     inkscape:cx="50"
     inkscape:cy="50"
     inkscape:window-x="1276"
     inkscape:window-y="596"
     inkscape:window-maximized="0"
     inkscape:current-layer="svg2" />
  <!-- Generator: Sketch 3.3.3 (12072) - http://www.bohemiancoding.com/sketch -->
  <title
     id="title4">countries</title>
  <desc
     id="desc6">Created with Sketch.</desc>
  <defs
     id="defs8" />
  <path
     style="fill:#000000;fill-rule:evenodd;stroke:none"
     d="M 50.000667,0 C 22.388345,0 0,22.38432 0,49.998 0,77.613018 22.388345,99.997333 50.000667,99.997333 77.613014,99.997333 100,77.613018 100,49.998 100,22.382986 77.613014,0 50.000667,0 Z m 21.148519,65.373107 c 0,0.785816 -0.276701,2.010879 -0.613859,2.720131 L 66.8843,75.794225 c -0.338533,0.709247 -1.08268,1.727449 -1.657623,2.267447 L 53.340078,89.161143 c -0.572235,0.534623 -0.39899,0.976562 0.385489,0.976562 h 1.362089 c 0.784479,0 1.42792,0.56283 1.42792,1.249241 0,0.69179 -0.643441,1.255963 -1.42792,1.255963 h -5.843219 c -0.785854,0 -1.42792,-0.643429 -1.42792,-1.430587 V 76.011836 c 0,-0.789846 0.642066,-1.429242 1.42792,-1.429242 h 1.623998 c 0.787146,0 1.429254,-0.643428 1.429254,-1.429245 V 71.52933 c 0,-0.787158 -0.643441,-1.430587 -1.429254,-1.430587 h -1.623998 c -0.785854,0 -1.42792,-0.640741 -1.42792,-1.426553 v -8.905909 c 0,-0.785812 -0.643442,-1.427899 -1.430587,-1.427899 h -2.416561 c -0.783104,0 -1.953114,-0.370761 -2.592506,-0.826124 L 33.689306,52.074695 C 33.047223,51.621998 32.195587,50.696481 31.796635,50.018124 L 28.199348,43.911621 C 27.800396,43.234597 26.830551,42.67982 26.044735,42.67982 H 24.32803 c -0.785812,0 -1.7073,-0.580276 -2.048491,-1.28684 l -4.166835,-8.631895 c -0.33582,-0.706523 -0.61925,-1.927574 -0.61925,-2.716095 v -4.92041 c 0,-0.785812 -0.613875,-1.241175 -1.364763,-1.01014 l -1.67641,0.51582 C 21.705963,14.491239 33.180207,7.5827978 46.289224,6.473244 v 5.934592 c 0,0.784437 0.525194,1.797285 1.167302,2.247273 l 2.677137,1.88195 c 0.643441,0.449988 1.810743,0.820728 2.597889,0.820728 h 2.116985 c 0.785854,0 1.427921,0.518486 1.427921,1.153886 0,0.63265 -0.44328,1.61729 -0.983266,2.189525 l -3.050585,3.215789 c -0.542694,0.568193 -0.339866,1.035681 0.444613,1.038347 l 2.036404,0.0054 c 0.783146,0.0013 1.425212,0.644775 1.425212,1.431921 l -0.004,5.132654 c -0.0027,0.784479 0.639358,1.427921 1.425212,1.427921 h 2.296981 c 0.785812,0 1.429253,0.487612 1.429253,1.085346 0,0.596442 -0.643441,1.084012 -1.429253,1.084012 h -7.042771 c -0.784479,0 -1.938365,0.390907 -2.56164,0.866436 l -2.886673,2.200274 c -0.62465,0.475529 -1.136428,1.508502 -1.135095,2.294314 l 0.0013,8.536522 c 0,0.785813 -0.640733,1.429212 -1.427879,1.429212 h -0.398948 c -0.784479,0 -1.42792,-0.643399 -1.42792,-1.429212 v -4.913702 c 0,-0.785812 -0.640733,-1.42792 -1.427887,-1.42792 h -3.85251 c -0.783129,0 -1.427899,0.642108 -1.433274,1.42792 l -0.02015,3.966686 c -0.0054,0.785812 0.49567,1.829535 1.109545,2.323855 l 5.68744,4.561753 c 0.609817,0.492987 1.75562,0.895976 2.540099,0.897309 l 9.498288,0.0054 c 0.784479,0.0013 1.998822,0.299534 2.694637,0.663566 l 12.101552,6.322802 c 0.695815,0.364028 1.265341,1.30432 1.265341,2.091478 v 0.433876 h -0.0013 z M 67.479367,22.571023 c -0.634025,0.466113 -1.794619,0.847602 -2.580431,0.847602 h -0.615234 c -0.784479,0 -1.427878,-0.643399 -1.427878,-1.429253 v -4.643668 c 0,-0.785812 -0.640733,-1.42792 -1.42792,-1.42792 H 59.35925 c -0.785812,0 -1.427878,-0.6434 -1.427878,-1.427879 V 7.0441455 c 6.837276,1.2612997 13.127816,4.1010155 18.456591,8.1523245 -0.184037,0.611192 -8.908596,7.374553 -8.908596,7.374553 z"
     sketch:type="MSShapeGroup"
     id="path12"
     inkscape:connector-curvature="0" />
</svg>
