<?xml version="1.0" encoding="UTF-8" standalone="no"?>
<!-- Generator: Adobe Illustrator 16.2.1, SVG Export Plug-In . SVG Version: 6.00 Build 0)  -->

<svg
   xmlns:dc="http://purl.org/dc/elements/1.1/"
   xmlns:cc="http://creativecommons.org/ns#"
   xmlns:rdf="http://www.w3.org/1999/02/22-rdf-syntax-ns#"
   xmlns:svg="http://www.w3.org/2000/svg"
   xmlns="http://www.w3.org/2000/svg"
   xmlns:sodipodi="http://sodipodi.sourceforge.net/DTD/sodipodi-0.dtd"
   xmlns:inkscape="http://www.inkscape.org/namespaces/inkscape"
   version="1.1"
   id="Layer_1"
   x="0px"
   y="0px"
   width="100px"
   height="100px"
   viewBox="0 0 100 100"
   enable-background="new 0 0 100 100"
   xml:space="preserve"
   inkscape:version="0.91 r13725"
   sodipodi:docname="dashboard.svg"><metadata
     id="metadata23"><rdf:RDF><cc:Work
         rdf:about=""><dc:format>image/svg+xml</dc:format><dc:type
           rdf:resource="http://purl.org/dc/dcmitype/StillImage" /></cc:Work></rdf:RDF></metadata><defs
     id="defs21" /><sodipodi:namedview
     pagecolor="#ffffff"
     bordercolor="#666666"
     borderopacity="1"
     objecttolerance="10"
     gridtolerance="10"
     guidetolerance="10"
     inkscape:pageopacity="0"
     inkscape:pageshadow="2"
     inkscape:window-width="1920"
     inkscape:window-height="1009"
     id="namedview19"
     showgrid="false"
     inkscape:zoom="7.780625"
     inkscape:cx="50.257049"
     inkscape:cy="50"
     inkscape:window-x="0"
     inkscape:window-y="24"
     inkscape:window-maximized="0"
     inkscape:current-layer="g3" /><g
     id="g3"><path
       d="M94.623,19.528H34.074c-1.334-1.217-2.368-5.61-3.778-5.61H13.812c-1.41,0-2.418,4.393-3.767,5.61H5.878   c-2.002,0-3.628,1.624-3.628,3.627v61.867c0,2.002,1.626,3.625,3.628,3.625h88.745c2.007,0,3.627-1.623,3.627-3.625V23.155   C98.25,21.151,96.63,19.528,94.623,19.528z M90.188,83.41H9.876c-2.091,0-3.785-1.692-3.785-3.786V29.343   c0-2.09,1.693-3.783,3.785-3.783h80.312c2.09,0,3.785,1.693,3.785,3.783v50.281h0.002C93.975,81.718,92.279,83.41,90.188,83.41z"
       id="path5" /><path
       d="m 27.880806,65.832239 0,-16.548021 16.550087,0 c -10e-4,-9.14088 -7.41024,-16.55112 -16.550087,-16.55112 -9.139847,0 -16.550087,7.41024 -16.550087,16.553187 0,9.136747 7.41024,16.545954 16.550087,16.545954 z"
       id="path7"
       inkscape:connector-curvature="0" /><path
       d="m 30.758318,68.711817 c 9.139847,0 16.550087,-7.411273 16.550087,-16.552153 l -16.550087,0 0,16.552153 z"
       id="path9"
       inkscape:connector-curvature="0" /><rect
       x="66.070992"
       y="50.529602"
       width="8.1869431"
       height="27.555922"
       id="rect11" /><rect
       x="78.354958"
       y="41.344292"
       width="8.1893158"
       height="36.74123"
       id="rect13" /><rect
       x="53.784649"
       y="59.71624"
       width="8.1905012"
       height="18.369286"
       id="rect15" /></g></svg>