<?xml version="1.0" encoding="UTF-8" standalone="no"?>
<svg
   xmlns:dc="http://purl.org/dc/elements/1.1/"
   xmlns:cc="http://creativecommons.org/ns#"
   xmlns:rdf="http://www.w3.org/1999/02/22-rdf-syntax-ns#"
   xmlns:svg="http://www.w3.org/2000/svg"
   xmlns="http://www.w3.org/2000/svg"
   xmlns:sodipodi="http://sodipodi.sourceforge.net/DTD/sodipodi-0.dtd"
   xmlns:inkscape="http://www.inkscape.org/namespaces/inkscape"
   version="1.1"
   id="Layer_1"
   x="0px"
   y="0px"
   width="100"
   height="100"
   viewBox="0 0 93.750009 93.750009"
   enable-background="new 0 0 100 100"
   xml:space="preserve"
   inkscape:version="0.92.1 r15371"
   sodipodi:docname="dashboard.svg"><metadata
     id="metadata23"><rdf:RDF><cc:Work
         rdf:about=""><dc:format>image/svg+xml</dc:format><dc:type
           rdf:resource="http://purl.org/dc/dcmitype/StillImage" /><dc:title></dc:title></cc:Work></rdf:RDF></metadata><defs
     id="defs21" /><sodipodi:namedview
     pagecolor="#ffffff"
     bordercolor="#666666"
     borderopacity="1"
     objecttolerance="10"
     gridtolerance="10"
     guidetolerance="10"
     inkscape:pageopacity="0"
     inkscape:pageshadow="2"
     inkscape:window-width="1364"
     inkscape:window-height="743"
     id="namedview19"
     showgrid="false"
     inkscape:zoom="5.5017328"
     inkscape:cx="55.656371"
     inkscape:cy="50.290798"
     inkscape:window-x="0"
     inkscape:window-y="23"
     inkscape:window-maximized="1"
     inkscape:current-layer="g3" /><g
     id="g3"
     transform="translate(0,-6.2499911)"><path
       d="m 31.453128,21.1509 c -1.302735,-1.188477 -2.3125,-5.478516 -3.689453,-5.478516 H 11.666017 c -1.376954,0 -2.3613292,4.290039 -3.6787118,5.478516 L 0.37499982,21.19719 V 88.772 H 94.125009 V 21.030783 Z M 6.0009769,81.713405 V 28.860862 H 88.073251 l 0.002,52.852543 z"
       id="path5"
       inkscape:connector-curvature="0"
       sodipodi:nodetypes="cssccccccccccc"
       style="stroke-width:0.97656262" /><path
       d="M 26.117961,64.215532 V 49.387713 h 14.829671 c -8.95e-4,-8.190666 -6.63993,-14.830596 -14.829671,-14.830596 -8.18974,0 -14.829671,6.63993 -14.829671,14.832449 0,8.186962 6.639931,14.825966 14.829671,14.825966 z"
       id="path7"
       inkscape:connector-curvature="0"
       style="stroke-width:0.89604795" /><path
       d="m 28.69635,66.795773 c 8.189741,0 14.829671,-6.640856 14.829671,-14.831523 H 28.69635 Z"
       id="path9"
       inkscape:connector-curvature="0"
       style="stroke-width:0.89604795" /><path
       style="stroke-width:0.87253159"
       d="m 64.318258,53.099768 h 7.143367 v 24.043411 h -7.143367 z"
       id="rect11"
       inkscape:connector-curvature="0" /><path
       style="stroke-width:0.87253159"
       d="m 75.036409,45.085297 h 7.145436 v 32.057884 h -7.145436 z"
       id="rect13"
       inkscape:connector-curvature="0" /><path
       style="stroke-width:0.87253159"
       d="m 53.598034,61.115401 h 7.14647 v 16.027782 h -7.14647 z"
       id="rect15"
       inkscape:connector-curvature="0" /></g></svg>