<?xml version="1.0" encoding="UTF-8" standalone="no"?>
<svg
   xmlns:dc="http://purl.org/dc/elements/1.1/"
   xmlns:cc="http://creativecommons.org/ns#"
   xmlns:rdf="http://www.w3.org/1999/02/22-rdf-syntax-ns#"
   xmlns:svg="http://www.w3.org/2000/svg"
   xmlns="http://www.w3.org/2000/svg"
   xmlns:sodipodi="http://sodipodi.sourceforge.net/DTD/sodipodi-0.dtd"
   xmlns:inkscape="http://www.inkscape.org/namespaces/inkscape"
   xml:space="preserve"
   enable-background="new 0 0 100 100"
   viewBox="0 0 100 100"
   height="100px"
   width="100px"
   y="0px"
   x="0px"
   id="Layer_1"
   version="1.1"
   inkscape:version="0.91 r13725"
   sodipodi:docname="database.svg"><sodipodi:namedview
     pagecolor="#ffffff"
     bordercolor="#666666"
     borderopacity="1"
     objecttolerance="10"
     gridtolerance="10"
     guidetolerance="10"
     inkscape:pageopacity="0"
     inkscape:pageshadow="2"
     inkscape:window-width="1912"
     inkscape:window-height="1002"
     id="namedview9"
     showgrid="false"
     inkscape:zoom="5.1983497"
     inkscape:cx="5.251189"
     inkscape:cy="58.894776"
     inkscape:window-x="4"
     inkscape:window-y="27"
     inkscape:window-maximized="0"
     inkscape:current-layer="Layer_1" /><metadata
     id="metadata15"><rdf:RDF><cc:Work
         rdf:about=""><dc:format>image/svg+xml</dc:format><dc:type
           rdf:resource="http://purl.org/dc/dcmitype/StillImage" /><dc:title /></cc:Work></rdf:RDF></metadata><defs
     id="defs13" /><ellipse
     id="ellipse3"
     ry="13.562609"
     rx="41.037994"
     cy="15.523816"
     cx="49.538315" /><path
     id="path5"
     d="m 7.2772912,38.012519 0,-15.450269 c 0,0 0.1310088,13.522836 42.2610258,13.522836 42.131424,0 42.261024,-13.522836 42.261024,-13.522836 l 0,15.64024 c 0,0 -0.262019,14.279638 -42.390625,14.279638 -42.1314248,0 -42.1314248,-14.469609 -42.1314248,-14.469609 z"
     inkscape:connector-curvature="0"
     sodipodi:nodetypes="ccsccsc" /><path
     id="path7"
     d="m 7.2772912,60.823384 0,-15.449242 c 0,0 0.1310088,13.521809 42.2610258,13.521809 42.131424,0 42.261024,-13.521809 42.261024,-13.521809 l 0,15.639213 c 0,0 -0.262019,14.281692 -42.390625,14.281692 -42.1314248,0 -42.1314248,-14.471663 -42.1314248,-14.471663 z"
     inkscape:connector-curvature="0"
     sodipodi:nodetypes="ccsccsc" /><path
     id="path9"
     d="m 7.2772912,83.067418 0,-15.452323 c 0,0 0.1310088,13.52489 42.2610258,13.52489 42.131424,0 42.261024,-13.52489 42.261024,-13.52489 l 0,15.641266 c 0,0 -0.262019,14.279639 -42.390625,14.279639 C 7.2772912,97.537027 7.2772912,83.067418 7.2772912,83.067418 Z"
     inkscape:connector-curvature="0"
     sodipodi:nodetypes="ccscccc" /></svg>