<?xml version="1.0" encoding="UTF-8" standalone="no"?>
<svg
   xmlns:dc="http://purl.org/dc/elements/1.1/"
   xmlns:cc="http://creativecommons.org/ns#"
   xmlns:rdf="http://www.w3.org/1999/02/22-rdf-syntax-ns#"
   xmlns:svg="http://www.w3.org/2000/svg"
   xmlns="http://www.w3.org/2000/svg"
   xmlns:sodipodi="http://sodipodi.sourceforge.net/DTD/sodipodi-0.dtd"
   xmlns:inkscape="http://www.inkscape.org/namespaces/inkscape"
   version="1.1"
   id="Layer_1"
   x="0px"
   y="0px"
   width="100px"
   height="55.443px"
   viewBox="0 0 100 55.443"
   enable-background="new 0 0 100 55.443"
   xml:space="preserve"
   inkscape:version="0.91 r13725"
   sodipodi:docname="delivery.svg"><metadata
     id="metadata27"><rdf:RDF><cc:Work
         rdf:about=""><dc:format>image/svg+xml</dc:format><dc:type
           rdf:resource="http://purl.org/dc/dcmitype/StillImage" /><dc:title /></cc:Work></rdf:RDF></metadata><defs
     id="defs25" /><sodipodi:namedview
     pagecolor="#ffffff"
     bordercolor="#666666"
     borderopacity="1"
     objecttolerance="10"
     gridtolerance="10"
     guidetolerance="10"
     inkscape:pageopacity="0"
     inkscape:pageshadow="2"
     inkscape:window-width="1912"
     inkscape:window-height="1002"
     id="namedview23"
     showgrid="false"
     inkscape:zoom="6.6853484"
     inkscape:cx="40.175028"
     inkscape:cy="32.316391"
     inkscape:window-x="4"
     inkscape:window-y="27"
     inkscape:window-maximized="0"
     inkscape:current-layer="Layer_1"
     showguides="false" /><path
     d="m 5.8613281,0 c 0.2897971,13.737489 0.1329102,27.482552 0.1329102,41.222745 l 3.6215387,4.590081 8.708424,0 c 0.419064,-5.70415 5.17792,-10.222852 11.014696,-10.222852 5.809177,0 10.569515,4.518669 10.988489,10.222852 l 25.118151,0 c 0.504984,-5.618949 5.231895,-10.04127 11.007208,-10.04127 5.747979,0 10.472357,4.422321 10.977257,10.04127 l 8.409318,0 0,-16.634364 -5.328048,-3.994792 -7.238924,-17.9683498 -22.201206,0 -2,-7.2153202 z m 61.5190989,13.286133 11.322432,0 3.981688,11.980635 -15.30412,0 z M 29.425008,39.26466 c -4.444336,0 -8.040129,3.599983 -8.040129,8.023282 0,4.436975 3.595793,8.040128 8.040129,8.040128 4.423308,0 8.017666,-3.603153 8.017667,-8.040128 0,-4.423299 -3.594359,-8.023282 -8.017667,-8.023282 z m 47.123208,0 c -4.444336,0 -8.040129,3.599983 -8.040129,8.023282 0,4.436975 3.595793,8.040128 8.040129,8.040128 4.423299,0 8.03077,-3.603153 8.03077,-8.040128 0,-4.423299 -3.607471,-8.023282 -8.03077,-8.023282 z"
     id="path5"
     inkscape:connector-curvature="0"
     sodipodi:nodetypes="ccccsccscccccccccccccssssssssss" /><g
     transform="matrix(1.5091931,0,0,1.5091931,36.058663,-23.630776)"
     id="g11-9-0"
     style="fill:#ffffff;fill-opacity:1" /></svg>