<?xml version="1.0" encoding="UTF-8" standalone="no"?>
<svg width="100px" height="100px" viewBox="0 0 100 100" version="1.1" xmlns="http://www.w3.org/2000/svg" xmlns:xlink="http://www.w3.org/1999/xlink" xmlns:sketch="http://www.bohemiancoding.com/sketch/ns">
    <!-- Generator: Sketch 3.3.3 (12072) - http://www.bohemiancoding.com/sketch -->
    <title>document-topic</title>
    <desc>Created with Sketch.</desc>
    <defs></defs>
    <g id="Page-1" stroke="none" stroke-width="1" fill="none" fill-rule="evenodd" sketch:type="MSPage">
        <g id="document-topic" sketch:type="MSArtboardGroup" fill="#000000">
            <path d="M59.14454,11 L59.14454,42.429775 L46.7605775,48.9946125 L42.47347,48.9868125 L25.4029555,48.9868125 L18.0393265,48.9992925 C15.7615932,48.8027 13.5540665,50.5000775 12.761541,52.7544075 L0,89 L11.650756,89 L18.0393265,70.853027 L18.0393265,89 L49.6545725,89 L49.6436525,59.7561035 C49.7590925,59.7108603 49.8776525,59.6843402 49.9930925,59.629737 L59.1461,54.61409 L59.1461,67.3022103 L100.832583,67.3022103 L100.832583,11 L59.14454,11 L59.14454,11 Z M33.76347,46.36273 C40.23786,46.36273 45.4781925,41.1223975 45.4781925,34.6480075 C45.4781925,28.2126175 40.23942,22.972285 33.76347,22.972285 C27.326546,22.972285 22.0862005,28.2126175 22.0862005,34.6480075 C22.0893205,41.1239575 27.329666,46.36273 33.76347,46.36273 L33.76347,46.36273 Z M95.0274975,61.4955523 L64.952745,61.4955523 L64.952745,51.8340075 L82.897165,42.82127 C85.4510475,41.595045 86.5243925,38.53101 85.2981675,35.97872 L84.978335,35.3172475 C83.75211,32.764925 80.691195,31.69158 78.135785,32.916245 L64.952745,39.6481325 L64.952745,16.805085 L95.0274975,16.805085 L95.0274975,61.4955523 L95.0274975,61.4955523 Z" sketch:type="MSShapeGroup"></path>
        </g>
    </g>
</svg>