<?xml version="1.0" encoding="UTF-8" standalone="no"?>
<svg
   xmlns:dc="http://purl.org/dc/elements/1.1/"
   xmlns:cc="http://creativecommons.org/ns#"
   xmlns:rdf="http://www.w3.org/1999/02/22-rdf-syntax-ns#"
   xmlns:svg="http://www.w3.org/2000/svg"
   xmlns="http://www.w3.org/2000/svg"
   xmlns:sodipodi="http://sodipodi.sourceforge.net/DTD/sodipodi-0.dtd"
   xmlns:inkscape="http://www.inkscape.org/namespaces/inkscape"
   width="100px"
   height="100px"
   version="1.1"
   xml:space="preserve"
   style="fill-rule:evenodd;clip-rule:evenodd;stroke-linejoin:round;stroke-miterlimit:1.41421;"
   id="svg2"
   inkscape:version="0.91 r13725"
   sodipodi:docname="download.svg"><metadata
     id="metadata13"><rdf:RDF><cc:Work
         rdf:about=""><dc:format>image/svg+xml</dc:format><dc:type
           rdf:resource="http://purl.org/dc/dcmitype/StillImage" /></cc:Work></rdf:RDF></metadata><defs
     id="defs11" /><sodipodi:namedview
     pagecolor="#ffffff"
     bordercolor="#666666"
     borderopacity="1"
     objecttolerance="10"
     gridtolerance="10"
     guidetolerance="10"
     inkscape:pageopacity="0"
     inkscape:pageshadow="2"
     inkscape:window-width="1920"
     inkscape:window-height="1010"
     id="namedview9"
     showgrid="false"
     inkscape:zoom="7.6515625"
     inkscape:cx="50.261385"
     inkscape:cy="43.96637"
     inkscape:window-x="0"
     inkscape:window-y="23"
     inkscape:window-maximized="0"
     inkscape:current-layer="download" /><g
     id="g4"><g
       id="download"><path
         d="m 39.6258,54.194 -9.1525,0 c -2.5364,0 -4.8137,1.4713 -2.5364,3.8621 3.9204,4.0621 9.4608,9.9313 9.4608,9.9313 0,0 5.9184,5.9407 9.6118,9.5635 1.708,1.8391 4.5547,2.023 6.832,0 3.8445,-3.82 10.7505,-10.2991 10.7505,-10.2991 0,0 5.2052,-5.5941 8.8915,-9.5635 1.4233,-1.6552 -0.2847,-3.4943 -2.8111,-3.4943 l -10.5186,0 0,-26.1972 C 60.1538,25.2371 57.9179,23 55.1584,23 l -10.5371,0 c -2.7589,0 -4.9955,2.2482 -4.9955,4.9968 M 95,93.9994 95,6.0006 l -90,0 0,87.9988"
         style="fill:#000000"
         id="path7"
         inkscape:connector-curvature="0"
         sodipodi:nodetypes="csccccccscsssccccc" /></g></g></svg>