<?xml version="1.0" encoding="UTF-8" standalone="no"?>
<svg
   xmlns:dc="http://purl.org/dc/elements/1.1/"
   xmlns:cc="http://creativecommons.org/ns#"
   xmlns:rdf="http://www.w3.org/1999/02/22-rdf-syntax-ns#"
   xmlns:svg="http://www.w3.org/2000/svg"
   xmlns="http://www.w3.org/2000/svg"
   xmlns:sodipodi="http://sodipodi.sourceforge.net/DTD/sodipodi-0.dtd"
   xmlns:inkscape="http://www.inkscape.org/namespaces/inkscape"
   version="1.1"
   id="Layer_1"
   x="0px"
   y="0px"
   width="100px"
   height="70.186px"
   viewBox="0 0 100 70.186"
   enable-background="new 0 0 100 70.186"
   xml:space="preserve"
   inkscape:version="0.91 r13725"
   sodipodi:docname="email_924.svg"><metadata
     id="metadata15"><rdf:RDF><cc:Work
         rdf:about=""><dc:format>image/svg+xml</dc:format><dc:type
           rdf:resource="http://purl.org/dc/dcmitype/StillImage" /></cc:Work></rdf:RDF></metadata><defs
     id="defs13" /><sodipodi:namedview
     pagecolor="#ffffff"
     bordercolor="#666666"
     borderopacity="1"
     objecttolerance="10"
     gridtolerance="10"
     guidetolerance="10"
     inkscape:pageopacity="0"
     inkscape:pageshadow="2"
     inkscape:window-width="1912"
     inkscape:window-height="1002"
     id="namedview11"
     showgrid="false"
     inkscape:zoom="3.2753779"
     inkscape:cx="36.145165"
     inkscape:cy="35.092999"
     inkscape:window-x="4"
     inkscape:window-y="27"
     inkscape:window-maximized="0"
     inkscape:current-layer="g3"
     showguides="true"
     inkscape:guide-bbox="true" /><g
     id="g3"><path
       d="M95.899,60.778L66.397,30.017"
       id="path5" /><path
       d="M 0.1328125 8.8789062 L 0.1328125 62.796875 L 8.8789062 70.09375 L 91.066406 70.09375 L 99.996094 62.958984 L 99.996094 8.8789062 C 90.585336 15.945774 81.157302 22.988265 71.720703 30.019531 L 89.615234 51.34375 L 84.570312 55.578125 L 66.427734 33.955078 C 60.974507 38.012728 55.523893 42.073946 50.0625 46.121094 C 44.747211 42.193665 39.451875 38.239628 34.152344 34.291016 L 16.289062 55.578125 L 11.246094 51.34375 L 28.859375 30.353516 C 19.278881 23.202108 9.7072522 16.0384 0.1328125 8.8789062 z "
       id="path7" /><path
       d="m 2.079,0.093 96,0 -48.017,35.813 z"
       id="path9"
       inkscape:connector-curvature="0"
       sodipodi:nodetypes="cccc" /></g></svg>