<?xml version="1.0" encoding="UTF-8" standalone="no"?>
<svg
   xmlns:sketch="http://www.bohemiancoding.com/sketch/ns"
   xmlns:dc="http://purl.org/dc/elements/1.1/"
   xmlns:cc="http://creativecommons.org/ns#"
   xmlns:rdf="http://www.w3.org/1999/02/22-rdf-syntax-ns#"
   xmlns:svg="http://www.w3.org/2000/svg"
   xmlns="http://www.w3.org/2000/svg"
   xmlns:sodipodi="http://sodipodi.sourceforge.net/DTD/sodipodi-0.dtd"
   xmlns:inkscape="http://www.inkscape.org/namespaces/inkscape"
   width="106.66666"
   height="106.66666"
   viewBox="0 0 100 100"
   version="1.1"
   id="svg2"
   inkscape:version="0.92.1 r15371"
   sodipodi:docname="event.svg">
  <metadata
     id="metadata16">
    <rdf:RDF>
      <cc:Work
         rdf:about="">
        <dc:format>image/svg+xml</dc:format>
        <dc:type
           rdf:resource="http://purl.org/dc/dcmitype/StillImage" />
      </cc:Work>
    </rdf:RDF>
  </metadata>
  <sodipodi:namedview
     pagecolor="#ffffff"
     bordercolor="#666666"
     borderopacity="1"
     objecttolerance="10"
     gridtolerance="10"
     guidetolerance="10"
     inkscape:pageopacity="0"
     inkscape:pageshadow="2"
     inkscape:window-width="1366"
     inkscape:window-height="768"
     id="namedview14"
     showgrid="false"
     inkscape:zoom="5.3032062"
     inkscape:cx="58.059916"
     inkscape:cy="50"
     inkscape:window-x="4"
     inkscape:window-y="27"
     inkscape:window-maximized="1"
     inkscape:current-layer="calendar" />
  <!-- Generator: Sketch 3.1.1 (8761) - http://www.bohemiancoding.com/sketch -->
  <title
     id="title4">calendar</title>
  <desc
     id="desc6">Created with Sketch.</desc>
  <defs
     id="defs8" />
  <g
     id="Page-1"
     sketch:type="MSPage"
     style="fill:none;fill-rule:evenodd;stroke:none;stroke-width:1">
    <g
       id="calendar"
       sketch:type="MSArtboardGroup"
       style="fill:#000000">
      <path
         d="M 6,31 H 94 V 90.906 L 85.999,99 h -72 L 6,90.906 Z M 74,11 94,11.093 V 26 H 6 V 25 11.093 L 25.999,11 V 4 c 0,-1.658 2.343,-3 4,-3 1.657,0 4,1.342 4,3 v 7 h 32 V 4 c 0,-1.658 2.345,-3 4.002,-3 C 71.656,1 74,2.342 74,4 Z M 68,84 V 73.868907 H 58.176168 L 58.176168,42 H 47.681071 L 35,53.9116 l 7.104699,7.285085 5.714517,-5.485957 -10e-7,18.158179 H 37.022535 V 84 Z"
         sketch:type="MSShapeGroup"
         id="path12"
         inkscape:connector-curvature="0"
         sodipodi:nodetypes="cccccccccccccccsssccssccccccccccccc" />
    </g>
  </g>
</svg>
