<?xml version="1.0" encoding="UTF-8" standalone="no"?>
<svg
   xmlns:dc="http://purl.org/dc/elements/1.1/"
   xmlns:cc="http://creativecommons.org/ns#"
   xmlns:rdf="http://www.w3.org/1999/02/22-rdf-syntax-ns#"
   xmlns:svg="http://www.w3.org/2000/svg"
   xmlns="http://www.w3.org/2000/svg"
   xmlns:sodipodi="http://sodipodi.sourceforge.net/DTD/sodipodi-0.dtd"
   xmlns:inkscape="http://www.inkscape.org/namespaces/inkscape"
   version="1.1"
   id="Layer_1"
   x="0px"
   y="0px"
   width="100px"
   height="100px"
   viewBox="0 0 100 100"
   enable-background="new 0 0 100 100"
   xml:space="preserve"
   inkscape:version="0.48.5 r10040"
   sodipodi:docname="fax.svg"><metadata
     id="metadata21"><rdf:RDF><cc:Work
         rdf:about=""><dc:format>image/svg+xml</dc:format><dc:type
           rdf:resource="http://purl.org/dc/dcmitype/StillImage" /><dc:title /></cc:Work></rdf:RDF></metadata><defs
     id="defs19" /><sodipodi:namedview
     pagecolor="#ffffff"
     bordercolor="#666666"
     borderopacity="1"
     objecttolerance="10"
     gridtolerance="10"
     guidetolerance="10"
     inkscape:pageopacity="0"
     inkscape:pageshadow="2"
     inkscape:window-width="1841"
     inkscape:window-height="1017"
     id="namedview17"
     showgrid="false"
     inkscape:zoom="2.4110568"
     inkscape:cx="33.484737"
     inkscape:cy="78.302435"
     inkscape:window-x="4"
     inkscape:window-y="25"
     inkscape:window-maximized="0"
     inkscape:current-layer="Layer_1" /><rect
     x="75"
     y="45"
     width="4"
     height="19"
     id="rect3" /><path
     d="M 81.6875 -0.28125 L 81.6875 11 L 0 11 L 0 69 L 17 69 L 17 59 L 8 59 L 8 39 L 92 39 L 92 59 L 83 59 L 83 69 L 100 69 L 100 11 L 91.9375 11 L 91.9375 -0.28125 L 81.6875 -0.28125 z M 7.65625 17.96875 L 34.1875 17.96875 L 34.1875 32.3125 L 7.65625 32.3125 L 7.65625 17.96875 z M 73.875 22.40625 L 76.875 22.40625 C 77.168444 22.40625 77.40625 22.644054 77.40625 22.9375 L 77.40625 26.3125 C 77.40625 26.605946 77.168444 26.84375 76.875 26.84375 L 73.875 26.84375 C 73.581555 26.84375 73.375 26.605946 73.375 26.3125 L 73.375 22.9375 C 73.375 22.644054 73.581555 22.40625 73.875 22.40625 z M 42.28125 22.46875 L 45.28125 22.46875 C 45.574694 22.46875 45.8125 22.706554 45.8125 23 L 45.8125 26.375 C 45.8125 26.668446 45.574694 26.90625 45.28125 26.90625 L 42.28125 26.90625 C 41.987805 26.90625 41.78125 26.668446 41.78125 26.375 L 41.78125 23 C 41.78125 22.706554 41.987805 22.46875 42.28125 22.46875 z M 55.59375 22.46875 L 58.5625 22.46875 C 58.855944 22.46875 59.125 22.706554 59.125 23 L 59.125 26.375 C 59.125 26.668446 58.855944 26.90625 58.5625 26.90625 L 55.59375 26.90625 C 55.3003 26.90625 55.0625 26.668446 55.0625 26.375 L 55.0625 23 C 55.0625 22.706554 55.3003 22.46875 55.59375 22.46875 z M 13.28125 22.59375 C 12.9878 22.59375 12.75 22.831554 12.75 23.125 L 12.75 26.5 C 12.75 26.793446 12.9878 27.03125 13.28125 27.03125 L 16.25 27.03125 C 16.543445 27.03125 16.78125 26.793446 16.78125 26.5 L 16.78125 23.125 C 16.78125 22.831554 16.543445 22.59375 16.25 22.59375 L 13.28125 22.59375 z M 24.3125 22.59375 C 24.019055 22.59375 23.78125 22.831554 23.78125 23.125 L 23.78125 26.5 C 23.78125 26.793446 24.019055 27.03125 24.3125 27.03125 L 27.3125 27.03125 C 27.605944 27.03125 27.84375 26.793446 27.84375 26.5 L 27.84375 23.125 C 27.84375 22.831554 27.605944 22.59375 27.3125 22.59375 L 24.3125 22.59375 z M 21 45 L 21 80 L 41 100 L 79 100 L 79 45 L 73 45 L 73 94 L 44 94 L 44 77 L 27 77 L 27 45 L 21 45 z M 33 45 L 33 48 L 66.875 48 L 66.875 45 L 33 45 z M 33 56 L 33 59 L 66.875 59 L 66.875 56 L 33 56 z M 33 67 L 33 70 L 66.875 70 L 66.875 67 L 33 67 z "
     id="polygon7" /></svg>
