<?xml version="1.0" encoding="UTF-8" standalone="no"?>
<svg
   xmlns:sketch="http://www.bohemiancoding.com/sketch/ns"
   xmlns:dc="http://purl.org/dc/elements/1.1/"
   xmlns:cc="http://creativecommons.org/ns#"
   xmlns:rdf="http://www.w3.org/1999/02/22-rdf-syntax-ns#"
   xmlns:svg="http://www.w3.org/2000/svg"
   xmlns="http://www.w3.org/2000/svg"
   xmlns:sodipodi="http://sodipodi.sourceforge.net/DTD/sodipodi-0.dtd"
   xmlns:inkscape="http://www.inkscape.org/namespaces/inkscape"
   width="100px"
   height="100px"
   viewBox="0 0 100 100"
   version="1.1"
   id="svg84628"
   sodipodi:docname="group.svg"
   inkscape:version="0.92.1 r15371">
  <metadata
     id="metadata84632">
    <rdf:RDF>
      <cc:Work
         rdf:about="">
        <dc:format>image/svg+xml</dc:format>
        <dc:type
           rdf:resource="http://purl.org/dc/dcmitype/StillImage" />
        <dc:title>groups</dc:title>
      </cc:Work>
    </rdf:RDF>
  </metadata>
  <sodipodi:namedview
     pagecolor="#ffffff"
     bordercolor="#666666"
     borderopacity="1"
     objecttolerance="10"
     gridtolerance="10"
     guidetolerance="10"
     inkscape:pageopacity="0"
     inkscape:pageshadow="2"
     inkscape:window-width="1366"
     inkscape:window-height="768"
     id="namedview84630"
     showgrid="false"
     inkscape:zoom="1.0167503"
     inkscape:cx="30.329487"
     inkscape:cy="59.835256"
     inkscape:window-x="0"
     inkscape:window-y="0"
     inkscape:window-maximized="1"
     inkscape:current-layer="groups"
     showguides="true"
     inkscape:guide-bbox="true" />
  <!-- Generator: Sketch 3.1.1 (8761) - http://www.bohemiancoding.com/sketch -->
  <title
     id="title84618">groups</title>
  <desc
     id="desc84620">Created with Sketch.</desc>
  <defs
     id="defs84622" />
  <g
     id="Page-1"
     stroke="none"
     stroke-width="1"
     fill="none"
     fill-rule="evenodd"
     sketch:type="MSPage">
    <g
       id="groups"
       sketch:type="MSArtboardGroup"
       fill="#010101">
      <path
         d="m 73.311769,52.413592 c 4.037559,3.353395 5.486202,5.639891 6.279435,8.124695 0.578069,1.873023 3.033127,20.343551 3.033127,20.343551 L 100,80.800969 V 61.218139 C 99.786377,60.198546 98.297169,53.628231 89.202746,48.43156 l -0.08131,-2.799123 c 0,0 8.003726,-2.476872 8.572871,-2.939922 0,0 -1.425837,-4.213061 -2.011838,-6.299266 -0.599883,-2.084221 -0.991542,-5.35036 -0.991542,-5.644848 0,-0.304403 -1.231496,-9.056744 -1.903761,-10.512327 -0.666316,-1.454592 -1.586467,-3.424786 -3.139222,-4.394514 -1.550771,-0.967745 -3.86503,-2.347972 -7.184713,-2.534381 -0.0466,-0.003 -0.09717,-0.003 -0.146748,-0.0099 -0.05057,0.0069 -0.09519,0.0069 -0.148731,0.0099 -3.309767,0.186409 -5.627992,1.563661 -7.18273,2.534381 -1.548788,0.968736 -2.458032,2.939922 -3.139222,4.394514 -0.668299,1.455583 -1.899794,10.207924 -1.899794,10.512327 0,0.29548 -0.345056,3.692502 -0.944939,5.778706 -0.592942,2.084222 -1.789733,6.35975 -1.789733,6.35975 0.839836,0.661359 8.294248,2.746572 8.294248,2.746572 0,0 -2.193817,3.931463 -2.193817,6.780163 z m 2.99942,18.063785 C 74.99476,64.348872 73.604682,58.029819 66.352232,54.525468 62.72117,52.650934 57.698926,50.106096 57.698926,50.106096 c 0,-0.213762 -0.947907,-6.592004 -0.947907,-6.592004 3.780018,-1.113307 6.829762,-16.068166 6.829762,-16.068166 C 64.300416,22.544864 63.031382,15.04383 63.031382,15.04383 61.337725,2.5720909 39.334692,4.0229679 36.356525,12.387757 33.358046,15.599999 34.001268,25.70971 34.001268,25.70971 l 2.793422,12.690524 c 1.0485,4.939753 4.300399,5.252175 4.300399,5.252175 0.01644,0.722537 -1.430565,7.306803 -1.430565,7.306803 0,0 -6.74105,2.874671 -9.940717,4.26848 -7.581316,2.680253 -7.334805,9.004143 -8.516786,15.458611 L 18.301536,96.377107 H 79.298891 Z M 27.272347,50.478201 C 26.796707,48.384213 23.85692,45.0059 23.85692,45.0059 c 0,0 3.324596,-2.940763 4.072728,-8.570309 0,0 1.044064,-8.30563 1.098758,-9.923977 0.09278,-2.405547 0.09669,-6.26829 -4.061985,-8.978558 -2.44559,-1.250142 -10.021645,-2.799146 -14.672564,0.334998 -3.894973,3.296273 -4.3110359,7.496945 -4.1869984,9.906398 0.081064,1.626161 0.096691,4.661662 0.723715,6.988098 1.0030435,3.759216 4.6880324,10.236513 4.6880324,10.236513 0,0 -0.175801,4.083472 -0.45806,4.621619 C 6.2113627,52.26942 -0.00261014,53.75494 -0.00261014,61.372992 L 0.03450344,81.092647 14.432885,80.945151 16.894102,61.462846 c 2.995457,-8.707043 5.494878,-8.240193 10.378245,-10.984645 z"
         sketch:type="MSShapeGroup"
         id="path84624"
         inkscape:connector-curvature="0"
         sodipodi:nodetypes="cccccccccscccccccscccccccccccccccccccccccccccccccccccc" />
    </g>
  </g>
</svg>
