<?xml version="1.0" encoding="UTF-8" standalone="no"?>
<svg
   xmlns:sketch="http://www.bohemiancoding.com/sketch/ns"
   xmlns:dc="http://purl.org/dc/elements/1.1/"
   xmlns:cc="http://creativecommons.org/ns#"
   xmlns:rdf="http://www.w3.org/1999/02/22-rdf-syntax-ns#"
   xmlns:svg="http://www.w3.org/2000/svg"
   xmlns="http://www.w3.org/2000/svg"
   xmlns:sodipodi="http://sodipodi.sourceforge.net/DTD/sodipodi-0.dtd"
   xmlns:inkscape="http://www.inkscape.org/namespaces/inkscape"
   width="100px"
   height="100px"
   viewBox="0 0 100 100"
   version="1.1"
   id="svg2"
   inkscape:version="0.48.5 r10040"
   sodipodi:docname="home.svg">
  <metadata
     id="metadata16">
    <rdf:RDF>
      <cc:Work
         rdf:about="">
        <dc:format>image/svg+xml</dc:format>
        <dc:type
           rdf:resource="http://purl.org/dc/dcmitype/StillImage" />
        <dc:title>home</dc:title>
      </cc:Work>
    </rdf:RDF>
  </metadata>
  <sodipodi:namedview
     pagecolor="#ffffff"
     bordercolor="#666666"
     borderopacity="1"
     objecttolerance="10"
     gridtolerance="10"
     guidetolerance="10"
     inkscape:pageopacity="0"
     inkscape:pageshadow="2"
     inkscape:window-width="1920"
     inkscape:window-height="1011"
     id="namedview14"
     showgrid="false"
     inkscape:zoom="1.9797266"
     inkscape:cx="50.25256"
     inkscape:cy="28.569562"
     inkscape:window-x="0"
     inkscape:window-y="21"
     inkscape:window-maximized="0"
     inkscape:current-layer="home" />
  <!-- Generator: Sketch 3.1.1 (8761) - http://www.bohemiancoding.com/sketch -->
  <title
     id="title4">home</title>
  <desc
     id="desc6">Created with Sketch.</desc>
  <defs
     id="defs8" />
  <g
     id="Page-1"
     stroke="none"
     stroke-width="1"
     fill="none"
     fill-rule="evenodd"
     sketch:type="MSPage">
    <g
       id="home"
       sketch:type="MSArtboardGroup"
       fill="#000000">
      <path
         d="m 50.022,5.622 -49.825,34.924 0.0872706,6 c 1.4522207,0.3157 99.8142294,-10e-7 99.8142294,-10e-7 l -0.0985,-6 z m 37.974,20.931 0,-24.86 -14.39,0 0,14.871 z m -75.961,72.938 28.48,0 0,-33.988559 19.32,-0.211914 c 0,3.453125 0,34.200473 0,34.200473 l 28.284,0 -0.244919,-47.68272 C 73.002126,51.82923 11.243869,51.6917 12.386718,51.6917 z"
         sketch:type="MSShapeGroup"
         id="path12"
         inkscape:connector-curvature="0"
         sodipodi:nodetypes="cccccccccccccccccccc" />
      <path
         sodipodi:nodetypes="cccccccccccccccccccc"
         inkscape:connector-curvature="0"
         id="path2993"
         sketch:type="MSShapeGroup"
         d="m 50.022,5.622 -49.825,34.924 0.0872706,6 c 1.4522207,0.3157 99.8142294,-10e-7 99.8142294,-10e-7 l -0.0985,-6 z m 37.974,20.931 0,-24.86 -14.39,0 0,14.871 z m -75.961,72.938 28.48,0 0,-33.988559 19.32,-0.211914 c 0,3.453125 0,34.200473 0,34.200473 l 28.284,0 -0.244919,-47.68272 C 73.002126,51.82923 11.243869,51.6917 12.386718,51.6917 z" />
    </g>
  </g>
</svg>
