<?xml version="1.0" encoding="UTF-8" standalone="no"?>
<svg
   xmlns:dc="http://purl.org/dc/elements/1.1/"
   xmlns:cc="http://creativecommons.org/ns#"
   xmlns:rdf="http://www.w3.org/1999/02/22-rdf-syntax-ns#"
   xmlns:svg="http://www.w3.org/2000/svg"
   xmlns="http://www.w3.org/2000/svg"
   xmlns:sodipodi="http://sodipodi.sourceforge.net/DTD/sodipodi-0.dtd"
   xmlns:inkscape="http://www.inkscape.org/namespaces/inkscape"
   version="1.1"
   id="Layer_1"
   x="0px"
   y="0px"
   width="100px"
   height="100px"
   viewBox="0 0 100 100"
   enable-background="new 0 0 100 100"
   xml:space="preserve"
   sodipodi:docname="image.svg"
   inkscape:version="1.0 (4035a4f, 2020-05-01)"><metadata
   id="metadata5010"><rdf:RDF><cc:Work
       rdf:about=""><dc:format>image/svg+xml</dc:format><dc:type
         rdf:resource="http://purl.org/dc/dcmitype/StillImage" /><dc:title /></cc:Work></rdf:RDF></metadata><defs
   id="defs5008" /><sodipodi:namedview
   inkscape:document-rotation="0"
   pagecolor="#ffffff"
   bordercolor="#666666"
   borderopacity="1"
   objecttolerance="10"
   gridtolerance="10"
   guidetolerance="10"
   inkscape:pageopacity="0"
   inkscape:pageshadow="2"
   inkscape:window-width="956"
   inkscape:window-height="1157"
   id="namedview5006"
   showgrid="false"
   inkscape:zoom="4.4477017"
   inkscape:cx="54.362961"
   inkscape:cy="50"
   inkscape:window-x="960"
   inkscape:window-y="41"
   inkscape:window-maximized="0"
   inkscape:current-layer="Your_Icon" />
<g
   transform="matrix(0.55257102,0,0,0.55257102,20.68219,23.252484)"
   id="Your_Icon">
	<path
   style="stroke-width:1.16216"
   sodipodi:nodetypes="csccscsscccccscccccccscccccccccccccccccscccccccc"
   d="m 58.688166,70.779288 c -5.380779,-1.682801 -13.983053,-2.030285 -16.134202,-2.030285 -3.340035,0 -6.625448,0.262647 -9.841132,0.750752 -3.471358,-22.286653 0.07089,-24.347483 5.258753,-33.286782 0.963427,1.524748 2.585796,2.527688 4.431298,2.527688 2.563715,0 4.702081,-1.944286 5.223889,-4.539379 0.510186,0.171999 1.055237,0.270782 1.622368,0.270782 2.951875,0 5.347077,-2.582309 5.347077,-5.765452 0,-0.08949 -0.007,-0.175486 -0.01743,-0.262647 0.994805,0.664753 1.997745,1.399235 2.975117,2.210419 4.344137,3.605006 8.092088,8.566247 8.087439,14.937183 0,1.544504 -0.221971,3.180819 -0.707752,4.921728 -0.103432,0.368403 0.08019,0.761211 0.412565,0.890211 0.07554,0.03022 0.156891,0.043 0.228945,0.043 0.264971,0 0.513672,-0.169674 0.617104,-0.44743 0.01511,-0.04532 2.194149,-5.666669 2.196474,-12.36417 0,-4.678838 -1.080805,-9.943401 -4.815972,-14.067891 -0.942508,-1.042453 -2.051204,-2.004717 -3.344683,-2.864712 0.09995,-0.0012 0.201053,-0.0023 0.304485,-0.0023 4.166326,-0.0012 8.666192,0.662429 12.497818,2.702011 3.830464,2.04888 7.005472,5.420293 8.663868,11.004449 0.0953,0.306809 0.357944,0.505538 0.644996,0.505538 0.0523,0 0.113892,-0.007 0.168513,-0.02441 0.346322,-0.10227 0.561321,-0.472998 0.486943,-0.850698 -0.01278,-0.04649 -1.145885,-5.816588 -4.460352,-11.649445 -3.2889,-5.816588 -8.873056,-11.770309 -17.665924,-11.769147 -3.86068,0 -8.304762,1.152858 -13.411272,3.895544 C 38.967552,4.7197257 30.982383,0.89274818 24.008289,0.89391028 9.2407808,0.96945038 -0.28191959,17.664974 -0.94202389,18.794589 v 0.0023 c -0.024405,0.03719 -0.034865,0.05811 -0.036027,0.06043 -0.18245841,0.331215 -0.09181,0.758888 0.209188,0.971562 0.2963496,0.212675 0.6996175,0.13481 0.9111298,-0.174323 C 4.6665378,13.029136 10.551692,10.843122 16.589089,10.829176 c 5.732912,-0.0023 11.561121,2.039583 16.166743,4.252327 -0.951805,-0.11854 -1.867584,-0.17781 -2.742687,-0.17781 -9.08573,-0.01511 -14.017917,6.066451 -16.520038,11.979497 -2.530012,5.926992 -2.804281,11.774958 -2.808929,11.823768 -0.01743,0.384674 0.246377,0.71705 0.601996,0.756564 0.02324,0.0035 0.04765,0.0046 0.06973,0.0046 0.330052,0 0.611293,-0.25916 0.664752,-0.617104 0.965751,-6.771879 4.789243,-10.539587 9.428567,-12.74652 4.633513,-2.184852 10.047995,-2.675282 13.858702,-2.671795 0.443943,0 0.865806,0.0058 1.262101,0.01859 -17.691491,16.25047 -15.50199,42.746779 -15.03829,48.778365 -15.5333692,5.281996 -28.7168584,16.25158 -37.442321,30.656492 0.979697,0.0349 115.022003,-0.0825 116.215535,-0.0779 C 90.666028,87.222624 76.10655,75.224532 58.688166,70.779288 Z"
   id="path5002" />
<path
   inkscape:transform-center-y="-0.18241244"
   inkscape:transform-center-x="-0.36282222"
   d="m 103.61793,19.310391 6.64118,0.72076 3.90818,-5.41764 1.36676,6.538863 6.36017,2.042763 -5.79647,3.320479 0.0226,6.680136 -4.94918,-4.486694 -6.34619,2.085789 2.73772,-6.093408 z"
   inkscape:randomized="0"
   inkscape:rounded="0"
   inkscape:flatsided="false"
   sodipodi:arg2="-1.9896753"
   sodipodi:arg1="-2.6179939"
   sodipodi:r2="4.5873756"
   sodipodi:r1="9.8230743"
   sodipodi:cy="24.221927"
   sodipodi:cx="112.12496"
   sodipodi:sides="5"
   id="path6316"
   style="fill:#000000;fill-opacity:1;stroke:none;stroke-width:18.3277;stroke-linecap:round;stroke-miterlimit:4;stroke-dasharray:none;stroke-opacity:1;paint-order:stroke markers fill"
   sodipodi:type="star" /><path
   sodipodi:type="star"
   style="fill:#000000;fill-opacity:1;stroke:none;stroke-width:13.2611;stroke-linecap:round;stroke-miterlimit:4;stroke-dasharray:none;stroke-opacity:1;paint-order:stroke markers fill"
   id="path6316-3"
   sodipodi:sides="5"
   sodipodi:cx="96.392588"
   sodipodi:cy="3.8609516"
   sodipodi:r1="7.107532"
   sodipodi:r2="3.3192177"
   sodipodi:arg1="-2.6179939"
   sodipodi:arg2="-1.9896753"
   inkscape:flatsided="false"
   inkscape:rounded="0"
   inkscape:randomized="0"
   d="m 90.237282,0.30718579 4.805256,0.52150957 2.827787,-3.91995916 0.98892,4.7312254 4.601935,1.4780505 -4.194067,2.4025485 0.01637,4.8334444 L 95.702481,7.1076364 91.11066,8.616819 93.091551,4.2079042 Z"
   inkscape:transform-center-x="-0.26252105"
   inkscape:transform-center-y="-0.13198501" /></g>
<path
   id="path6336"
   d="M 0.17298113,10.189807 V 14.208011 91.49567 H 99.643167 V 10.189807 Z M 8.2093908,18.226216 H 91.606761 V 83.45926 H 8.2093908 Z"
   style="color:#000000;font-style:normal;font-variant:normal;font-weight:normal;font-stretch:normal;font-size:medium;line-height:normal;font-family:sans-serif;font-variant-ligatures:normal;font-variant-position:normal;font-variant-caps:normal;font-variant-numeric:normal;font-variant-alternates:normal;font-variant-east-asian:normal;font-feature-settings:normal;font-variation-settings:normal;text-indent:0;text-align:start;text-decoration:none;text-decoration-line:none;text-decoration-style:solid;text-decoration-color:#000000;letter-spacing:normal;word-spacing:normal;text-transform:none;writing-mode:lr-tb;direction:ltr;text-orientation:mixed;dominant-baseline:auto;baseline-shift:baseline;text-anchor:start;white-space:normal;shape-padding:0;shape-margin:0;inline-size:0;clip-rule:nonzero;display:inline;overflow:visible;visibility:visible;opacity:1;isolation:auto;mix-blend-mode:normal;color-interpolation:sRGB;color-interpolation-filters:linearRGB;solid-color:#000000;solid-opacity:1;vector-effect:none;fill:#000000;fill-opacity:1;fill-rule:evenodd;stroke:none;stroke-width:8.036;stroke-linecap:square;stroke-linejoin:miter;stroke-miterlimit:4;stroke-dasharray:none;stroke-dashoffset:0;stroke-opacity:1;paint-order:stroke markers fill;color-rendering:auto;image-rendering:auto;shape-rendering:auto;text-rendering:auto;enable-background:accumulate;stop-color:#000000;stop-opacity:1" /></svg>
