<?xml version="1.0" encoding="UTF-8" standalone="no"?>
<svg width="100px" height="100px" viewBox="0 0 100 100" version="1.1" xmlns="http://www.w3.org/2000/svg" xmlns:xlink="http://www.w3.org/1999/xlink" xmlns:sketch="http://www.bohemiancoding.com/sketch/ns">
    <g id="Page-1" stroke="none" stroke-width="1" fill="none" fill-rule="evenodd" sketch:type="MSPage">
        <g id="industy" sketch:type="MSArtboardGroup" fill="#000000">
            <path d="M10.7516587,33.7236484 L25.7052192,42.0501139 L25.7052192,33.856052 L40.1314557,42.1116288 L54.916908,42.1493059 L55.8508803,4.61543514 L65.3117927,4.61543514 L66.1128273,42.1493059 L73.5777886,42.1493059 L74.5094885,-0.375976562 L84.5116276,-0.375976562 L85.1774522,42.1493059 L90.5722217,42.1493059 L90.5722217,99.6113281 L10.7130432,99.6113281 L10.7516587,33.7236484 Z M79.2199018,54.0866197 L71.3275743,54.0866197 L71.3275743,82.3624841 L79.2199018,82.3624841 L79.2199018,54.0866197 Z M48.034725,53.8401283 L40.1423861,53.8401283 L40.1423861,82.1159927 L48.034725,82.1159927 L48.034725,53.8401283 Z M63.5588334,53.8401283 L55.666506,53.8401283 L55.666506,82.1159927 L63.5588334,82.1159927 L63.5588334,53.8401283 Z" id="Page-1" sketch:type="MSShapeGroup"></path>
        </g>
    </g>
</svg>
