<?xml version="1.0" encoding="UTF-8" standalone="no"?>
<!-- Created with Inkscape (http://www.inkscape.org/) -->

<svg
   xmlns:dc="http://purl.org/dc/elements/1.1/"
   xmlns:cc="http://creativecommons.org/ns#"
   xmlns:rdf="http://www.w3.org/1999/02/22-rdf-syntax-ns#"
   xmlns:svg="http://www.w3.org/2000/svg"
   xmlns="http://www.w3.org/2000/svg"
   xmlns:sodipodi="http://sodipodi.sourceforge.net/DTD/sodipodi-0.dtd"
   xmlns:inkscape="http://www.inkscape.org/namespaces/inkscape"
   width="100"
   height="100"
   viewBox="0 0 26.458333 26.458334"
   version="1.1"
   id="svg8"
   inkscape:version="0.92.1 r15371"
   sodipodi:docname="language.svg">
  <defs
     id="defs2" />
  <sodipodi:namedview
     id="base"
     pagecolor="#ffffff"
     bordercolor="#666666"
     borderopacity="1.0"
     inkscape:pageopacity="0.0"
     inkscape:pageshadow="2"
     inkscape:zoom="4.4238368"
     inkscape:cx="49.150515"
     inkscape:cy="41.601689"
     inkscape:document-units="px"
     inkscape:current-layer="layer1"
     showgrid="false"
     units="px"
     inkscape:window-width="1366"
     inkscape:window-height="744"
     inkscape:window-x="0"
     inkscape:window-y="24"
     inkscape:window-maximized="1"
     showguides="true"
     inkscape:guide-bbox="true" />
  <metadata
     id="metadata5">
    <rdf:RDF>
      <cc:Work
         rdf:about="">
        <dc:format>image/svg+xml</dc:format>
        <dc:type
           rdf:resource="http://purl.org/dc/dcmitype/StillImage" />
        <dc:title></dc:title>
      </cc:Work>
    </rdf:RDF>
  </metadata>
  <g
     inkscape:label="Layer 1"
     inkscape:groupmode="layer"
     id="layer1"
     transform="translate(0,-270.54165)">
    <path
       style="opacity:1;fill:#000000;fill-opacity:1;stroke:none;stroke-width:0.98060817;stroke-miterlimit:4;stroke-dasharray:none;stroke-opacity:1"
       d="M 0,0 V 100 H 100 V 0 Z m 70.789062,9.5917969 h 4.316407 v 8.5546871 c 3.463541,0.312492 6.171876,1.4388 8.125,3.378907 1.966145,1.940107 2.949219,4.49218 2.949219,7.65625 0,3.242179 -0.983074,5.826826 -2.949219,7.753906 -1.953124,1.92708 -4.661459,3.020815 -8.125,3.28125 v 9.375 H 70.75 v -9.375 c -3.424479,-0.260435 -6.139323,-1.367204 -8.144531,-3.320313 -1.992187,-1.96616 -2.988282,-4.537773 -2.988281,-7.714843 0,-3.294287 0.970054,-5.891942 2.910156,-7.792969 1.940104,-1.914079 4.694014,-2.994805 8.261718,-3.242188 z M 34.662109,8.8710939 47.650391,45.617188 c 0.96,2.453173 1.439528,2.560829 3.519531,2.720703 0.320012,0.320012 0.320012,1.65253 0,1.972656 -1.600003,-0.05329 -3.360207,-0.105469 -5.546875,-0.105469 -2.08,0 -9.012995,0.05218 -10.986328,0.105469 -0.320002,-0.319975 -0.320002,-1.65253 0,-1.972656 2.56,-0.159988 4.852292,-0.479328 4.265625,-1.972657 l -3.146485,-8.373046 h -9.919921 c -1.280001,0 -1.60052,0.104916 -1.867188,0.851562 l -2.398438,7.148438 c -0.693329,2.079832 1.653021,2.23912 3.679688,2.345703 0.320001,0.320012 0.320001,1.65253 0,1.972656 -1.973334,-0.05329 -4.212969,-0.105469 -6.292969,-0.105469 -1.44,0 -5.254713,0.05218 -6.748047,0.105469 -0.320001,-0.319975 -0.320001,-1.65253 0,-1.972656 2.346667,-0.159988 3.361225,-0.426215 4.587891,-3.519532 L 27.302734,11.884766 c 0.693334,0 6.559375,-2.5336721 7.359375,-3.0136721 z M 29.835938,22.097656 25.462891,35.164062 c -0.16,0.533443 0.16065,0.69336 1.333984,0.69336 h 8.160156 L 29.943359,22.097656 Z m 40.953124,-0.357422 c -2.148434,0.247433 -3.756512,1.015667 -4.824218,2.304688 -1.054687,1.289046 -1.582031,3.001286 -1.582032,5.136719 10e-7,2.135407 0.533857,3.854152 1.601563,5.15625 1.067709,1.302072 2.669275,2.063802 4.804687,2.285156 z m 4.316407,0.07813 v 14.804688 c 2.122393,-0.247433 3.704428,-1.015667 4.746093,-2.304688 1.054688,-1.302097 1.582032,-3.014337 1.582032,-5.136718 0,-2.10938 -0.533854,-3.802081 -1.601563,-5.078125 -1.054687,-1.276044 -2.63021,-2.037774 -4.726562,-2.285157 z m -53.517578,38.42773 c 0.552083,0 0.989583,0.161452 1.3125,0.484375 0.333333,0.322923 0.5,0.770849 0.5,1.34375 0,0.552088 -0.166667,0.994796 -0.5,1.328125 -0.333334,0.333354 -0.770834,0.5 -1.3125,0.5 -0.5,0 -0.927084,-0.15104 -1.28125,-0.453125 -0.34375,-0.302085 -0.515625,-0.760399 -0.515625,-1.375 0,-0.645821 0.171875,-1.109378 0.515625,-1.390625 0.354166,-0.291679 0.78125,-0.4375 1.28125,-0.4375 z m 8.140625,0 c 0.552083,0 0.994791,0.161452 1.328125,0.484375 0.333333,0.322923 0.5,0.770849 0.5,1.34375 0,0.562519 -0.171875,1.010421 -0.515625,1.34375 -0.34375,0.322923 -0.78125,0.484375 -1.3125,0.484375 -0.500001,0 -0.927084,-0.15104 -1.28125,-0.453125 -0.34375,-0.302085 -0.515625,-0.760399 -0.515625,-1.375 0,-0.645821 0.171875,-1.109378 0.515625,-1.390625 0.354166,-0.291679 0.781249,-0.4375 1.28125,-0.4375 z m 55.463466,-5.069421 3.518956,3.557702 -3.958985,4.041016 -3.640049,-3.678796 z M 17.072266,66.652344 h 3.703125 v 10.65625 c 0,1.32291 0.270833,2.317716 0.8125,2.984375 0.541666,0.656252 2.882017,0.701815 4.038267,0.701815 1.541666,0 2.587938,-0.514851 3.306689,-1.431512 0.729166,-0.927093 1.686294,-2.134901 1.686294,-4.301553 v -8.609375 h 3.6875 v 17.28125 h -2.890625 l -0.515625,-2.265625 h -0.1875 c -0.510417,0.802091 -1.239584,1.432294 -2.1875,1.890625 -0.9375,0.45833 -4.010417,0.6875 -5.21875,0.6875 -2.093751,0 -3.65625,-0.520837 -4.6875,-1.5625 -1.031251,-1.041663 -1.178244,-2.652184 -1.546875,-4.734375 z m 67.71875,-0.396485 c 1.839998,0 4.960937,2.038752 4.960937,9.71875 v 2.640625 c 0,2.439988 -0.761018,6.041016 -3.041015,6.041016 H 61.271484 c -2.240001,0 -3.200247,-3.040066 -3.240234,-7.080078 0.04,-1.359988 0.519452,-3.321197 1.439453,-5.201172 l 3.041016,0.439453 c -0.840015,2.240013 -0.88086,4.241172 -0.88086,5.201172 0,0.84 0.879767,1.640625 1.759766,1.640625 h 21.400391 c 2.999984,0 3.320312,-2.881119 3.320312,-5.121094 -0.48,0.999988 -1.441174,2.041016 -3.201172,2.041016 -1.840002,0 -3.919922,-0.761353 -3.919922,-3.361328 0,-2.52 1.040782,-6.958985 3.800782,-6.958985 z m -0.160157,3.080079 c -0.84,0.92001 -1.439453,2.399831 -1.439453,2.839843 0.440002,1.199811 1.039218,1.558594 2.199219,1.558594 1.399997,0 1.841249,-0.239677 2.28125,-0.679687 0,-0.36 -1.241016,-3.318727 -3.041016,-3.71875 z m -31.830394,1.601291 c 0.479989,1.719987 0.599001,5.757146 0.638988,7.797146 0.08,0.36 0.440003,0.921875 1,0.921875 h 1.521485 c -10e-7,1.960025 -0.319922,3 -0.919922,3 h -0.679688 c -0.560001,0 -0.801081,-0.04058 -1.121094,-0.400391 -0.679997,5.360013 -3.320078,9.119285 -9.080078,10.279297 l -7.478572,-1.159207 0.160156,-0.839844 c 3.12,-0.6 7.879455,-1.401184 10.439453,-4.201172 2.199999,-2.4 3.838651,-2.800167 4.558651,-5.200167 -0.280003,-1.640013 -1.478814,-4.279195 -2.238813,-6.159208 z"
       transform="matrix(0.26458333,0,0,0.26458333,0,270.54165)"
       id="rect165812"
       inkscape:connector-curvature="0"
       sodipodi:nodetypes="cccccccccsccccccscccccccsccccsccccscccccccscccccsccccccsccscscscscsscscscscscccccccscscscccccccssscssssscccssscsssccsccccscsscccccccc" />
    <g
       aria-label="A"
       style="font-style:normal;font-weight:normal;font-size:10.58333302px;line-height:1.25;font-family:sans-serif;letter-spacing:0px;word-spacing:0px;fill:#ffffff;fill-opacity:1;stroke:none;stroke-width:0.26458332"
       id="text165776"
       transform="translate(-0.67665668,-0.088625)" />
    <g
       aria-label="ü"
       style="font-style:normal;font-weight:normal;font-size:10.58333302px;line-height:1.25;font-family:sans-serif;letter-spacing:0px;word-spacing:0px;fill:#ffffff;fill-opacity:1;stroke:none;stroke-width:0.26458332"
       id="text165780"
       transform="translate(0.11634409,-0.52916667)" />
    <g
       aria-label="ф"
       style="font-style:normal;font-weight:normal;font-size:10.58333302px;line-height:1.25;font-family:sans-serif;letter-spacing:0px;word-spacing:0px;fill:#ffffff;fill-opacity:1;stroke:none;stroke-width:0.26458332"
       id="text165784"
       transform="translate(-0.67665668)" />
    <g
       aria-label="ﻑﺮ"
       style="font-style:normal;font-weight:normal;font-size:10.58333302px;line-height:1.25;font-family:sans-serif;letter-spacing:0px;word-spacing:0px;fill:#ffffff;fill-opacity:1;stroke:none;stroke-width:0.26458332"
       id="text165796"
       transform="translate(-0.67665668)" />
  </g>
</svg>
