<?xml version="1.0" encoding="UTF-8" standalone="no"?>
<!-- Created with Inkscape (http://www.inkscape.org/) -->

<svg
   xmlns:dc="http://purl.org/dc/elements/1.1/"
   xmlns:cc="http://creativecommons.org/ns#"
   xmlns:rdf="http://www.w3.org/1999/02/22-rdf-syntax-ns#"
   xmlns:svg="http://www.w3.org/2000/svg"
   xmlns="http://www.w3.org/2000/svg"
   xmlns:sodipodi="http://sodipodi.sourceforge.net/DTD/sodipodi-0.dtd"
   xmlns:inkscape="http://www.inkscape.org/namespaces/inkscape"
   width="100"
   height="100"
   viewBox="0 0 26.458333 26.458334"
   version="1.1"
   id="svg8"
   inkscape:version="0.92.1 r15371"
   sodipodi:docname="language.svg">
  <defs
     id="defs2" />
  <sodipodi:namedview
     id="base"
     pagecolor="#ffffff"
     bordercolor="#666666"
     borderopacity="1.0"
     inkscape:pageopacity="0.0"
     inkscape:pageshadow="2"
     inkscape:zoom="4.4238368"
     inkscape:cx="55.544121"
     inkscape:cy="44.344113"
     inkscape:document-units="px"
     inkscape:current-layer="layer1"
     showgrid="false"
     units="px"
     inkscape:window-width="1366"
     inkscape:window-height="744"
     inkscape:window-x="0"
     inkscape:window-y="24"
     inkscape:window-maximized="1"
     showguides="true"
     inkscape:guide-bbox="true" />
  <metadata
     id="metadata5">
    <rdf:RDF>
      <cc:Work
         rdf:about="">
        <dc:format>image/svg+xml</dc:format>
        <dc:type
           rdf:resource="http://purl.org/dc/dcmitype/StillImage" />
        <dc:title></dc:title>
      </cc:Work>
    </rdf:RDF>
  </metadata>
  <g
     inkscape:label="Layer 1"
     inkscape:groupmode="layer"
     id="layer1"
     transform="translate(0,-270.54165)">
    <path
       style="opacity:1;fill:#000000;fill-opacity:1;stroke:none;stroke-width:0.98060817;stroke-miterlimit:4;stroke-dasharray:none;stroke-opacity:1"
       d="M 0 0 L 0 100 L 100 100 L 100 0 L 0 0 z M 68.789062 7.5917969 L 73.105469 7.5917969 L 73.105469 16.146484 C 76.56901 16.458976 79.277345 17.585284 81.230469 19.525391 C 83.196614 21.465498 84.179688 24.017571 84.179688 27.181641 C 84.179688 30.42382 83.196614 33.008467 81.230469 34.935547 C 79.277345 36.862627 76.56901 37.956362 73.105469 38.216797 L 73.105469 47.591797 L 68.75 47.591797 L 68.75 38.216797 C 65.325521 37.956362 62.610677 36.849593 60.605469 34.896484 C 58.613282 32.930324 57.617187 30.358711 57.617188 27.181641 C 57.617188 23.887354 58.587242 21.289699 60.527344 19.388672 C 62.467448 17.474593 65.221358 16.393867 68.789062 16.146484 L 68.789062 7.5917969 z M 26.662109 10.871094 L 37.650391 39.617188 C 38.610391 42.070361 39.089919 42.178017 41.169922 42.337891 C 41.489934 42.657903 41.489934 43.990421 41.169922 44.310547 C 39.569919 44.257256 37.809715 44.205078 35.623047 44.205078 C 33.543047 44.205078 30.610052 44.257256 28.636719 44.310547 C 28.316717 43.990572 28.316717 42.658017 28.636719 42.337891 C 31.196719 42.177903 33.489011 41.858563 32.902344 40.365234 L 29.755859 31.992188 L 19.835938 31.992188 C 18.555937 31.992188 18.235418 32.097104 17.96875 32.84375 L 15.570312 39.992188 C 14.876983 42.07202 17.223333 42.231308 19.25 42.337891 C 19.570001 42.657903 19.570001 43.990421 19.25 44.310547 C 17.276666 44.257256 15.037031 44.205078 12.957031 44.205078 C 11.517031 44.205078 9.7023176 44.257256 8.2089844 44.310547 C 7.8889831 43.990572 7.8889831 42.658017 8.2089844 42.337891 C 10.555651 42.177903 11.570209 41.911676 12.796875 38.818359 L 23.302734 11.884766 C 23.996068 11.884766 25.862109 11.351094 26.662109 10.871094 z M 23.835938 16.097656 L 19.462891 29.164062 C 19.302891 29.697505 19.623541 29.857422 20.796875 29.857422 L 28.957031 29.857422 L 23.943359 16.097656 L 23.835938 16.097656 z M 68.789062 19.740234 C 66.640628 19.987667 65.03255 20.755901 63.964844 22.044922 C 62.910157 23.333968 62.382813 25.046208 62.382812 27.181641 C 62.382813 29.317048 62.916669 31.035793 63.984375 32.337891 C 65.052084 33.639963 66.65365 34.401693 68.789062 34.623047 L 68.789062 19.740234 z M 73.105469 19.818359 L 73.105469 34.623047 C 75.227862 34.375614 76.809897 33.60738 77.851562 32.318359 C 78.90625 31.016262 79.433594 29.304022 79.433594 27.181641 C 79.433594 25.072261 78.89974 23.37956 77.832031 22.103516 C 76.777344 20.827472 75.201821 20.065742 73.105469 19.818359 z M 21.587891 60.246094 C 22.139974 60.246094 22.577474 60.407546 22.900391 60.730469 C 23.233724 61.053392 23.400391 61.501318 23.400391 62.074219 C 23.400391 62.626307 23.233724 63.069015 22.900391 63.402344 C 22.567057 63.735698 22.129557 63.902344 21.587891 63.902344 C 21.087891 63.902344 20.660807 63.751304 20.306641 63.449219 C 19.962891 63.147134 19.791016 62.68882 19.791016 62.074219 C 19.791016 61.428398 19.962891 60.964841 20.306641 60.683594 C 20.660807 60.391915 21.087891 60.246094 21.587891 60.246094 z M 27.728516 60.246094 C 28.280599 60.246094 28.723307 60.407546 29.056641 60.730469 C 29.389974 61.053392 29.556641 61.501318 29.556641 62.074219 C 29.556641 62.636738 29.384766 63.08464 29.041016 63.417969 C 28.697266 63.740892 28.259766 63.902344 27.728516 63.902344 C 27.228515 63.902344 26.801432 63.751304 26.447266 63.449219 C 26.103516 63.147134 25.931641 62.68882 25.931641 62.074219 C 25.931641 61.428398 26.103516 60.964841 26.447266 60.683594 C 26.801432 60.391915 27.228515 60.246094 27.728516 60.246094 z M 84.470703 60.615234 L 86.710938 62.734375 L 84.751953 64.775391 L 82.390625 62.535156 L 84.470703 60.615234 z M 17.072266 66.652344 L 20.775391 66.652344 L 20.775391 77.308594 C 20.775391 78.631504 21.046224 79.62631 21.587891 80.292969 C 22.129557 80.949221 22.978516 81.277344 24.134766 81.277344 C 25.676432 81.277344 26.80664 80.819005 27.525391 79.902344 C 28.254557 78.975251 28.619141 77.428371 28.619141 75.261719 L 28.619141 66.652344 L 32.306641 66.652344 L 32.306641 83.933594 L 29.416016 83.933594 L 28.900391 81.667969 L 28.712891 81.667969 C 28.202474 82.47006 27.473307 83.100263 26.525391 83.558594 C 25.587891 84.016924 24.514974 84.246094 23.306641 84.246094 C 21.21289 84.246094 19.650391 83.725257 18.619141 82.683594 C 17.58789 81.641931 17.072266 80.063789 17.072266 77.949219 L 17.072266 66.652344 z M 84.791016 68.255859 C 86.631014 68.255859 89.751953 70.294611 89.751953 77.974609 L 89.751953 80.615234 C 89.751953 83.055222 88.990935 84.65625 86.710938 84.65625 L 61.271484 84.65625 C 59.031483 84.65625 58.071237 83.616184 58.03125 79.576172 C 58.071249 78.216184 58.550702 76.254975 59.470703 74.375 L 60.511719 74.814453 C 59.671704 77.054466 59.630859 79.055625 59.630859 80.015625 C 59.630859 80.855625 60.510626 81.65625 61.390625 81.65625 L 84.791016 81.65625 C 87.791 81.65625 88.111328 78.775131 88.111328 76.535156 C 87.631328 77.535144 86.670154 78.576172 84.910156 78.576172 C 83.070154 78.576172 80.990234 77.814819 80.990234 75.214844 C 80.990234 72.694844 82.031016 68.255859 84.791016 68.255859 z M 84.630859 71.335938 C 83.790859 72.255948 83.191406 73.735769 83.191406 74.175781 C 83.631408 75.375592 84.230624 75.734375 85.390625 75.734375 C 86.790622 75.734375 87.231874 75.494698 87.671875 75.054688 C 87.671875 74.694688 86.430859 71.735961 84.630859 71.335938 z M 52.640625 74.775391 C 53.120614 76.495378 53.399466 78.694375 53.439453 80.734375 C 53.519454 81.094375 53.879456 81.65625 54.439453 81.65625 L 55.960938 81.65625 C 55.960937 83.616275 55.641016 84.65625 55.041016 84.65625 L 54.361328 84.65625 C 53.801327 84.65625 53.560247 84.61567 53.240234 84.255859 C 52.560237 89.615872 49.920156 93.375144 44.160156 94.535156 L 39.640625 93.855469 L 39.800781 93.015625 C 42.920781 92.415625 45.680236 91.614441 48.240234 88.814453 C 50.440233 86.414453 51.119844 85.534766 51.839844 83.134766 C 51.559841 81.494753 51.080311 79.335091 50.320312 77.455078 L 52.640625 74.775391 z "
       transform="matrix(0.26458333,0,0,0.26458333,0,270.54165)"
       id="rect165812" />
    <g
       aria-label="A"
       style="font-style:normal;font-weight:normal;font-size:10.58333302px;line-height:1.25;font-family:sans-serif;letter-spacing:0px;word-spacing:0px;fill:#ffffff;fill-opacity:1;stroke:none;stroke-width:0.26458332"
       id="text165776"
       transform="translate(-0.67665668,-0.088625)" />
    <g
       aria-label="ü"
       style="font-style:normal;font-weight:normal;font-size:10.58333302px;line-height:1.25;font-family:sans-serif;letter-spacing:0px;word-spacing:0px;fill:#ffffff;fill-opacity:1;stroke:none;stroke-width:0.26458332"
       id="text165780"
       transform="translate(0.11634409,-0.52916667)" />
    <g
       aria-label="ф"
       style="font-style:normal;font-weight:normal;font-size:10.58333302px;line-height:1.25;font-family:sans-serif;letter-spacing:0px;word-spacing:0px;fill:#ffffff;fill-opacity:1;stroke:none;stroke-width:0.26458332"
       id="text165784"
       transform="translate(-0.67665668)" />
    <g
       aria-label="ﻑﺮ"
       style="font-style:normal;font-weight:normal;font-size:10.58333302px;line-height:1.25;font-family:sans-serif;letter-spacing:0px;word-spacing:0px;fill:#ffffff;fill-opacity:1;stroke:none;stroke-width:0.26458332"
       id="text165796"
       transform="translate(-0.67665668)" />
  </g>
</svg>
