<?xml version="1.0" encoding="UTF-8" standalone="no"?>
<svg width="100px" height="100px" viewBox="0 0 100 100" version="1.1" xmlns="http://www.w3.org/2000/svg" xmlns:xlink="http://www.w3.org/1999/xlink" xmlns:sketch="http://www.bohemiancoding.com/sketch/ns">
    <g id="Page-1" stroke="none" stroke-width="1" fill="none" fill-rule="evenodd" sketch:type="MSPage">
        <g id="link" sketch:type="MSArtboardGroup" fill="#000000">
            <path d="M47.9111782,15.3474781 L37.3381031,25.9205419 C36.4251757,26.8334692 35.5981608,27.8001772 34.8570696,28.8108999 C34.6957164,29.030928 34.5497291,29.2593334 34.3960588,29.4828445 C39.5034301,28.0998348 44.9251192,28.1808643 49.9933815,29.7315102 L50.8581054,28.8667748 L56.6877191,23.0371725 C61.802079,17.9228126 70.0945716,17.9242126 75.2089201,23.0385612 C80.3225858,28.1522268 80.3232801,36.4454137 75.2096258,41.5590679 L68.5627745,48.2059192 L67.1951307,49.5735631 L65.8645015,50.9041922 L65.8603129,50.9083809 L63.6453939,53.1232999 C61.3368796,55.4318142 58.3815637,56.6939798 55.3626786,56.9189022 L55.3626786,56.9230909 C55.36129,56.9216909 55.3605843,56.9223965 55.3591957,56.9223965 C54.72496,56.9782715 54.1801425,56.9810601 53.714943,56.9629056 C52.6923488,56.9181965 52.0986335,56.758949 52.0986335,56.758949 C52.0979392,56.7568547 52.0986335,56.756149 52.0979392,56.7554547 C52.0965392,56.7554547 52.0951392,56.7554547 52.0944449,56.754749 C49.5414536,56.3042211 47.0967292,55.0944362 45.1248872,53.1225942 C43.2068371,51.2045441 42.0082181,48.8408492 41.5276641,46.363993 C41.5143925,46.2934465 41.5060039,46.2221943 41.493438,46.1523535 C39.2519758,46.3360498 37.0615057,47.2776146 35.3495066,48.9896251 L31.8284073,52.5107244 C33.0346979,55.5680129 34.8661412,58.4360277 37.3388088,60.9086839 C39.810065,63.3799515 42.6752798,65.2155834 45.7318853,66.4225798 C46.2941631,66.6439965 46.8634408,66.8430702 47.4382958,67.0225779 C47.9181555,67.1713539 48.4008151,67.3117526 48.8897577,67.4318911 C48.9267839,67.440974 48.9561156,67.4479626 48.9889531,67.4556456 C49.0769598,67.4780001 49.1642722,67.4926603 49.2529732,67.5143205 C54.3205298,68.6815021 59.680061,68.2351629 64.5227065,66.1767028 C65.118516,65.9231542 65.7087369,65.6500397 66.2863919,65.3475935 C66.3178294,65.3315333 66.3492555,65.3154617 66.3799873,65.2973072 C66.4770769,65.2477152 66.5706837,65.1918289 66.665679,65.1387426 C66.9101446,65.0060382 67.1560102,64.8733225 67.3969929,64.7315238 C67.3997929,64.7287351 67.4025816,64.7287351 67.4060759,64.7266408 C69.161384,63.6879864 70.8168139,62.4153265 72.3241508,60.9079896 L82.8972259,50.3349145 C92.558751,40.673378 92.5580567,25.0097089 82.8972259,15.3488668 C73.2370781,5.68734171 57.5727147,5.68594171 47.9111782,15.3474781 L47.9111782,15.3474781 Z" id="Fill-1" sketch:type="MSShapeGroup"></path>
            <path d="M48.7312045,84.5023359 L59.3042683,73.9292607 C60.2179013,73.0156391 61.0442106,72.0482254 61.7853131,71.0375141 C61.9466663,70.817486 62.0940423,70.5890806 62.2463126,70.3655581 C57.139647,71.7492735 51.7172522,71.6689498 46.6496956,70.1175982 L45.7842659,70.9830278 L39.9546523,76.8126415 C34.8403037,81.92699 26.5485055,81.9262957 21.4334512,76.8112415 C16.3191027,71.6968815 16.3191027,63.405789 21.4334512,58.2914404 L28.0803026,51.6445891 L29.4472521,50.2776395 L30.7778698,48.9470104 L30.7827642,48.9421275 L32.9969775,46.7279028 C35.3047975,44.4200941 38.2601134,43.1579172 41.2789985,42.9330061 L41.2783042,42.9295118 C41.2796928,42.9295118 41.2803985,42.9302061 41.2817871,42.9302061 C41.9160227,42.8729312 42.4608403,42.8701425 42.9260397,42.889697 C43.9479283,42.9323004 44.5416549,43.0929593 44.5416549,43.0929593 C44.5423492,43.0936536 44.5423492,43.0950536 44.5423492,43.0964536 C44.5430435,43.0957479 44.5444435,43.0957479 44.5465378,43.0964536 C47.0995292,43.5469815 49.5449479,44.7560608 51.5160956,46.7272085 C53.4341456,48.6452699 54.6327647,51.0103534 55.11193,53.4858096 C55.1265902,53.5577562 55.1349789,53.6276084 55.1461561,53.6974605 C57.3883126,53.5144471 59.5801714,52.5728823 61.2914762,50.8615775 L64.8132698,47.3397839 C63.6055792,44.282484 61.7734416,41.4151749 59.300774,38.9425187 C56.8288121,36.4705568 53.964303,34.6356192 50.9077088,33.4286229 C50.3454197,33.2072061 49.7761419,33.0081325 49.2012869,32.8286247 C48.7207216,32.6791431 48.2373676,32.5380501 47.749825,32.4193116 C47.7127989,32.4102286 47.6827728,32.4025457 47.650641,32.394157 C47.5626229,32.3732025 47.4746162,32.356448 47.3873038,32.3361878 C42.3197473,31.1690062 36.9588274,31.6153455 32.1175819,33.6737942 C31.5217724,33.9273541 30.9322458,34.2011629 30.3531908,34.5022091 C30.3217647,34.5182693 30.2910215,34.5350352 30.2589011,34.5518011 C30.1632001,34.6027931 30.0696048,34.658668 29.9746094,34.7117543 C29.7294381,34.8437758 29.4835725,34.9764802 29.2425898,35.1196789 C29.2390955,35.1217732 29.2377069,35.1231732 29.2349069,35.1245618 C27.4781987,36.1618276 25.8241688,37.4344762 24.315432,38.943213 L13.7437568,49.5148882 C4.08222608,59.1764246 4.08222608,74.8393994 13.7437568,84.5009359 C23.4059989,94.1631677 39.0696681,94.1638666 48.7312045,84.5023359 L48.7312045,84.5023359 Z" id="Fill-2" sketch:type="MSShapeGroup"></path>
        </g>
    </g>
</svg>
