<?xml version="1.0" encoding="UTF-8" standalone="no"?>
<!-- Created with Inkscape (http://www.inkscape.org/) -->

<svg
   xmlns:dc="http://purl.org/dc/elements/1.1/"
   xmlns:cc="http://creativecommons.org/ns#"
   xmlns:rdf="http://www.w3.org/1999/02/22-rdf-syntax-ns#"
   xmlns:svg="http://www.w3.org/2000/svg"
   xmlns="http://www.w3.org/2000/svg"
   xmlns:sodipodi="http://sodipodi.sourceforge.net/DTD/sodipodi-0.dtd"
   xmlns:inkscape="http://www.inkscape.org/namespaces/inkscape"
   width="100"
   height="100"
   viewBox="0 0 26.458334 26.458333"
   version="1.1"
   id="svg8"
   inkscape:version="0.92.1 r15371"
   sodipodi:docname="lock.svg">
  <defs
     id="defs2">
    <symbol
       id="symbol76240">
      <title
         id="title76228">Mail Send Receive</title>
      <g
         id="g76238">
        <path
           d="M9 7V6c0-.265-.093-.53-.28-.72l-3-3L5.437 2h-.875l-.282.28-3 3C1.094 5.47 1 5.736 1 6v1h1c.265 0 .53-.093.72-.28L5 4.437l2.28 2.28c.19.19.455.282.72.282h1z"
           id="path76230" />
        <path
           d="M4 4v7h2V4H4z"
           id="path76232" />
        <path
           d="M15 8v1c0 .265-.093.53-.28.72l-3 3-.283.28h-.874l-.282-.28-3-3C7.094 9.53 7 9.264 7 9V8h1c.265 0 .53.093.72.28L11 10.563l2.28-2.28c.19-.19.455-.282.72-.282h1z"
           id="path76234" />
        <path
           d="M10 4v7h2V4h-2z"
           id="path76236" />
      </g>
    </symbol>
    <symbol
       id="icon-list"
       viewBox="0 0 28 28">
      <title
         id="title70649">list</title>
      <path
         d="M4 20.5v3c0 0.266-0.234 0.5-0.5 0.5h-3c-0.266 0-0.5-0.234-0.5-0.5v-3c0-0.266 0.234-0.5 0.5-0.5h3c0.266 0 0.5 0.234 0.5 0.5zM4 14.5v3c0 0.266-0.234 0.5-0.5 0.5h-3c-0.266 0-0.5-0.234-0.5-0.5v-3c0-0.266 0.234-0.5 0.5-0.5h3c0.266 0 0.5 0.234 0.5 0.5zM4 8.5v3c0 0.266-0.234 0.5-0.5 0.5h-3c-0.266 0-0.5-0.234-0.5-0.5v-3c0-0.266 0.234-0.5 0.5-0.5h3c0.266 0 0.5 0.234 0.5 0.5zM28 20.5v3c0 0.266-0.234 0.5-0.5 0.5h-21c-0.266 0-0.5-0.234-0.5-0.5v-3c0-0.266 0.234-0.5 0.5-0.5h21c0.266 0 0.5 0.234 0.5 0.5zM4 2.5v3c0 0.266-0.234 0.5-0.5 0.5h-3c-0.266 0-0.5-0.234-0.5-0.5v-3c0-0.266 0.234-0.5 0.5-0.5h3c0.266 0 0.5 0.234 0.5 0.5zM28 14.5v3c0 0.266-0.234 0.5-0.5 0.5h-21c-0.266 0-0.5-0.234-0.5-0.5v-3c0-0.266 0.234-0.5 0.5-0.5h21c0.266 0 0.5 0.234 0.5 0.5zM28 8.5v3c0 0.266-0.234 0.5-0.5 0.5h-21c-0.266 0-0.5-0.234-0.5-0.5v-3c0-0.266 0.234-0.5 0.5-0.5h21c0.266 0 0.5 0.234 0.5 0.5zM28 2.5v3c0 0.266-0.234 0.5-0.5 0.5h-21c-0.266 0-0.5-0.234-0.5-0.5v-3c0-0.266 0.234-0.5 0.5-0.5h21c0.266 0 0.5 0.234 0.5 0.5z"
         id="path70651" />
    </symbol>
    <symbol
       id="icon-lock"
       viewBox="0 0 18 28">
      <title
         id="title70534">lock</title>
      <path
         d="M5 12h8v-3c0-2.203-1.797-4-4-4s-4 1.797-4 4v3zM18 13.5v9c0 0.828-0.672 1.5-1.5 1.5h-15c-0.828 0-1.5-0.672-1.5-1.5v-9c0-0.828 0.672-1.5 1.5-1.5h0.5v-3c0-3.844 3.156-7 7-7s7 3.156 7 7v3h0.5c0.828 0 1.5 0.672 1.5 1.5z"
         id="path70536" />
    </symbol>
  </defs>
  <sodipodi:namedview
     id="base"
     pagecolor="#ffffff"
     bordercolor="#666666"
     borderopacity="1.0"
     inkscape:pageopacity="0.0"
     inkscape:pageshadow="2"
     inkscape:zoom="3.128125"
     inkscape:cx="18.5055"
     inkscape:cy="54.489695"
     inkscape:document-units="px"
     inkscape:current-layer="use88280"
     showgrid="false"
     units="px"
     showguides="true"
     inkscape:guide-bbox="true"
     inkscape:window-width="1366"
     inkscape:window-height="744"
     inkscape:window-x="0"
     inkscape:window-y="24"
     inkscape:window-maximized="1" />
  <metadata
     id="metadata5">
    <rdf:RDF>
      <cc:Work
         rdf:about="">
        <dc:format>image/svg+xml</dc:format>
        <dc:type
           rdf:resource="http://purl.org/dc/dcmitype/StillImage" />
        <dc:title></dc:title>
      </cc:Work>
    </rdf:RDF>
  </metadata>
  <g
     inkscape:label="Layer 1"
     inkscape:groupmode="layer"
     id="layer1"
     transform="translate(0,-270.54167)">
    <g
       id="use85069"
       style="fill:#000000;stroke:none"
       transform="matrix(1.7427093,0,0,1.7427093,-1.4416843,268.85365)">
      <title
         id="title85091">Mail Send Receive</title>
      <g
         id="g85101">
        <g
           id="use88230"
           style="fill:#000000;stroke:none"
           transform="matrix(0.38715534,0,0,0.38715534,4.1725855,4.1371815)">
          <title
             id="title88244">list</title>
          <g
             id="use88280"
             style="fill:#000000;stroke:none"
             transform="matrix(1.2961365,0,0,1.2961365,-7.9941489,-9.3572052)">
            <title
               id="title88294">lock</title>
            <path
               style="stroke-width:4.02059221"
               d="M 51.486328 2.0214844 C 36.031171 2.0214844 23.34375 14.708906 23.34375 30.164062 L 23.34375 42.226562 L 10.775391 42.226562 L 10.435547 99.041016 L 92.539062 99.041016 L 92.472656 42.365234 L 79.630859 42.226562 L 79.630859 30.164062 C 79.630859 14.708906 66.941485 2.0214844 51.486328 2.0214844 z M 51.486328 14.082031 C 60.343694 14.082031 67.570312 21.306697 67.570312 30.164062 L 67.570312 42.226562 L 35.404297 42.226562 L 35.404297 30.164062 C 35.404297 21.306697 42.628966 14.082031 51.486328 14.082031 z M 51.523438 55.625 A 8.028423 8.028423 0 0 1 59.552734 63.652344 A 8.028423 8.028423 0 0 1 56.447266 69.992188 L 58.789062 74.044922 L 66.052734 86.628906 L 51.523438 86.628906 L 36.996094 86.628906 L 44.259766 74.044922 L 46.603516 69.986328 A 8.028423 8.028423 0 0 1 43.496094 63.652344 A 8.028423 8.028423 0 0 1 51.523438 55.625 z "
               id="path88296"
               transform="matrix(0.30255306,0,0,0.30255306,-0.49888183,0.90498826)" />
          </g>
        </g>
      </g>
    </g>
  </g>
</svg>
