<?xml version="1.0" encoding="UTF-8" standalone="no"?>
<svg
   xmlns:dc="http://purl.org/dc/elements/1.1/"
   xmlns:cc="http://creativecommons.org/ns#"
   xmlns:rdf="http://www.w3.org/1999/02/22-rdf-syntax-ns#"
   xmlns:svg="http://www.w3.org/2000/svg"
   xmlns="http://www.w3.org/2000/svg"
   xmlns:sodipodi="http://sodipodi.sourceforge.net/DTD/sodipodi-0.dtd"
   xmlns:inkscape="http://www.inkscape.org/namespaces/inkscape"
   width="100"
   height="100"
   viewBox="-51200 0 0 512"
   version="1.1"
   xml:space="preserve"
   style="clip-rule:evenodd;fill-rule:evenodd;stroke-linejoin:round;stroke-miterlimit:1.41420996"
   id="svg2"
   inkscape:version="0.91 r13725"
   sodipodi:docname="logo.svg"><metadata
     id="metadata31"><rdf:RDF><cc:Work
         rdf:about=""><dc:format>image/svg+xml</dc:format><dc:type
           rdf:resource="http://purl.org/dc/dcmitype/StillImage" /><dc:title></dc:title></cc:Work></rdf:RDF></metadata><defs
     id="defs29" /><sodipodi:namedview
     pagecolor="#ffffff"
     bordercolor="#666666"
     borderopacity="1"
     objecttolerance="10"
     gridtolerance="10"
     guidetolerance="10"
     inkscape:pageopacity="0"
     inkscape:pageshadow="2"
     inkscape:window-width="1572"
     inkscape:window-height="917"
     id="namedview27"
     showgrid="false"
     inkscape:zoom="3.7533111"
     inkscape:cx="28.492226"
     inkscape:cy="41.536943"
     inkscape:window-x="148"
     inkscape:window-y="52"
     inkscape:window-maximized="0"
     inkscape:current-layer="svg2" /><path
     style="fill:#000000"
     d="M 0,4.27e-6 0,100 l 99.966175,0 0,-99.99999573 L 0,4.27e-6 Z M 70.485075,11.29259 c 4.978168,-1.64e-4 9.956463,1.895051 13.747792,5.686381 7.580037,7.580038 7.581347,19.913476 0,27.494824 -7.579817,7.579817 -19.914625,7.579794 -27.494443,0 -2.553628,-2.55363 -4.246677,-5.646167 -5.079895,-8.914139 -0.180499,0.02229 -3.52568,-1.017652 -3.52568,-1.017652 l -0.02394,-7.289621 c 0,0 3.287373,-0.565806 3.363417,-0.560124 0.750181,-3.5621 2.505746,-6.952937 5.266097,-9.713288 3.790674,-3.790674 8.768484,-5.686218 13.746651,-5.686381 z m -7.77e-4,4.746631 c -3.76336,-5.84e-4 -7.526577,1.430927 -10.390835,4.295187 -5.728513,5.728511 -5.725855,15.053156 0.0027,20.781668 5.728513,5.728513 15.048215,5.726222 20.776729,-0.0023 5.728513,-5.728512 5.731168,-15.048595 0.0027,-20.777107 -2.864316,-2.864237 -6.627917,-4.29685 -10.391275,-4.297448 z m 0.01407,2.160704 c 0.130042,0 0.259881,0.0019 0.389124,0.0057 L 83.1643,30.4828 c 0.004,0.129043 0.0057,0.258704 0.0057,0.388745 l 0,0.03572 -1.77424,0 -12.59448,-12.594478 c 0.555323,-0.07451 1.121601,-0.112862 1.6971,-0.112862 z m 2.935153,0.342003 c 1.354149,0.321609 2.624139,0.860813 3.77154,1.578537 l 4.044385,4.044385 c 0.717726,1.1474 1.256927,2.417592 1.578538,3.771542 l -9.394451,-9.394464 z m -6.474892,0.159603 12.205733,12.205734 -2.193003,0 -11.617867,-11.617869 c 0.517768,-0.230719 1.053608,-0.427462 1.605137,-0.587865 z m -3.022172,1.330013 10.875339,10.875721 -2.193004,0 -9.976249,-9.975871 c 0.411298,-0.325603 0.843461,-0.626386 1.293914,-0.89985 z m -2.469648,1.955122 8.920598,8.920599 -2.193005,0 -7.747904,-7.747905 c 0.316214,-0.411699 0.656954,-0.803345 1.020311,-1.172694 z m -1.910281,2.493588 6.42701,6.427011 -2.193385,0 L 58.8235,25.94061 c 0.21354,-0.504185 0.458564,-0.991928 0.733028,-1.460356 z m -28.976079,0.577986 14.486519,2.306626 0.05776,6.847674 -14.543901,2.440008 -17.550872,-0.995991 c -1.958746,0.03527 -3.6218203,-4.160287 -3.6218203,-4.160287 0,0 1.5109843,-4.250603 3.4739993,-4.285687 L 30.58045,25.05824 Z m 27.673044,2.543369 3.305657,3.305656 -2.193385,0 -1.459595,-1.459597 c 0.07072,-0.630431 0.187518,-1.246989 0.347323,-1.846059 z M 20.940891,56.131942 c 1.710155,-0.0012 3.565752,0.133584 5.418859,0.510726 3.1027,0.607806 5.281969,3.588812 6.164048,5.52146 0.948257,1.866471 2.576802,2.891358 6.012427,2.913873 l 43.841462,-1.410196 c 3.30419,-0.108093 5.97124,3.013178 5.993426,6.315288 -0.10891,3.304202 -2.871628,6.869915 -6.110468,6.912657 L 37.939618,74.272202 c -3.110238,0.171345 -4.152036,0.441469 -5.669664,2.730708 -1.652008,2.547786 -4.903567,6.412896 -9.696185,6.213829 -0.711793,-0.05498 -11.514127,-2.843191 -11.514127,-2.843191 l 2.305485,-7.24972 c 0,0 5.980557,1.029603 6.691494,1.215255 0.840809,0.183169 3.631242,-0.142279 4.598051,-4.819595 1.031309,-4.612809 -1.927675,-4.704109 -2.963274,-4.821493 -0.710945,-0.184833 -7.432121,0.171762 -7.432121,0.171762 l -1.109232,-7.844425 c 0,0 3.420449,-0.89049 7.790846,-0.89339 z m 61.443255,10.88446 -3.083353,3.083353 3.069293,3.069674 3.149855,-3.149855 -3.135795,-3.003172 z"
     id="rect7"
     inkscape:connector-curvature="0" /></svg>