<?xml version="1.0" encoding="UTF-8" standalone="no"?>
<svg
   xmlns:dc="http://purl.org/dc/elements/1.1/"
   xmlns:cc="http://creativecommons.org/ns#"
   xmlns:rdf="http://www.w3.org/1999/02/22-rdf-syntax-ns#"
   xmlns:svg="http://www.w3.org/2000/svg"
   xmlns="http://www.w3.org/2000/svg"
   xmlns:sodipodi="http://sodipodi.sourceforge.net/DTD/sodipodi-0.dtd"
   xmlns:inkscape="http://www.inkscape.org/namespaces/inkscape"
   id="svg2"
   version="1.1"
   inkscape:version="0.91 r13725"
   xml:space="preserve"
   width="100"
   height="100"
   viewBox="0 0 100 100"
   sodipodi:docname="15x15 Outline.svg"><metadata
     id="metadata8"><rdf:RDF><cc:Work
         rdf:about=""><dc:format>image/svg+xml</dc:format><dc:type
           rdf:resource="http://purl.org/dc/dcmitype/StillImage" /><dc:title /></cc:Work></rdf:RDF></metadata><defs
     id="defs6" /><sodipodi:namedview
     pagecolor="#ffffff"
     bordercolor="#666666"
     borderopacity="1"
     objecttolerance="10"
     gridtolerance="10"
     guidetolerance="10"
     inkscape:pageopacity="0"
     inkscape:pageshadow="2"
     inkscape:window-width="1448"
     inkscape:window-height="901"
     id="namedview4"
     showgrid="false"
     inkscape:zoom="4.836842"
     inkscape:cx="35.197958"
     inkscape:cy="37.680477"
     inkscape:window-x="234"
     inkscape:window-y="128"
     inkscape:window-maximized="0"
     inkscape:current-layer="g12" /><g
     id="g10"
     inkscape:groupmode="layer"
     inkscape:label="ink_ext_XXXXXX"
     transform="matrix(1.25,0,0,-1.25,0,100)"><g
       id="g12"
       transform="scale(0.1,0.1)"><path
         style="fill:#13100f;fill-opacity:1;fill-rule:evenodd;stroke:none"
         d="M 0 0 L 0 100 L 100 100 L 100 0 L 0 0 z M 72.716797 9.8886719 C 78.113573 9.8884894 83.510988 11.942526 87.621094 16.052734 C 95.838588 24.270018 95.840047 37.640419 87.621094 45.859375 C 79.404019 54.07645 66.031738 54.076493 57.814453 45.859375 C 55.046259 43.090972 53.210092 39.7381 52.306641 36.195312 C 52.110958 36.21933 48.484375 35.091797 48.484375 35.091797 L 48.458984 27.189453 C 48.458984 27.189453 52.023184 26.575975 52.105469 26.582031 C 52.918486 22.720552 54.821961 19.045224 57.814453 16.052734 C 61.92393 11.943256 67.320021 9.8888544 72.716797 9.8886719 z M 72.716797 15.033203 C 68.636974 15.032551 64.556227 16.584398 61.451172 19.689453 C 55.240854 25.899773 55.244971 36.008434 61.455078 42.21875 C 67.665396 48.42886 77.768198 48.427114 83.978516 42.216797 C 90.188626 36.006689 90.190791 25.903469 83.980469 19.693359 C 80.875414 16.588201 76.796619 15.033855 72.716797 15.033203 z M 72.714844 17.589844 C 72.850799 17.589844 72.985972 17.591741 73.121094 17.595703 L 85.957031 30.431641 C 85.961206 30.566552 85.962891 30.701936 85.962891 30.837891 L 85.962891 30.875 L 84.107422 30.875 L 70.939453 17.708984 C 71.520031 17.631087 72.113173 17.589844 72.714844 17.589844 z M 75.783203 17.947266 C 77.198939 18.283501 78.526977 18.84729 79.726562 19.597656 L 83.955078 23.826172 C 84.705447 25.025758 85.269234 26.354003 85.605469 27.769531 L 75.783203 17.947266 z M 69.013672 18.115234 L 81.775391 30.875 L 79.482422 30.875 L 67.335938 18.728516 C 67.877253 18.487302 68.437059 18.282934 69.013672 18.115234 z M 65.853516 19.505859 L 77.224609 30.875 L 74.931641 30.875 L 64.501953 20.445312 C 64.931959 20.104902 65.382578 19.791763 65.853516 19.505859 z M 63.271484 21.548828 L 72.597656 30.875 L 70.304688 30.875 L 62.205078 22.775391 C 62.535673 22.344971 62.891604 21.934976 63.271484 21.548828 z M 61.275391 24.15625 L 67.994141 30.875 L 65.701172 30.875 L 60.507812 25.683594 C 60.731065 25.156479 60.988442 24.64598 61.275391 24.15625 z M 29.457031 24.8125 L 45.162109 27.3125 L 45.224609 34.736328 L 29.457031 37.380859 L 10.431641 36.300781 C 8.3081398 36.339 6.5039065 31.791016 6.5039062 31.791016 C 6.5039062 31.791016 8.1434327 27.182541 10.271484 27.144531 L 29.457031 24.8125 z M 59.912109 27.419922 L 63.369141 30.875 L 61.076172 30.875 L 59.548828 29.349609 C 59.622757 28.690504 59.745037 28.046241 59.912109 27.419922 z M 19.630859 58.503906 C 21.308184 58.533186 23.095124 58.689298 24.880859 59.052734 C 28.244479 59.711632 30.608167 62.942011 31.564453 65.037109 C 32.592372 67.060574 34.357551 68.172832 38.082031 68.197266 L 85.609375 66.667969 C 89.191426 66.550807 92.083404 69.933918 92.107422 73.513672 C 91.989426 77.095719 88.993462 80.96147 85.482422 81.007812 L 37.435547 78.164062 C 34.063803 78.34989 32.934315 78.643127 31.289062 81.125 C 29.498036 83.886927 25.972922 88.077103 20.777344 87.861328 C 20.005675 87.801871 8.2949219 84.777344 8.2949219 84.777344 L 10.794922 76.917969 C 10.794922 76.917969 17.277994 78.034984 18.048828 78.236328 C 18.960463 78.434894 21.985069 78.082409 23.033203 73.011719 C 24.151151 68.01101 20.942835 67.912549 19.820312 67.785156 C 19.049477 67.584878 11.763672 67.970703 11.763672 67.970703 L 10.560547 59.466797 C 10.560547 59.466797 14.598886 58.416067 19.630859 58.503906 z M 85.617188 70.296875 L 82.273438 73.640625 L 85.601562 76.96875 L 89.015625 73.552734 L 85.617188 70.296875 z "
         id="path14"
         transform="matrix(8,0,0,-8,0,800)" /></g></g></svg>
