<?xml version="1.0" encoding="UTF-8" standalone="no"?>
<svg
   xmlns:dc="http://purl.org/dc/elements/1.1/"
   xmlns:cc="http://creativecommons.org/ns#"
   xmlns:rdf="http://www.w3.org/1999/02/22-rdf-syntax-ns#"
   xmlns:svg="http://www.w3.org/2000/svg"
   xmlns="http://www.w3.org/2000/svg"
   xmlns:sodipodi="http://sodipodi.sourceforge.net/DTD/sodipodi-0.dtd"
   xmlns:inkscape="http://www.inkscape.org/namespaces/inkscape"
   id="svg2"
   version="1.1"
   inkscape:version="0.91 r13725"
   xml:space="preserve"
   width="100"
   height="100"
   viewBox="0 0 100 100"
   sodipodi:docname="logo.svg"><metadata
     id="metadata8"><rdf:RDF><cc:Work
         rdf:about=""><dc:format>image/svg+xml</dc:format><dc:type
           rdf:resource="http://purl.org/dc/dcmitype/StillImage" /><dc:title></dc:title></cc:Work></rdf:RDF></metadata><defs
     id="defs6" /><sodipodi:namedview
     pagecolor="#ffffff"
     bordercolor="#666666"
     borderopacity="1"
     objecttolerance="10"
     gridtolerance="10"
     guidetolerance="10"
     inkscape:pageopacity="0"
     inkscape:pageshadow="2"
     inkscape:window-width="1448"
     inkscape:window-height="901"
     id="namedview4"
     showgrid="false"
     inkscape:zoom="3.405628"
     inkscape:cx="20.663194"
     inkscape:cy="37.680477"
     inkscape:window-x="234"
     inkscape:window-y="128"
     inkscape:window-maximized="0"
     inkscape:current-layer="g12" /><g
     id="g10"
     inkscape:groupmode="layer"
     inkscape:label="ink_ext_XXXXXX"
     transform="matrix(1.25,0,0,-1.25,0,100)"><g
       id="g12"
       transform="scale(0.1,0.1)"><path
         style="fill:#13100f;fill-opacity:1;fill-rule:evenodd;stroke:none"
         d="m 72.716797,9.8886719 c 5.396776,-1.825e-4 10.794191,2.0538541 14.904297,6.1640621 8.217494,8.217284 8.218953,21.587685 0,29.806641 -8.217075,8.217075 -21.589356,8.217118 -29.806641,0 -2.768194,-2.768403 -4.604361,-6.121275 -5.507812,-9.664063 -0.195683,0.02402 -3.822266,-1.103515 -3.822266,-1.103515 l -0.02539,-7.902344 c 0,0 3.5642,-0.613478 3.646485,-0.607422 0.813017,-3.861479 2.716492,-7.536807 5.708984,-10.529297 4.109477,-4.109478 9.505568,-6.1638796 14.902344,-6.1640621 z m 0,5.1445311 c -4.079823,-6.52e-4 -8.16057,1.551195 -11.265625,4.65625 -6.210318,6.21032 -6.206201,16.318981 0.0039,22.529297 6.210318,6.21011 16.31312,6.208364 22.523438,-0.002 6.21011,-6.210108 6.212275,-16.313328 0.002,-22.523438 -3.105055,-3.105158 -7.18385,-4.659504 -11.263672,-4.660156 z m -0.002,2.556641 c 0.135955,0 0.271128,0.0019 0.40625,0.0059 l 12.835937,12.835938 c 0.0042,0.134911 0.0059,0.270295 0.0059,0.40625 l 0,0.03711 -1.855469,0 -13.167969,-13.166016 c 0.580578,-0.0779 1.17372,-0.11914 1.775391,-0.11914 z m 3.068359,0.357422 c 1.415736,0.336235 2.743774,0.900024 3.943359,1.65039 l 4.228516,4.228516 c 0.750369,1.199586 1.314156,2.527831 1.650391,3.943359 z m -6.769531,0.167968 12.761719,12.759766 -2.292969,0 -12.146484,-12.146484 c 0.541315,-0.241214 1.101121,-0.445582 1.677734,-0.613282 z m -3.160156,1.390625 11.371093,11.369141 -2.292968,0 -10.429688,-10.429688 c 0.430006,-0.34041 0.880625,-0.653549 1.351563,-0.939453 z m -2.582032,2.042969 9.326172,9.326172 -2.292968,0 -8.09961,-8.099609 c 0.330595,-0.43042 0.686526,-0.840415 1.066406,-1.226563 z m -1.996093,2.607422 6.71875,6.71875 -2.292969,0 -5.19336,-5.191406 c 0.223253,-0.527115 0.48063,-1.037614 0.767579,-1.527344 z m -31.81836,0.65625 15.705078,2.5 0.0625,7.423828 -15.767578,2.644531 -19.02539,-1.080078 C 8.3081398,36.339 6.5039065,31.791016 6.5039062,31.791016 c 0,0 1.6395265,-4.608475 3.7675778,-4.646485 z m 30.455078,2.607422 3.457032,3.455078 -2.292969,0 -1.527344,-1.525391 c 0.07393,-0.659105 0.196209,-1.303368 0.363281,-1.929687 z m -40.28125,31.083984 c 1.677325,0.02928 3.464265,0.185392 5.25,0.548828 3.36362,0.658898 5.727308,3.889277 6.683594,5.984375 1.027919,2.023465 2.793098,3.135723 6.517578,3.160157 l 47.527344,-1.529297 c 3.582051,-0.117162 6.474029,3.265949 6.498047,6.845703 -0.117996,3.582047 -3.11396,7.447798 -6.625,7.49414 L 37.435547,78.164062 C 34.063803,78.34989 32.934315,78.643127 31.289062,81.125 29.498036,83.886927 25.972922,88.077103 20.777344,87.861328 20.005675,87.801871 8.2949219,84.777344 8.2949219,84.777344 l 2.5000001,-7.859375 c 0,0 6.483072,1.117015 7.253906,1.318359 0.911635,0.198566 3.936241,-0.153919 4.984375,-5.224609 1.117948,-5.000709 -2.090368,-5.09917 -3.212891,-5.226563 -0.770835,-0.200278 -8.05664,0.185547 -8.05664,0.185547 l -1.203125,-8.503906 c 0,0 4.038339,-1.05073 9.070312,-0.962891 z m 65.986329,11.792969 -3.34375,3.34375 3.328124,3.328125 3.414063,-3.416016 z"
         id="path14"
         transform="matrix(8,0,0,-8,0,800)"
         inkscape:connector-curvature="0"
         sodipodi:nodetypes="scscccccsssscscssccscccsccccccccccccccccccccccccccccccccccccccsccccccccccccccccsccccc" /></g></g></svg>
