<?xml version="1.0" encoding="UTF-8" standalone="no"?>
<svg
   xmlns:sketch="http://www.bohemiancoding.com/sketch/ns"
   xmlns:dc="http://purl.org/dc/elements/1.1/"
   xmlns:cc="http://creativecommons.org/ns#"
   xmlns:rdf="http://www.w3.org/1999/02/22-rdf-syntax-ns#"
   xmlns:svg="http://www.w3.org/2000/svg"
   xmlns="http://www.w3.org/2000/svg"
   xmlns:sodipodi="http://sodipodi.sourceforge.net/DTD/sodipodi-0.dtd"
   xmlns:inkscape="http://www.inkscape.org/namespaces/inkscape"
   width="100px"
   height="100px"
   viewBox="0 0 100 100"
   version="1.1"
   id="svg2"
   inkscape:version="0.48.5 r10040"
   sodipodi:docname="map.svg">
  <metadata
     id="metadata16">
    <rdf:RDF>
      <cc:Work
         rdf:about="">
        <dc:format>image/svg+xml</dc:format>
        <dc:type
           rdf:resource="http://purl.org/dc/dcmitype/StillImage" />
      </cc:Work>
    </rdf:RDF>
  </metadata>
  <sodipodi:namedview
     pagecolor="#ffffff"
     bordercolor="#666666"
     borderopacity="1"
     objecttolerance="10"
     gridtolerance="10"
     guidetolerance="10"
     inkscape:pageopacity="0"
     inkscape:pageshadow="2"
     inkscape:window-width="1912"
     inkscape:window-height="1003"
     id="namedview14"
     showgrid="false"
     inkscape:zoom="6.5810442"
     inkscape:cx="30.574383"
     inkscape:cy="55.283263"
     inkscape:window-x="4"
     inkscape:window-y="25"
     inkscape:window-maximized="0"
     inkscape:current-layer="map" />
  <!-- Generator: Sketch 3.1.1 (8761) - http://www.bohemiancoding.com/sketch -->
  <title
     id="title4">map</title>
  <desc
     id="desc6">Created with Sketch.</desc>
  <defs
     id="defs8" />
  <g
     id="Page-1"
     stroke="none"
     stroke-width="1"
     fill="none"
     fill-rule="evenodd"
     sketch:type="MSPage">
    <g
       id="map"
       sketch:type="MSArtboardGroup"
       fill="#000000">
      <path
         d="m 99.475,85.190535 0,5.1594 -30.338,9.347 0,-39.5074 14.2537,1.4419 z m -33,-25.3426 0,39.847 -31.8133,-6.933 0,-18.9416 15.1616,-10.5428 z m -35.713,13.9373 0,18.5677 L 0.20078627,99.689586 0.15614053,69.931422 15.945921,67.277535 z m 3.8997,-7.1843 0,-9.1445 12.7436,-29.606 19.0697,-3.2475 0,29.3314 -17.9735,3.6509 z m -3.8997,-0.1294 -13.4942,-5.8863 -17.06703373,2.2629 -0.0446467,-38.1649 16.38783043,4.1189 14.2181,30.5619 z m 68.713,7.6722 -10.9426,-18.4272 -19.3783,-1.6485 -0.0171,0.2194 0,-29.6865 30.338,7.419 z m -54.593,-60.0358 c 0,1.62 -0.301,3.177 -0.851,4.604 l -12.267,28.858 c 0,0 -12.097,-28.534 -12.24,-28.91 -0.543,-1.426 -0.916,-2.939 -0.916,-4.548 0,-7.1920001 5.879,-13.0250001 13.138,-13.0250001 7.257,0 13.136,5.833 13.136,13.0210001 z M 31.753,8.3259349 c -3.226,0 -5.84,2.5870001 -5.84,5.7820001 0,3.191 2.614,5.785 5.84,5.785 3.213,-0.001 5.831,-2.594 5.831,-5.785 0,-3.195 -2.61,-5.7820001 -5.831,-5.7820001 z"
         sketch:type="MSShapeGroup"
         id="path12"
         inkscape:connector-curvature="0"
         sodipodi:nodetypes="cccccccccccccccccccccccccccccccccccccccccccsscscscs" />
    </g>
  </g>
</svg>
