<?xml version="1.0" encoding="UTF-8" standalone="no"?>
<svg
   xmlns:sketch="http://www.bohemiancoding.com/sketch/ns"
   xmlns:dc="http://purl.org/dc/elements/1.1/"
   xmlns:cc="http://creativecommons.org/ns#"
   xmlns:rdf="http://www.w3.org/1999/02/22-rdf-syntax-ns#"
   xmlns:svg="http://www.w3.org/2000/svg"
   xmlns="http://www.w3.org/2000/svg"
   xmlns:sodipodi="http://sodipodi.sourceforge.net/DTD/sodipodi-0.dtd"
   xmlns:inkscape="http://www.inkscape.org/namespaces/inkscape"
   width="100px"
   height="100px"
   viewBox="0 0 100 100"
   version="1.1"
   id="svg2"
   inkscape:version="0.48.5 r10040"
   sodipodi:docname="mention.svg">
  <metadata
     id="metadata16">
    <rdf:RDF>
      <cc:Work
         rdf:about="">
        <dc:format>image/svg+xml</dc:format>
        <dc:type
           rdf:resource="http://purl.org/dc/dcmitype/StillImage" />
        <dc:title>routes</dc:title>
      </cc:Work>
    </rdf:RDF>
  </metadata>
  <sodipodi:namedview
     pagecolor="#ffffff"
     bordercolor="#666666"
     borderopacity="1"
     objecttolerance="10"
     gridtolerance="10"
     guidetolerance="10"
     inkscape:pageopacity="0"
     inkscape:pageshadow="2"
     inkscape:window-width="1920"
     inkscape:window-height="1010"
     id="namedview14"
     showgrid="false"
     inkscape:zoom="3.0891527"
     inkscape:cx="31.125427"
     inkscape:cy="51.878983"
     inkscape:window-x="3"
     inkscape:window-y="54"
     inkscape:window-maximized="0"
     inkscape:current-layer="text3006" />
  <!-- Generator: Sketch 3.1.1 (8761) - http://www.bohemiancoding.com/sketch -->
  <title
     id="title4">routes</title>
  <desc
     id="desc6">Created with Sketch.</desc>
  <defs
     id="defs8" />
  <g
     id="Page-1"
     sketch:type="MSPage">
    <g
       id="routes"
       sketch:type="MSArtboardGroup">
      <g
         style="font-size:135px;font-style:italic;font-variant:normal;font-weight:bold;font-stretch:normal;line-height:125%;letter-spacing:0px;word-spacing:0px;fill:#000000;fill-opacity:1;stroke:none;font-family:rsfs10;-inkscape-font-specification:rsfs10 Bold Italic"
         id="text3005">
        <g
           style="font-size:120px;font-style:normal;font-weight:normal;line-height:125%;fill:#000000;font-family:Sans"
           id="text3006">
          <path
             d="m 98.365303,45.254951 c -1.01e-4,5.625039 -0.898538,10.781284 -2.695312,15.46875 -1.796972,4.648462 -4.336032,8.300802 -7.617188,10.957032 -3.281338,2.656265 -7.089928,3.984388 -11.425781,3.984375 -2.890702,1.3e-5 -5.449293,-0.68358 -7.675781,-2.050782 -2.226633,-1.406232 -3.828194,-3.242168 -4.804688,-5.507812 l -0.9375,0 c -4.218812,5.039079 -9.5899,7.558607 -16.113281,7.558594 -6.914106,1.3e-5 -12.363319,-2.070297 -16.347656,-6.210938 -3.984405,-4.179663 -5.976591,-9.882783 -5.976563,-17.109375 -2.8e-5,-8.242142 2.617157,-14.88276 7.851563,-19.921875 5.234334,-5.039 12.070264,-7.558529 20.507812,-7.558594 3.359315,6.5e-5 7.050718,0.332096 11.074219,0.996094 4.062428,0.625063 7.402269,1.386781 10.019531,2.285156 L 72.877022,56.79792 c -7.6e-5,5.429715 1.484297,8.144556 4.453125,8.144531 2.499917,2.5e-5 4.492102,-1.81638 5.976563,-5.449218 1.484286,-3.671842 2.226473,-8.456993 2.226562,-14.355469 C 85.533183,38.848752 84.224591,33.301882 81.607491,28.497139 78.990221,23.653455 75.298818,19.962052 70.533272,17.42292 65.80664,14.883932 60.39649,13.614402 54.302803,13.614326 c -7.890674,7.6e-5 -14.746136,1.621168 -20.566406,4.863282 -5.820344,3.242255 -10.292995,7.92975 -13.417969,14.0625 -3.085958,6.0938 -4.628925,13.144575 -4.628906,21.152343 -1.9e-5,10.781275 2.871072,19.062517 8.613281,24.84375 5.781217,5.742193 14.140584,8.613284 25.078125,8.613282 4.140568,2e-6 8.691345,-0.449216 13.652344,-1.347657 4.960866,-0.937495 9.843674,-2.28515 14.648438,-4.042968 l 0,11.25 C 69.322262,96.563538 60.044927,98.34088 49.849678,98.340889 35.00589,98.34088 23.42387,94.434634 15.103585,86.622139 6.8223244,78.809649 2.6817036,67.950285 2.6817095,54.044014 2.6817036,44.395621 4.7910764,35.64563 9.0098345,27.794014 13.26763,19.903458 19.302781,13.73159 27.115303,9.278389 34.966828,4.786286 43.990256,2.5401945 54.185616,2.5401077 c 8.593684,8.68e-5 16.269457,1.7578975 23.027344,5.2734375 6.757725,3.5157028 11.972563,8.5156978 15.644531,14.9999998 3.671775,6.484435 5.507711,13.964897 5.507812,22.441406 m -60,7.324219 c -4.1e-5,8.242216 3.35933,12.363306 10.078125,12.363281 3.51557,2.5e-5 6.191349,-1.230443 8.027344,-3.691406 1.835876,-2.499969 2.949156,-6.542934 3.339844,-12.128906 L 60.572335,36.17292 c -1.99225,-0.429634 -4.238341,-0.644477 -6.738282,-0.644531 -4.882864,5.4e-5 -8.691454,1.52349 -11.425781,4.570312 -2.695355,3.046922 -4.04301,7.207074 -4.042969,12.480469"
             style="font-variant:normal;font-weight:bold;font-stretch:normal;font-family:Open Sans;-inkscape-font-specification:Open Sans Bold"
             id="path3056" />
        </g>
      </g>
    </g>
  </g>
</svg>
