<?xml version="1.0" encoding="utf-8"?>
<svg version="1.1" id="Layer_1" xmlns="http://www.w3.org/2000/svg" xmlns:xlink="http://www.w3.org/1999/xlink" x="0px" y="0px"
	 width="100px" height="100px" viewBox="0 0 100 100" enable-background="new 0 0 100 100" xml:space="preserve">
<path fill-rule="evenodd" clip-rule="evenodd" fill="#231F20" d="M96.429,52.287H82.143c-1.973,0-3.571-1.601-3.571-3.575V23.689
	c0-1.975,1.599-3.575,3.571-3.575h14.286c1.973,0,3.571,1.601,3.571,3.575v25.023C100,50.687,98.401,52.287,96.429,52.287z
	 M85.714,9.39c0-1.975,1.6-3.575,3.572-3.575s3.571,1.6,3.571,3.575v7.15h-7.144V9.39z M57.143,80.886H42.857
	c-1.972,0-3.571-1.601-3.571-3.575V52.287c0-1.974,1.599-3.575,3.571-3.575h14.286c1.973,0,3.572,1.601,3.572,3.575v25.023
	C60.715,79.285,59.115,80.886,57.143,80.886z M46.429,9.39c0-1.975,1.599-3.575,3.571-3.575s3.571,1.6,3.571,3.575v35.748h-7.143
	V9.39z M17.857,66.587H3.572C1.599,66.587,0,64.986,0,63.012V37.988c0-1.974,1.599-3.575,3.572-3.575h14.286
	c1.972,0,3.571,1.601,3.571,3.575v25.024C21.428,64.986,19.83,66.587,17.857,66.587z M7.143,9.39c0-1.975,1.599-3.575,3.571-3.575
	s3.571,1.6,3.571,3.575v21.449H7.143V9.39z M14.286,91.61c0,1.975-1.599,3.574-3.571,3.574s-3.571-1.6-3.571-3.574V70.161h7.143
	V91.61z M53.571,91.61c0,1.975-1.599,3.574-3.571,3.574s-3.571-1.6-3.571-3.574v-7.149h7.143V91.61z M92.857,91.61
	c0,1.975-1.599,3.574-3.571,3.574s-3.572-1.6-3.572-3.574V55.861h7.144V91.61z"/>
</svg>
