<?xml version="1.0" encoding="UTF-8" standalone="no"?>
<!-- Generator: Adobe Illustrator 16.2.1, SVG Export Plug-In . SVG Version: 6.00 Build 0)  -->

<svg
   xmlns:dc="http://purl.org/dc/elements/1.1/"
   xmlns:cc="http://creativecommons.org/ns#"
   xmlns:rdf="http://www.w3.org/1999/02/22-rdf-syntax-ns#"
   xmlns:svg="http://www.w3.org/2000/svg"
   xmlns="http://www.w3.org/2000/svg"
   xmlns:sodipodi="http://sodipodi.sourceforge.net/DTD/sodipodi-0.dtd"
   xmlns:inkscape="http://www.inkscape.org/namespaces/inkscape"
   version="1.1"
   id="Layer_1"
   x="0px"
   y="0px"
   width="100px"
   height="100px"
   viewBox="0 0 100 100"
   enable-background="new 0 0 100 100"
   xml:space="preserve"
   inkscape:version="0.91 r13725"
   sodipodi:docname="money.svg"><metadata
     id="metadata11"><rdf:RDF><cc:Work
         rdf:about=""><dc:format>image/svg+xml</dc:format><dc:type
           rdf:resource="http://purl.org/dc/dcmitype/StillImage" /><dc:title /></cc:Work></rdf:RDF></metadata><defs
     id="defs9" /><sodipodi:namedview
     pagecolor="#ffffff"
     bordercolor="#666666"
     borderopacity="1"
     objecttolerance="10"
     gridtolerance="10"
     guidetolerance="10"
     inkscape:pageopacity="0"
     inkscape:pageshadow="2"
     inkscape:window-width="1912"
     inkscape:window-height="1002"
     id="namedview7"
     showgrid="false"
     inkscape:zoom="2.2704757"
     inkscape:cx="-55.70471"
     inkscape:cy="23.234225"
     inkscape:window-x="0"
     inkscape:window-y="27"
     inkscape:window-maximized="0"
     inkscape:current-layer="text4163" /><g
     id="g3"><g
       style="font-style:normal;font-weight:normal;font-size:87.5px;line-height:125%;font-family:sans-serif;text-align:center;letter-spacing:0px;word-spacing:0px;text-anchor:middle;fill:#000000;fill-opacity:1;stroke:none;stroke-width:1px;stroke-linecap:butt;stroke-linejoin:miter;stroke-opacity:1"
       id="text4163"><path
         d="m 62.047704,35.615186 q -2.3625,-2.1875 -4.55,-3.2375 -2.1875,-1.1375 -4.9875,-1.1375 -3.15,0 -4.8125,1.3125 -1.6625,1.3125 -1.6625,4.2875 0,2.1 1.6625,3.5875 1.75,1.4 4.2875,2.7125 2.625,1.3125 5.6,2.7125 2.975,1.4 5.5125,3.4125 2.625,2.0125 4.2875,4.9 1.75,2.8 1.75,7 0,6.3 -3.4125,10.85 -3.4125,4.4625 -10.2375,5.95 l 0,9.1 -8.4875,0 0,-8.75 q -3.85,-0.4375 -8.1375,-2.1 -4.2,-1.75 -7.2625,-4.55 l 5.6,-8.6625 q 3.325,2.5375 6.3,3.85 3.0625,1.225 6.2125,1.225 3.675,0 5.3375,-1.4875 1.75,-1.4875 1.75,-4.55 0,-2.275 -1.75,-3.85 -1.6625,-1.575 -4.2875,-2.975 -2.5375,-1.4875 -5.5125,-2.8875 -2.975,-1.4875 -5.6,-3.5 -2.5375,-2.0125 -4.2875,-4.725 -1.6625,-2.7125 -1.6625,-6.65 0,-6.475 3.5,-10.675 3.5875,-4.2875 9.8,-5.5125 l 0,-9.0125 8.4875,0 0,8.8375 q 4.2,0.6125 7.35,2.5375 3.15,1.925 5.6875,4.6375 l -6.475,7.35 z"
         style="font-style:normal;font-variant:normal;font-weight:bold;font-stretch:normal;font-size:87.5px;font-family:'Source Sans Pro';-inkscape-font-specification:'Source Sans Pro Bold'"
         id="path4146" /></g><g
       style="font-style:normal;font-weight:normal;font-size:15px;line-height:125%;font-family:sans-serif;text-align:center;letter-spacing:0px;word-spacing:0px;text-anchor:middle;fill:#000000;fill-opacity:1;stroke:none;stroke-width:1px;stroke-linecap:butt;stroke-linejoin:miter;stroke-opacity:1"
       id="text4163-7"><path
         d="m 21.517295,40.630811 q -1.51875,-1.40625 -2.925,-2.08125 -1.40625,-0.73125 -3.20625,-0.73125 -2.025,0 -3.09375,0.84375 -1.06875,0.84375 -1.06875,2.75625 0,1.35 1.06875,2.30625 1.125,0.9 2.75625,1.74375 1.6875,0.84375 3.6,1.74375 1.9125,0.9 3.54375,2.19375 1.6875,1.29375 2.75625,3.15 1.125,1.8 1.125,4.5 0,4.05 -2.19375,6.975 -2.19375,2.86875 -6.58125,3.825 l 0,5.85 -5.45625,0 0,-5.625 q -2.4750003,-0.28125 -5.2312503,-1.35 -2.7,-1.125 -4.66875,-2.925 l 3.6,-5.56875 q 2.1375,1.63125 4.05,2.475 1.9687503,0.7875 3.9937503,0.7875 2.3625,0 3.43125,-0.95625 1.125,-0.95625 1.125,-2.925 0,-1.4625 -1.125,-2.475 -1.06875,-1.0125 -2.75625,-1.9125 -1.63125,-0.95625 -3.54375,-1.85625 -1.9125003,-0.95625 -3.6000003,-2.25 -1.63125,-1.29375 -2.75625,-3.0375 -1.06875,-1.74375 -1.06875,-4.275 0,-4.1625 2.25,-6.8625 2.30625,-2.75625 6.3000003,-3.54375 l 0,-5.79375 5.45625,0 0,5.68125 q 2.7,0.39375 4.725,1.63125 2.025,1.2375 3.65625,2.98125 l -4.1625,4.725 z"
         style="font-style:normal;font-variant:normal;font-weight:bold;font-stretch:normal;font-size:56.25px;font-family:'Source Sans Pro';-inkscape-font-specification:'Source Sans Pro Bold'"
         id="path4143" /></g><g
       style="font-style:normal;font-weight:normal;font-size:15px;line-height:125%;font-family:sans-serif;text-align:center;letter-spacing:0px;word-spacing:0px;text-anchor:middle;fill:#000000;fill-opacity:1;stroke:none;stroke-width:1px;stroke-linecap:butt;stroke-linejoin:miter;stroke-opacity:1"
       id="text4163-7-6"><path
         d="m 94.234364,40.630811 q -1.51875,-1.40625 -2.925,-2.08125 -1.40625,-0.73125 -3.20625,-0.73125 -2.025,0 -3.09375,0.84375 -1.06875,0.84375 -1.06875,2.75625 0,1.35 1.06875,2.30625 1.125,0.9 2.75625,1.74375 1.6875,0.84375 3.6,1.74375 1.9125,0.9 3.54375,2.19375 1.6875,1.29375 2.75625,3.15 1.125,1.8 1.125,4.5 0,4.05 -2.19375,6.975 -2.19375,2.86875 -6.58125,3.825 l 0,5.85 -5.45625,0 0,-5.625 q -2.475,-0.28125 -5.23125,-1.35 -2.7,-1.125 -4.66875,-2.925 l 3.6,-5.56875 q 2.1375,1.63125 4.05,2.475 1.96875,0.7875 3.99375,0.7875 2.3625,0 3.43125,-0.95625 1.125,-0.95625 1.125,-2.925 0,-1.4625 -1.125,-2.475 -1.06875,-1.0125 -2.75625,-1.9125 -1.63125,-0.95625 -3.54375,-1.85625 -1.9125,-0.95625 -3.6,-2.25 -1.63125,-1.29375 -2.75625,-3.0375 -1.06875,-1.74375 -1.06875,-4.275 0,-4.1625 2.25,-6.8625 2.30625,-2.75625 6.3,-3.54375 l 0,-5.79375 5.45625,0 0,5.68125 q 2.7,0.39375 4.725,1.63125 2.025,1.2375 3.65625,2.98125 l -4.1625,4.725 z"
         style="font-style:normal;font-variant:normal;font-weight:bold;font-stretch:normal;font-size:56.25px;font-family:'Source Sans Pro';-inkscape-font-specification:'Source Sans Pro Bold'"
         id="path4140" /></g></g></svg>