<?xml version="1.0" encoding="UTF-8" standalone="no"?>
<!-- Generator: Adobe Illustrator 16.2.1, SVG Export Plug-In . SVG Version: 6.00 Build 0)  -->

<svg
   xmlns:dc="http://purl.org/dc/elements/1.1/"
   xmlns:cc="http://creativecommons.org/ns#"
   xmlns:rdf="http://www.w3.org/1999/02/22-rdf-syntax-ns#"
   xmlns:svg="http://www.w3.org/2000/svg"
   xmlns="http://www.w3.org/2000/svg"
   xmlns:sodipodi="http://sodipodi.sourceforge.net/DTD/sodipodi-0.dtd"
   xmlns:inkscape="http://www.inkscape.org/namespaces/inkscape"
   version="1.1"
   id="Layer_1"
   x="0px"
   y="0px"
   width="100px"
   height="100px"
   viewBox="0 0 100 100"
   enable-background="new 0 0 100 100"
   xml:space="preserve"
   inkscape:version="0.48.5 r10040"
   sodipodi:docname="phone-extension.svg"><metadata
     id="metadata15"><rdf:RDF><cc:Work
         rdf:about=""><dc:format>image/svg+xml</dc:format><dc:type
           rdf:resource="http://purl.org/dc/dcmitype/StillImage" /><dc:title /></cc:Work></rdf:RDF></metadata><defs
     id="defs13" /><sodipodi:namedview
     pagecolor="#ffffff"
     bordercolor="#666666"
     borderopacity="1"
     objecttolerance="10"
     gridtolerance="10"
     guidetolerance="10"
     inkscape:pageopacity="0"
     inkscape:pageshadow="2"
     inkscape:window-width="1583"
     inkscape:window-height="1002"
     id="namedview11"
     showgrid="false"
     inkscape:zoom="4.8911398"
     inkscape:cx="61.775921"
     inkscape:cy="35.119304"
     inkscape:window-x="96"
     inkscape:window-y="45"
     inkscape:window-maximized="0"
     inkscape:current-layer="g3"
     showguides="true"
     inkscape:guide-bbox="true" /><g
     id="g3"><path
       style="fill:#000000;fill-opacity:1;stroke-width:4;stroke-miterlimit:4;stroke-dasharray:4, 8;stroke-dashoffset:0"
       d="M 5.90625 0.21875 L 5.90625 100.21875 L 95.90625 100.21875 L 95.90625 0.21875 L 5.90625 0.21875 z M 62.03125 10.1875 C 62.320213 10.175477 62.575955 10.178798 62.84375 10.1875 C 64.791354 10.25078 66.170187 10.895024 66.65625 12.1875 L 70.65625 22.8125 L 54.4375 31.90625 C 52.48468 29.953429 49.24927 26.047301 44.5625 28.78125 C 37.53235 32.882174 36.75718 35.657344 32.65625 42.6875 C 29.9223 47.37427 33.98138 50.465688 36.03125 52.125 L 25.90625 69.53125 L 16.6875 64.375 C 14.08144 61.302448 12.9604 57.738503 20.0625 43.96875 C 26.408 33.130594 34.72928 22.420963 44.6875 16.5625 C 51.043706 12.849471 57.696811 10.36784 62.03125 10.1875 z M 50.125 48 L 82.40625 48.0625 L 82.40625 87.90625 L 50.125 87.84375 L 50.125 48 z M 57.625 53.34375 C 57.18367 53.34375 56.84375 53.675634 56.84375 54.09375 L 56.84375 58.90625 C 56.84375 59.324366 57.18367 59.65625 57.625 59.65625 L 62.125 59.65625 C 62.56633 59.65625 62.90625 59.324366 62.90625 58.90625 L 62.90625 54.09375 C 62.90625 53.675634 62.56633 53.34375 62.125 53.34375 L 57.625 53.34375 z M 70.28125 53.34375 C 69.839912 53.34375 69.5 53.675634 69.5 54.09375 L 69.5 58.90625 C 69.5 59.324366 69.839912 59.65625 70.28125 59.65625 L 74.78125 59.65625 C 75.222581 59.65625 75.59375 59.324366 75.59375 58.90625 L 75.59375 54.09375 C 75.59375 53.675634 75.222581 53.34375 74.78125 53.34375 L 70.28125 53.34375 z M 57.65625 65.3125 C 57.21492 65.3125 56.84375 65.675636 56.84375 66.09375 L 56.84375 70.90625 C 56.84375 71.324365 57.21492 71.65625 57.65625 71.65625 L 62.15625 71.65625 C 62.597589 71.65625 62.9375 71.324365 62.9375 70.90625 L 62.9375 66.09375 C 62.9375 65.675636 62.597589 65.3125 62.15625 65.3125 L 57.65625 65.3125 z M 70.3125 65.3125 C 69.871162 65.3125 69.53125 65.675636 69.53125 66.09375 L 69.53125 70.90625 C 69.53125 71.324365 69.871162 71.65625 70.3125 71.65625 L 74.8125 71.65625 C 75.25383 71.65625 75.59375 71.324365 75.59375 70.90625 L 75.59375 66.09375 C 75.59375 65.675636 75.25383 65.3125 74.8125 65.3125 L 70.3125 65.3125 z M 57.59375 77.25 C 57.152411 77.25 56.78125 77.550635 56.78125 77.96875 L 56.78125 82.8125 C 56.78125 83.230614 57.152411 83.5625 57.59375 83.5625 L 62.0625 83.5625 C 62.50383 83.5625 62.875 83.230614 62.875 82.8125 L 62.875 77.96875 C 62.875 77.550635 62.50383 77.25 62.0625 77.25 L 57.59375 77.25 z M 70.28125 77.25 C 69.839911 77.25 69.46875 77.550635 69.46875 77.96875 L 69.46875 82.8125 C 69.46875 83.230614 69.839911 83.5625 70.28125 83.5625 L 74.75 83.5625 C 75.191339 83.5625 75.53125 83.230614 75.53125 82.8125 L 75.53125 77.96875 C 75.53125 77.550635 75.191339 77.25 74.75 77.25 L 70.28125 77.25 z "
       id="rect2996" /></g></svg>