<?xml version="1.0" encoding="UTF-8" standalone="no"?>
<!-- Generator: Adobe Illustrator 16.2.1, SVG Export Plug-In . SVG Version: 6.00 Build 0)  -->

<svg
   xmlns:dc="http://purl.org/dc/elements/1.1/"
   xmlns:cc="http://creativecommons.org/ns#"
   xmlns:rdf="http://www.w3.org/1999/02/22-rdf-syntax-ns#"
   xmlns:svg="http://www.w3.org/2000/svg"
   xmlns="http://www.w3.org/2000/svg"
   xmlns:sodipodi="http://sodipodi.sourceforge.net/DTD/sodipodi-0.dtd"
   xmlns:inkscape="http://www.inkscape.org/namespaces/inkscape"
   version="1.1"
   id="Layer_1"
   x="0px"
   y="0px"
   width="100px"
   height="100px"
   viewBox="0 0 100 100"
   enable-background="new 0 0 100 100"
   xml:space="preserve"
   sodipodi:docname="publish.svg"
   inkscape:version="0.92.1 r15371"><metadata
     id="metadata8550"><rdf:RDF><cc:Work
         rdf:about=""><dc:format>image/svg+xml</dc:format><dc:type
           rdf:resource="http://purl.org/dc/dcmitype/StillImage" /><dc:title></dc:title></cc:Work></rdf:RDF></metadata><defs
     id="defs8548" /><sodipodi:namedview
     pagecolor="#ffffff"
     bordercolor="#666666"
     borderopacity="1"
     objecttolerance="10"
     gridtolerance="10"
     guidetolerance="10"
     inkscape:pageopacity="0"
     inkscape:pageshadow="2"
     inkscape:window-width="1920"
     inkscape:window-height="1177"
     id="namedview8546"
     showgrid="false"
     inkscape:zoom="3.3701372"
     inkscape:cx="58.631822"
     inkscape:cy="53.774558"
     inkscape:window-x="0"
     inkscape:window-y="23"
     inkscape:window-maximized="0"
     inkscape:current-layer="Layer_1" /><path
     d="M 0.16796875 6.9042969 L 0.16796875 85.904297 L 7.1679688 92.904297 L 93.167969 92.904297 L 100.16797 85.904297 L 100.16797 6.9042969 L 0.16796875 6.9042969 z M 57.410156 20.119141 L 81.847656 20.119141 C 86.323374 20.119141 89.925781 23.861584 89.925781 28.509766 C 89.925781 33.157948 86.323374 36.900391 81.847656 36.900391 L 57.410156 36.900391 C 52.934438 36.900391 49.332031 33.157948 49.332031 28.509766 C 49.332031 23.861584 52.934438 20.119141 57.410156 20.119141 z M 23.691406 21.419922 L 37.59375 38.107422 L 28.808594 38.107422 L 28.808594 76.191406 L 17.892578 76.191406 L 17.892578 38.107422 L 9.8339844 38.107422 L 23.691406 21.419922 z M 80.933594 23.099609 A 5.1368704 5.1368704 0 0 0 75.796875 28.236328 A 5.1368704 5.1368704 0 0 0 80.933594 33.373047 A 5.1368704 5.1368704 0 0 0 86.070312 28.236328 A 5.1368704 5.1368704 0 0 0 80.933594 23.099609 z M 50.265625 49.265625 L 88.580078 49.265625 L 88.580078 53.265625 L 50.265625 53.265625 L 50.265625 49.265625 z M 50.183594 61.265625 L 88.714844 61.265625 L 88.714844 65.265625 L 50.183594 65.265625 L 50.183594 61.265625 z M 50.265625 73.265625 L 88.414062 73.265625 L 88.414062 77.265625 L 50.265625 77.265625 L 50.265625 73.265625 z "
     id="path8543-5" /></svg>