<?xml version="1.0" encoding="UTF-8" standalone="no"?>
<!-- Generator: Adobe Illustrator 15.1.0, SVG Export Plug-In . SVG Version: 6.00 Build 0)  -->

<svg
   xmlns:dc="http://purl.org/dc/elements/1.1/"
   xmlns:cc="http://creativecommons.org/ns#"
   xmlns:rdf="http://www.w3.org/1999/02/22-rdf-syntax-ns#"
   xmlns:svg="http://www.w3.org/2000/svg"
   xmlns="http://www.w3.org/2000/svg"
   xmlns:sodipodi="http://sodipodi.sourceforge.net/DTD/sodipodi-0.dtd"
   xmlns:inkscape="http://www.inkscape.org/namespaces/inkscape"
   version="1.1"
   id="Layer_1"
   x="0px"
   y="0px"
   width="96px"
   height="100px"
   viewBox="0 0 96 100"
   enable-background="new 0 0 96 100"
   xml:space="preserve"
   inkscape:version="0.91 r13725"
   sodipodi:docname="recrawl.svg"><metadata
     id="metadata9"><rdf:RDF><cc:Work
         rdf:about=""><dc:format>image/svg+xml</dc:format><dc:type
           rdf:resource="http://purl.org/dc/dcmitype/StillImage" /><dc:title></dc:title></cc:Work></rdf:RDF></metadata><defs
     id="defs7" /><sodipodi:namedview
     pagecolor="#ffffff"
     bordercolor="#666666"
     borderopacity="1"
     objecttolerance="10"
     gridtolerance="10"
     guidetolerance="10"
     inkscape:pageopacity="0"
     inkscape:pageshadow="2"
     inkscape:window-width="1920"
     inkscape:window-height="1009"
     id="namedview5"
     showgrid="false"
     inkscape:zoom="3.8903125"
     inkscape:cx="48.257049"
     inkscape:cy="35.459126"
     inkscape:window-x="0"
     inkscape:window-y="24"
     inkscape:window-maximized="0"
     inkscape:current-layer="Layer_1" /><path
     style="opacity:1;fill:#000000;fill-opacity:1;fill-rule:nonzero;stroke:none;stroke-width:3;stroke-linecap:butt;stroke-linejoin:miter;stroke-miterlimit:4;stroke-dasharray:none;stroke-dashoffset:0;stroke-opacity:1"
     d="M 44.242188,5.4375 A 42.895576,44.203369 0 0 0 1.3476562,49.640625 42.895576,44.203369 0 0 0 44.242188,93.84375 a 42.895576,44.203369 0 0 0 0.02734,-0.002 l 0,-18.154297 a 25.278427,26.04911 0 0 1 -0.02734,0.002 A 25.278427,26.04911 0 0 1 18.964844,49.640625 25.278427,26.04911 0 0 1 44.242188,23.591797 25.278427,26.04911 0 0 1 69.136719,45.144531 l -9.542969,0 9.146484,12.44336 9.146485,12.443359 9.144531,-12.443359 9.146484,-12.44336 -9.265625,0 A 42.895576,44.203369 0 0 0 44.242188,5.4375 Z"
     id="path4196"
     inkscape:connector-curvature="0" /></svg>