<?xml version="1.0" encoding="UTF-8" standalone="no"?>
<!-- Created with Inkscape (http://www.inkscape.org/) -->

<svg
   xmlns:dc="http://purl.org/dc/elements/1.1/"
   xmlns:cc="http://creativecommons.org/ns#"
   xmlns:rdf="http://www.w3.org/1999/02/22-rdf-syntax-ns#"
   xmlns:svg="http://www.w3.org/2000/svg"
   xmlns="http://www.w3.org/2000/svg"
   xmlns:sodipodi="http://sodipodi.sourceforge.net/DTD/sodipodi-0.dtd"
   xmlns:inkscape="http://www.inkscape.org/namespaces/inkscape"
   width="100"
   height="100"
   viewBox="0 0 26.458333 26.458334"
   version="1.1"
   id="svg8"
   inkscape:version="0.92.1 r15371"
   sodipodi:docname="regex.svg">
  <defs
     id="defs2" />
  <sodipodi:namedview
     id="base"
     pagecolor="#ffffff"
     bordercolor="#666666"
     borderopacity="1.0"
     inkscape:pageopacity="0.0"
     inkscape:pageshadow="2"
     inkscape:zoom="2.2119184"
     inkscape:cx="57.126458"
     inkscape:cy="44.610282"
     inkscape:document-units="px"
     inkscape:current-layer="layer1"
     showgrid="false"
     units="px"
     inkscape:window-width="1366"
     inkscape:window-height="744"
     inkscape:window-x="0"
     inkscape:window-y="24"
     inkscape:window-maximized="1" />
  <metadata
     id="metadata5">
    <rdf:RDF>
      <cc:Work
         rdf:about="">
        <dc:format>image/svg+xml</dc:format>
        <dc:type
           rdf:resource="http://purl.org/dc/dcmitype/StillImage" />
        <dc:title></dc:title>
      </cc:Work>
    </rdf:RDF>
  </metadata>
  <g
     inkscape:label="Layer 1"
     inkscape:groupmode="layer"
     id="layer1"
     transform="translate(0,-270.54165)">
    <text
       xml:space="preserve"
       style="font-style:normal;font-weight:normal;font-size:19.55857086px;line-height:1.25;font-family:sans-serif;letter-spacing:0px;word-spacing:0px;fill:#000000;fill-opacity:1;stroke:none;stroke-width:0.40747026"
       x="-1.6809466"
       y="289.25458"
       id="text165722"><tspan
         sodipodi:role="line"
         id="tspan165720"
         x="-1.6809466"
         y="289.25458"
         style="font-style:normal;font-variant:normal;font-weight:bold;font-stretch:normal;font-size:19.55857086px;font-family:'Liberation Mono';-inkscape-font-specification:'Liberation Mono Bold';stroke-width:0.40747026">{</tspan></text>
    <g
       aria-label="}"
       style="font-style:normal;font-weight:normal;font-size:12.69999981px;line-height:1.25;font-family:sans-serif;letter-spacing:0px;word-spacing:0px;fill:#000000;fill-opacity:1;stroke:none;stroke-width:0.26458332"
       id="text165722-6"
       transform="matrix(1.540045,0,0,1.540045,-7.0729182,-152.52076)">
      <path
         d="m 16.481737,289.40726 v -1.18443 h 1.16582 q 0.564307,0 0.812354,-0.32246 0.254248,-0.31626 0.254248,-0.97358 v -1.86655 q 0,-0.57671 0.347265,-0.99839 0.347266,-0.42788 0.936377,-0.56431 v -0.0248 q -0.576709,-0.12403 -0.930176,-0.55191 -0.353466,-0.42788 -0.353466,-1.01079 v -1.86655 q 0,-0.65113 -0.254248,-0.97359 -0.248047,-0.32246 -0.812354,-0.32246 h -1.16582 v -1.17822 h 2.027783 q 0.855762,0 1.339453,0.47749 0.489893,0.47129 0.489893,1.37666 v 2.03398 q 0,0.70074 0.334863,1.0542 0.334863,0.34727 1.085205,0.37828 v 1.20922 q -0.73794,0.0124 -1.079004,0.36587 -0.341064,0.34727 -0.341064,1.0542 v 2.03399 q 0,0.87436 -0.496094,1.36425 -0.496094,0.4899 -1.333252,0.4899 z"
         style="font-style:normal;font-variant:normal;font-weight:bold;font-stretch:normal;font-size:12.69999981px;font-family:'Liberation Mono';-inkscape-font-specification:'Liberation Mono Bold';stroke-width:0.26458332"
         id="path165753"
         inkscape:connector-curvature="0" />
    </g>
    <g
       aria-label="*"
       style="font-style:normal;font-weight:normal;font-size:10.58333302px;line-height:1.25;font-family:sans-serif;letter-spacing:0px;word-spacing:0px;fill:#000000;fill-opacity:1;stroke:none;stroke-width:0.26458332"
       id="text165744"
       transform="matrix(2.4043453,0,0,2.4043453,-11.522014,-389.62432)">
      <path
         d="m 10.77704,279.58746 1.214396,-0.53743 0.351399,1.01802 -1.29191,0.31523 0.961181,1.10071 -0.950846,0.62528 -0.754476,-1.30224 -0.7699788,1.30224 -0.9611816,-0.63562 0.9818522,-1.09037 -1.2919108,-0.31523 0.3513998,-1.01802 1.2350667,0.53743 -0.093018,-1.41593 h 1.1110435 z"
         style="font-style:normal;font-variant:normal;font-weight:bold;font-stretch:normal;font-family:'Liberation Mono';-inkscape-font-specification:'Liberation Mono Bold';stroke-width:0.26458332"
         id="path165750"
         inkscape:connector-curvature="0" />
    </g>
  </g>
</svg>
