<?xml version="1.0" encoding="UTF-8" standalone="no"?>
<!-- Created with Inkscape (http://www.inkscape.org/) -->

<svg
   xmlns:dc="http://purl.org/dc/elements/1.1/"
   xmlns:cc="http://creativecommons.org/ns#"
   xmlns:rdf="http://www.w3.org/1999/02/22-rdf-syntax-ns#"
   xmlns:svg="http://www.w3.org/2000/svg"
   xmlns="http://www.w3.org/2000/svg"
   xmlns:sodipodi="http://sodipodi.sourceforge.net/DTD/sodipodi-0.dtd"
   xmlns:inkscape="http://www.inkscape.org/namespaces/inkscape"
   width="100"
   height="100"
   viewBox="0 0 26.458333 26.458334"
   version="1.1"
   id="svg84576"
   sodipodi:docname="screenshot.svg"
   inkscape:version="0.92.1 r15371">
  <defs
     id="defs84570">
    <symbol
       id="symbol149328">
      <title
         id="title149324">Aspect Ratio</title>
      <path
         style="stroke-width:0.26458332"
         inkscape:connector-curvature="0"
         d="M 10.054167,6.35 H 8.9958333 v 1.5875 h -1.5875 V 8.9958333 H 10.054167 Z M 3.7041667,4.7625 h 1.5875 V 3.7041667 H 2.6458333 V 6.35 H 3.7041667 Z M 11.1125,1.5875 h -9.525 c -0.5847292,0 -1.05833333,0.4736042 -1.05833333,1.0583333 v 7.4083337 c 0,0.584729 0.47360413,1.058333 1.05833333,1.058333 h 9.525 c 0.584729,0 1.058333,-0.473604 1.058333,-1.058333 V 2.6458333 C 12.170833,2.0611042 11.697229,1.5875 11.1125,1.5875 Z m 0,8.474604 H 1.5875 V 2.6378958 h 9.525 z"
         id="path149326" />
    </symbol>
  </defs>
  <sodipodi:namedview
     id="base"
     pagecolor="#ffffff"
     bordercolor="#666666"
     borderopacity="1.0"
     inkscape:pageopacity="0.0"
     inkscape:pageshadow="2"
     inkscape:zoom="2.2119184"
     inkscape:cx="62.274487"
     inkscape:cy="36.366865"
     inkscape:document-units="mm"
     inkscape:current-layer="use165666"
     showgrid="false"
     units="px"
     inkscape:window-width="1366"
     inkscape:window-height="744"
     inkscape:window-x="0"
     inkscape:window-y="24"
     inkscape:window-maximized="1" />
  <metadata
     id="metadata84573">
    <rdf:RDF>
      <cc:Work
         rdf:about="">
        <dc:format>image/svg+xml</dc:format>
        <dc:type
           rdf:resource="http://purl.org/dc/dcmitype/StillImage" />
        <dc:title></dc:title>
      </cc:Work>
    </rdf:RDF>
  </metadata>
  <g
     inkscape:label="Layer 1"
     inkscape:groupmode="layer"
     id="layer1"
     transform="translate(0,-270.54165)">
    <g
       id="use165666"
       style="fill:#000000;stroke:none"
       transform="matrix(2.2727273,0,0,2.1930318,-1.2026515,269.89297)">
      <title
         id="title165680">Aspect Ratio</title>
      <path
         id="path165682"
         d="M 10.054167,6.35 H 8.9958333 v 1.5875 h -1.5875 V 8.9958333 H 10.054167 Z M 3.7041667,4.7625 h 1.5875 V 3.7041667 H 2.6458333 V 6.35 H 3.7041667 Z M 0.52916667,1.4393604 V 11.26064 H 12.170833 V 1.4393604 Z M 11.1125,10.062104 H 1.5875 V 2.6378958 h 9.525 z"
         inkscape:connector-curvature="0"
         style="stroke-width:0.26458332"
         sodipodi:nodetypes="cccccccccccccccccccccccc" />
    </g>
  </g>
</svg>
