<?xml version="1.0" encoding="UTF-8" standalone="no"?>
<!-- Generator: Adobe Illustrator 16.2.1, SVG Export Plug-In . SVG Version: 6.00 Build 0)  -->

<svg
   xmlns:dc="http://purl.org/dc/elements/1.1/"
   xmlns:cc="http://creativecommons.org/ns#"
   xmlns:rdf="http://www.w3.org/1999/02/22-rdf-syntax-ns#"
   xmlns:svg="http://www.w3.org/2000/svg"
   xmlns="http://www.w3.org/2000/svg"
   xmlns:sodipodi="http://sodipodi.sourceforge.net/DTD/sodipodi-0.dtd"
   xmlns:inkscape="http://www.inkscape.org/namespaces/inkscape"
   version="1.1"
   id="Layer_1"
   x="0px"
   y="0px"
   width="100px"
   height="100px"
   viewBox="0 0 100 100"
   enable-background="new 0 0 100 100"
   xml:space="preserve"
   inkscape:version="0.91 r13725"
   sodipodi:docname="search.svg"><metadata
     id="metadata11"><rdf:RDF><cc:Work
         rdf:about=""><dc:format>image/svg+xml</dc:format><dc:type
           rdf:resource="http://purl.org/dc/dcmitype/StillImage" /></cc:Work></rdf:RDF></metadata><defs
     id="defs9" /><sodipodi:namedview
     pagecolor="#ffffff"
     bordercolor="#666666"
     borderopacity="1"
     objecttolerance="10"
     gridtolerance="10"
     guidetolerance="10"
     inkscape:pageopacity="0"
     inkscape:pageshadow="2"
     inkscape:window-width="1912"
     inkscape:window-height="1002"
     id="namedview7"
     showgrid="false"
     inkscape:zoom="2.0428203"
     inkscape:cx="-24.872593"
     inkscape:cy="23.234225"
     inkscape:window-x="69"
     inkscape:window-y="237"
     inkscape:window-maximized="0"
     inkscape:current-layer="g3" /><g
     id="g3"><path
       d="M 63.136719 2.1035156 C 44.098687 2.1035156 28.048828 17.831146 28.048828 36.871094 C 28.048828 45.055847 30.868538 53.237152 36.384766 59.845703 L 25.746094 61.460938 L 2.3847656 83.970703 L 2.4648438 86.585938 L 6.4355469 93.232422 L 11.876953 97.085938 L 15.107422 97.251953 L 37.722656 74.068359 L 40.335938 63.935547 C 46.944489 69.447943 54.960662 72.273438 63.140625 72.273438 C 72.112042 72.273437 81.078972 68.808741 87.994141 61.894531 C 94.763666 55.119257 98.070312 46.152069 98.070312 37.027344 C 98.070312 18.151244 82.014735 2.1035156 63.136719 2.1035156 z M 63.140625 15.632812 C 74.634924 15.632812 84.541016 25.392229 84.541016 37.029297 C 84.541016 48.991187 74.786316 58.753906 63.140625 58.753906 C 57.635894 58.753906 52.133215 56.538648 47.878906 52.445312 C 43.633221 48.203461 41.591797 42.694043 41.591797 37.029297 C 41.591797 25.547454 51.347374 15.632812 63.140625 15.632812 z "
       id="path5" /></g></svg>