<?xml version="1.0" encoding="UTF-8" standalone="no"?>
<svg
   xmlns:dc="http://purl.org/dc/elements/1.1/"
   xmlns:cc="http://creativecommons.org/ns#"
   xmlns:rdf="http://www.w3.org/1999/02/22-rdf-syntax-ns#"
   xmlns:svg="http://www.w3.org/2000/svg"
   xmlns="http://www.w3.org/2000/svg"
   xmlns:sodipodi="http://sodipodi.sourceforge.net/DTD/sodipodi-0.dtd"
   xmlns:inkscape="http://www.inkscape.org/namespaces/inkscape"
   version="1.1"
   id="Layer_1"
   x="0px"
   y="0px"
   width="106.66666"
   height="106.66666"
   viewBox="0 0 100 100"
   enable-background="new 0 0 100 100"
   xml:space="preserve"
   inkscape:version="0.92.1 r15371"
   sodipodi:docname="search.svg"><metadata
     id="metadata11"><rdf:RDF><cc:Work
         rdf:about=""><dc:format>image/svg+xml</dc:format><dc:type
           rdf:resource="http://purl.org/dc/dcmitype/StillImage" /></cc:Work></rdf:RDF></metadata><defs
     id="defs9" /><sodipodi:namedview
     pagecolor="#ffffff"
     bordercolor="#666666"
     borderopacity="1"
     objecttolerance="10"
     gridtolerance="10"
     guidetolerance="10"
     inkscape:pageopacity="0"
     inkscape:pageshadow="2"
     inkscape:window-width="1366"
     inkscape:window-height="768"
     id="namedview7"
     showgrid="false"
     inkscape:zoom="1.7096918"
     inkscape:cx="-49.637608"
     inkscape:cy="23.234225"
     inkscape:window-x="0"
     inkscape:window-y="0"
     inkscape:window-maximized="0"
     inkscape:current-layer="g3" /><g
     id="g3"><path
       d="m 63.136719,2.1035156 c -19.038032,0 -35.087891,15.7276304 -35.087891,34.7675784 0,8.184753 2.81971,16.366058 8.335938,22.974609 l -10.638672,1.615235 -23.3613284,22.509765 0.080078,2.615235 3.9707031,6.646484 5.4414061,3.853516 3.230469,0.166015 22.615234,-23.183594 2.613282,-10.132812 c 6.608551,5.512396 14.624724,8.337891 22.804687,8.337891 8.971417,-10e-7 17.938347,-3.464697 24.853516,-10.378907 6.769525,-6.775274 10.076171,-15.742462 10.076171,-24.867187 0,-18.8761 -16.055577,-34.9238284 -34.933593,-34.9238284 z m 0.0039,13.5292964 c 11.494299,0 21.400391,9.759417 21.400391,21.396485 0,11.96189 -9.7547,21.724609 -21.400391,21.724609 -5.504731,0 -11.00741,-2.215258 -15.261719,-6.308594 -4.245685,-4.241851 -6.287109,-9.751269 -6.287109,-15.416015 0,-11.481843 9.755577,-21.396485 21.548828,-21.396485 z"
       id="path5"
       inkscape:connector-curvature="0" /></g></svg>