<?xml version="1.0" encoding="UTF-8" standalone="no"?>
<svg
   xmlns:dc="http://purl.org/dc/elements/1.1/"
   xmlns:cc="http://creativecommons.org/ns#"
   xmlns:rdf="http://www.w3.org/1999/02/22-rdf-syntax-ns#"
   xmlns:svg="http://www.w3.org/2000/svg"
   xmlns="http://www.w3.org/2000/svg"
   xmlns:sodipodi="http://sodipodi.sourceforge.net/DTD/sodipodi-0.dtd"
   xmlns:inkscape="http://www.inkscape.org/namespaces/inkscape"
   version="1.1"
   id="Layer_1"
   x="0px"
   y="0px"
   width="100px"
   height="100px"
   viewBox="0 0 100 100"
   enable-background="new 0 0 100 100"
   xml:space="preserve"
   sodipodi:docname="sentiment.svg"
   inkscape:version="0.92.1 r15371"><metadata
     id="metadata85149"><rdf:RDF><cc:Work
         rdf:about=""><dc:format>image/svg+xml</dc:format><dc:type
           rdf:resource="http://purl.org/dc/dcmitype/StillImage" /></cc:Work></rdf:RDF></metadata><defs
     id="defs85147" /><sodipodi:namedview
     pagecolor="#ffffff"
     bordercolor="#666666"
     borderopacity="1"
     objecttolerance="10"
     gridtolerance="10"
     guidetolerance="10"
     inkscape:pageopacity="0"
     inkscape:pageshadow="2"
     inkscape:window-width="1366"
     inkscape:window-height="744"
     id="namedview85145"
     showgrid="false"
     inkscape:zoom="3.7286624"
     inkscape:cx="42.509186"
     inkscape:cy="50"
     inkscape:window-x="0"
     inkscape:window-y="24"
     inkscape:window-maximized="0"
     inkscape:current-layer="Layer_1" /><path
     d="M 49.964025,1.992 C 23.705961,1.992 2.421,23.276961 2.421,49.535025 c 0,26.258063 21.285983,47.544047 47.543025,47.544047 26.257041,0 47.543025,-21.285984 47.543025,-47.544047 C 97.50705,23.276961 76.222088,1.992 49.964025,1.992 Z m 13.259903,26.520828 c 2.858716,0 7.220405,2.617423 7.220405,5.847281 0,3.230881 -4.362712,5.849326 -7.220405,5.849326 -2.857694,0 -7.218361,-2.618445 -7.218361,-5.849326 0,-3.229858 4.360667,-5.847281 7.218361,-5.847281 z m -27.814203,0 c 2.857693,0 7.219382,2.617423 7.219382,5.847281 0,3.230881 -4.361689,5.849326 -7.219382,5.849326 -2.857694,0 -7.219383,-2.618445 -7.219383,-5.849326 0,-3.229858 4.361689,-5.847281 7.219383,-5.847281 z m 13.988896,51.307489 c -15.03791,0 -27.658794,-9.440102 -30.920348,-22.068143 25.607506,12.687984 34.109794,14.137529 61.859099,-0.06441 C 77.101379,70.34852 64.462091,79.820317 49.398621,79.820317 Z"
     id="path85142"
     inkscape:connector-curvature="0"
     sodipodi:nodetypes="ssssssssssssssssccs"
     style="stroke-width:1.02243066" /></svg>