<?xml version="1.0" encoding="UTF-8" standalone="no"?>
<svg
   xmlns:sketch="http://www.bohemiancoding.com/sketch/ns"
   xmlns:dc="http://purl.org/dc/elements/1.1/"
   xmlns:cc="http://creativecommons.org/ns#"
   xmlns:rdf="http://www.w3.org/1999/02/22-rdf-syntax-ns#"
   xmlns:svg="http://www.w3.org/2000/svg"
   xmlns="http://www.w3.org/2000/svg"
   xmlns:sodipodi="http://sodipodi.sourceforge.net/DTD/sodipodi-0.dtd"
   xmlns:inkscape="http://www.inkscape.org/namespaces/inkscape"
   width="100px"
   height="100px"
   viewBox="0 0 100 100"
   version="1.1"
   id="svg4611"
   sodipodi:docname="settings.svg"
   inkscape:version="0.92.1 r15371">
  <metadata
     id="metadata4615">
    <rdf:RDF>
      <cc:Work
         rdf:about="">
        <dc:format>image/svg+xml</dc:format>
        <dc:type
           rdf:resource="http://purl.org/dc/dcmitype/StillImage" />
        <dc:title>settings</dc:title>
      </cc:Work>
    </rdf:RDF>
  </metadata>
  <sodipodi:namedview
     pagecolor="#ffffff"
     bordercolor="#666666"
     borderopacity="1"
     objecttolerance="10"
     gridtolerance="10"
     guidetolerance="10"
     inkscape:pageopacity="0"
     inkscape:pageshadow="2"
     inkscape:window-width="1920"
     inkscape:window-height="1177"
     id="namedview4613"
     showgrid="false"
     inkscape:zoom="3.5850314"
     inkscape:cx="50"
     inkscape:cy="69.723866"
     inkscape:window-x="0"
     inkscape:window-y="23"
     inkscape:window-maximized="1"
     inkscape:current-layer="settings" />
  <!-- Generator: Sketch 3.1.1 (8761) - http://www.bohemiancoding.com/sketch -->
  <title
     id="title4602">settings</title>
  <desc
     id="desc4604">Created with Sketch.</desc>
  <defs
     id="defs4606" />
  <g
     id="Page-1"
     sketch:type="MSPage"
     style="fill:none;fill-rule:evenodd;stroke:none;stroke-width:1"
     transform="rotate(-15,50.235,50.0905)">
    <g
       id="settings"
       sketch:type="MSArtboardGroup"
       style="fill:#000000">
      <path
         d="m 86.244327,41.882501 -0.463761,-1.730782 c -0.463262,-1.728915 -1.110426,-3.56164 -2.004549,-5.177107 -0.491462,-1.259098 -1.26852,-2.43767 -1.906547,-3.657496 2.6946,-3.192409 5.829109,-7.196274 8.342789,-10.496295 L 90.354157,20.7828 79.908203,10.614467 c -3.320188,2.5866 -6.936952,5.948249 -10.075286,8.642209 C 68.557091,18.516921 67.274982,17.779852 66.035629,17.187414 64.467356,16.52502 62.899334,15.863561 61.269758,15.528768 60.721964,15.213289 60.064942,15.080163 59.558904,14.90558 59.052171,10.717919 58.692937,6.490736 58.189504,2.3041913 L 43.643514,2.1855112 C 43.100018,6.5014937 42.810632,10.5933 42.516328,14.685424 l -2.017378,0.540555 -0.579728,0.155337 c -1.687343,0.60721 -3.232104,1.175214 -4.741145,1.887734 -1.258598,0.493329 -2.439968,1.271136 -3.618473,2.052178 -3.195026,-2.6969 -7.103329,-5.830475 -10.256533,-8.382494 l -0.183904,-0.103809 -10.211089,10.301322 0.03852,0.143765 c 2.69421,3.139268 5.817215,6.792437 8.511174,9.930771 -0.739254,1.277692 -1.369963,2.374214 -1.927864,3.757399 -0.84213,1.461345 -1.465318,3.172199 -1.945425,4.845715 -0.276958,0.691559 -0.411085,1.344847 -0.507623,2.142149 -4.222015,0.359851 -8.4538664,0.720336 -12.6399106,1.225634 l -0.076199,14.518767 c 4.1292109,0.436451 8.5476615,0.969334 12.6808565,1.405718 l 0.540555,2.017379 c 0.42449,1.584217 1.033383,3.274109 1.925139,4.88821 0.531601,1.401429 1.349797,2.726065 2.16706,4.050951 -2.694349,3.193344 -6.008869,7.394989 -8.667498,10.732848 l 10.305124,10.214073 0.142831,-0.03827 c 3.1369,-2.695577 7.078126,-6.294712 10.361408,-9.026509 1.091421,0.634077 2.153154,1.120021 3.247626,1.754282 1.607045,0.807091 3.46253,1.387524 5.461347,1.931551 0.506539,0.17645 1.161193,0.308209 1.851636,0.588468 0.322329,4.081985 0.827378,8.267095 1.335112,12.458491 l 14.505284,-0.0295 c 0.540696,-4.315232 0.977581,-8.446561 1.23498,-12.683883 l 1.726114,-0.46251 0.145632,-0.03902 c 1.730782,-0.463762 3.275111,-1.02965 4.782717,-1.743787 1.363841,-0.675615 2.688978,-1.491944 4.01013,-2.308207 0,0 0.03727,0.139097 0.185703,0.09933 3.192477,2.698584 6.723762,5.6424 9.910071,8.336634 L 90.344508,79.257399 c -2.584732,-3.320688 -5.46975,-6.742844 -8.199681,-10.026627 0.628592,-1.096954 1.115787,-2.154021 1.75073,-3.249676 0.662211,-1.565222 1.284465,-3.275825 1.800794,-4.802959 -0.03902,-0.145632 0.06759,-0.330286 0.02882,-0.474985 0.172898,-0.508589 0.304725,-1.159259 0.477557,-1.671833 4.226683,-0.3611 8.415594,-0.863165 12.642961,-1.22545 L 98.780211,43.155135 C 94.613345,42.570684 90.373289,42.318019 86.244327,41.882501 Z m -18.530928,8.62041 c 0.08331,4.687336 -1.642939,8.681875 -4.899673,11.904841 -3.493856,3.439588 -7.464183,5.089765 -12.050626,4.996953 -4.687653,0.07839 -8.817305,-1.610652 -12.042388,-4.867819 -3.400451,-3.355261 -5.053178,-7.323903 -4.997387,-12.04851 -0.07627,-4.68722 1.64979,-8.678708 5.0048,-12.080092 3.252933,-3.22595 7.36049,-4.912897 11.909229,-4.957065 4.724674,0.05978 8.820106,1.609901 12.083577,5.002865 3.397399,3.355077 5.053427,7.324837 4.992468,12.048827 z"
         id="Shape"
         sketch:type="MSShapeGroup"
         inkscape:connector-curvature="0"
         sodipodi:nodetypes="cscccccccccccccccccccccccccccscccccccccccccscccccccccccccccccccccc"
         style="stroke-width:0.9664712" />
    </g>
  </g>
</svg>
