<?xml version="1.0" encoding="UTF-8" standalone="no"?>
<svg
   xmlns:dc="http://purl.org/dc/elements/1.1/"
   xmlns:cc="http://creativecommons.org/ns#"
   xmlns:rdf="http://www.w3.org/1999/02/22-rdf-syntax-ns#"
   xmlns:svg="http://www.w3.org/2000/svg"
   xmlns="http://www.w3.org/2000/svg"
   xmlns:sodipodi="http://sodipodi.sourceforge.net/DTD/sodipodi-0.dtd"
   xmlns:inkscape="http://www.inkscape.org/namespaces/inkscape"
   version="1.1"
   id="Layer_1"
   x="0px"
   y="0px"
   width="100"
   height="100"
   viewBox="0 0 100 99.999999"
   enable-background="new 0 0 100 83.373"
   xml:space="preserve"
   sodipodi:docname="shippment.svg"
   inkscape:version="0.92.1 r15371"><metadata
     id="metadata6876"><rdf:RDF><cc:Work
         rdf:about=""><dc:format>image/svg+xml</dc:format><dc:type
           rdf:resource="http://purl.org/dc/dcmitype/StillImage" /><dc:title></dc:title></cc:Work></rdf:RDF></metadata><defs
     id="defs6874" /><sodipodi:namedview
     pagecolor="#ffffff"
     bordercolor="#666666"
     borderopacity="1"
     objecttolerance="10"
     gridtolerance="10"
     guidetolerance="10"
     inkscape:pageopacity="0"
     inkscape:pageshadow="2"
     inkscape:window-width="1364"
     inkscape:window-height="743"
     id="namedview6872"
     showgrid="false"
     inkscape:zoom="2.2791356"
     inkscape:cx="45.602335"
     inkscape:cy="26.576509"
     inkscape:window-x="0"
     inkscape:window-y="23"
     inkscape:window-maximized="0"
     inkscape:current-layer="Layer_1" /><path
     d="M 33.359375,10.626999 0,28.77153 l 3.5488281,2 13.0078129,7.226563 -0.15625,0.07617 h -0.01367 v 0.01367 L 0.28710938,46.857468 16.386719,55.509811 V 77.261765 L 49.994141,94.00005 83.607422,77.261765 v -21.6875 L 99.837891,46.857468 83.685547,38.080124 100,29.019577 96.398438,27.072311 66.621094,10.847702 50.214844,19.800827 Z M 50.207031,23.179733 79.734375,38.109421 50.150391,53.398483 21.027344,38.037155 Z m -1.472656,33.263672 v 2.816406 l -14.09375,8.375 -15.394531,-8.263671 v -2.529297 l 14.830078,8.179687 z m 2.867187,0.166016 14.408204,8.412109 14.96875,-7.908203 V 59.58989 L 65.988281,67.861374 51.601562,59.451218 Z"
     id="path6869"
     inkscape:connector-curvature="0" /></svg>