<?xml version="1.0" encoding="UTF-8" standalone="no"?>
<svg
   xmlns:sketch="http://www.bohemiancoding.com/sketch/ns"
   xmlns:dc="http://purl.org/dc/elements/1.1/"
   xmlns:cc="http://creativecommons.org/ns#"
   xmlns:rdf="http://www.w3.org/1999/02/22-rdf-syntax-ns#"
   xmlns:svg="http://www.w3.org/2000/svg"
   xmlns="http://www.w3.org/2000/svg"
   xmlns:sodipodi="http://sodipodi.sourceforge.net/DTD/sodipodi-0.dtd"
   xmlns:inkscape="http://www.inkscape.org/namespaces/inkscape"
   width="100px"
   height="100px"
   viewBox="0 0 100 100"
   version="1.1"
   id="svg2"
   inkscape:version="0.48.5 r10040"
   sodipodi:docname="store.svg">
  <metadata
     id="metadata16">
    <rdf:RDF>
      <cc:Work
         rdf:about="">
        <dc:format>image/svg+xml</dc:format>
        <dc:type
           rdf:resource="http://purl.org/dc/dcmitype/StillImage" />
        <dc:title>building</dc:title>
      </cc:Work>
    </rdf:RDF>
  </metadata>
  <sodipodi:namedview
     pagecolor="#ffffff"
     bordercolor="#666666"
     borderopacity="1"
     objecttolerance="10"
     gridtolerance="10"
     guidetolerance="10"
     inkscape:pageopacity="0"
     inkscape:pageshadow="2"
     inkscape:window-width="1920"
     inkscape:window-height="1011"
     id="namedview14"
     showgrid="false"
     inkscape:zoom="3.9594531"
     inkscape:cx="58.692784"
     inkscape:cy="37.307715"
     inkscape:window-x="0"
     inkscape:window-y="21"
     inkscape:window-maximized="0"
     inkscape:current-layer="building" />
  <!-- Generator: Sketch 3.3.3 (12072) - http://www.bohemiancoding.com/sketch -->
  <title
     id="title4">building</title>
  <desc
     id="desc6">Created with Sketch.</desc>
  <defs
     id="defs8" />
  <g
     id="Page-1"
     stroke="none"
     stroke-width="1"
     fill="none"
     fill-rule="evenodd"
     sketch:type="MSPage">
    <g
       id="building"
       sketch:type="MSArtboardGroup"
       fill="#000000">
      <path
         d="m 24.241067,12.610168 0,6.292079 -23.51250732,0 0,10.795884 98.58695032,0 0,-10.795884 -23.711204,0 0,-6.292079 -51.363239,0 z m -16.3925227,19.969073 0,60.702009 27.3208717,0 5.199245,-4.868083 0,-48.846406 20.432699,0 0,48.846406 5.33171,4.868083 26.923477,0 c 0,-25.349688 6.82e-4,-34.682784 0,-60.702009 l -85.2080027,0 z m 7.7160767,6.954404 16.193825,0 0,20.333351 -16.193825,0 0,-20.333351 z m 53.317094,0 16.193826,0 0,20.333351 -16.193826,0 0,-20.333351 z"
         id="path12"
         inkscape:connector-curvature="0" />
    </g>
  </g>
</svg>
