<?xml version="1.0" encoding="UTF-8" standalone="no"?>
<!-- Generator: Adobe Illustrator 14.0.0, SVG Export Plug-In . SVG Version: 6.00 Build 43363)  -->

<svg
   xmlns:dc="http://purl.org/dc/elements/1.1/"
   xmlns:cc="http://creativecommons.org/ns#"
   xmlns:rdf="http://www.w3.org/1999/02/22-rdf-syntax-ns#"
   xmlns:svg="http://www.w3.org/2000/svg"
   xmlns="http://www.w3.org/2000/svg"
   xmlns:sodipodi="http://sodipodi.sourceforge.net/DTD/sodipodi-0.dtd"
   xmlns:inkscape="http://www.inkscape.org/namespaces/inkscape"
   version="1.0"
   id="Layer_1"
   x="0px"
   y="0px"
   width="95.856px"
   height="100px"
   viewBox="0 0 95.856 100"
   enable-background="new 0 0 95.856 100"
   xml:space="preserve"
   sodipodi:docname="targeting.svg"
   inkscape:version="0.92.1 r15371"><metadata
     id="metadata5771"><rdf:RDF><cc:Work
         rdf:about=""><dc:format>image/svg+xml</dc:format><dc:type
           rdf:resource="http://purl.org/dc/dcmitype/StillImage" /><dc:title /></cc:Work></rdf:RDF></metadata><defs
     id="defs5769" /><sodipodi:namedview
     pagecolor="#ffffff"
     bordercolor="#666666"
     borderopacity="1"
     objecttolerance="10"
     gridtolerance="10"
     guidetolerance="10"
     inkscape:pageopacity="0"
     inkscape:pageshadow="2"
     inkscape:window-width="1364"
     inkscape:window-height="743"
     id="namedview5767"
     showgrid="false"
     inkscape:zoom="3.9951533"
     inkscape:cx="55.614985"
     inkscape:cy="35.23337"
     inkscape:window-x="0"
     inkscape:window-y="23"
     inkscape:window-maximized="1"
     inkscape:current-layer="Layer_1" /><path
     style="color:#000000;font-style:normal;font-variant:normal;font-weight:normal;font-stretch:normal;font-size:medium;line-height:normal;font-family:sans-serif;font-variant-ligatures:normal;font-variant-position:normal;font-variant-caps:normal;font-variant-numeric:normal;font-variant-alternates:normal;font-feature-settings:normal;text-indent:0;text-align:start;text-decoration:none;text-decoration-line:none;text-decoration-style:solid;text-decoration-color:#000000;letter-spacing:normal;word-spacing:normal;text-transform:none;writing-mode:lr-tb;direction:ltr;text-orientation:mixed;dominant-baseline:auto;baseline-shift:baseline;text-anchor:start;white-space:normal;shape-padding:0;clip-rule:nonzero;display:inline;overflow:visible;visibility:visible;opacity:1;isolation:auto;mix-blend-mode:normal;color-interpolation:sRGB;color-interpolation-filters:linearRGB;solid-color:#000000;solid-opacity:1;vector-effect:none;fill:#000000;fill-opacity:1;fill-rule:nonzero;stroke:none;stroke-width:13.31254292;stroke-linecap:butt;stroke-linejoin:miter;stroke-miterlimit:4;stroke-dasharray:none;stroke-dashoffset:0;stroke-opacity:1;color-rendering:auto;image-rendering:auto;shape-rendering:auto;text-rendering:auto;enable-background:accumulate"
     d="m 47.366999,1.8012543 c -26.667391,0 -46.37989443,19.7125027 -46.37989443,46.3798927 0,23.354383 14.65043443,42.919196 36.70949843,47.425936 L 25.840119,75.954281 C 17.564243,69.54657 12.251565,59.519296 12.251565,48.181147 c 0,-19.472758 15.642676,-35.115434 35.115434,-35.115434 19.472757,0 35.115432,15.642676 35.115432,35.115434 0,3.274865 -0.454217,6.436788 -1.284052,9.438385 v 25.117026 c 8.987667,-8.800466 12.548512,-21.037937 12.548512,-34.555411 0,-26.66739 -19.712503,-46.3798927 -46.379892,-46.3798927 z m 0,21.2908687 c -13.790007,0 -25.089025,11.299018 -25.089025,25.089024 0,10.032663 5.98324,18.741065 14.552594,22.744928 l 2.318095,-1.684068 v -9.928405 c -3.407204,-2.502766 -5.606229,-6.527673 -5.606229,-11.132455 0,-7.70224 6.122324,-13.824564 13.824565,-13.824564 7.70224,0 13.824564,6.122324 13.824564,13.824564 0,3.290903 -1.125098,6.288604 -3.006123,8.648354 l 0.25601,0.892035 11.140455,2.062085 c 1.830055,-3.476236 2.874118,-7.423644 2.874118,-11.602474 0,-13.790006 -11.299019,-25.089024 -25.089024,-25.089024 z M 43.675916,44.460995 V 83.28858 l -3.427208,-5.830238 -5.660231,4.074166 9.760398,13.558554 0.096,-0.07 v 0.284011 l 4.39618,4.496184 H 71.67599 l 2.492102,-4.496184 2.248092,-3.364137 V 68.383972 h -6.730275 v 8.412343 H 68.00184 l 0.06,-10.010408 h -6.730275 l -0.06,10.010408 H 59.589498 V 65.41785 h -6.730276 v 11.378465 h -1.682068 v -32.33532 z"
     id="path19161"
     inkscape:connector-curvature="0"
     sodipodi:nodetypes="ssccsssccsssscccssscccssccccccccccccccccccccccccc" /></svg>