<?xml version="1.0" encoding="UTF-8" standalone="no"?>
<svg
   xmlns:dc="http://purl.org/dc/elements/1.1/"
   xmlns:cc="http://creativecommons.org/ns#"
   xmlns:rdf="http://www.w3.org/1999/02/22-rdf-syntax-ns#"
   xmlns:svg="http://www.w3.org/2000/svg"
   xmlns="http://www.w3.org/2000/svg"
   xmlns:sodipodi="http://sodipodi.sourceforge.net/DTD/sodipodi-0.dtd"
   xmlns:inkscape="http://www.inkscape.org/namespaces/inkscape"
   width="100px"
   height="100px"
   viewBox="0 0 100 100"
   version="1.1"
   id="svg2"
   inkscape:version="0.91 r13725"
   sodipodi:docname="terms.svg">
  <metadata
     id="metadata16">
    <rdf:RDF>
      <cc:Work
         rdf:about="">
        <dc:format>image/svg+xml</dc:format>
        <dc:type
           rdf:resource="http://purl.org/dc/dcmitype/StillImage" />
        <dc:title>countries</dc:title>
      </cc:Work>
    </rdf:RDF>
  </metadata>
  <sodipodi:namedview
     pagecolor="#ffffff"
     bordercolor="#666666"
     borderopacity="1"
     objecttolerance="10"
     gridtolerance="10"
     guidetolerance="10"
     inkscape:pageopacity="0"
     inkscape:pageshadow="2"
     inkscape:window-width="1604"
     inkscape:window-height="1002"
     id="namedview14"
     showgrid="false"
     inkscape:zoom="5.9069501"
     inkscape:cx="21.774524"
     inkscape:cy="53.476844"
     inkscape:window-x="19"
     inkscape:window-y="27"
     inkscape:window-maximized="0"
     inkscape:current-layer="svg2" />
  <!-- Generator: Sketch 3.3.3 (12072) - http://www.bohemiancoding.com/sketch -->
  <title
     id="title4">countries</title>
  <desc
     id="desc6">Created with Sketch.</desc>
  <defs
     id="defs8" />
  <path
     style="fill:#000000;fill-rule:evenodd;stroke:none;stroke-width:1"
     d="M 39.875 0.93554688 C 18.660793 0.93554688 1.4589844 18.132404 1.4589844 39.347656 C 1.4589844 60.150428 18.000146 77.080031 38.642578 77.732422 A 26.483319 26.483319 0 0 1 32.615234 60.939453 A 26.483319 26.483319 0 0 1 37.373047 45.8125 C 37.282727 45.78836 37.195364 45.755859 37.097656 45.755859 L 35.242188 45.755859 C 34.640538 45.755859 33.741237 45.470944 33.25 45.121094 L 27.341797 40.943359 C 26.848493 40.595557 26.195182 39.884456 25.888672 39.363281 L 23.125 34.673828 C 22.81849 34.153679 22.074437 33.724609 21.470703 33.724609 L 20.150391 33.724609 C 19.546661 33.724609 18.838305 33.281125 18.576172 32.738281 L 15.375 26.105469 C 15.116993 25.562656 14.898438 24.625342 14.898438 24.019531 L 14.898438 20.238281 C 14.898438 19.634551 14.42846 19.285388 13.851562 19.462891 L 12.5625 19.859375 C 18.135415 12.069689 26.95194 6.7606597 37.023438 5.9082031 L 37.023438 10.46875 C 37.023438 11.071424 37.424646 11.849592 37.917969 12.195312 L 39.976562 13.640625 C 40.470909 13.986344 41.3679 14.271484 41.972656 14.271484 L 43.599609 14.271484 C 44.203371 14.271484 44.695312 14.670032 44.695312 15.158203 C 44.695312 15.64426 44.35627 16.400202 43.941406 16.839844 L 41.597656 19.310547 C 41.180711 19.747083 41.336747 20.107327 41.939453 20.109375 L 43.501953 20.113281 C 44.103634 20.114249 44.597656 20.608135 44.597656 21.212891 L 44.59375 25.15625 C 44.59175 25.758956 45.085692 26.253906 45.689453 26.253906 L 47.455078 26.253906 C 48.058807 26.253906 48.552734 26.628659 48.552734 27.087891 C 48.552734 27.54613 48.058807 27.919922 47.455078 27.919922 L 42.042969 27.919922 C 41.440263 27.919922 40.555025 28.220595 40.076172 28.585938 L 37.857422 30.275391 C 37.377511 30.640734 36.985304 31.435333 36.986328 32.039062 L 36.986328 38.597656 C 36.986328 39.201386 36.493426 39.695312 35.888672 39.695312 L 35.582031 39.695312 C 34.979326 39.695312 34.486328 39.201386 34.486328 38.597656 L 34.486328 34.822266 C 34.486328 34.218537 33.993432 33.724609 33.388672 33.724609 L 30.429688 33.724609 C 29.828019 33.724609 29.330301 34.218537 29.326172 34.822266 L 29.3125 37.869141 C 29.3083 38.472871 29.694383 39.274517 30.166016 39.654297 L 34.535156 43.158203 C 35.003672 43.536959 35.883622 43.846631 36.486328 43.847656 L 38.869141 43.849609 A 26.483319 26.483319 0 0 1 59.097656 34.455078 A 26.483319 26.483319 0 0 1 78.144531 42.544922 C 78.231551 41.489744 78.289063 40.425296 78.289062 39.347656 C 78.289062 18.131379 61.089227 0.93554687 39.875 0.93554688 z M 45.966797 6.3476562 C 51.219791 7.3166972 56.054405 9.4968044 60.148438 12.609375 C 60.007044 13.078946 53.302734 18.277344 53.302734 18.277344 C 52.81562 18.635453 51.924041 18.927734 51.320312 18.927734 L 50.847656 18.927734 C 50.24495 18.927734 49.75 18.433839 49.75 17.830078 L 49.75 14.261719 C 49.75 13.657988 49.259083 13.166016 48.654297 13.166016 L 47.064453 13.166016 C 46.460723 13.166016 45.966796 12.671065 45.966797 12.068359 L 45.966797 6.3476562 z M 60.191406 40.095703 C 48.396566 40.095703 38.365234 50.122373 38.365234 61.916016 C 38.365234 67.617074 40.430609 73.219985 44.660156 77.453125 C 48.980701 81.77307 54.58418 83.937499 60.189453 83.9375 C 65.300231 83.9375 70.308527 82.172618 74.4375 78.728516 L 76.070312 85.060547 L 90.199219 99.544922 L 92.21875 99.441406 L 95.619141 97.033203 L 98.099609 92.880859 L 98.148438 91.246094 L 83.552734 77.181641 L 76.90625 76.173828 C 80.352746 72.044856 82.115234 66.932131 82.115234 61.818359 C 82.115234 49.922346 72.086224 40.095703 60.191406 40.095703 z M 60.189453 48.548828 C 67.557784 48.548828 73.652344 54.744201 73.652344 61.917969 C 73.652344 65.45726 72.377281 68.898553 69.724609 71.548828 C 67.066549 74.106313 63.628766 75.492188 60.189453 75.492188 C 52.913313 75.492188 46.818359 69.391668 46.818359 61.917969 C 46.818359 54.647219 53.007901 48.548828 60.189453 48.548828 z "
     id="path12" />
</svg>
