<?xml version="1.0" encoding="UTF-8" standalone="no"?>
<svg width="100px" height="100px" viewBox="0 0 100 100" version="1.1" xmlns="http://www.w3.org/2000/svg" xmlns:xlink="http://www.w3.org/1999/xlink">
    <g id="Page-1" stroke="none" stroke-width="1" fill="none" fill-rule="evenodd" sketch:type="MSPage">
        <g id="text" sketch:type="MSArtboardGroup" fill="#000000">
            <path d="M1.67968307,13.297 L67.2412938,13.297 L67.8643366,30.4919518 L65.0889641,30.4919518 C63.7316576,25.0895012 62.0036149,21.5726562 59.9099851,19.9424467 C57.8142956,18.3122372 53.4076837,17.4966175 46.6901494,17.4966175 L40.2352199,17.4966175 L40.2352199,69.2802286 C40.2352199,73.1801677 40.9334398,75.596132 42.3298796,76.5291515 C43.7252895,77.4642306 46.7828335,78.078005 51.5014817,78.3725344 L51.5014817,80.2499014 L17.7016666,80.2499014 L17.7016666,78.3725344 C22.6077426,78.0460805 25.6652866,77.3396221 26.8732687,76.2572783 C28.0812509,75.1749345 28.6847271,72.4562022 28.6847271,68.0949025 L28.6847271,17.4966175 L22.1741872,17.4966175 C15.7573611,17.4966175 11.3888527,18.3039986 9.06763204,19.917731 C6.74641138,21.5324932 4.99983187,25.0565469 3.83098296,30.4919518 L1,30.4919518 L1.67968307,13.297 Z M61.2827389,51.0420663 L98.6436813,51.0420663 L99,60.8418603 L97.419222,60.8418603 C96.6447952,57.7637199 95.6613144,55.7586549 94.4667199,54.8297547 C93.2741851,53.9008545 90.7614174,53.4353746 86.9345957,53.4353746 L83.2560686,53.4353746 L83.2560686,82.9459775 C83.2560686,85.1673054 83.65461,86.5452083 84.4486034,87.0765969 C85.2446565,87.6100451 86.9871167,87.9591551 89.6759841,88.128046 L89.6759841,89.1980319 L70.4121183,89.1980319 L70.4121183,88.128046 C73.2101469,87.9416481 74.9515773,87.5400172 75.639499,86.9221235 C76.3274206,86.3062894 76.6713814,84.7553762 76.6713814,82.2704138 L76.6713814,53.4353746 L72.9619596,53.4353746 C69.3050587,53.4353746 66.8149471,53.8946755 65.4916248,54.8153372 C64.1683025,55.7359988 63.1745234,57.7441533 62.5071983,60.8418603 L60.8944957,60.8418603 L61.2827389,51.0420663 Z" sketch:type="MSShapeGroup"></path>
        </g>
    </g>
</svg>
