<?xml version="1.0" encoding="UTF-8" standalone="no"?>
<svg
   xmlns:dc="http://purl.org/dc/elements/1.1/"
   xmlns:cc="http://creativecommons.org/ns#"
   xmlns:rdf="http://www.w3.org/1999/02/22-rdf-syntax-ns#"
   xmlns:svg="http://www.w3.org/2000/svg"
   xmlns="http://www.w3.org/2000/svg"
   xmlns:sodipodi="http://sodipodi.sourceforge.net/DTD/sodipodi-0.dtd"
   xmlns:inkscape="http://www.inkscape.org/namespaces/inkscape"
   sodipodi:docname="timeline.svg"
   inkscape:version="1.0 (4035a4f, 2020-05-01)"
   id="svg3238"
   version="1.1"
   viewBox="0 0 26.458333 26.458334"
   height="100"
   width="100">
  <defs
     id="defs3232" />
  <sodipodi:namedview
     inkscape:guide-bbox="true"
     showguides="true"
     inkscape:window-maximized="1"
     inkscape:window-y="41"
     inkscape:window-x="0"
     inkscape:window-height="1157"
     inkscape:window-width="1916"
     units="px"
     showgrid="false"
     inkscape:document-rotation="0"
     inkscape:current-layer="layer1"
     inkscape:document-units="mm"
     inkscape:cy="49.067161"
     inkscape:cx="48.082654"
     inkscape:zoom="5.6"
     inkscape:pageshadow="2"
     inkscape:pageopacity="0.0"
     borderopacity="1.0"
     bordercolor="#666666"
     pagecolor="#ffffff"
     id="base" />
  <metadata
     id="metadata3235">
    <rdf:RDF>
      <cc:Work
         rdf:about="">
        <dc:format>image/svg+xml</dc:format>
        <dc:type
           rdf:resource="http://purl.org/dc/dcmitype/StillImage" />
        <dc:title></dc:title>
      </cc:Work>
    </rdf:RDF>
  </metadata>
  <g
     id="layer1"
     inkscape:groupmode="layer"
     inkscape:label="Layer 1">
    <path
       d="m 13.062437,13.93671 c -1.220274,0 -2.255443,0.834849 -2.568155,1.960012 H 4.59495 c -0.1952954,0 -0.3481127,0.123569 -0.4314895,0.253846 -0.083377,0.130277 -0.1212329,0.281069 -0.1212329,0.442871 0,0.161802 0.037856,0.312098 0.1212329,0.442375 0.083377,0.130276 0.2361941,0.254341 0.4314895,0.254341 h 5.893889 c 0.30574,1.135527 1.345921,1.9803 2.573598,1.9803 1.391878,0.0089 2.674282,-0.96352 2.68048,-2.683944 -0.003,-1.721564 -1.268513,-2.648964 -2.68048,-2.649801 z m 0,1.268242 c 0.780487,0 1.398876,0.618391 1.398876,1.398878 0,0.780488 -0.618389,1.398876 -1.398876,1.398876 -0.780488,0 -1.400857,-0.618388 -1.400857,-1.398876 0,-0.780487 0.620369,-1.398878 1.400857,-1.398878 z"
       style="color:#000000;font-style:normal;font-variant:normal;font-weight:normal;font-stretch:normal;font-size:medium;line-height:normal;font-family:sans-serif;font-variant-ligatures:normal;font-variant-position:normal;font-variant-caps:normal;font-variant-numeric:normal;font-variant-alternates:normal;font-variant-east-asian:normal;font-feature-settings:normal;font-variation-settings:normal;text-indent:0;text-align:start;text-decoration:none;text-decoration-line:none;text-decoration-style:solid;text-decoration-color:#000000;letter-spacing:normal;word-spacing:normal;text-transform:none;writing-mode:lr-tb;direction:ltr;text-orientation:mixed;dominant-baseline:auto;baseline-shift:baseline;text-anchor:start;white-space:normal;shape-padding:0;shape-margin:0;inline-size:0;clip-rule:nonzero;display:inline;overflow:visible;visibility:visible;opacity:1;isolation:auto;mix-blend-mode:normal;color-interpolation:sRGB;color-interpolation-filters:linearRGB;solid-color:#000000;solid-opacity:1;vector-effect:none;fill:#000000;fill-opacity:1;fill-rule:nonzero;stroke:none;stroke-width:1.26676;stroke-linecap:round;stroke-linejoin:miter;stroke-miterlimit:4;stroke-dasharray:none;stroke-dashoffset:0;stroke-opacity:1;paint-order:stroke markers fill;color-rendering:auto;image-rendering:auto;shape-rendering:auto;text-rendering:auto;enable-background:accumulate;stop-color:#000000;stop-opacity:1"
       id="path4454" />
    <g
       transform="matrix(0.66882114,0,0,0.66882114,3.1999181,4.3384712)"
       style="opacity:1"
       id="g4441" />
    <path
       id="path4454-6"
       style="color:#000000;font-style:normal;font-variant:normal;font-weight:normal;font-stretch:normal;font-size:medium;line-height:normal;font-family:sans-serif;font-variant-ligatures:normal;font-variant-position:normal;font-variant-caps:normal;font-variant-numeric:normal;font-variant-alternates:normal;font-variant-east-asian:normal;font-feature-settings:normal;font-variation-settings:normal;text-indent:0;text-align:start;text-decoration:none;text-decoration-line:none;text-decoration-style:solid;text-decoration-color:#000000;letter-spacing:normal;word-spacing:normal;text-transform:none;writing-mode:lr-tb;direction:ltr;text-orientation:mixed;dominant-baseline:auto;baseline-shift:baseline;text-anchor:start;white-space:normal;shape-padding:0;shape-margin:0;inline-size:0;clip-rule:nonzero;display:inline;overflow:visible;visibility:visible;opacity:1;isolation:auto;mix-blend-mode:normal;color-interpolation:sRGB;color-interpolation-filters:linearRGB;solid-color:#000000;solid-opacity:1;vector-effect:none;fill:#000000;fill-opacity:1;fill-rule:nonzero;stroke:none;stroke-width:1.26676;stroke-linecap:round;stroke-linejoin:miter;stroke-miterlimit:4;stroke-dasharray:none;stroke-dashoffset:0;stroke-opacity:1;paint-order:stroke markers fill;color-rendering:auto;image-rendering:auto;shape-rendering:auto;text-rendering:auto;enable-background:accumulate;stop-color:#000000;stop-opacity:1"
       d="m 13.062437,0.13020242 c -1.220274,0 -2.255442,0.8348492 -2.568154,1.96001238 H 4.59495 c -0.1952954,0 -0.3481127,0.1235689 -0.4314896,0.2538464 -0.083377,0.1302765 -0.1212328,0.2810686 -0.1212328,0.4428705 0,0.1618019 0.037856,0.3120989 0.1212328,0.4423755 0.083377,0.1302755 0.2361942,0.2543414 0.4314896,0.2543414 h 5.893889 c 0.305741,1.1355265 1.345921,1.9802997 2.573598,1.9802997 1.391878,0.00891 2.674282,-0.9635199 2.68048,-2.6839445 -0.003,-1.7215643 -1.268512,-2.64896448 -2.68048,-2.64980138 z m 0,1.26824318 c 0.780488,0 1.398877,0.6183903 1.398877,1.3988774 0,0.7804882 -0.618389,1.3988765 -1.398877,1.3988765 -0.780488,0 -1.400856,-0.6183883 -1.400856,-1.3988765 0,-0.7804871 0.620368,-1.3988774 1.400856,-1.3988774 z" />
    <path
       id="path4454-2"
       style="color:#000000;font-style:normal;font-variant:normal;font-weight:normal;font-stretch:normal;font-size:medium;line-height:normal;font-family:sans-serif;font-variant-ligatures:normal;font-variant-position:normal;font-variant-caps:normal;font-variant-numeric:normal;font-variant-alternates:normal;font-variant-east-asian:normal;font-feature-settings:normal;font-variation-settings:normal;text-indent:0;text-align:start;text-decoration:none;text-decoration-line:none;text-decoration-style:solid;text-decoration-color:#000000;letter-spacing:normal;word-spacing:normal;text-transform:none;writing-mode:lr-tb;direction:ltr;text-orientation:mixed;dominant-baseline:auto;baseline-shift:baseline;text-anchor:start;white-space:normal;shape-padding:0;shape-margin:0;inline-size:0;clip-rule:nonzero;display:inline;overflow:visible;visibility:visible;opacity:1;isolation:auto;mix-blend-mode:normal;color-interpolation:sRGB;color-interpolation-filters:linearRGB;solid-color:#000000;solid-opacity:1;vector-effect:none;fill:#000000;fill-opacity:1;fill-rule:nonzero;stroke:none;stroke-width:1.26676;stroke-linecap:round;stroke-linejoin:miter;stroke-miterlimit:4;stroke-dasharray:none;stroke-dashoffset:0;stroke-opacity:1;paint-order:stroke markers fill;color-rendering:auto;image-rendering:auto;shape-rendering:auto;text-rendering:auto;enable-background:accumulate;stop-color:#000000;stop-opacity:1"
       d="m 13.144355,7.0334558 c 1.220274,0 2.255442,0.8348492 2.568154,1.9600121 h 5.899332 c 0.195296,0 0.348113,0.1235689 0.43149,0.2538464 0.08337,0.1302765 0.121232,0.2810686 0.121232,0.4428706 0,0.161802 -0.03785,0.3120991 -0.121232,0.4423751 -0.08337,0.130276 -0.236194,0.254342 -0.43149,0.254342 h -5.893888 c -0.305742,1.135527 -1.345921,1.9803 -2.573598,1.9803 -1.391879,0.0089 -2.674283,-0.96352 -2.680481,-2.6839451 0.003,-1.721564 1.268512,-2.6489642 2.680481,-2.6498011 z m 0,1.2682428 c -0.780489,0 -1.398878,0.6183903 -1.398878,1.3988773 0,0.7804891 0.618389,1.3988771 1.398878,1.3988771 0.780488,0 1.400856,-0.618388 1.400856,-1.3988771 0,-0.780487 -0.620368,-1.3988773 -1.400856,-1.3988773 z" />
    <path
       d="m 13.144353,20.839962 c 1.220275,0 2.255444,0.834849 2.568155,1.960012 h 5.899332 c 0.195296,0 0.348114,0.123569 0.43149,0.253847 0.08337,0.130276 0.121233,0.281068 0.121233,0.44287 0,0.161802 -0.03785,0.312099 -0.121233,0.442376 -0.08337,0.130275 -0.236194,0.254341 -0.43149,0.254341 h -5.893888 c -0.305742,1.135526 -1.345922,1.9803 -2.573599,1.9803 -1.391879,0.0089 -2.674283,-0.96352 -2.680481,-2.683945 0.003,-1.721564 1.268513,-2.648964 2.680481,-2.649801 z m 0,1.268243 c -0.780488,0 -1.398877,0.61839 -1.398877,1.398877 0,0.780489 0.618389,1.398877 1.398877,1.398877 0.780488,0 1.400857,-0.618388 1.400857,-1.398877 0,-0.780487 -0.620369,-1.398877 -1.400857,-1.398877 z"
       style="color:#000000;font-style:normal;font-variant:normal;font-weight:normal;font-stretch:normal;font-size:medium;line-height:normal;font-family:sans-serif;font-variant-ligatures:normal;font-variant-position:normal;font-variant-caps:normal;font-variant-numeric:normal;font-variant-alternates:normal;font-variant-east-asian:normal;font-feature-settings:normal;font-variation-settings:normal;text-indent:0;text-align:start;text-decoration:none;text-decoration-line:none;text-decoration-style:solid;text-decoration-color:#000000;letter-spacing:normal;word-spacing:normal;text-transform:none;writing-mode:lr-tb;direction:ltr;text-orientation:mixed;dominant-baseline:auto;baseline-shift:baseline;text-anchor:start;white-space:normal;shape-padding:0;shape-margin:0;inline-size:0;clip-rule:nonzero;display:inline;overflow:visible;visibility:visible;opacity:1;isolation:auto;mix-blend-mode:normal;color-interpolation:sRGB;color-interpolation-filters:linearRGB;solid-color:#000000;solid-opacity:1;vector-effect:none;fill:#000000;fill-opacity:1;fill-rule:nonzero;stroke:none;stroke-width:1.26676;stroke-linecap:round;stroke-linejoin:miter;stroke-miterlimit:4;stroke-dasharray:none;stroke-dashoffset:0;stroke-opacity:1;paint-order:stroke markers fill;color-rendering:auto;image-rendering:auto;shape-rendering:auto;text-rendering:auto;enable-background:accumulate;stop-color:#000000;stop-opacity:1"
       id="path4454-2-6" />
  </g>
</svg>
