<?xml version="1.0" encoding="UTF-8" standalone="no"?>
<svg
   xmlns:dc="http://purl.org/dc/elements/1.1/"
   xmlns:cc="http://creativecommons.org/ns#"
   xmlns:rdf="http://www.w3.org/1999/02/22-rdf-syntax-ns#"
   xmlns:svg="http://www.w3.org/2000/svg"
   xmlns="http://www.w3.org/2000/svg"
   xmlns:sodipodi="http://sodipodi.sourceforge.net/DTD/sodipodi-0.dtd"
   xmlns:inkscape="http://www.inkscape.org/namespaces/inkscape"
   version="1.1"
   id="Icons"
   x="0px"
   y="0px"
   width="100px"
   height="100px"
   viewBox="0 0 100 100"
   style="enable-background:new 0 0 100 100;"
   xml:space="preserve"
   sodipodi:docname="twitter.svg"
   inkscape:version="0.92.1 r15371"><metadata
     id="metadata4680"><rdf:RDF><cc:Work
         rdf:about=""><dc:format>image/svg+xml</dc:format><dc:type
           rdf:resource="http://purl.org/dc/dcmitype/StillImage" /></cc:Work></rdf:RDF></metadata><defs
     id="defs4678" /><sodipodi:namedview
     pagecolor="#ffffff"
     bordercolor="#666666"
     borderopacity="1"
     objecttolerance="10"
     gridtolerance="10"
     guidetolerance="10"
     inkscape:pageopacity="0"
     inkscape:pageshadow="2"
     inkscape:window-width="1364"
     inkscape:window-height="743"
     id="namedview4676"
     showgrid="false"
     inkscape:zoom="1.9975767"
     inkscape:cx="50"
     inkscape:cy="50"
     inkscape:window-x="0"
     inkscape:window-y="23"
     inkscape:window-maximized="1"
     inkscape:current-layer="Icons" /><path
     id="Twitter__x28_alt_x29_"
     d="m 88.890534,46.006014 c 5.504334,-0.454068 9.237049,-2.956334 10.674376,-6.35149 -1.986127,1.219556 -8.149242,2.54909 -11.553109,1.282711 -0.1666,-0.799244 -0.3528,-1.559289 -0.535733,-2.245289 C 87.622994,18.712115 68.776046,15.562128 63.046845,19.61788 c 0.765489,-0.824289 1.345867,-1.828245 1.468912,-2.909511 -7.456712,4.763889 -11.812268,14.367889 -15.337,23.683334 -2.767957,-2.681934 -5.221223,-4.794379 -7.421868,-5.967112 -6.174,-3.311311 -13.555577,-6.765267 -25.143533,-11.067467 -0.356067,3.833979 1.895756,8.932156 8.384444,12.321867 -1.405755,-0.188377 -3.976621,0.231933 -6.032444,0.724112 0.837356,4.392577 3.571556,8.010955 10.974912,9.7608 -3.383179,0.223221 -5.131934,0.993066 -6.716268,2.652532 1.540779,3.054334 5.300712,6.649845 12.064889,5.911579 -7.519866,3.241621 -3.06631,9.244666 3.053245,8.34851 C 27.902957,73.858703 11.444401,73.06708 1.9939343,64.048903 26.669245,97.672703 80.307912,83.934191 88.301445,51.547369 c 5.987801,0.05118 9.509265,-2.074334 11.692489,-4.417623 -3.450688,0.585823 -8.450866,-0.0196 -11.1034,-1.123732 z"
     inkscape:connector-curvature="0"
     sodipodi:nodetypes="ccccccccccccccccccc"
     style="stroke-width:1.088889" /></svg>