<?xml version="1.0" encoding="UTF-8" standalone="no"?>
<!-- Created with Inkscape (http://www.inkscape.org/) -->

<svg
   xmlns:dc="http://purl.org/dc/elements/1.1/"
   xmlns:cc="http://creativecommons.org/ns#"
   xmlns:rdf="http://www.w3.org/1999/02/22-rdf-syntax-ns#"
   xmlns:svg="http://www.w3.org/2000/svg"
   xmlns="http://www.w3.org/2000/svg"
   xmlns:sodipodi="http://sodipodi.sourceforge.net/DTD/sodipodi-0.dtd"
   xmlns:inkscape="http://www.inkscape.org/namespaces/inkscape"
   width="100"
   height="100"
   viewBox="0 0 26.458334 26.458333"
   version="1.1"
   id="svg8"
   inkscape:version="0.92.1 r15371"
   sodipodi:docname="video.svg">
  <defs
     id="defs2">
    <symbol
       id="symbol76240">
      <title
         id="title76228">Mail Send Receive</title>
      <g
         id="g76238">
        <path
           d="M9 7V6c0-.265-.093-.53-.28-.72l-3-3L5.437 2h-.875l-.282.28-3 3C1.094 5.47 1 5.736 1 6v1h1c.265 0 .53-.093.72-.28L5 4.437l2.28 2.28c.19.19.455.282.72.282h1z"
           id="path76230" />
        <path
           d="M4 4v7h2V4H4z"
           id="path76232" />
        <path
           d="M15 8v1c0 .265-.093.53-.28.72l-3 3-.283.28h-.874l-.282-.28-3-3C7.094 9.53 7 9.264 7 9V8h1c.265 0 .53.093.72.28L11 10.563l2.28-2.28c.19-.19.455-.282.72-.282h1z"
           id="path76234" />
        <path
           d="M10 4v7h2V4h-2z"
           id="path76236" />
      </g>
    </symbol>
    <symbol
       id="icon-list"
       viewBox="0 0 28 28">
      <title
         id="title70649">list</title>
      <path
         d="M4 20.5v3c0 0.266-0.234 0.5-0.5 0.5h-3c-0.266 0-0.5-0.234-0.5-0.5v-3c0-0.266 0.234-0.5 0.5-0.5h3c0.266 0 0.5 0.234 0.5 0.5zM4 14.5v3c0 0.266-0.234 0.5-0.5 0.5h-3c-0.266 0-0.5-0.234-0.5-0.5v-3c0-0.266 0.234-0.5 0.5-0.5h3c0.266 0 0.5 0.234 0.5 0.5zM4 8.5v3c0 0.266-0.234 0.5-0.5 0.5h-3c-0.266 0-0.5-0.234-0.5-0.5v-3c0-0.266 0.234-0.5 0.5-0.5h3c0.266 0 0.5 0.234 0.5 0.5zM28 20.5v3c0 0.266-0.234 0.5-0.5 0.5h-21c-0.266 0-0.5-0.234-0.5-0.5v-3c0-0.266 0.234-0.5 0.5-0.5h21c0.266 0 0.5 0.234 0.5 0.5zM4 2.5v3c0 0.266-0.234 0.5-0.5 0.5h-3c-0.266 0-0.5-0.234-0.5-0.5v-3c0-0.266 0.234-0.5 0.5-0.5h3c0.266 0 0.5 0.234 0.5 0.5zM28 14.5v3c0 0.266-0.234 0.5-0.5 0.5h-21c-0.266 0-0.5-0.234-0.5-0.5v-3c0-0.266 0.234-0.5 0.5-0.5h21c0.266 0 0.5 0.234 0.5 0.5zM28 8.5v3c0 0.266-0.234 0.5-0.5 0.5h-21c-0.266 0-0.5-0.234-0.5-0.5v-3c0-0.266 0.234-0.5 0.5-0.5h21c0.266 0 0.5 0.234 0.5 0.5zM28 2.5v3c0 0.266-0.234 0.5-0.5 0.5h-21c-0.266 0-0.5-0.234-0.5-0.5v-3c0-0.266 0.234-0.5 0.5-0.5h21c0.266 0 0.5 0.234 0.5 0.5z"
         id="path70651" />
    </symbol>
    <symbol
       id="icon-lock"
       viewBox="0 0 18 28">
      <title
         id="title70534">lock</title>
      <path
         d="M5 12h8v-3c0-2.203-1.797-4-4-4s-4 1.797-4 4v3zM18 13.5v9c0 0.828-0.672 1.5-1.5 1.5h-15c-0.828 0-1.5-0.672-1.5-1.5v-9c0-0.828 0.672-1.5 1.5-1.5h0.5v-3c0-3.844 3.156-7 7-7s7 3.156 7 7v3h0.5c0.828 0 1.5 0.672 1.5 1.5z"
         id="path70536" />
    </symbol>
    <symbol
       id="icon-film"
       viewBox="0 0 30 28">
      <title
         id="title70414">film</title>
      <path
         d="M6 25v-2c0-0.547-0.453-1-1-1h-2c-0.547 0-1 0.453-1 1v2c0 0.547 0.453 1 1 1h2c0.547 0 1-0.453 1-1zM6 19v-2c0-0.547-0.453-1-1-1h-2c-0.547 0-1 0.453-1 1v2c0 0.547 0.453 1 1 1h2c0.547 0 1-0.453 1-1zM6 13v-2c0-0.547-0.453-1-1-1h-2c-0.547 0-1 0.453-1 1v2c0 0.547 0.453 1 1 1h2c0.547 0 1-0.453 1-1zM22 25v-8c0-0.547-0.453-1-1-1h-12c-0.547 0-1 0.453-1 1v8c0 0.547 0.453 1 1 1h12c0.547 0 1-0.453 1-1zM6 7v-2c0-0.547-0.453-1-1-1h-2c-0.547 0-1 0.453-1 1v2c0 0.547 0.453 1 1 1h2c0.547 0 1-0.453 1-1zM28 25v-2c0-0.547-0.453-1-1-1h-2c-0.547 0-1 0.453-1 1v2c0 0.547 0.453 1 1 1h2c0.547 0 1-0.453 1-1zM22 13v-8c0-0.547-0.453-1-1-1h-12c-0.547 0-1 0.453-1 1v8c0 0.547 0.453 1 1 1h12c0.547 0 1-0.453 1-1zM28 19v-2c0-0.547-0.453-1-1-1h-2c-0.547 0-1 0.453-1 1v2c0 0.547 0.453 1 1 1h2c0.547 0 1-0.453 1-1zM28 13v-2c0-0.547-0.453-1-1-1h-2c-0.547 0-1 0.453-1 1v2c0 0.547 0.453 1 1 1h2c0.547 0 1-0.453 1-1zM28 7v-2c0-0.547-0.453-1-1-1h-2c-0.547 0-1 0.453-1 1v2c0 0.547 0.453 1 1 1h2c0.547 0 1-0.453 1-1zM30 4.5v21c0 1.375-1.125 2.5-2.5 2.5h-25c-1.375 0-2.5-1.125-2.5-2.5v-21c0-1.375 1.125-2.5 2.5-2.5h25c1.375 0 2.5 1.125 2.5 2.5z"
         id="path70416" />
    </symbol>
  </defs>
  <sodipodi:namedview
     id="base"
     pagecolor="#ffffff"
     bordercolor="#666666"
     borderopacity="1.0"
     inkscape:pageopacity="0.0"
     inkscape:pageshadow="2"
     inkscape:zoom="3.128125"
     inkscape:cx="43.302637"
     inkscape:cy="48.360136"
     inkscape:document-units="px"
     inkscape:current-layer="use88336"
     showgrid="false"
     units="px"
     showguides="true"
     inkscape:guide-bbox="true"
     inkscape:window-width="1366"
     inkscape:window-height="744"
     inkscape:window-x="0"
     inkscape:window-y="24"
     inkscape:window-maximized="1" />
  <metadata
     id="metadata5">
    <rdf:RDF>
      <cc:Work
         rdf:about="">
        <dc:format>image/svg+xml</dc:format>
        <dc:type
           rdf:resource="http://purl.org/dc/dcmitype/StillImage" />
        <dc:title></dc:title>
      </cc:Work>
    </rdf:RDF>
  </metadata>
  <g
     inkscape:label="Layer 1"
     inkscape:groupmode="layer"
     id="layer1"
     transform="translate(0,-270.54167)">
    <g
       id="use85069"
       style="fill:#000000;stroke:none"
       transform="matrix(1.7427093,0,0,1.7427093,-1.4416843,268.85365)">
      <title
         id="title85091">Mail Send Receive</title>
      <g
         id="g85101">
        <g
           id="use88230"
           style="fill:#000000;stroke:none"
           transform="matrix(0.38715534,0,0,0.38715534,4.1725855,4.1371815)">
          <title
             id="title88244">list</title>
          <g
             id="use88280"
             style="fill:#000000;stroke:none"
             transform="matrix(1.2961365,0,0,1.2961365,-7.9941489,-9.3572052)">
            <title
               id="title88294">lock</title>
            <g
               id="use88336"
               style="fill:#000000;stroke:none"
               transform="matrix(0.94115476,0,0,0.94115476,0.33460606,2.9811904)">
              <title
                 id="title88350">film</title>
              <path
                 id="path88352"
                 d="M 5.1906438,21.376807 H 2.4752747 v 4.109619 h 2.7153691 z m 0,-6.164428 H 2.4752747 v 4.109619 h 2.7153691 z m 0,-6.1644286 H 2.4752747 V 13.157569 H 5.1906438 Z M 22.36926,25.642195 V 15.441278 H 7.9855939 V 25.642195 Z M 5.1906438,2.8835219 H 2.4752747 V 6.9931407 H 5.1906438 Z M 28.092184,21.302148 h -2.715369 v 4.109618 h 2.715369 z M 22.36926,12.940042 V 2.7391255 H 7.9855939 V 12.940042 Z m 5.722924,2.197677 h -2.715369 v 4.109619 h 2.715369 z m 0,-6.164428 h -2.715369 v 4.109619 h 2.715369 z m 0,-6.1644283 h -2.715369 v 4.1096189 h 2.715369 z M 30.513838,0.01976675 V 28.200862 H -0.30830293 V 0.01976675 Z"
                 inkscape:connector-curvature="0"
                 sodipodi:nodetypes="ccccccccccccccccccccccccccccccccccccccccccccccccccccccc"
                 style="stroke-width:1.02740467" />
            </g>
          </g>
        </g>
      </g>
    </g>
  </g>
</svg>
