<?xml version="1.0" encoding="UTF-8" standalone="no"?>
<!-- Generator: Adobe Illustrator 15.1.0, SVG Export Plug-In . SVG Version: 6.00 Build 0)  -->

<svg
   xmlns:dc="http://purl.org/dc/elements/1.1/"
   xmlns:cc="http://creativecommons.org/ns#"
   xmlns:rdf="http://www.w3.org/1999/02/22-rdf-syntax-ns#"
   xmlns:svg="http://www.w3.org/2000/svg"
   xmlns="http://www.w3.org/2000/svg"
   xmlns:sodipodi="http://sodipodi.sourceforge.net/DTD/sodipodi-0.dtd"
   xmlns:inkscape="http://www.inkscape.org/namespaces/inkscape"
   version="1.1"
   id="Layer_1"
   x="0px"
   y="0px"
   width="100"
   height="100"
   viewBox="0 0 100 100"
   enable-background="new 0 0 100 77"
   xml:space="preserve"
   sodipodi:docname="vm.svg"
   inkscape:version="0.92.4 (5da689c313, 2019-01-14)"><metadata
   id="metadata8252"><rdf:RDF><cc:Work
       rdf:about=""><dc:format>image/svg+xml</dc:format><dc:type
         rdf:resource="http://purl.org/dc/dcmitype/StillImage" /><dc:title></dc:title></cc:Work></rdf:RDF></metadata><defs
   id="defs8250" /><sodipodi:namedview
   pagecolor="#ffffff"
   bordercolor="#666666"
   borderopacity="1"
   objecttolerance="10"
   gridtolerance="10"
   guidetolerance="10"
   inkscape:pageopacity="0"
   inkscape:pageshadow="2"
   inkscape:window-width="1366"
   inkscape:window-height="744"
   id="namedview8248"
   showgrid="false"
   inkscape:zoom="3.7597403"
   inkscape:cx="69.369368"
   inkscape:cy="60.777737"
   inkscape:window-x="0"
   inkscape:window-y="24"
   inkscape:window-maximized="1"
   inkscape:current-layer="Layer_1" />
<path
   style="opacity:1;fill:#000000;fill-opacity:1;stroke:none;stroke-width:2.07835293;stroke-miterlimit:4;stroke-dasharray:none;stroke-dashoffset:0;stroke-opacity:1"
   d="M 0 0.65429688 L 0 100 L 100 100 L 100 0.65429688 L 0 0.65429688 z M 25.837891 13.289062 L 75.203125 13.289062 L 86.818359 53.216797 L 14.222656 53.216797 L 25.837891 13.289062 z M 45.40625 21.201172 C 43.349271 21.201172 41.911483 21.466942 41.09375 21.998047 C 40.276017 22.520722 39.867188 23.42697 39.867188 24.716797 L 39.867188 28.738281 L 39.867188 28.837891 C 39.867188 29.52917 39.594841 30.06071 39.046875 30.431641 C 38.498909 30.802571 37.69307 30.988281 36.630859 30.988281 L 36.630859 34.009766 C 37.68464 34.009766 38.485237 34.204006 39.033203 34.591797 C 39.589599 34.979588 39.867188 35.540005 39.867188 36.273438 L 39.867188 40.257812 C 39.867188 41.55607 40.276017 42.465606 41.09375 42.988281 C 41.911483 43.519386 43.349271 43.785156 45.40625 43.785156 L 45.40625 40.927734 C 44.563226 40.902444 43.985747 40.742324 43.673828 40.447266 C 43.361909 40.152207 43.207031 39.717788 43.207031 39.144531 L 43.207031 35.363281 L 43.207031 35.25 C 43.207031 33.757847 42.220723 32.863418 40.248047 32.568359 L 40.248047 32.417969 C 42.170142 32.131341 43.15645 31.19426 43.207031 29.609375 L 43.207031 25.830078 C 43.207031 25.256822 43.361909 24.822402 43.673828 24.527344 C 43.994177 24.232285 44.571656 24.072166 45.40625 24.046875 L 45.40625 21.201172 z M 54.220703 21.201172 L 54.220703 24.046875 C 55.063727 24.072166 55.641206 24.227044 55.953125 24.513672 C 56.265044 24.8003 56.419922 25.239961 56.419922 25.830078 L 56.419922 29.609375 C 56.470503 31.19426 57.453522 32.131341 59.367188 32.417969 L 59.367188 32.568359 C 58.397709 32.711673 57.6634 33.011564 57.166016 33.466797 C 56.668631 33.9136 56.419922 34.499609 56.419922 35.224609 L 56.419922 35.363281 L 56.419922 39.144531 C 56.419922 39.743078 56.259802 40.186028 55.939453 40.472656 C 55.627534 40.759284 55.055297 40.910874 54.220703 40.927734 L 54.220703 43.785156 C 55.628554 43.785156 56.729042 43.670976 57.521484 43.443359 C 58.322357 43.224173 58.894594 42.875055 59.240234 42.394531 C 59.585874 41.914007 59.759766 41.202 59.759766 40.257812 L 59.759766 36.273438 C 59.759766 35.455703 60.034066 34.874937 60.582031 34.529297 C 61.138427 34.183657 61.942314 34.009766 62.996094 34.009766 L 62.996094 30.988281 C 61.874872 30.988281 61.053925 30.811101 60.53125 30.457031 C 60.017005 30.102961 59.759766 29.571422 59.759766 28.863281 L 59.759766 28.738281 L 59.759766 24.716797 C 59.759766 23.78947 59.585874 23.085993 59.240234 22.605469 C 58.903025 22.116515 58.334076 21.762155 57.533203 21.542969 C 56.73233 21.315352 55.628554 21.201172 54.220703 21.201172 z M 14.222656 56.121094 L 86.818359 56.121094 L 86.818359 69.1875 L 14.222656 69.1875 L 14.222656 56.121094 z M 18.386719 60.572266 L 18.386719 64.929688 L 22.742188 64.929688 L 22.742188 60.572266 L 18.386719 60.572266 z M 26.626953 60.572266 L 26.626953 64.929688 L 30.982422 64.929688 L 30.982422 60.572266 L 26.626953 60.572266 z M 34.867188 60.607422 L 34.867188 64.962891 L 39.222656 64.962891 L 39.222656 60.607422 L 34.867188 60.607422 z M 49.226562 77.697266 L 52.728516 77.697266 L 52.728516 82.476562 L 57.572266 82.476562 L 57.572266 85.966797 L 52.728516 85.966797 L 52.728516 90.666016 L 49.226562 90.666016 L 49.226562 85.966797 L 44.382812 85.966797 L 44.382812 82.476562 L 49.226562 82.476562 L 49.226562 77.697266 z "
   id="rect12756" />

</svg>