<?xml version="1.0" encoding="UTF-8" standalone="no"?>
<svg
   xmlns:sketch="http://www.bohemiancoding.com/sketch/ns"
   xmlns:dc="http://purl.org/dc/elements/1.1/"
   xmlns:cc="http://creativecommons.org/ns#"
   xmlns:rdf="http://www.w3.org/1999/02/22-rdf-syntax-ns#"
   xmlns:svg="http://www.w3.org/2000/svg"
   xmlns="http://www.w3.org/2000/svg"
   xmlns:xlink="http://www.w3.org/1999/xlink"
   xmlns:sodipodi="http://sodipodi.sourceforge.net/DTD/sodipodi-0.dtd"
   xmlns:inkscape="http://www.inkscape.org/namespaces/inkscape"
   width="106.66666"
   height="106.66666"
   viewBox="0 0 100 100"
   version="1.1"
   id="svg2"
   inkscape:version="0.92.1 r15371"
   sodipodi:docname="work.svg">
  <metadata
     id="metadata20">
    <rdf:RDF>
      <cc:Work
         rdf:about="">
        <dc:format>image/svg+xml</dc:format>
        <dc:type
           rdf:resource="http://purl.org/dc/dcmitype/StillImage" />
      </cc:Work>
    </rdf:RDF>
  </metadata>
  <sodipodi:namedview
     pagecolor="#ffffff"
     bordercolor="#666666"
     borderopacity="1"
     objecttolerance="10"
     gridtolerance="10"
     guidetolerance="10"
     inkscape:pageopacity="0"
     inkscape:pageshadow="2"
     inkscape:window-width="1364"
     inkscape:window-height="743"
     id="namedview18"
     showgrid="true"
     inkscape:zoom="5.21349"
     inkscape:cx="-3.2214531"
     inkscape:cy="50"
     inkscape:window-x="0"
     inkscape:window-y="23"
     inkscape:window-maximized="1"
     inkscape:current-layer="svg2"
     showguides="false">
    <inkscape:grid
       type="xygrid"
       id="grid2988"
       originx="0"
       originy="0"
       spacingx="1"
       spacingy="1" />
  </sodipodi:namedview>
  <!-- Generator: Sketch 3.3.3 (12072) - http://www.bohemiancoding.com/sketch -->
  <title
     id="title4">work</title>
  <desc
     id="desc6">Created with Sketch.</desc>
  <defs
     id="defs8">
    <path
       id="path-1"
       d="m 35.63508,9.2554885 c 2.68297,4.6704375 3.345575,10.9423815 1.684577,16.0968465 -0.946056,2.942208 -3.087354,5.293388 -6.468459,7.010503 l -2.552068,1.30465 0.0047,4.856831 c 0,0 0.817851,16.247154 1.38127,24.76278 1.247941,19.314384 1.515854,27.154735 1.012914,28.835229 -1.763495,5.662026 -8.879216,7.455173 -13.180801,3.30118 -2.80829,-2.711932 -3.069534,-5.563629 -1.715262,-18.206028 0.52249,-4.867562 1.389896,-13.214512 1.905992,-18.521491 0.493808,-5.328497 0.636255,-9.947375 0.675076,-10.299795 0.07956,-0.573022 0.440098,-9.019542 0.440098,-9.019542 -0.03005,-2.065236 -0.126969,-4.195028 -0.200864,-4.742951 C 18.432486,33.670568 18.410193,33.64905 16.66287,32.871475 15.33582,32.283135 14.336056,31.534288 12.754248,30.050078 10.70439,28.113878 10.547095,27.875329 9.7446362,25.584079 7.1557567,18.318432 8.7612245,10.857513 13.880525,6.2699644 14.834983,5.4154043 16.270184,4.3752473 17.03364,3.9860954 l 1.41803,-0.7101577 0.172366,7.3148463 c 0.178846,9.270665 -7.33e-4,9.010597 5.711029,8.894307 5.579947,-0.113602 5.386392,0.176047 5.257866,-8.656112 -0.0844,-5.8002209 -0.01379,-6.988418 0.471433,-6.8664271 0.992727,0.2654814 4.691896,3.7944065 5.570716,5.2929366 z"
       inkscape:connector-curvature="0" />
    <mask
       id="mask-2"
       sketch:name="Clip 5"
       fill="white">
      <use
         xlink:href="#path-1"
         id="use15"
         x="0"
         y="0"
         width="100%"
         height="100%" />
    </mask>
  </defs>
  <path
     d="m 86.187268,45.350809 6.525628,-6.645228 c 1.3268,-1.447998 1.326794,-3.501203 0,-4.829609 l -1.330812,-1.450407 c -0.967205,-1.086 -2.896,-1.448001 -4.10641,-0.362 -1.088408,0 -2.53641,-0.484002 -3.624815,-1.570004 -2.293201,-2.539618 -0.724,-7.007226 -2.293201,-8.576427 -0.724806,-0.726404 -3.624815,-3.624815 -6.399614,-6.402018 -3.022819,-3.019609 -8.01707,-6.4132731 -25.202305,-3.25306 l 0.122833,2.779636 c 0,0 4.235576,-2.373218 12.082388,5.357204 0,0 2.900815,3.140006 0.121201,5.918818 -0.724826,0.845176 -1.083595,1.207197 -1.083595,1.207197 l -1.453639,1.450387 7.438685,7.314276 c 0,0 1.933609,-2.052403 2.536407,-2.536407 1.448806,-1.569198 5.194822,-1.449608 8.090818,1.570004 2.054814,1.934408 2.415205,4.10882 1.330811,4.832819 -0.607614,0.846005 -0.1212,2.657607 0.967206,3.624815 l 1.448,1.570004 c 1.447999,1.329205 3.50361,1.329204 4.83041,0 z M 64.928801,38.465587 57.732518,31.028505 12.550636,75.367594 c -1.812383,1.810826 -1.812405,4.830409 0,6.521616 l 3.207061,3.329065 c 1.812407,1.812407 4.835226,1.812407 6.52563,0 z"
     id="Imported-Layers"
     sketch:type="MSShapeGroup"
     inkscape:connector-curvature="0"
     style="fill:#000000;fill-rule:evenodd;stroke:none" />
</svg>
