<?xml version="1.0" encoding="UTF-8" standalone="no"?>
<svg
   xmlns:sketch="http://www.bohemiancoding.com/sketch/ns"
   xmlns:dc="http://purl.org/dc/elements/1.1/"
   xmlns:cc="http://creativecommons.org/ns#"
   xmlns:rdf="http://www.w3.org/1999/02/22-rdf-syntax-ns#"
   xmlns:svg="http://www.w3.org/2000/svg"
   xmlns="http://www.w3.org/2000/svg"
   xmlns:xlink="http://www.w3.org/1999/xlink"
   xmlns:sodipodi="http://sodipodi.sourceforge.net/DTD/sodipodi-0.dtd"
   xmlns:inkscape="http://www.inkscape.org/namespaces/inkscape"
   width="100px"
   height="100px"
   viewBox="0 0 100 100"
   version="1.1"
   id="svg2"
   inkscape:version="0.48.5 r10040"
   sodipodi:docname="work.svg">
  <metadata
     id="metadata20">
    <rdf:RDF>
      <cc:Work
         rdf:about="">
        <dc:format>image/svg+xml</dc:format>
        <dc:type
           rdf:resource="http://purl.org/dc/dcmitype/StillImage" />
      </cc:Work>
    </rdf:RDF>
  </metadata>
  <sodipodi:namedview
     pagecolor="#ffffff"
     bordercolor="#666666"
     borderopacity="1"
     objecttolerance="10"
     gridtolerance="10"
     guidetolerance="10"
     inkscape:pageopacity="0"
     inkscape:pageshadow="2"
     inkscape:window-width="1912"
     inkscape:window-height="1002"
     id="namedview18"
     showgrid="true"
     inkscape:zoom="5.21349"
     inkscape:cx="-3.2214531"
     inkscape:cy="50"
     inkscape:window-x="4"
     inkscape:window-y="27"
     inkscape:window-maximized="0"
     inkscape:current-layer="svg2"
     showguides="false">
    <inkscape:grid
       type="xygrid"
       id="grid2988" />
  </sodipodi:namedview>
  <!-- Generator: Sketch 3.3.3 (12072) - http://www.bohemiancoding.com/sketch -->
  <title
     id="title4">work</title>
  <desc
     id="desc6">Created with Sketch.</desc>
  <defs
     id="defs8">
    <path
       id="path-1"
       d="M35.6350798,9.25548849 C38.3180497,13.9259256 38.9806547,20.1978701 37.3196573,25.3523354 C36.3736007,28.2945427 34.2323032,30.6457228 30.8511978,32.362838 L28.2991299,33.6674877 L28.3038742,38.5243186 C28.3038742,38.5243186 29.1217252,54.7714729 29.6851442,63.2870993 C30.9330847,82.6014826 31.2009985,90.4418344 30.6980577,92.1223285 C28.9345633,97.7843544 21.8188419,99.5775007 17.5172566,95.4235081 C14.7089673,92.7115756 14.4477227,89.8598787 15.8019947,77.2174797 C16.3244847,72.3499184 17.1918913,64.0029676 17.7079874,58.6959894 C18.2017953,53.3674925 18.3442422,48.7486139 18.3830635,48.3961936 C18.462628,47.8231723 18.8231609,39.3766516 18.8231609,39.3766516 C18.7931063,37.3114159 18.6961918,35.1816239 18.6222967,34.6337014 C18.4324862,33.6705683 18.4101931,33.6490497 16.6628703,32.8714752 C15.3358196,32.2831355 14.3360564,31.5342879 12.7542476,30.0500781 C10.7043903,28.1138782 10.5470953,27.8753288 9.74463625,25.5840788 C7.15575675,18.3184316 8.76122453,10.8575129 13.8805252,6.26996444 C14.8349825,5.41540434 16.2701843,4.37524732 17.0336404,3.98609544 L18.4516697,3.27593765 L18.6240365,10.5907841 C18.802882,19.861449 18.6233026,19.6013808 24.3350648,19.4850913 C29.9150116,19.3714893 29.7214569,19.6611385 29.5929306,10.8289787 C29.5085291,5.0287581 29.5791423,3.84056098 30.0643643,3.96255193 C31.0570913,4.22803331 34.7562598,7.75695838 35.6350798,9.25548849 L35.6350798,9.25548849 Z" />
    <mask
       id="mask-2"
       sketch:name="Clip 5"
       fill="white">
      <use
         xlink:href="#path-1"
         id="use15"
         x="0"
         y="0"
         width="100%"
         height="100%" />
    </mask>
  </defs>
  <path
     d="m 86.187268,45.350809 6.525628,-6.645228 c 1.3268,-1.447998 1.326794,-3.501203 0,-4.829609 l -1.330812,-1.450407 c -0.967205,-1.086 -2.896,-1.448001 -4.10641,-0.362 -1.088408,0 -2.53641,-0.484002 -3.624815,-1.570004 -2.293201,-2.539618 -0.724,-7.007226 -2.293201,-8.576427 -0.724806,-0.726404 -3.624815,-3.624815 -6.399614,-6.402018 -3.022819,-3.019609 -8.01707,-6.4132731 -25.202305,-3.25306 l 0.122833,2.779636 c 0,0 4.235576,-2.373218 12.082388,5.357204 0,0 2.900815,3.140006 0.121201,5.918818 -0.724826,0.845176 -1.083595,1.207197 -1.083595,1.207197 l -1.453639,1.450387 7.438685,7.314276 c 0,0 1.933609,-2.052403 2.536407,-2.536407 1.448806,-1.569198 5.194822,-1.449608 8.090818,1.570004 2.054814,1.934408 2.415205,4.10882 1.330811,4.832819 -0.607614,0.846005 -0.1212,2.657607 0.967206,3.624815 l 1.448,1.570004 c 1.447999,1.329205 3.50361,1.329204 4.83041,0 z M 64.928801,38.465587 57.732518,31.028505 12.550636,75.367594 c -1.812383,1.810826 -1.812405,4.830409 0,6.521616 l 3.207061,3.329065 c 1.812407,1.812407 4.835226,1.812407 6.52563,0 L 64.928801,38.465587 z"
     id="Imported-Layers"
     sketch:type="MSShapeGroup"
     inkscape:connector-curvature="0"
     style="fill:#000000;fill-rule:evenodd;stroke:none" />
</svg>
