<?xml version="1.0" encoding="UTF-8" standalone="no"?>
<svg width="100px" height="100px" viewBox="0 0 100 100" version="1.1" xmlns="http://www.w3.org/2000/svg" xmlns:xlink="http://www.w3.org/1999/xlink" xmlns:sketch="http://www.bohemiancoding.com/sketch/ns">
    <!-- Generator: Sketch 3.3.3 (12072) - http://www.bohemiancoding.com/sketch -->
    <title>work</title>
    <desc>Created with Sketch.</desc>
    <defs>
        <path id="path-1" d="M35.6350798,9.25548849 C38.3180497,13.9259256 38.9806547,20.1978701 37.3196573,25.3523354 C36.3736007,28.2945427 34.2323032,30.6457228 30.8511978,32.362838 L28.2991299,33.6674877 L28.3038742,38.5243186 C28.3038742,38.5243186 29.1217252,54.7714729 29.6851442,63.2870993 C30.9330847,82.6014826 31.2009985,90.4418344 30.6980577,92.1223285 C28.9345633,97.7843544 21.8188419,99.5775007 17.5172566,95.4235081 C14.7089673,92.7115756 14.4477227,89.8598787 15.8019947,77.2174797 C16.3244847,72.3499184 17.1918913,64.0029676 17.7079874,58.6959894 C18.2017953,53.3674925 18.3442422,48.7486139 18.3830635,48.3961936 C18.462628,47.8231723 18.8231609,39.3766516 18.8231609,39.3766516 C18.7931063,37.3114159 18.6961918,35.1816239 18.6222967,34.6337014 C18.4324862,33.6705683 18.4101931,33.6490497 16.6628703,32.8714752 C15.3358196,32.2831355 14.3360564,31.5342879 12.7542476,30.0500781 C10.7043903,28.1138782 10.5470953,27.8753288 9.74463625,25.5840788 C7.15575675,18.3184316 8.76122453,10.8575129 13.8805252,6.26996444 C14.8349825,5.41540434 16.2701843,4.37524732 17.0336404,3.98609544 L18.4516697,3.27593765 L18.6240365,10.5907841 C18.802882,19.861449 18.6233026,19.6013808 24.3350648,19.4850913 C29.9150116,19.3714893 29.7214569,19.6611385 29.5929306,10.8289787 C29.5085291,5.0287581 29.5791423,3.84056098 30.0643643,3.96255193 C31.0570913,4.22803331 34.7562598,7.75695838 35.6350798,9.25548849 L35.6350798,9.25548849 Z"></path>
    </defs>
    <g id="Page-1" stroke="none" stroke-width="1" fill="none" fill-rule="evenodd" sketch:type="MSPage">
        <g id="work" sketch:type="MSArtboardGroup">
            <path d="M74.5630938,28.6392882 L77.4673325,91.8533354 C77.5536026,94.3301964 75.4161465,96.4676524 72.8530155,96.4676524 L68.2312762,96.3813823 C65.7538476,96.4670849 63.6186618,94.3318991 63.6197969,91.7699031 L64.215742,28.4690182 L74.5630938,28.6392882 Z M94.463684,18.4758719 C94.4653867,20.35395 93.0118485,21.8074882 91.0480678,21.8914881 L88.9140171,21.805218 C87.4604789,21.8909205 85.8355355,20.9538679 85.6669682,19.9260047 C85.9218056,18.647277 84.1294301,17.3645763 81.3086237,17.4497113 C77.1256574,17.3623061 74.3922563,19.9265723 74.4773913,22.060623 C74.3933914,22.8291082 74.4773913,25.6476443 74.4773913,25.6476443 L64.045472,25.7356172 L64.0477422,23.6821609 C64.0477422,23.6821609 64.045472,23.1724861 63.960337,22.0623257 C63.9609045,18.1319265 59.6893978,17.9627916 59.6893978,17.9627916 C48.6746314,18.0450888 47.357745,22.7182148 47.357745,22.7182148 L45.3054239,20.8395691 C55.2226123,6.45316483 61.1537637,5.32137913 65.4264056,5.31910886 C69.3522642,5.32081156 73.4523659,5.31967643 74.4785264,5.32081156 C76.6977121,5.32081156 78.7471953,9.58948049 82.1645143,9.76372346 C83.7020524,9.76202076 85.0681854,9.08037319 85.8378058,8.31075278 C85.9257786,6.68694454 87.5456139,5.57905439 88.9974494,5.66305426 L90.9640679,5.7476217 C92.8415785,5.74875683 94.293414,7.20059237 94.3791166,9.16267036 L94.463684,18.4758719 Z" id="Imported-Layers" fill="#000000" sketch:type="MSShapeGroup"></path>
            <mask id="mask-2" sketch:name="Clip 5" fill="white">
                <use xlink:href="#path-1"></use>
            </mask>
            <use id="Clip-5" fill="#000000" sketch:type="MSShapeGroup" xlink:href="#path-1"></use>
        </g>
    </g>
</svg>