<?xml version="1.0" standalone="no"?>
<!DOCTYPE svg PUBLIC "-//W3C//DTD SVG 1.1//EN" "http://www.w3.org/Graphics/SVG/1.1/DTD/svg11.dtd">
<svg width="100%" height="100%" viewBox="0 0 1024 768" version="1.1" xmlns="http://www.w3.org/2000/svg" xmlns:xlink="http://www.w3.org/1999/xlink" xml:space="preserve" style="fill-rule:evenodd;clip-rule:evenodd;stroke-linejoin:round;stroke-miterlimit:1.41421;">
    <g id="Layer1">
        <g transform="matrix(1.48717,0,0,1.4511,-603.665,-803.838)">
            <rect x="450.712" y="606.751" width="503.026" height="117.49" style="fill:black;"/>
        </g>
        <g transform="matrix(0.0502725,-0.0290763,0.56931,0.984328,-171.261,-305.79)">
            <path d="M306.074,481.796L464.891,481.796" style="fill:white;"/>
            <path d="M306.074,483.848L306.074,479.744L386.429,479.744L386.429,483.848L306.074,483.848Z" style="fill:white;"/>
        </g>
        <g transform="matrix(0.45312,-0.262073,0.56931,0.984328,-233.505,-189.42)">
            <path d="M306.074,481.796L464.891,481.796" style="fill:white;"/>
            <path d="M306.074,483.848L306.074,479.744L314.989,479.744L314.989,483.848L306.074,483.848ZM323.905,483.848L323.905,479.744L332.82,479.744L332.82,483.848L323.905,483.848ZM341.735,483.848L341.735,479.744L350.65,479.744L350.65,483.848L341.735,483.848ZM359.565,483.848L359.565,479.744L368.481,479.744L368.481,483.848L359.565,483.848ZM377.396,483.848L377.396,479.744L386.311,479.744L386.311,483.848L377.396,483.848ZM395.226,483.848L395.226,479.744L404.142,479.744L404.142,483.848L395.226,483.848ZM413.057,483.848L413.057,479.744L421.972,479.744L421.972,483.848L413.057,483.848ZM430.887,483.848L430.887,479.744L439.802,479.744L439.802,483.848L430.887,483.848ZM448.718,483.848L448.718,479.744L457.633,479.744L457.633,483.848L448.718,483.848Z" style="fill:white;"/>
        </g>
        <g transform="matrix(0.0370352,0.0212283,-0.565474,0.986537,499.49,-324.436)">
            <path d="M306.074,481.796L464.891,481.796" style="fill:white;"/>
            <path d="M415.395,483.848L306.074,483.848L306.074,479.744L415.395,479.744L415.395,483.848Z" style="fill:white;"/>
        </g>
        <g transform="matrix(0.451885,0.259016,-0.565474,0.986537,247.002,-389.419)">
            <path d="M306.074,481.796L464.891,481.796" style="fill:white;"/>
            <path d="M458.388,483.848L449.428,483.848L449.428,479.744L458.388,479.744L458.388,483.848ZM440.469,483.848L431.509,483.848L431.509,479.744L440.469,479.744L440.469,483.848ZM422.55,483.848L413.59,483.848L413.59,479.744L422.55,479.744L422.55,483.848ZM404.63,483.848L395.671,483.848L395.671,479.744L404.63,479.744L404.63,483.848ZM386.711,483.848L377.751,483.848L377.751,479.744L386.711,479.744L386.711,483.848ZM368.792,483.848L359.832,483.848L359.832,479.744L368.792,479.744L368.792,483.848ZM350.872,483.848L341.913,483.848L341.913,479.744L350.872,479.744L350.872,483.848ZM332.953,483.848L323.994,483.848L323.994,479.744L332.953,479.744L332.953,483.848ZM315.034,483.848L306.074,483.848L306.074,479.744L315.034,479.744L315.034,483.848Z" style="fill:white;"/>
        </g>
        <g transform="matrix(1.52644,0,0,1.52644,104.042,92.9347)">
            <path d="M90.761,58.255L98.511,63.601L49.588,91.739L0.666,63.601L8.56,58.773L49.541,82L90.761,58.255Z" style="fill:white;"/>
        </g>
        <g transform="matrix(1.49057,0,0,1.49057,106.991,89.276)">
            <path d="M49.588,9.154L0.666,37.293L49.588,65.432L84.614,45.284L98.51,37.293L49.588,9.154ZM49.588,60.467L9.299,37.293L49.588,14.12L89.878,37.293L49.588,60.467Z" style="fill:white;"/>
        </g>
        <g transform="matrix(1.35327,0,0,1.35327,-86.5254,-251.826)">
            <text x="291.616px" y="296.449px" style="font-family:League Spartan;font-size:40px;font-weight:700;fill:white;">TRAN<tspan x="407.696px 434.576px 458.656px " y="296.449px 296.449px 296.449px ">SPA</tspan>REN<tspan x="573.616px " y="296.449px ">C</tspan>Y</text>
        </g>
        <g transform="matrix(1.35327,0,0,1.35327,-88.9459,-189.142)">
            <text x="291.616px" y="296.449px" style="font-family:League Spartan;font-size:40px;font-weight:700;fill:white;">T<tspan x="314.176px " y="296.449px ">O</tspan>OLKI<tspan x="448.816px " y="296.449px ">T</tspan></text>
        </g>
        <g transform="matrix(1.42129,0,0,1.56204,-563.975,-649.446)">
            <rect x="450.712" y="606.751" width="503.026" height="117.49" style="fill:black;"/>
        </g>
        <g transform="matrix(1.35327,0,0,1.35327,-109.525,-24.6177)">
            <text x="291.616px" y="296.449px" style="font-family:League Spartan;font-size:40px;font-weight:700;fill:white;">TRAN<tspan x="407.696px 434.576px 458.656px " y="296.449px 296.449px 296.449px ">SPA</tspan>REN<tspan x="573.616px " y="296.449px ">C</tspan>Y</text>
        </g>
        <g transform="matrix(1.35327,0,0,1.35327,-111.946,43.0664)">
            <text x="291.616px" y="296.449px" style="font-family:League Spartan;font-size:40px;font-weight:700;fill:white;">T<tspan x="314.176px " y="296.449px ">O</tspan>OLKI<tspan x="448.816px " y="296.449px ">T</tspan></text>
        </g>
        <g transform="matrix(0.542286,0.542286,0.581457,-0.581457,119.661,431.327)">
            <path d="M90.814,82.588C94.778,86.555 93.782,94.205 89.819,98.331C85.696,102.296 78.517,102.845 74.553,98.72L21.927,44.017C17.638,39.891 14.347,39.161 10.856,40.271C7.365,41.541 0.965,42.51 -3.637,39.494C-13.472,33.15 -19.546,23.063 -19.546,23.063L-8.441,14.921C-8.441,14.921 -0.547,23.477 0.564,24.113C1.994,25.223 5.777,28.69 10.219,21.867C14.821,15.044 11.764,11.277 10.494,10.482C9.382,9.847 0.687,3.862 0.687,3.862L6.819,-7.689C6.819,-7.689 23.675,1.999 24.626,2.793C30.817,8.346 30.056,16.949 28.945,22.026C27.988,26.628 28.945,28.214 32.59,32.181L90.814,82.588ZM86.328,87.225L78.714,87.225L78.714,94.68L86.328,94.84L86.328,87.225Z" style="fill:white;fill-rule:nonzero;"/>
        </g>
        <g transform="matrix(0.772788,0.772788,-0.772788,0.772788,379.837,-226.972)">
            <g transform="matrix(0.367474,0,0,0.367474,198.898,457.11)">
                <path d="M111.349,152.783L129.949,171.072L97.346,216.819L47.39,261.411C42.209,266.782 26.428,259.961 26.428,259.961C26.428,259.961 19.048,244.441 24.241,239.059L66.116,185.59L111.349,152.783Z" style="fill:white;fill-rule:nonzero;"/>
            </g>
            <g transform="matrix(0.432589,0,0,0.432589,192.288,445.775)">
                <path d="M122.986,139.793C116.552,129.926 112.81,118.151 112.81,105.519C112.81,70.825 141.021,42.608 175.721,42.608C210.409,42.608 238.632,70.825 238.632,105.519C238.632,140.206 210.408,168.429 175.721,168.429C164.035,168.429 153.085,165.228 143.701,159.657C143.339,160.121 133.305,165.395 133.305,165.395L116.571,148.771C116.571,148.771 122.799,139.954 122.986,139.793ZM175.721,57.973C149.506,57.973 128.164,79.304 128.164,105.519C128.164,131.734 149.506,153.064 175.721,153.064C201.936,153.064 223.255,131.734 223.255,105.519C223.255,79.304 201.936,57.973 175.721,57.973Z" style="fill:white;"/>
            </g>
            <g transform="matrix(-0.371436,-0.371436,0.371436,-0.371436,348.245,704.151)">
                <path d="M426.091,181.084C426.128,180.536 426.153,179.976 426.153,179.416L394.721,210.848C395.281,210.835 395.841,210.81 396.389,210.786L426.091,181.084ZM425.593,184.941C425.717,184.307 425.817,183.672 425.904,183.037L398.33,210.599C398.977,210.512 399.612,210.412 400.234,210.288L425.593,184.941ZM424.349,189.533C424.622,188.774 424.859,188.002 425.07,187.218L402.523,209.765C403.307,209.554 404.079,209.317 404.838,209.044L424.349,189.533ZM426.14,177.674C426.115,177.164 426.091,176.666 426.053,176.169L394.224,207.986L394.224,209.579L426.14,177.674ZM421.163,196.09C421.897,194.945 422.544,193.751 423.129,192.519L407.824,207.824C409.056,207.239 410.25,206.58 411.395,205.858L421.163,196.09ZM425.867,174.588C425.804,174.128 425.73,173.668 425.655,173.207L394.224,204.626L394.224,206.219L425.867,174.588ZM425.356,171.739C425.257,171.316 425.145,170.88 425.033,170.457L394.224,201.267L394.224,202.859L425.356,171.739ZM424.622,169.113C424.498,168.715 424.361,168.317 424.212,167.919L394.224,197.907L394.224,199.5L424.622,169.113ZM423.714,166.65C423.552,166.276 423.39,165.903 423.229,165.542L394.224,194.547L394.224,196.14L423.714,166.65ZM422.656,164.36C422.482,164.012 422.283,163.663 422.096,163.315L394.224,191.188L394.224,192.78L422.656,164.36ZM421.449,162.208C421.25,161.884 421.039,161.548 420.827,161.237L394.224,187.828L394.224,189.421L421.449,162.208ZM420.093,160.192C419.869,159.881 419.645,159.582 419.409,159.283L394.224,184.468L394.224,186.061L420.093,160.192ZM418.625,158.313C418.376,158.027 418.127,157.74 417.878,157.454L394.236,181.096L394.236,182.701L418.625,158.313ZM417.02,156.558C416.758,156.285 416.484,156.023 416.211,155.762L394.224,177.749L394.224,179.342L417.02,156.558ZM415.29,154.928C415.004,154.679 414.718,154.431 414.419,154.194L394.224,174.389L394.224,175.982L415.29,154.928ZM413.436,153.41C413.137,153.186 412.826,152.962 412.503,152.738L394.224,171.03L394.224,172.622L413.436,153.41ZM411.457,152.029C411.134,151.818 410.798,151.618 410.462,151.419L394.224,167.67L394.224,169.263L411.457,152.029ZM409.342,150.785C408.994,150.598 408.645,150.411 408.284,150.237L394.224,164.298L394.224,165.903L409.342,150.785ZM407.09,149.69C406.717,149.528 406.343,149.366 405.958,149.217L394.224,160.951L394.224,162.544L407.09,149.69ZM404.676,148.744C404.278,148.607 403.88,148.47 403.469,148.358L394.224,157.604L394.224,159.184L404.676,148.744ZM402.088,147.96C401.652,147.848 401.229,147.749 400.794,147.661L394.236,154.219L394.236,155.824L402.088,147.96ZM399.3,147.388C398.84,147.313 398.367,147.251 397.894,147.201L394.224,150.872L394.224,152.465L399.3,147.388ZM396.277,147.052C395.767,147.014 395.256,147.002 394.734,146.99L394.224,147.5L394.224,149.105L396.277,147.052Z" style="fill:white;"/>
            </g>
        </g>
        <g transform="matrix(1.0497,0,0,1.51412,-184.378,-386.354)">
            <rect x="450.712" y="606.751" width="503.026" height="117.49" style="fill:black;"/>
        </g>
        <g transform="matrix(0.403536,0,0,1.51412,-111.26,-386.354)">
            <rect x="450.712" y="606.751" width="503.026" height="117.49" style="fill:black;"/>
        </g>
        <g transform="matrix(1.35327,0,0,1.35327,-71.5254,206.398)">
            <text x="291.616px" y="296.449px" style="font-family:League Spartan;font-size:40px;font-weight:700;fill:white;">TRAN<tspan x="407.696px 434.576px 458.656px " y="296.449px 296.449px 296.449px ">SPA</tspan>REN<tspan x="573.616px " y="296.449px ">C</tspan>Y</text>
        </g>
        <g transform="matrix(1.35327,0,0,1.35327,-73.9459,276.082)">
            <text x="291.616px" y="296.449px" style="font-family:League Spartan;font-size:40px;font-weight:700;fill:white;">T<tspan x="314.176px " y="296.449px ">O</tspan>OLKI<tspan x="448.816px " y="296.449px ">T</tspan></text>
        </g>
        <g transform="matrix(0.717586,0.717586,0.73622,-0.73622,105.636,662.304)">
            <path d="M90.814,82.588C94.778,86.555 93.782,94.205 89.819,98.331C85.696,102.296 78.517,102.845 74.553,98.72L21.927,44.017C17.638,39.891 14.347,39.161 10.856,40.271C7.365,41.541 0.965,42.51 -3.637,39.494C-13.472,33.15 -19.546,23.063 -19.546,23.063L-8.441,14.921C-8.441,14.921 -0.547,23.477 0.564,24.113C1.994,25.223 5.777,28.69 10.219,21.867C14.821,15.044 11.764,11.277 10.494,10.482C9.382,9.847 0.687,3.862 0.687,3.862L6.819,-7.689C6.819,-7.689 23.675,1.999 24.626,2.793C30.817,8.346 30.056,16.949 28.945,22.026C27.988,26.628 28.945,28.214 32.59,32.181L90.814,82.588ZM86.328,87.225L78.714,87.225L78.714,94.68L86.328,94.84L86.328,87.225Z" style="fill:white;fill-rule:nonzero;"/>
        </g>
        <g transform="matrix(0.841703,0.841703,-0.841703,0.841703,395.293,-48.2213)">
            <g transform="matrix(0.367474,0,0,0.367474,198.898,457.11)">
                <path d="M111.349,152.783L129.949,171.072L97.346,216.819L47.39,261.411C42.209,266.782 26.428,259.961 26.428,259.961C26.428,259.961 19.048,244.441 24.241,239.059L66.116,185.59L111.349,152.783Z" style="fill:white;fill-rule:nonzero;"/>
            </g>
            <g transform="matrix(0.432589,0,0,0.432589,192.288,445.775)">
                <path d="M122.986,139.793C116.552,129.926 112.81,118.151 112.81,105.519C112.81,70.825 141.021,42.608 175.721,42.608C210.409,42.608 238.632,70.825 238.632,105.519C238.632,140.206 210.408,168.429 175.721,168.429C164.035,168.429 153.085,165.228 143.701,159.657C143.339,160.121 133.305,165.395 133.305,165.395L116.571,148.771C116.571,148.771 122.799,139.954 122.986,139.793ZM175.721,57.973C149.506,57.973 128.164,79.304 128.164,105.519C128.164,131.734 149.506,153.064 175.721,153.064C201.936,153.064 223.255,131.734 223.255,105.519C223.255,79.304 201.936,57.973 175.721,57.973Z" style="fill:white;"/>
            </g>
            <g transform="matrix(-0.371436,-0.371436,0.371436,-0.371436,348.245,704.151)">
                <path d="M426.091,181.084C426.128,180.536 426.153,179.976 426.153,179.416L394.721,210.848C395.281,210.835 395.841,210.81 396.389,210.786L426.091,181.084ZM425.593,184.941C425.717,184.307 425.817,183.672 425.904,183.037L398.33,210.599C398.977,210.512 399.612,210.412 400.234,210.288L425.593,184.941ZM424.349,189.533C424.622,188.774 424.859,188.002 425.07,187.218L402.523,209.765C403.307,209.554 404.079,209.317 404.838,209.044L424.349,189.533ZM426.14,177.674C426.115,177.164 426.091,176.666 426.053,176.169L394.224,207.986L394.224,209.579L426.14,177.674ZM421.163,196.09C421.897,194.945 422.544,193.751 423.129,192.519L407.824,207.824C409.056,207.239 410.25,206.58 411.395,205.858L421.163,196.09ZM425.867,174.588C425.804,174.128 425.73,173.668 425.655,173.207L394.224,204.626L394.224,206.219L425.867,174.588ZM425.356,171.739C425.257,171.316 425.145,170.88 425.033,170.457L394.224,201.267L394.224,202.859L425.356,171.739ZM424.622,169.113C424.498,168.715 424.361,168.317 424.212,167.919L394.224,197.907L394.224,199.5L424.622,169.113ZM423.714,166.65C423.552,166.276 423.39,165.903 423.229,165.542L394.224,194.547L394.224,196.14L423.714,166.65ZM422.656,164.36C422.482,164.012 422.283,163.663 422.096,163.315L394.224,191.188L394.224,192.78L422.656,164.36ZM421.449,162.208C421.25,161.884 421.039,161.548 420.827,161.237L394.224,187.828L394.224,189.421L421.449,162.208ZM420.093,160.192C419.869,159.881 419.645,159.582 419.409,159.283L394.224,184.468L394.224,186.061L420.093,160.192ZM418.625,158.313C418.376,158.027 418.127,157.74 417.878,157.454L394.236,181.096L394.236,182.701L418.625,158.313ZM417.02,156.558C416.758,156.285 416.484,156.023 416.211,155.762L394.224,177.749L394.224,179.342L417.02,156.558ZM415.29,154.928C415.004,154.679 414.718,154.431 414.419,154.194L394.224,174.389L394.224,175.982L415.29,154.928ZM413.436,153.41C413.137,153.186 412.826,152.962 412.503,152.738L394.224,171.03L394.224,172.622L413.436,153.41ZM411.457,152.029C411.134,151.818 410.798,151.618 410.462,151.419L394.224,167.67L394.224,169.263L411.457,152.029ZM409.342,150.785C408.994,150.598 408.645,150.411 408.284,150.237L394.224,164.298L394.224,165.903L409.342,150.785ZM407.09,149.69C406.717,149.528 406.343,149.366 405.958,149.217L394.224,160.951L394.224,162.544L407.09,149.69ZM404.676,148.744C404.278,148.607 403.88,148.47 403.469,148.358L394.224,157.604L394.224,159.184L404.676,148.744ZM402.088,147.96C401.652,147.848 401.229,147.749 400.794,147.661L394.236,154.219L394.236,155.824L402.088,147.96ZM399.3,147.388C398.84,147.313 398.367,147.251 397.894,147.201L394.224,150.872L394.224,152.465L399.3,147.388ZM396.277,147.052C395.767,147.014 395.256,147.002 394.734,146.99L394.224,147.5L394.224,149.105L396.277,147.052Z" style="fill:white;"/>
            </g>
        </g>
        <g transform="matrix(-0.184128,-0.67146,0.67146,-0.184128,-100.104,413.986)">
            <g transform="matrix(0.367474,0,0,0.367474,198.898,457.11)">
                <path d="M111.349,152.783L129.949,171.072L97.346,216.819L47.39,261.411C42.209,266.782 26.428,259.961 26.428,259.961C26.428,259.961 19.048,244.441 24.241,239.059L66.116,185.59L111.349,152.783Z" style="fill:white;fill-rule:nonzero;"/>
            </g>
            <g transform="matrix(0.432589,0,0,0.432589,192.288,445.775)">
                <path d="M122.986,139.793C116.552,129.926 112.81,118.151 112.81,105.519C112.81,70.825 141.021,42.608 175.721,42.608C210.409,42.608 238.632,70.825 238.632,105.519C238.632,140.206 210.408,168.429 175.721,168.429C164.035,168.429 153.085,165.228 143.701,159.657C143.339,160.121 133.305,165.395 133.305,165.395L116.571,148.771C116.571,148.771 122.799,139.954 122.986,139.793ZM175.721,57.973C149.506,57.973 128.164,79.304 128.164,105.519C128.164,131.734 149.506,153.064 175.721,153.064C201.936,153.064 223.255,131.734 223.255,105.519C223.255,79.304 201.936,57.973 175.721,57.973Z" style="fill:white;"/>
            </g>
            <g transform="matrix(-0.371436,-0.371436,0.371436,-0.371436,348.245,704.151)">
                <path d="M426.091,181.084C426.128,180.536 426.153,179.976 426.153,179.416L394.721,210.848C395.281,210.835 395.841,210.81 396.389,210.786L426.091,181.084ZM425.593,184.941C425.717,184.307 425.817,183.672 425.904,183.037L398.33,210.599C398.977,210.512 399.612,210.412 400.234,210.288L425.593,184.941ZM424.349,189.533C424.622,188.774 424.859,188.002 425.07,187.218L402.523,209.765C403.307,209.554 404.079,209.317 404.838,209.044L424.349,189.533ZM426.14,177.674C426.115,177.164 426.091,176.666 426.053,176.169L394.224,207.986L394.224,209.579L426.14,177.674ZM421.163,196.09C421.897,194.945 422.544,193.751 423.129,192.519L407.824,207.824C409.056,207.239 410.25,206.58 411.395,205.858L421.163,196.09ZM425.867,174.588C425.804,174.128 425.73,173.668 425.655,173.207L394.224,204.626L394.224,206.219L425.867,174.588ZM425.356,171.739C425.257,171.316 425.145,170.88 425.033,170.457L394.224,201.267L394.224,202.859L425.356,171.739ZM424.622,169.113C424.498,168.715 424.361,168.317 424.212,167.919L394.224,197.907L394.224,199.5L424.622,169.113ZM423.714,166.65C423.552,166.276 423.39,165.903 423.229,165.542L394.224,194.547L394.224,196.14L423.714,166.65ZM422.656,164.36C422.482,164.012 422.283,163.663 422.096,163.315L394.224,191.188L394.224,192.78L422.656,164.36ZM421.449,162.208C421.25,161.884 421.039,161.548 420.827,161.237L394.224,187.828L394.224,189.421L421.449,162.208ZM420.093,160.192C419.869,159.881 419.645,159.582 419.409,159.283L394.224,184.468L394.224,186.061L420.093,160.192ZM418.625,158.313C418.376,158.027 418.127,157.74 417.878,157.454L394.236,181.096L394.236,182.701L418.625,158.313ZM417.02,156.558C416.758,156.285 416.484,156.023 416.211,155.762L394.224,177.749L394.224,179.342L417.02,156.558ZM415.29,154.928C415.004,154.679 414.718,154.431 414.419,154.194L394.224,174.389L394.224,175.982L415.29,154.928ZM413.436,153.41C413.137,153.186 412.826,152.962 412.503,152.738L394.224,171.03L394.224,172.622L413.436,153.41ZM411.457,152.029C411.134,151.818 410.798,151.618 410.462,151.419L394.224,167.67L394.224,169.263L411.457,152.029ZM409.342,150.785C408.994,150.598 408.645,150.411 408.284,150.237L394.224,164.298L394.224,165.903L409.342,150.785ZM407.09,149.69C406.717,149.528 406.343,149.366 405.958,149.217L394.224,160.951L394.224,162.544L407.09,149.69ZM404.676,148.744C404.278,148.607 403.88,148.47 403.469,148.358L394.224,157.604L394.224,159.184L404.676,148.744ZM402.088,147.96C401.652,147.848 401.229,147.749 400.794,147.661L394.236,154.219L394.236,155.824L402.088,147.96ZM399.3,147.388C398.84,147.313 398.367,147.251 397.894,147.201L394.224,150.872L394.224,152.465L399.3,147.388ZM396.277,147.052C395.767,147.014 395.256,147.002 394.734,146.99L394.224,147.5L394.224,149.105L396.277,147.052Z" style="fill:white;"/>
            </g>
        </g>
    </g>
</svg>
