<?xml version="1.0" encoding="UTF-8" standalone="no"?>
<svg
   xmlns:dc="http://purl.org/dc/elements/1.1/"
   xmlns:cc="http://creativecommons.org/ns#"
   xmlns:rdf="http://www.w3.org/1999/02/22-rdf-syntax-ns#"
   xmlns:svg="http://www.w3.org/2000/svg"
   xmlns="http://www.w3.org/2000/svg"
   xmlns:sodipodi="http://sodipodi.sourceforge.net/DTD/sodipodi-0.dtd"
   xmlns:inkscape="http://www.inkscape.org/namespaces/inkscape"
   width="512"
   height="125"
   viewBox="0 0 512 125"
   version="1.1"
   xml:space="preserve"
   style="clip-rule:evenodd;fill-rule:evenodd;stroke-linejoin:round;stroke-miterlimit:1.41421"
   id="svg1449"
   sodipodi:docname="logo-text-white.svg"
   inkscape:version="1.0 (4035a4f, 2020-05-01)"><metadata
   id="metadata1455"><rdf:RDF><cc:Work
       rdf:about=""><dc:format>image/svg+xml</dc:format><dc:type
         rdf:resource="http://purl.org/dc/dcmitype/StillImage" /><dc:title></dc:title></cc:Work></rdf:RDF></metadata><defs
   id="defs1453" /><sodipodi:namedview
   inkscape:document-rotation="0"
   pagecolor="#ffffff"
   bordercolor="#666666"
   borderopacity="1"
   objecttolerance="10"
   gridtolerance="10"
   guidetolerance="10"
   inkscape:pageopacity="0"
   inkscape:pageshadow="2"
   inkscape:window-width="1920"
   inkscape:window-height="1200"
   id="namedview1451"
   showgrid="false"
   inkscape:zoom="1.6732394"
   inkscape:cx="269.68681"
   inkscape:cy="90"
   inkscape:window-x="0"
   inkscape:window-y="0"
   inkscape:window-maximized="0"
   inkscape:current-layer="Layer1" />
    <g
   id="Layer1"
   transform="translate(-2.5,-50)">
        
        <g
   transform="matrix(1.0788961,0,0,1.0788961,-172.25203,-215.89913)"
   id="g1420">
            <text
   x="291.616"
   y="296.44901"
   style="font-weight:700;font-size:40px;font-family:'League Spartan';fill:#ffffff"
   id="text1418">TRAN<tspan
   x="407.69601 434.57599 458.65601"
   y="296.44901 296.44901 296.44901"
   id="tspan1414">SPA</tspan>REN<tspan
   x="573.61603"
   y="296.44901"
   id="tspan1416">C</tspan>Y</text>
        </g>
        <g
   transform="matrix(1.0788961,0,0,1.0788961,-174.18138,-161.93799)"
   id="g1428">
            <text
   x="291.616"
   y="296.44901"
   style="font-weight:700;font-size:40px;font-family:'League Spartan';fill:#ffffff"
   id="text1426">T<tspan
   x="314.17599"
   y="296.44901"
   id="tspan1422">O</tspan>OLKI<tspan
   x="448.81601"
   y="296.44901"
   id="tspan1424">T</tspan></text>
        </g>
        <g
   transform="matrix(0.43233816,0.43233816,0.4635673,-0.4635673,10.467104,147.60276)"
   id="g1432">
            <path
   d="m 90.814,82.588 c 3.964,3.967 2.968,11.617 -0.995,15.743 -4.123,3.965 -11.302,4.514 -15.266,0.389 L 21.927,44.017 C 17.638,39.891 14.347,39.161 10.856,40.271 7.365,41.541 0.965,42.51 -3.637,39.494 -13.472,33.15 -19.546,23.063 -19.546,23.063 l 11.105,-8.142 c 0,0 7.894,8.556 9.005,9.192 1.43,1.11 5.213,4.577 9.655,-2.246 4.602,-6.823 1.545,-10.59 0.275,-11.385 C 9.382,9.847 0.687,3.862 0.687,3.862 L 6.819,-7.689 c 0,0 16.856,9.688 17.807,10.482 6.191,5.553 5.43,14.156 4.319,19.233 -0.957,4.602 0,6.188 3.645,10.155 z m -4.486,4.637 h -7.614 v 7.455 l 7.614,0.16 z"
   style="fill:#ffffff;fill-rule:nonzero"
   id="path1430" />
        </g>
        <g
   transform="matrix(0.61610616,0.61610616,-0.61610616,0.61610616,217.89322,-377.22692)"
   id="g1446">
            <g
   transform="matrix(0.367474,0,0,0.367474,198.898,457.11)"
   id="g1436">
                <path
   d="m 111.349,152.783 18.6,18.289 -32.603,45.747 -49.956,44.592 c -5.181,5.371 -20.962,-1.45 -20.962,-1.45 0,0 -7.38,-15.52 -2.187,-20.902 L 66.116,185.59 Z"
   style="fill:#ffffff;fill-rule:nonzero"
   id="path1434" />
            </g>
            <g
   transform="matrix(0.432589,0,0,0.432589,192.288,445.775)"
   id="g1440">
                <path
   d="m 122.986,139.793 c -6.434,-9.867 -10.176,-21.642 -10.176,-34.274 0,-34.694 28.211,-62.911 62.911,-62.911 34.688,0 62.911,28.217 62.911,62.911 0,34.687 -28.224,62.91 -62.911,62.91 -11.686,0 -22.636,-3.201 -32.02,-8.772 -0.362,0.464 -10.396,5.738 -10.396,5.738 l -16.734,-16.624 c 0,0 6.228,-8.817 6.415,-8.978 z m 52.735,-81.82 c -26.215,0 -47.557,21.331 -47.557,47.546 0,26.215 21.342,47.545 47.557,47.545 26.215,0 47.534,-21.33 47.534,-47.545 0,-26.215 -21.319,-47.546 -47.534,-47.546 z"
   style="fill:#ffffff"
   id="path1438" />
            </g>
            <g
   transform="matrix(-0.371436,-0.371436,0.371436,-0.371436,348.245,704.151)"
   id="g1444">
                <path
   d="m 426.091,181.084 c 0.037,-0.548 0.062,-1.108 0.062,-1.668 l -31.432,31.432 c 0.56,-0.013 1.12,-0.038 1.668,-0.062 z m -0.498,3.857 c 0.124,-0.634 0.224,-1.269 0.311,-1.904 l -27.574,27.562 c 0.647,-0.087 1.282,-0.187 1.904,-0.311 z m -1.244,4.592 c 0.273,-0.759 0.51,-1.531 0.721,-2.315 l -22.547,22.547 c 0.784,-0.211 1.556,-0.448 2.315,-0.721 z m 1.791,-11.859 c -0.025,-0.51 -0.049,-1.008 -0.087,-1.505 l -31.829,31.817 v 1.593 z m -4.977,18.416 c 0.734,-1.145 1.381,-2.339 1.966,-3.571 l -15.305,15.305 c 1.232,-0.585 2.426,-1.244 3.571,-1.966 z m 4.704,-21.502 c -0.063,-0.46 -0.137,-0.92 -0.212,-1.381 l -31.431,31.419 v 1.593 z m -0.511,-2.849 c -0.099,-0.423 -0.211,-0.859 -0.323,-1.282 l -30.809,30.81 v 1.592 z m -0.734,-2.626 c -0.124,-0.398 -0.261,-0.796 -0.41,-1.194 l -29.988,29.988 v 1.593 z m -0.908,-2.463 c -0.162,-0.374 -0.324,-0.747 -0.485,-1.108 l -29.005,29.005 v 1.593 z m -1.058,-2.29 c -0.174,-0.348 -0.373,-0.697 -0.56,-1.045 l -27.872,27.873 v 1.592 z m -1.207,-2.152 c -0.199,-0.324 -0.41,-0.66 -0.622,-0.971 l -26.603,26.591 v 1.593 z m -1.356,-2.016 c -0.224,-0.311 -0.448,-0.61 -0.684,-0.909 l -25.185,25.185 v 1.593 z m -1.468,-1.879 c -0.249,-0.286 -0.498,-0.573 -0.747,-0.859 l -23.642,23.642 v 1.605 z m -1.605,-1.755 c -0.262,-0.273 -0.536,-0.535 -0.809,-0.796 l -21.987,21.987 v 1.593 z m -1.73,-1.63 c -0.286,-0.249 -0.572,-0.497 -0.871,-0.734 l -20.195,20.195 v 1.593 z m -1.854,-1.518 c -0.299,-0.224 -0.61,-0.448 -0.933,-0.672 l -18.279,18.292 v 1.592 z m -1.979,-1.381 c -0.323,-0.211 -0.659,-0.411 -0.995,-0.61 l -16.238,16.251 v 1.593 z m -2.115,-1.244 c -0.348,-0.187 -0.697,-0.374 -1.058,-0.548 l -14.06,14.061 v 1.605 z m -2.252,-1.095 c -0.373,-0.162 -0.747,-0.324 -1.132,-0.473 l -11.734,11.734 v 1.593 z m -2.414,-0.946 c -0.398,-0.137 -0.796,-0.274 -1.207,-0.386 l -9.245,9.246 v 1.58 z m -2.588,-0.784 c -0.436,-0.112 -0.859,-0.211 -1.294,-0.299 l -6.558,6.558 v 1.605 z m -2.788,-0.572 c -0.46,-0.075 -0.933,-0.137 -1.406,-0.187 l -3.67,3.671 v 1.593 z m -3.023,-0.336 c -0.51,-0.038 -1.021,-0.05 -1.543,-0.062 l -0.51,0.51 v 1.605 z"
   style="fill:#ffffff"
   id="path1442" />
            </g>
        </g>
    </g>
</svg>
