<?xml version="1.0" standalone="no"?>
<!DOCTYPE svg PUBLIC "-//W3C//DTD SVG 1.1//EN" "http://www.w3.org/Graphics/SVG/1.1/DTD/svg11.dtd">
<svg width="100%" height="100%" viewBox="0 0 1024 768" version="1.1" xmlns="http://www.w3.org/2000/svg" xmlns:xlink="http://www.w3.org/1999/xlink" xml:space="preserve" style="fill-rule:evenodd;clip-rule:evenodd;stroke-miterlimit:1.41421;">
    <g id="Layer1">
        <g transform="matrix(4.15731,0,0,1.21208,18.5412,-162.748)">
            <rect x="-4.672" y="134.328" width="247.664" height="633.469" style="fill:rgb(197,197,197);"/>
        </g>
        <g transform="matrix(1.03705,0,0,1,-216.504,-472.635)">
            <rect x="450.712" y="606.751" width="503.026" height="117.49" style="fill:black;"/>
        </g>
        <g transform="matrix(1.27935,0,0,1.17516,271.13,137.871)">
            <rect x="4.5" y="25.7" width="81" height="54" style="fill:none;stroke-width:2.67px;stroke-dasharray:2.67,2.67;stroke:white;"/>
        </g>
        <g transform="matrix(0.564715,0,0,0.803454,35.2031,-362.113)">
            <path d="M482.937,654.816L482.937,643.404" style="fill:none;stroke-width:3.84px;stroke-dasharray:3.84,3.84;stroke:white;"/>
        </g>
        <g transform="matrix(0.564715,0,0,0.803454,80.3351,-362.113)">
            <path d="M482.937,654.816L482.937,643.404" style="fill:none;stroke-width:3.84px;stroke-dasharray:3.84,3.84;stroke:white;"/>
        </g>
        <g transform="matrix(1.59971e-16,0.564715,-4.27781,1.2118e-15,3107.88,-122.106)">
            <path d="M482.937,654.816L482.937,643.404" style="fill:none;stroke-width:0.87px;stroke-dasharray:0.87,0.87;stroke:white;"/>
        </g>
        <g transform="matrix(1.17516,0,0,1.17516,279.825,137.871)">
            <path d="M70.8,54L74.7,54L84.866,48.148" style="fill:none;stroke-width:2.67px;stroke-dasharray:2.67,2.67;stroke:white;"/>
        </g>
        <g transform="matrix(1.17516,0,0,1.17516,277.475,137.871)">
            <path d="M23.8,54L66.3,54L65.664,54" style="fill:none;stroke-width:2.67px;stroke-dasharray:2.67,2.67;stroke:white;"/>
        </g>
        <g transform="matrix(1.17516,0,0,1.17516,275.124,137.871)">
            <path d="M4.6,47.8L15.5,54L19.6,54" style="fill:none;stroke-width:2.67px;stroke-dasharray:2.67,2.67;stroke:white;"/>
        </g>
        <g transform="matrix(1.17516,0,0,0.720761,275.124,159.047)">
            <rect x="19.3" y="46.6" width="4.5" height="33.1" style="fill:none;stroke-width:2px;stroke:white;"/>
        </g>
        <g transform="matrix(1.17516,0,0,0.720761,331.8,159.047)">
            <rect x="19.3" y="46.6" width="4.5" height="33.1" style="fill:none;stroke-width:2px;stroke:white;"/>
        </g>
        <g transform="matrix(1,0,0,1,122.221,-110.434)">
            <text x="291.616px" y="296.449px" style="font-family:League Spartan;font-size:40px;font-weight:700;fill:white;">TRAN<tspan x="407.696px 434.576px 458.656px " y="296.449px 296.449px 296.449px ">SPA</tspan>REN<tspan x="573.616px " y="296.449px ">C</tspan>Y</text>
        </g>
        <g transform="matrix(1,0,0,1,120.432,-64.8528)">
            <text x="291.616px" y="296.449px" style="font-family:League Spartan;font-size:40px;font-weight:700;fill:white;">T<tspan x="314.176px " y="296.449px ">O</tspan>OLKI<tspan x="448.816px " y="296.449px ">T</tspan></text>
        </g>
        <g transform="matrix(0.945903,0,0,1,-129.577,-85.6794)">
            <rect x="450.712" y="606.751" width="503.026" height="117.49" style="fill:black;"/>
        </g>
        <g transform="matrix(1,0,0,1,122.221,276.521)">
            <text x="291.616px" y="296.449px" style="font-family:League Spartan;font-size:40px;font-weight:700;fill:white;">TRAN<tspan x="407.696px 434.576px 458.656px " y="296.449px 296.449px 296.449px ">SPA</tspan>REN<tspan x="573.616px " y="296.449px ">C</tspan>Y</text>
        </g>
        <g transform="matrix(1,0,0,1,120.432,322.103)">
            <text x="291.616px" y="296.449px" style="font-family:League Spartan;font-size:40px;font-weight:700;fill:white;">T<tspan x="314.176px " y="296.449px ">O</tspan>OLKI<tspan x="448.816px " y="296.449px ">T</tspan></text>
        </g>
        <g transform="matrix(1,0,0,1,117.208,75.9913)">
            <text x="291.616px" y="296.449px" style="font-family:League Spartan;font-size:40px;font-weight:700;fill:black;">TRAN<tspan x="407.696px 434.576px 458.656px " y="296.449px 296.449px 296.449px ">SPA</tspan>REN<tspan x="573.616px " y="296.449px ">C</tspan>Y</text>
        </g>
        <g transform="matrix(1,0,0,1,115.42,121.573)">
            <text x="291.616px" y="296.449px" style="font-family:League Spartan;font-size:40px;font-weight:700;fill:black;">T<tspan x="314.176px " y="296.449px ">O</tspan>OLKI<tspan x="448.816px " y="296.449px ">T</tspan></text>
        </g>
        <g transform="matrix(1.27927,0,0,1.27927,182.485,-297.243)">
            <path d="M146.664,565.391C145.912,565.391 145.18,565.136 144.544,564.655C144.139,564.347 144.059,563.769 144.366,563.364C144.675,562.96 145.252,562.879 145.658,563.186C146.34,563.704 147.183,563.652 147.815,563.04C148.181,562.686 148.764,562.694 149.118,563.061C149.472,563.426 149.463,564.009 149.097,564.364C148.414,565.027 147.55,565.391 146.664,565.391ZM135.144,563.794C134.994,563.794 134.841,563.757 134.7,563.679C134.255,563.433 134.093,562.872 134.339,562.427C134.635,561.891 134.815,561.202 134.859,560.437C134.878,560.112 134.914,559.693 134.965,559.197C135.018,558.691 135.467,558.337 135.977,558.374C136.484,558.427 136.852,558.88 136.8,559.386C136.752,559.85 136.717,560.24 136.698,560.543C136.638,561.598 136.386,562.532 135.952,563.318C135.783,563.622 135.469,563.794 135.144,563.794ZM132.784,565.391C131.358,565.39 130.091,564.42 129.391,562.797C129.19,562.328 129.406,561.787 129.873,561.585C130.338,561.389 130.883,561.6 131.084,562.067C131.514,563.066 132.18,563.615 132.912,563.541C133.427,563.485 133.873,563.854 133.927,564.359C133.981,564.865 133.615,565.319 133.109,565.374C133.002,565.386 132.893,565.391 132.784,565.391ZM143.7,562.521C143.285,562.521 142.907,562.238 142.805,561.816C142.708,561.414 142.645,560.984 142.62,560.542C142.582,559.884 142.508,559.024 142.41,558.021C142.36,557.514 142.73,557.063 143.237,557.014C143.753,556.969 144.194,557.335 144.244,557.841C144.346,558.873 144.422,559.758 144.46,560.437C144.48,560.771 144.525,561.088 144.596,561.383C144.716,561.878 144.412,562.375 143.917,562.495C143.846,562.512 143.773,562.521 143.7,562.521ZM149.686,562.192C149.619,562.192 149.55,562.185 149.482,562.17C148.986,562.058 148.674,561.565 148.786,561.067L148.815,560.931C148.954,560.217 149.065,559.083 149.146,557.555C149.174,557.047 149.612,556.658 150.117,556.684C150.625,556.712 151.015,557.146 150.988,557.655C150.9,559.29 150.782,560.475 150.625,561.277L150.585,561.474C150.487,561.902 150.107,562.192 149.686,562.192ZM129.643,560.664C129.178,560.664 128.779,560.314 128.727,559.843C128.623,558.889 128.532,557.633 128.457,556.108C128.433,555.6 128.824,555.168 129.333,555.142C129.831,555.104 130.273,555.508 130.299,556.018C130.371,557.506 130.459,558.725 130.56,559.643C130.615,560.149 130.25,560.603 129.744,560.66C129.71,560.662 129.676,560.664 129.643,560.664ZM136.213,557.462C136.174,557.462 136.134,557.459 136.094,557.453C135.589,557.388 135.233,556.925 135.299,556.421C135.443,555.314 135.613,554.069 135.798,552.753C135.868,552.25 136.322,551.893 136.84,551.969C137.344,552.04 137.695,552.506 137.624,553.011C137.44,554.32 137.27,555.557 137.126,556.658C137.066,557.123 136.67,557.462 136.213,557.462ZM143.036,556.097C142.572,556.097 142.173,555.748 142.121,555.277C141.994,554.128 141.851,552.89 141.702,551.615C141.642,551.109 142.005,550.652 142.511,550.593C143.02,550.531 143.474,550.897 143.533,551.402C143.682,552.68 143.826,553.923 143.953,555.076C144.01,555.582 143.643,556.038 143.138,556.094C143.104,556.095 143.07,556.097 143.036,556.097ZM150.175,555.762C150.165,555.762 150.157,555.762 150.15,555.762C149.64,555.748 149.239,555.324 149.253,554.817C149.283,553.681 149.303,552.45 149.314,551.146C149.319,550.639 149.73,550.231 150.236,550.231C150.239,550.231 150.242,550.231 150.244,550.231C150.753,550.236 151.163,550.652 151.158,551.161C151.147,552.477 151.128,553.722 151.096,554.865C151.082,555.365 150.671,555.762 150.175,555.762ZM129.268,554.219C128.773,554.219 128.364,553.825 128.347,553.326C128.311,552.164 128.282,550.923 128.258,549.628C128.249,549.118 128.654,548.698 129.162,548.689C129.169,548.689 129.174,548.689 129.18,548.689C129.681,548.689 130.093,549.09 130.102,549.594C130.125,550.882 130.155,552.115 130.191,553.269C130.207,553.778 129.806,554.204 129.298,554.219C129.288,554.219 129.278,554.219 129.268,554.219ZM137.102,551.06C137.059,551.06 137.015,551.057 136.971,551.051C136.466,550.978 136.117,550.512 136.189,550.008L136.713,546.352C136.787,545.848 137.247,545.502 137.757,545.571C138.26,545.643 138.611,546.111 138.538,546.615L138.014,550.269C137.948,550.729 137.553,551.06 137.102,551.06ZM142.295,549.678C141.834,549.678 141.436,549.333 141.38,548.865C141.234,547.631 141.089,546.393 140.95,545.196C140.892,544.69 141.255,544.233 141.761,544.175C142.274,544.114 142.723,544.479 142.782,544.985C142.92,546.18 143.066,547.417 143.212,548.649C143.272,549.154 142.91,549.613 142.404,549.672C142.366,549.676 142.331,549.678 142.295,549.678ZM150.244,549.309C149.736,549.309 149.323,548.897 149.323,548.388C149.322,547.194 149.315,545.961 149.304,544.705C149.3,544.195 149.709,543.779 150.218,543.775C150.22,543.775 150.223,543.775 150.226,543.775C150.732,543.775 151.143,544.182 151.148,544.688C151.159,545.949 151.165,547.188 151.166,548.386C151.166,548.896 150.754,549.309 150.244,549.309L150.244,549.309ZM129.139,547.767C128.634,547.767 128.223,547.362 128.218,546.856C128.205,545.65 128.196,544.413 128.191,543.161C128.189,542.652 128.599,542.237 129.109,542.235C129.11,542.235 129.112,542.235 129.113,542.235C129.621,542.235 130.033,542.646 130.035,543.154C130.04,544.4 130.049,545.633 130.061,546.836C130.067,547.346 129.658,547.763 129.15,547.768C129.146,547.767 129.142,547.767 129.139,547.767ZM138.015,544.663C137.972,544.663 137.929,544.661 137.885,544.654C137.381,544.583 137.03,544.117 137.101,543.613C137.286,542.298 137.456,541.059 137.6,539.964C137.665,539.459 138.122,539.098 138.632,539.169C139.137,539.234 139.493,539.697 139.427,540.201C139.283,541.303 139.113,542.548 138.927,543.87C138.862,544.33 138.467,544.663 138.015,544.663ZM141.554,543.26C141.089,543.26 140.691,542.911 140.639,542.44C140.489,541.072 140.359,539.815 140.262,538.749C140.217,538.241 140.591,537.794 141.098,537.748C141.624,537.696 142.053,538.076 142.099,538.583C142.193,539.641 142.323,540.885 142.471,542.238C142.527,542.744 142.161,543.2 141.656,543.256C141.621,543.258 141.587,543.26 141.554,543.26ZM150.198,542.854C149.693,542.854 149.283,542.449 149.276,541.945C149.259,540.72 149.241,539.487 149.219,538.257C149.209,537.749 149.615,537.328 150.124,537.319C150.596,537.333 151.052,537.715 151.062,538.224C151.083,539.457 151.103,540.694 151.119,541.919C151.126,542.429 150.719,542.846 150.21,542.854C150.205,542.854 150.2,542.854 150.198,542.854ZM129.107,541.3C128.598,541.3 128.185,540.898 128.185,540.388C128.185,539.141 128.188,537.912 128.194,536.695C128.196,536.187 128.609,535.778 129.116,535.778C129.116,535.778 129.118,535.778 129.12,535.778C129.629,535.781 130.039,536.195 130.037,536.704C130.032,537.919 130.029,539.145 130.029,540.37C130.029,540.878 129.616,541.3 129.107,541.3ZM159.082,538.093C159.043,538.093 159.005,538.09 158.965,538.085C157.365,537.882 156.082,536.588 155.77,534.867C155.68,534.366 156.012,533.886 156.512,533.795C157.02,533.704 157.493,534.038 157.584,534.538C157.777,535.608 158.534,536.172 159.197,536.256C159.702,536.321 160.059,536.782 159.996,537.287C159.937,537.752 159.539,538.093 159.082,538.093ZM119.415,537.981C119.266,537.981 119.113,537.945 118.973,537.868C118.209,537.45 117.21,536.453 116.79,534.09C116.701,533.588 117.035,533.111 117.536,533.022C118.044,532.931 118.516,533.267 118.604,533.768C118.923,535.565 119.587,536.104 119.858,536.252C120.305,536.496 120.468,537.057 120.224,537.503C120.057,537.808 119.741,537.981 119.415,537.981ZM139.768,537.343L138.843,537.332L137.926,537.24C137.926,537.239 137.934,537.158 137.934,537.157C138.163,534.849 139.31,534.173 140.256,534.345C140.839,534.455 141.325,534.884 141.632,535.552C141.845,536.016 141.641,536.563 141.179,536.775C140.734,536.977 140.219,536.801 139.989,536.384C139.905,536.58 139.813,536.89 139.768,537.343ZM121.82,537.282C121.64,537.282 121.457,537.229 121.297,537.119C120.879,536.83 120.774,536.256 121.063,535.837C121.312,535.476 121.45,534.975 121.45,534.427C121.45,534.299 121.443,534.167 121.428,534.031C121.39,533.684 121.371,533.327 121.371,532.96L121.373,532.77C121.381,532.266 121.792,531.863 122.295,531.863C122.299,531.863 122.304,531.863 122.309,531.863C122.818,531.872 123.225,532.29 123.217,532.8L123.215,532.961C123.215,533.26 123.23,533.551 123.261,533.831C123.283,534.036 123.294,534.236 123.294,534.429C123.294,535.361 123.047,536.21 122.581,536.887C122.4,537.143 122.112,537.282 121.82,537.282ZM161.406,536.908C161.239,536.908 161.069,536.863 160.918,536.767C160.486,536.496 160.356,535.927 160.626,535.496C160.937,535.001 161.123,534.288 161.165,533.434C161.176,533.214 161.181,532.992 161.181,532.768L161.177,532.44C161.165,531.93 161.569,531.508 162.077,531.497C162.586,531.492 163.008,531.889 163.02,532.397L163.023,532.768C163.023,533.022 163.019,533.275 163.006,533.526C162.947,534.711 162.672,535.703 162.188,536.475C162.012,536.755 161.712,536.908 161.406,536.908ZM150.088,536.396C149.588,536.396 149.176,535.996 149.166,535.494C149.141,534.243 149.114,533.01 149.086,531.806C149.074,531.297 149.478,530.874 149.986,530.863C150.486,530.86 150.918,531.255 150.929,531.763C150.956,532.967 150.984,534.203 151.009,535.455C151.019,535.965 150.614,536.385 150.106,536.395C150.101,536.396 150.095,536.396 150.088,536.396ZM129.133,534.857C129.131,534.857 129.128,534.857 129.127,534.857C128.617,534.853 128.207,534.437 128.211,533.929C128.22,532.665 128.232,531.428 128.245,530.235C128.25,529.726 128.675,529.288 129.178,529.324C129.687,529.33 130.094,529.747 130.089,530.257C130.075,531.447 130.064,532.682 130.055,533.943C130.051,534.448 129.639,534.857 129.133,534.857ZM156.599,532.865C156.134,532.865 155.736,532.516 155.684,532.045C155.578,531.075 155.321,529.92 154.922,528.613C154.774,528.126 155.047,527.611 155.534,527.463C156.021,527.311 156.536,527.589 156.684,528.075C157.117,529.492 157.396,530.759 157.515,531.843C157.571,532.349 157.205,532.805 156.7,532.861C156.666,532.863 156.632,532.865 156.599,532.865ZM117.433,532.1C116.939,532.1 116.531,531.708 116.513,531.209C116.502,530.913 116.498,530.616 116.498,530.318C116.499,529.378 116.548,528.398 116.644,527.406C116.693,526.899 117.133,526.532 117.65,526.578C118.157,526.627 118.528,527.077 118.478,527.584C118.387,528.519 118.341,529.438 118.34,530.319C118.34,530.594 118.345,530.87 118.354,531.146C118.373,531.654 117.974,532.081 117.464,532.098C117.454,532.1 117.444,532.1 117.433,532.1ZM122.637,530.964C122.572,530.964 122.507,530.958 122.442,530.943C121.944,530.837 121.629,530.345 121.735,529.847C121.981,528.708 122.351,527.478 122.836,526.188C123.016,525.709 123.546,525.471 124.023,525.649C124.5,525.828 124.741,526.36 124.563,526.836C124.11,528.042 123.765,529.186 123.539,530.237C123.444,530.669 123.062,530.964 122.637,530.964ZM161.834,530.589C161.389,530.589 160.997,530.266 160.925,529.813C160.752,528.731 160.498,527.585 160.149,526.313C160.014,525.823 160.302,525.316 160.794,525.18C161.278,525.043 161.792,525.332 161.927,525.825C162.295,527.164 162.563,528.374 162.746,529.523C162.826,530.026 162.482,530.498 161.98,530.578C161.93,530.585 161.882,530.589 161.834,530.589ZM149.944,529.94C149.445,529.94 149.035,529.543 149.022,529.042L148.931,525.352C148.918,524.844 149.321,524.42 149.83,524.409C150.351,524.437 150.762,524.8 150.773,525.307L150.865,528.997C150.876,529.505 150.473,529.929 149.966,529.94C149.957,529.94 149.95,529.94 149.944,529.94ZM129.201,528.399C129.197,528.399 129.193,528.399 129.188,528.399C128.679,528.392 128.272,527.974 128.279,527.465C128.298,526.144 128.317,524.903 128.337,523.773C128.346,523.264 128.773,522.871 129.275,522.867C129.783,522.877 130.189,523.297 130.18,523.805C130.16,524.933 130.14,526.17 130.122,527.491C130.116,527.995 129.704,528.399 129.201,528.399ZM154.893,526.651C154.524,526.651 154.175,526.428 154.034,526.063C153.61,524.968 153.128,523.847 152.599,522.732C152.381,522.272 152.578,521.722 153.038,521.504C153.499,521.285 154.048,521.484 154.266,521.943C154.812,523.098 155.313,524.26 155.753,525.396C155.937,525.87 155.7,526.405 155.226,526.588C155.116,526.631 155.004,526.651 154.893,526.651ZM117.94,525.677C117.887,525.677 117.834,525.673 117.779,525.662C117.278,525.574 116.943,525.097 117.032,524.595C117.242,523.406 117.516,522.169 117.847,520.92C117.978,520.428 118.486,520.138 118.975,520.266C119.466,520.396 119.76,520.901 119.629,521.394C119.311,522.591 119.048,523.777 118.846,524.915C118.768,525.363 118.379,525.677 117.94,525.677ZM124.773,524.884C124.642,524.884 124.51,524.856 124.384,524.798C123.923,524.582 123.723,524.034 123.939,523.572C124.469,522.435 125.076,521.278 125.69,520.226C125.948,519.785 126.513,519.639 126.952,519.896C127.391,520.153 127.539,520.717 127.282,521.157C126.695,522.161 126.116,523.265 125.609,524.351C125.452,524.687 125.12,524.884 124.773,524.884ZM160.228,524.346C159.842,524.346 159.482,524.102 159.353,523.715C159.011,522.686 158.608,521.562 158.122,520.279C157.94,519.803 158.181,519.271 158.655,519.091C159.133,518.907 159.664,519.149 159.844,519.624C160.341,520.932 160.752,522.079 161.103,523.133C161.263,523.615 161.002,524.138 160.519,524.299C160.423,524.33 160.324,524.346 160.228,524.346ZM149.783,523.483C149.284,523.483 148.874,523.086 148.861,522.584C148.825,521.12 148.796,519.865 148.779,518.887C148.77,518.377 149.175,517.957 149.684,517.949C149.777,517.945 149.868,517.96 149.954,517.984C149.767,517.724 149.62,517.546 149.515,517.442C149.152,517.086 149.146,516.503 149.502,516.139C149.857,515.775 150.442,515.769 150.806,516.126C151.516,516.821 152.478,518.492 152.989,519.427C153.233,519.873 153.068,520.433 152.622,520.678C152.176,520.921 151.614,520.757 151.371,520.311C151.098,519.811 150.85,519.38 150.626,519.013C150.644,519.963 150.671,521.159 150.705,522.539C150.718,523.048 150.315,523.471 149.807,523.483C149.798,523.483 149.79,523.483 149.783,523.483ZM119.521,519.427C119.427,519.427 119.331,519.412 119.237,519.381C118.754,519.225 118.488,518.705 118.644,518.221C119.02,517.057 119.449,515.87 119.915,514.697C120.103,514.223 120.64,513.994 121.112,514.18C121.586,514.368 121.816,514.905 121.629,515.377C121.177,516.515 120.763,517.662 120.399,518.788C120.272,519.179 119.909,519.427 119.521,519.427ZM129.312,521.944C129.305,521.944 129.299,521.944 129.291,521.944C128.782,521.933 128.379,521.511 128.39,521.003C128.404,520.323 128.418,519.706 128.432,519.176C128.128,519.342 127.744,519.329 127.446,519.111C127.035,518.809 126.947,518.233 127.248,517.822C128.278,516.418 128.794,516.133 129.288,516.133C129.289,516.133 129.291,516.133 129.293,516.133C129.811,516.133 130.338,516.526 130.338,517.276C130.338,517.29 130.336,517.36 130.336,517.372C130.318,517.639 130.282,518.742 130.233,521.044C130.222,521.544 129.812,521.944 129.312,521.944ZM157.985,518.291C157.617,518.291 157.269,518.069 157.127,517.704C156.572,516.283 156.154,515.202 155.831,514.244C155.672,513.773 155.908,513.244 156.374,513.069C156.836,512.892 157.353,513.101 157.543,513.56C157.555,513.586 157.576,513.649 157.585,513.677C157.889,514.573 158.298,515.635 158.845,517.034C159.031,517.507 158.795,518.042 158.321,518.227C158.21,518.272 158.097,518.291 157.985,518.291ZM121.953,513.468C121.777,513.468 121.599,513.417 121.441,513.311C121.018,513.029 120.905,512.456 121.188,512.033C121.897,510.975 122.878,510.04 124.104,509.252C124.534,508.978 125.103,509.101 125.377,509.528C125.652,509.957 125.528,510.526 125.101,510.801C124.089,511.453 123.287,512.212 122.719,513.059C122.542,513.324 122.25,513.468 121.953,513.468ZM155.284,512.484C155.033,512.484 154.782,512.381 154.6,512.181C153.928,511.437 153.026,510.77 151.915,510.199C151.462,509.966 151.285,509.41 151.519,508.958C151.751,508.505 152.307,508.325 152.76,508.561C154.068,509.235 155.147,510.037 155.968,510.945C156.309,511.323 156.28,511.907 155.902,512.248C155.727,512.406 155.505,512.484 155.284,512.484ZM127.069,509.704C126.702,509.704 126.355,509.483 126.212,509.122C126.024,508.649 126.256,508.113 126.73,507.926C127.827,507.49 129.063,507.121 130.406,506.829C130.907,506.72 131.394,507.036 131.504,507.534C131.612,508.031 131.296,508.522 130.799,508.631C129.555,508.902 128.414,509.241 127.409,509.64C127.297,509.684 127.182,509.704 127.069,509.704ZM149.784,509.249C149.689,509.249 149.592,509.235 149.497,509.203C148.452,508.862 147.289,508.575 146.041,508.351C145.54,508.261 145.206,507.783 145.296,507.282C145.386,506.781 145.863,506.445 146.365,506.537C147.698,506.775 148.944,507.084 150.07,507.452C150.554,507.61 150.818,508.131 150.659,508.614C150.533,509.003 150.172,509.249 149.784,509.249ZM133.328,508.182C132.872,508.182 132.475,507.845 132.416,507.38C132.349,506.876 132.704,506.412 133.21,506.347C134.385,506.192 135.648,506.082 136.962,506.019C137.463,505.984 137.902,506.386 137.927,506.896C137.951,507.405 137.559,507.836 137.051,507.861C135.786,507.922 134.575,508.027 133.449,508.174C133.408,508.179 133.368,508.182 133.328,508.182ZM143.463,507.989C143.433,507.989 143.401,507.987 143.37,507.984C141.836,507.832 140.57,507.799 139.777,507.799C139.268,507.799 138.856,507.386 138.856,506.877C138.856,506.367 139.268,505.955 139.777,505.955C140.612,505.955 141.944,505.988 143.553,506.149C144.06,506.2 144.429,506.651 144.378,507.158C144.332,507.634 143.931,507.989 143.463,507.989ZM138.607,503.323C138.544,503.323 138.478,503.316 138.414,503.302C137.074,503.015 135.82,502.31 134.786,501.261C134.43,500.898 134.433,500.314 134.796,499.956C135.159,499.599 135.741,499.605 136.1,499.966C136.88,500.759 137.813,501.288 138.8,501.499C139.297,501.605 139.615,502.095 139.508,502.593C139.415,503.027 139.033,503.323 138.607,503.323ZM141.341,503.237C140.939,503.237 140.569,502.971 140.454,502.565C140.316,502.074 140.602,501.566 141.092,501.428C142.064,501.155 142.971,500.572 143.716,499.739C144.056,499.359 144.641,499.329 145.018,499.668C145.397,500.007 145.429,500.59 145.09,500.969C144.111,502.064 142.9,502.836 141.591,503.203C141.507,503.226 141.423,503.237 141.341,503.237ZM133.889,499.266C133.54,499.266 133.206,499.069 133.05,498.731C132.49,497.517 132.181,496.199 132.13,494.813C132.111,494.304 132.509,493.876 133.018,493.859C133.484,493.816 133.955,494.237 133.972,494.746C134.014,495.887 134.267,496.967 134.725,497.959C134.938,498.421 134.737,498.969 134.274,499.183C134.149,499.24 134.017,499.266 133.889,499.266ZM145.856,498.938C145.738,498.938 145.62,498.916 145.504,498.869C145.033,498.675 144.81,498.136 145.003,497.665C145.422,496.653 145.633,495.561 145.633,494.422C145.633,493.923 145.592,493.426 145.51,492.944C145.424,492.443 145.761,491.966 146.264,491.882C146.765,491.797 147.242,492.134 147.326,492.635C147.426,493.218 147.476,493.819 147.476,494.422C147.476,495.805 147.218,497.132 146.707,498.369C146.562,498.724 146.218,498.938 145.856,498.938ZM133.342,492.962C133.267,492.962 133.19,492.952 133.113,492.933C132.62,492.807 132.322,492.306 132.448,491.813C132.793,490.461 133.416,489.205 134.248,488.179C134.57,487.785 135.151,487.725 135.545,488.045C135.941,488.366 136,488.947 135.68,489.342C135.014,490.161 134.514,491.173 134.234,492.268C134.128,492.685 133.753,492.962 133.342,492.962ZM145.555,491.096C145.22,491.096 144.897,490.913 144.735,490.594C144.217,489.587 143.499,488.743 142.654,488.157C142.237,487.867 142.133,487.292 142.424,486.874C142.714,486.455 143.287,486.352 143.708,486.644C144.798,487.403 145.721,488.478 146.375,489.754C146.607,490.206 146.429,490.762 145.976,490.994C145.84,491.064 145.697,491.096 145.555,491.096ZM137.074,487.923C136.743,487.923 136.424,487.744 136.258,487.432C136.02,486.983 136.192,486.425 136.642,486.187C137.933,485.502 139.364,485.252 140.778,485.464C141.281,485.54 141.629,486.01 141.552,486.513C141.476,487.017 141.009,487.358 140.503,487.288C139.479,487.134 138.445,487.316 137.504,487.815C137.367,487.889 137.219,487.923 137.074,487.923Z" style="fill:black;"/>
        </g>
        <g transform="matrix(1,0,0,1,-2.92456,0)">
            <path d="M340.589,349.879C340.589,349.879 324.388,350.198 318.667,355.636C316.256,359.633 310.484,369.261 311.19,383.797C311.633,390.155 316.067,393.834 317.399,385.148C318.329,379.087 321.789,366.072 326.522,363.989C328.449,365.222 324.687,416.547 327.204,420.644C328.66,425.395 330.755,430.155 335.489,421.42C337.095,410.464 339.223,391.014 339.223,391.014C339.223,391.014 340.553,383.068 342.642,390.396C344.732,397.723 344.336,409.977 346.266,421.873C347.196,423.967 349.89,431.712 354.202,421.67C356.174,410.81 352.997,363.742 354.262,362.853C355.527,361.964 361.892,374.677 362.917,386.005C365.528,393.784 370.549,387.6 370.538,384.596C370.527,381.591 364.781,355.924 357.914,353.389C351.536,351.035 347.414,349.745 340.589,349.879ZM341.068,323.619C346.574,323.619 351.038,328.796 351.038,335.183C351.038,341.569 346.574,346.746 341.068,346.746C335.563,346.746 331.099,341.569 331.099,335.183C331.099,328.796 335.563,323.619 341.068,323.619Z" style="fill:black;"/>
        </g>
        <g transform="matrix(1.1051,0,0,1.1051,212.985,-1.76046)">
            <path d="M146.664,565.391C145.912,565.391 145.18,565.136 144.544,564.655C144.139,564.347 144.059,563.769 144.366,563.364C144.675,562.96 145.252,562.879 145.658,563.186C146.34,563.704 147.183,563.652 147.815,563.04C148.181,562.686 148.764,562.694 149.118,563.061C149.472,563.426 149.463,564.009 149.097,564.364C148.414,565.027 147.55,565.391 146.664,565.391ZM135.144,563.794C134.994,563.794 134.841,563.757 134.7,563.679C134.255,563.433 134.093,562.872 134.339,562.427C134.635,561.891 134.815,561.202 134.859,560.437C134.878,560.112 134.914,559.693 134.965,559.197C135.018,558.691 135.467,558.337 135.977,558.374C136.484,558.427 136.852,558.88 136.8,559.386C136.752,559.85 136.717,560.24 136.698,560.543C136.638,561.598 136.386,562.532 135.952,563.318C135.783,563.622 135.469,563.794 135.144,563.794ZM132.784,565.391C131.358,565.39 130.091,564.42 129.391,562.797C129.19,562.328 129.406,561.787 129.873,561.585C130.338,561.389 130.883,561.6 131.084,562.067C131.514,563.066 132.18,563.615 132.912,563.541C133.427,563.485 133.873,563.854 133.927,564.359C133.981,564.865 133.615,565.319 133.109,565.374C133.002,565.386 132.893,565.391 132.784,565.391ZM143.7,562.521C143.285,562.521 142.907,562.238 142.805,561.816C142.708,561.414 142.645,560.984 142.62,560.542C142.582,559.884 142.508,559.024 142.41,558.021C142.36,557.514 142.73,557.063 143.237,557.014C143.753,556.969 144.194,557.335 144.244,557.841C144.346,558.873 144.422,559.758 144.46,560.437C144.48,560.771 144.525,561.088 144.596,561.383C144.716,561.878 144.412,562.375 143.917,562.495C143.846,562.512 143.773,562.521 143.7,562.521ZM149.686,562.192C149.619,562.192 149.55,562.185 149.482,562.17C148.986,562.058 148.674,561.565 148.786,561.067L148.815,560.931C148.954,560.217 149.065,559.083 149.146,557.555C149.174,557.047 149.612,556.658 150.117,556.684C150.625,556.712 151.015,557.146 150.988,557.655C150.9,559.29 150.782,560.475 150.625,561.277L150.585,561.474C150.487,561.902 150.107,562.192 149.686,562.192ZM129.643,560.664C129.178,560.664 128.779,560.314 128.727,559.843C128.623,558.889 128.532,557.633 128.457,556.108C128.433,555.6 128.824,555.168 129.333,555.142C129.831,555.104 130.273,555.508 130.299,556.018C130.371,557.506 130.459,558.725 130.56,559.643C130.615,560.149 130.25,560.603 129.744,560.66C129.71,560.662 129.676,560.664 129.643,560.664ZM136.213,557.462C136.174,557.462 136.134,557.459 136.094,557.453C135.589,557.388 135.233,556.925 135.299,556.421C135.443,555.314 135.613,554.069 135.798,552.753C135.868,552.25 136.322,551.893 136.84,551.969C137.344,552.04 137.695,552.506 137.624,553.011C137.44,554.32 137.27,555.557 137.126,556.658C137.066,557.123 136.67,557.462 136.213,557.462ZM143.036,556.097C142.572,556.097 142.173,555.748 142.121,555.277C141.994,554.128 141.851,552.89 141.702,551.615C141.642,551.109 142.005,550.652 142.511,550.593C143.02,550.531 143.474,550.897 143.533,551.402C143.682,552.68 143.826,553.923 143.953,555.076C144.01,555.582 143.643,556.038 143.138,556.094C143.104,556.095 143.07,556.097 143.036,556.097ZM150.175,555.762C150.165,555.762 150.157,555.762 150.15,555.762C149.64,555.748 149.239,555.324 149.253,554.817C149.283,553.681 149.303,552.45 149.314,551.146C149.319,550.639 149.73,550.231 150.236,550.231C150.239,550.231 150.242,550.231 150.244,550.231C150.753,550.236 151.163,550.652 151.158,551.161C151.147,552.477 151.128,553.722 151.096,554.865C151.082,555.365 150.671,555.762 150.175,555.762ZM129.268,554.219C128.773,554.219 128.364,553.825 128.347,553.326C128.311,552.164 128.282,550.923 128.258,549.628C128.249,549.118 128.654,548.698 129.162,548.689C129.169,548.689 129.174,548.689 129.18,548.689C129.681,548.689 130.093,549.09 130.102,549.594C130.125,550.882 130.155,552.115 130.191,553.269C130.207,553.778 129.806,554.204 129.298,554.219C129.288,554.219 129.278,554.219 129.268,554.219ZM137.102,551.06C137.059,551.06 137.015,551.057 136.971,551.051C136.466,550.978 136.117,550.512 136.189,550.008L136.713,546.352C136.787,545.848 137.247,545.502 137.757,545.571C138.26,545.643 138.611,546.111 138.538,546.615L138.014,550.269C137.948,550.729 137.553,551.06 137.102,551.06ZM142.295,549.678C141.834,549.678 141.436,549.333 141.38,548.865C141.234,547.631 141.089,546.393 140.95,545.196C140.892,544.69 141.255,544.233 141.761,544.175C142.274,544.114 142.723,544.479 142.782,544.985C142.92,546.18 143.066,547.417 143.212,548.649C143.272,549.154 142.91,549.613 142.404,549.672C142.366,549.676 142.331,549.678 142.295,549.678ZM150.244,549.309C149.736,549.309 149.323,548.897 149.323,548.388C149.322,547.194 149.315,545.961 149.304,544.705C149.3,544.195 149.709,543.779 150.218,543.775C150.22,543.775 150.223,543.775 150.226,543.775C150.732,543.775 151.143,544.182 151.148,544.688C151.159,545.949 151.165,547.188 151.166,548.386C151.166,548.896 150.754,549.309 150.244,549.309L150.244,549.309ZM129.139,547.767C128.634,547.767 128.223,547.362 128.218,546.856C128.205,545.65 128.196,544.413 128.191,543.161C128.189,542.652 128.599,542.237 129.109,542.235C129.11,542.235 129.112,542.235 129.113,542.235C129.621,542.235 130.033,542.646 130.035,543.154C130.04,544.4 130.049,545.633 130.061,546.836C130.067,547.346 129.658,547.763 129.15,547.768C129.146,547.767 129.142,547.767 129.139,547.767ZM138.015,544.663C137.972,544.663 137.929,544.661 137.885,544.654C137.381,544.583 137.03,544.117 137.101,543.613C137.286,542.298 137.456,541.059 137.6,539.964C137.665,539.459 138.122,539.098 138.632,539.169C139.137,539.234 139.493,539.697 139.427,540.201C139.283,541.303 139.113,542.548 138.927,543.87C138.862,544.33 138.467,544.663 138.015,544.663ZM141.554,543.26C141.089,543.26 140.691,542.911 140.639,542.44C140.489,541.072 140.359,539.815 140.262,538.749C140.217,538.241 140.591,537.794 141.098,537.748C141.624,537.696 142.053,538.076 142.099,538.583C142.193,539.641 142.323,540.885 142.471,542.238C142.527,542.744 142.161,543.2 141.656,543.256C141.621,543.258 141.587,543.26 141.554,543.26ZM150.198,542.854C149.693,542.854 149.283,542.449 149.276,541.945C149.259,540.72 149.241,539.487 149.219,538.257C149.209,537.749 149.615,537.328 150.124,537.319C150.596,537.333 151.052,537.715 151.062,538.224C151.083,539.457 151.103,540.694 151.119,541.919C151.126,542.429 150.719,542.846 150.21,542.854C150.205,542.854 150.2,542.854 150.198,542.854ZM129.107,541.3C128.598,541.3 128.185,540.898 128.185,540.388C128.185,539.141 128.188,537.912 128.194,536.695C128.196,536.187 128.609,535.778 129.116,535.778C129.116,535.778 129.118,535.778 129.12,535.778C129.629,535.781 130.039,536.195 130.037,536.704C130.032,537.919 130.029,539.145 130.029,540.37C130.029,540.878 129.616,541.3 129.107,541.3ZM159.082,538.093C159.043,538.093 159.005,538.09 158.965,538.085C157.365,537.882 156.082,536.588 155.77,534.867C155.68,534.366 156.012,533.886 156.512,533.795C157.02,533.704 157.493,534.038 157.584,534.538C157.777,535.608 158.534,536.172 159.197,536.256C159.702,536.321 160.059,536.782 159.996,537.287C159.937,537.752 159.539,538.093 159.082,538.093ZM119.415,537.981C119.266,537.981 119.113,537.945 118.973,537.868C118.209,537.45 117.21,536.453 116.79,534.09C116.701,533.588 117.035,533.111 117.536,533.022C118.044,532.931 118.516,533.267 118.604,533.768C118.923,535.565 119.587,536.104 119.858,536.252C120.305,536.496 120.468,537.057 120.224,537.503C120.057,537.808 119.741,537.981 119.415,537.981ZM139.768,537.343L138.843,537.332L137.926,537.24C137.926,537.239 137.934,537.158 137.934,537.157C138.163,534.849 139.31,534.173 140.256,534.345C140.839,534.455 141.325,534.884 141.632,535.552C141.845,536.016 141.641,536.563 141.179,536.775C140.734,536.977 140.219,536.801 139.989,536.384C139.905,536.58 139.813,536.89 139.768,537.343ZM121.82,537.282C121.64,537.282 121.457,537.229 121.297,537.119C120.879,536.83 120.774,536.256 121.063,535.837C121.312,535.476 121.45,534.975 121.45,534.427C121.45,534.299 121.443,534.167 121.428,534.031C121.39,533.684 121.371,533.327 121.371,532.96L121.373,532.77C121.381,532.266 121.792,531.863 122.295,531.863C122.299,531.863 122.304,531.863 122.309,531.863C122.818,531.872 123.225,532.29 123.217,532.8L123.215,532.961C123.215,533.26 123.23,533.551 123.261,533.831C123.283,534.036 123.294,534.236 123.294,534.429C123.294,535.361 123.047,536.21 122.581,536.887C122.4,537.143 122.112,537.282 121.82,537.282ZM161.406,536.908C161.239,536.908 161.069,536.863 160.918,536.767C160.486,536.496 160.356,535.927 160.626,535.496C160.937,535.001 161.123,534.288 161.165,533.434C161.176,533.214 161.181,532.992 161.181,532.768L161.177,532.44C161.165,531.93 161.569,531.508 162.077,531.497C162.586,531.492 163.008,531.889 163.02,532.397L163.023,532.768C163.023,533.022 163.019,533.275 163.006,533.526C162.947,534.711 162.672,535.703 162.188,536.475C162.012,536.755 161.712,536.908 161.406,536.908ZM150.088,536.396C149.588,536.396 149.176,535.996 149.166,535.494C149.141,534.243 149.114,533.01 149.086,531.806C149.074,531.297 149.478,530.874 149.986,530.863C150.486,530.86 150.918,531.255 150.929,531.763C150.956,532.967 150.984,534.203 151.009,535.455C151.019,535.965 150.614,536.385 150.106,536.395C150.101,536.396 150.095,536.396 150.088,536.396ZM129.133,534.857C129.131,534.857 129.128,534.857 129.127,534.857C128.617,534.853 128.207,534.437 128.211,533.929C128.22,532.665 128.232,531.428 128.245,530.235C128.25,529.726 128.675,529.288 129.178,529.324C129.687,529.33 130.094,529.747 130.089,530.257C130.075,531.447 130.064,532.682 130.055,533.943C130.051,534.448 129.639,534.857 129.133,534.857ZM156.599,532.865C156.134,532.865 155.736,532.516 155.684,532.045C155.578,531.075 155.321,529.92 154.922,528.613C154.774,528.126 155.047,527.611 155.534,527.463C156.021,527.311 156.536,527.589 156.684,528.075C157.117,529.492 157.396,530.759 157.515,531.843C157.571,532.349 157.205,532.805 156.7,532.861C156.666,532.863 156.632,532.865 156.599,532.865ZM117.433,532.1C116.939,532.1 116.531,531.708 116.513,531.209C116.502,530.913 116.498,530.616 116.498,530.318C116.499,529.378 116.548,528.398 116.644,527.406C116.693,526.899 117.133,526.532 117.65,526.578C118.157,526.627 118.528,527.077 118.478,527.584C118.387,528.519 118.341,529.438 118.34,530.319C118.34,530.594 118.345,530.87 118.354,531.146C118.373,531.654 117.974,532.081 117.464,532.098C117.454,532.1 117.444,532.1 117.433,532.1ZM122.637,530.964C122.572,530.964 122.507,530.958 122.442,530.943C121.944,530.837 121.629,530.345 121.735,529.847C121.981,528.708 122.351,527.478 122.836,526.188C123.016,525.709 123.546,525.471 124.023,525.649C124.5,525.828 124.741,526.36 124.563,526.836C124.11,528.042 123.765,529.186 123.539,530.237C123.444,530.669 123.062,530.964 122.637,530.964ZM161.834,530.589C161.389,530.589 160.997,530.266 160.925,529.813C160.752,528.731 160.498,527.585 160.149,526.313C160.014,525.823 160.302,525.316 160.794,525.18C161.278,525.043 161.792,525.332 161.927,525.825C162.295,527.164 162.563,528.374 162.746,529.523C162.826,530.026 162.482,530.498 161.98,530.578C161.93,530.585 161.882,530.589 161.834,530.589ZM149.944,529.94C149.445,529.94 149.035,529.543 149.022,529.042L148.931,525.352C148.918,524.844 149.321,524.42 149.83,524.409C150.351,524.437 150.762,524.8 150.773,525.307L150.865,528.997C150.876,529.505 150.473,529.929 149.966,529.94C149.957,529.94 149.95,529.94 149.944,529.94ZM129.201,528.399C129.197,528.399 129.193,528.399 129.188,528.399C128.679,528.392 128.272,527.974 128.279,527.465C128.298,526.144 128.317,524.903 128.337,523.773C128.346,523.264 128.773,522.871 129.275,522.867C129.783,522.877 130.189,523.297 130.18,523.805C130.16,524.933 130.14,526.17 130.122,527.491C130.116,527.995 129.704,528.399 129.201,528.399ZM154.893,526.651C154.524,526.651 154.175,526.428 154.034,526.063C153.61,524.968 153.128,523.847 152.599,522.732C152.381,522.272 152.578,521.722 153.038,521.504C153.499,521.285 154.048,521.484 154.266,521.943C154.812,523.098 155.313,524.26 155.753,525.396C155.937,525.87 155.7,526.405 155.226,526.588C155.116,526.631 155.004,526.651 154.893,526.651ZM117.94,525.677C117.887,525.677 117.834,525.673 117.779,525.662C117.278,525.574 116.943,525.097 117.032,524.595C117.242,523.406 117.516,522.169 117.847,520.92C117.978,520.428 118.486,520.138 118.975,520.266C119.466,520.396 119.76,520.901 119.629,521.394C119.311,522.591 119.048,523.777 118.846,524.915C118.768,525.363 118.379,525.677 117.94,525.677ZM124.773,524.884C124.642,524.884 124.51,524.856 124.384,524.798C123.923,524.582 123.723,524.034 123.939,523.572C124.469,522.435 125.076,521.278 125.69,520.226C125.948,519.785 126.513,519.639 126.952,519.896C127.391,520.153 127.539,520.717 127.282,521.157C126.695,522.161 126.116,523.265 125.609,524.351C125.452,524.687 125.12,524.884 124.773,524.884ZM160.228,524.346C159.842,524.346 159.482,524.102 159.353,523.715C159.011,522.686 158.608,521.562 158.122,520.279C157.94,519.803 158.181,519.271 158.655,519.091C159.133,518.907 159.664,519.149 159.844,519.624C160.341,520.932 160.752,522.079 161.103,523.133C161.263,523.615 161.002,524.138 160.519,524.299C160.423,524.33 160.324,524.346 160.228,524.346ZM149.783,523.483C149.284,523.483 148.874,523.086 148.861,522.584C148.825,521.12 148.796,519.865 148.779,518.887C148.77,518.377 149.175,517.957 149.684,517.949C149.777,517.945 149.868,517.96 149.954,517.984C149.767,517.724 149.62,517.546 149.515,517.442C149.152,517.086 149.146,516.503 149.502,516.139C149.857,515.775 150.442,515.769 150.806,516.126C151.516,516.821 152.478,518.492 152.989,519.427C153.233,519.873 153.068,520.433 152.622,520.678C152.176,520.921 151.614,520.757 151.371,520.311C151.098,519.811 150.85,519.38 150.626,519.013C150.644,519.963 150.671,521.159 150.705,522.539C150.718,523.048 150.315,523.471 149.807,523.483C149.798,523.483 149.79,523.483 149.783,523.483ZM119.521,519.427C119.427,519.427 119.331,519.412 119.237,519.381C118.754,519.225 118.488,518.705 118.644,518.221C119.02,517.057 119.449,515.87 119.915,514.697C120.103,514.223 120.64,513.994 121.112,514.18C121.586,514.368 121.816,514.905 121.629,515.377C121.177,516.515 120.763,517.662 120.399,518.788C120.272,519.179 119.909,519.427 119.521,519.427ZM129.312,521.944C129.305,521.944 129.299,521.944 129.291,521.944C128.782,521.933 128.379,521.511 128.39,521.003C128.404,520.323 128.418,519.706 128.432,519.176C128.128,519.342 127.744,519.329 127.446,519.111C127.035,518.809 126.947,518.233 127.248,517.822C128.278,516.418 128.794,516.133 129.288,516.133C129.289,516.133 129.291,516.133 129.293,516.133C129.811,516.133 130.338,516.526 130.338,517.276C130.338,517.29 130.336,517.36 130.336,517.372C130.318,517.639 130.282,518.742 130.233,521.044C130.222,521.544 129.812,521.944 129.312,521.944ZM157.985,518.291C157.617,518.291 157.269,518.069 157.127,517.704C156.572,516.283 156.154,515.202 155.831,514.244C155.672,513.773 155.908,513.244 156.374,513.069C156.836,512.892 157.353,513.101 157.543,513.56C157.555,513.586 157.576,513.649 157.585,513.677C157.889,514.573 158.298,515.635 158.845,517.034C159.031,517.507 158.795,518.042 158.321,518.227C158.21,518.272 158.097,518.291 157.985,518.291ZM121.953,513.468C121.777,513.468 121.599,513.417 121.441,513.311C121.018,513.029 120.905,512.456 121.188,512.033C121.897,510.975 122.878,510.04 124.104,509.252C124.534,508.978 125.103,509.101 125.377,509.528C125.652,509.957 125.528,510.526 125.101,510.801C124.089,511.453 123.287,512.212 122.719,513.059C122.542,513.324 122.25,513.468 121.953,513.468ZM155.284,512.484C155.033,512.484 154.782,512.381 154.6,512.181C153.928,511.437 153.026,510.77 151.915,510.199C151.462,509.966 151.285,509.41 151.519,508.958C151.751,508.505 152.307,508.325 152.76,508.561C154.068,509.235 155.147,510.037 155.968,510.945C156.309,511.323 156.28,511.907 155.902,512.248C155.727,512.406 155.505,512.484 155.284,512.484ZM127.069,509.704C126.702,509.704 126.355,509.483 126.212,509.122C126.024,508.649 126.256,508.113 126.73,507.926C127.827,507.49 129.063,507.121 130.406,506.829C130.907,506.72 131.394,507.036 131.504,507.534C131.612,508.031 131.296,508.522 130.799,508.631C129.555,508.902 128.414,509.241 127.409,509.64C127.297,509.684 127.182,509.704 127.069,509.704ZM149.784,509.249C149.689,509.249 149.592,509.235 149.497,509.203C148.452,508.862 147.289,508.575 146.041,508.351C145.54,508.261 145.206,507.783 145.296,507.282C145.386,506.781 145.863,506.445 146.365,506.537C147.698,506.775 148.944,507.084 150.07,507.452C150.554,507.61 150.818,508.131 150.659,508.614C150.533,509.003 150.172,509.249 149.784,509.249ZM133.328,508.182C132.872,508.182 132.475,507.845 132.416,507.38C132.349,506.876 132.704,506.412 133.21,506.347C134.385,506.192 135.648,506.082 136.962,506.019C137.463,505.984 137.902,506.386 137.927,506.896C137.951,507.405 137.559,507.836 137.051,507.861C135.786,507.922 134.575,508.027 133.449,508.174C133.408,508.179 133.368,508.182 133.328,508.182ZM143.463,507.989C143.433,507.989 143.401,507.987 143.37,507.984C141.836,507.832 140.57,507.799 139.777,507.799C139.268,507.799 138.856,507.386 138.856,506.877C138.856,506.367 139.268,505.955 139.777,505.955C140.612,505.955 141.944,505.988 143.553,506.149C144.06,506.2 144.429,506.651 144.378,507.158C144.332,507.634 143.931,507.989 143.463,507.989ZM138.607,503.323C138.544,503.323 138.478,503.316 138.414,503.302C137.074,503.015 135.82,502.31 134.786,501.261C134.43,500.898 134.433,500.314 134.796,499.956C135.159,499.599 135.741,499.605 136.1,499.966C136.88,500.759 137.813,501.288 138.8,501.499C139.297,501.605 139.615,502.095 139.508,502.593C139.415,503.027 139.033,503.323 138.607,503.323ZM141.341,503.237C140.939,503.237 140.569,502.971 140.454,502.565C140.316,502.074 140.602,501.566 141.092,501.428C142.064,501.155 142.971,500.572 143.716,499.739C144.056,499.359 144.641,499.329 145.018,499.668C145.397,500.007 145.429,500.59 145.09,500.969C144.111,502.064 142.9,502.836 141.591,503.203C141.507,503.226 141.423,503.237 141.341,503.237ZM133.889,499.266C133.54,499.266 133.206,499.069 133.05,498.731C132.49,497.517 132.181,496.199 132.13,494.813C132.111,494.304 132.509,493.876 133.018,493.859C133.484,493.816 133.955,494.237 133.972,494.746C134.014,495.887 134.267,496.967 134.725,497.959C134.938,498.421 134.737,498.969 134.274,499.183C134.149,499.24 134.017,499.266 133.889,499.266ZM145.856,498.938C145.738,498.938 145.62,498.916 145.504,498.869C145.033,498.675 144.81,498.136 145.003,497.665C145.422,496.653 145.633,495.561 145.633,494.422C145.633,493.923 145.592,493.426 145.51,492.944C145.424,492.443 145.761,491.966 146.264,491.882C146.765,491.797 147.242,492.134 147.326,492.635C147.426,493.218 147.476,493.819 147.476,494.422C147.476,495.805 147.218,497.132 146.707,498.369C146.562,498.724 146.218,498.938 145.856,498.938ZM133.342,492.962C133.267,492.962 133.19,492.952 133.113,492.933C132.62,492.807 132.322,492.306 132.448,491.813C132.793,490.461 133.416,489.205 134.248,488.179C134.57,487.785 135.151,487.725 135.545,488.045C135.941,488.366 136,488.947 135.68,489.342C135.014,490.161 134.514,491.173 134.234,492.268C134.128,492.685 133.753,492.962 133.342,492.962ZM145.555,491.096C145.22,491.096 144.897,490.913 144.735,490.594C144.217,489.587 143.499,488.743 142.654,488.157C142.237,487.867 142.133,487.292 142.424,486.874C142.714,486.455 143.287,486.352 143.708,486.644C144.798,487.403 145.721,488.478 146.375,489.754C146.607,490.206 146.429,490.762 145.976,490.994C145.84,491.064 145.697,491.096 145.555,491.096ZM137.074,487.923C136.743,487.923 136.424,487.744 136.258,487.432C136.02,486.983 136.192,486.425 136.642,486.187C137.933,485.502 139.364,485.252 140.778,485.464C141.281,485.54 141.629,486.01 141.552,486.513C141.476,487.017 141.009,487.358 140.503,487.288C139.479,487.134 138.445,487.316 137.504,487.815C137.367,487.889 137.219,487.923 137.074,487.923Z" style="fill:white;"/>
        </g>
        <g transform="matrix(0.863852,0,0,0.863852,67.9664,78.8575)">
            <path d="M323.574,553.798C323.574,553.798 307.373,554.116 301.652,559.555C299.242,563.552 293.469,573.18 294.175,587.715C294.618,594.074 299.052,597.753 300.384,589.066C301.314,583.006 304.775,569.991 309.508,567.908C311.434,569.141 307.672,620.465 310.189,624.563C311.645,629.314 313.74,634.074 318.474,625.339C320.08,614.382 322.208,594.933 322.208,594.933C322.208,594.933 323.538,586.987 325.628,594.314C327.717,601.642 327.321,613.896 329.252,625.792C330.181,627.885 332.875,635.631 337.187,625.589C339.159,614.729 335.982,567.661 337.247,566.772C338.512,565.883 344.877,578.595 345.902,589.924C348.513,597.702 353.534,591.519 353.523,588.514C353.512,585.51 347.766,559.842 340.899,557.308C334.522,554.954 330.399,553.663 323.574,553.798ZM324.054,527.538C329.56,527.538 334.023,532.715 334.023,539.101C334.023,545.488 329.56,550.665 324.054,550.665C318.548,550.665 314.084,545.488 314.084,539.101C314.084,532.715 318.548,527.538 324.054,527.538Z" style="fill:white;"/>
        </g>
    </g>
</svg>
