<?xml version="1.0" encoding="UTF-8" standalone="no"?>
<!-- Created with Inkscape (http://www.inkscape.org/) -->

<svg
   xmlns:dc="http://purl.org/dc/elements/1.1/"
   xmlns:cc="http://creativecommons.org/ns#"
   xmlns:rdf="http://www.w3.org/1999/02/22-rdf-syntax-ns#"
   xmlns:svg="http://www.w3.org/2000/svg"
   xmlns="http://www.w3.org/2000/svg"
   xmlns:sodipodi="http://sodipodi.sourceforge.net/DTD/sodipodi-0.dtd"
   xmlns:inkscape="http://www.inkscape.org/namespaces/inkscape"
   width="512"
   height="512"
   viewBox="0 0 135.46666 135.46667"
   version="1.1"
   id="svg8"
   inkscape:version="0.92.1 r15371"
   sodipodi:docname="Looking-Glass.svg"
   inkscape:export-filename="/home/user/designs/TransparencyToolkit/logo/Looking-Glass-512x512.png"
   inkscape:export-xdpi="90"
   inkscape:export-ydpi="90">
  <defs
     id="defs2" />
  <sodipodi:namedview
     id="base"
     pagecolor="#ffffff"
     bordercolor="#666666"
     borderopacity="1.0"
     inkscape:pageopacity="0.0"
     inkscape:pageshadow="2"
     inkscape:zoom="0.5031921"
     inkscape:cx="166.72979"
     inkscape:cy="222.74187"
     inkscape:document-units="mm"
     inkscape:current-layer="layer1"
     showgrid="false"
     units="px"
     inkscape:window-width="1920"
     inkscape:window-height="1177"
     inkscape:window-x="0"
     inkscape:window-y="23"
     inkscape:window-maximized="1" />
  <metadata
     id="metadata5">
    <rdf:RDF>
      <cc:Work
         rdf:about="">
        <dc:format>image/svg+xml</dc:format>
        <dc:type
           rdf:resource="http://purl.org/dc/dcmitype/StillImage" />
        <dc:title></dc:title>
      </cc:Work>
    </rdf:RDF>
  </metadata>
  <g
     inkscape:label="Layer 1"
     inkscape:groupmode="layer"
     id="layer1"
     transform="translate(0,-161.53332)">
    <rect
       style="opacity:1;fill:#000000;fill-opacity:1;stroke:none;stroke-width:2;stroke-miterlimit:4;stroke-dasharray:none;stroke-dashoffset:0;stroke-opacity:1"
       id="rect77"
       width="137.76216"
       height="137.23636"
       x="-0.52580976"
       y="161.34106"
       inkscape:export-xdpi="90"
       inkscape:export-ydpi="90" />
    <g
       style="clip-rule:evenodd;fill:#ffffff;fill-rule:evenodd;stroke-linejoin:round;stroke-miterlimit:1.41420996"
       transform="matrix(0.04386755,-0.02537182,0.4967771,0.85891974,-238.13578,-184.40135)"
       id="g3104"
       inkscape:export-xdpi="90"
       inkscape:export-ydpi="90">
      <path
         inkscape:connector-curvature="0"
         d="M 306.074,481.796 H 464.891"
         style="fill:#ffffff"
         id="path3100" />
      <path
         inkscape:connector-curvature="0"
         d="m 306.074,483.848 v -4.104 h 80.355 v 4.104 z"
         style="fill:#ffffff"
         id="path3102" />
    </g>
    <g
       style="clip-rule:evenodd;fill:#ffffff;fill-rule:evenodd;stroke-linejoin:round;stroke-miterlimit:1.41420996"
       transform="matrix(0.39539027,-0.22868362,0.4967771,0.85891974,-292.44958,-82.85744)"
       id="g3110"
       inkscape:export-xdpi="90"
       inkscape:export-ydpi="90">
      <path
         inkscape:connector-curvature="0"
         d="M 306.074,481.796 H 464.891"
         style="fill:#ffffff"
         id="path3106" />
      <path
         inkscape:connector-curvature="0"
         d="m 306.074,483.848 v -4.104 h 8.915 v 4.104 z m 17.831,0 v -4.104 h 8.915 v 4.104 z m 17.83,0 v -4.104 h 8.915 v 4.104 z m 17.83,0 v -4.104 h 8.916 v 4.104 z m 17.831,0 v -4.104 h 8.915 v 4.104 z m 17.83,0 v -4.104 h 8.916 v 4.104 z m 17.831,0 v -4.104 h 8.915 v 4.104 z m 17.83,0 v -4.104 h 8.915 v 4.104 z m 17.831,0 v -4.104 h 8.915 v 4.104 z"
         style="fill:#ffffff"
         id="path3108" />
    </g>
    <g
       style="clip-rule:evenodd;fill:#ffffff;fill-rule:evenodd;stroke-linejoin:round;stroke-miterlimit:1.41420996"
       transform="matrix(0.03231675,0.0185237,-0.49342984,0.86084732,347.15823,-200.67176)"
       id="g3116"
       inkscape:export-xdpi="90"
       inkscape:export-ydpi="90">
      <path
         inkscape:connector-curvature="0"
         d="M 306.074,481.796 H 464.891"
         style="fill:#ffffff"
         id="path3112" />
      <path
         inkscape:connector-curvature="0"
         d="M 415.395,483.848 H 306.074 v -4.104 h 109.321 z"
         style="fill:#ffffff"
         id="path3114" />
    </g>
    <g
       style="clip-rule:evenodd;fill:#ffffff;fill-rule:evenodd;stroke-linejoin:round;stroke-miterlimit:1.41420996"
       transform="matrix(0.39431262,0.2260161,-0.49342984,0.86084732,126.83845,-257.3756)"
       id="g3122"
       inkscape:export-xdpi="90"
       inkscape:export-ydpi="90">
      <path
         inkscape:connector-curvature="0"
         d="M 306.074,481.796 H 464.891"
         style="fill:#ffffff"
         id="path3118" />
      <path
         inkscape:connector-curvature="0"
         d="m 458.388,483.848 h -8.96 v -4.104 h 8.96 z m -17.919,0 h -8.96 v -4.104 h 8.96 z m -17.919,0 h -8.96 v -4.104 h 8.96 z m -17.92,0 h -8.959 v -4.104 h 8.959 z m -17.919,0 h -8.96 v -4.104 h 8.96 z m -17.919,0 h -8.96 v -4.104 h 8.96 z m -17.92,0 h -8.959 v -4.104 h 8.959 z m -17.919,0 h -8.959 v -4.104 h 8.959 z m -17.919,0 h -8.96 v -4.104 h 8.96 z"
         style="fill:#ffffff"
         id="path3120" />
    </g>
    <path
       inkscape:connector-curvature="0"
       d="m 124.04099,243.22056 9.26438,5.53317 -65.163697,37.47881 -65.1623474,-37.47881 9.4561914,-4.84323 55.643553,30.93753 z"
       style="clip-rule:evenodd;fill:#ffffff;fill-rule:evenodd;stroke-width:1.33196402;stroke-linejoin:round;stroke-miterlimit:1.41420996"
       id="path3124"
       sodipodi:nodetypes="ccccccc"
       inkscape:export-xdpi="90"
       inkscape:export-ydpi="90" />
    <g
       style="clip-rule:evenodd;fill:#ffffff;fill-rule:evenodd;stroke-linejoin:round;stroke-miterlimit:1.41420996"
       transform="matrix(1.3006641,0,0,1.3006641,4.6655218,160.84694)"
       id="g3130"
       inkscape:export-xdpi="90"
       inkscape:export-ydpi="90">
      <path
         inkscape:connector-curvature="0"
         d="M 49.588,9.154 0.666,37.293 49.588,65.432 84.614,45.284 98.51,37.293 Z m 0,51.313 L 9.299,37.293 49.588,14.12 89.878,37.293 Z"
         style="fill:#ffffff"
         id="path3128" />
    </g>
  </g>
</svg>
