<?xml version="1.0" encoding="UTF-8" standalone="no"?>
<svg
   xmlns:sketch="http://www.bohemiancoding.com/sketch/ns"
   xmlns:dc="http://purl.org/dc/elements/1.1/"
   xmlns:cc="http://creativecommons.org/ns#"
   xmlns:rdf="http://www.w3.org/1999/02/22-rdf-syntax-ns#"
   xmlns:svg="http://www.w3.org/2000/svg"
   xmlns="http://www.w3.org/2000/svg"
   xmlns:sodipodi="http://sodipodi.sourceforge.net/DTD/sodipodi-0.dtd"
   xmlns:inkscape="http://www.inkscape.org/namespaces/inkscape"
   sodipodi:docname="app-catalyst.svg"
   inkscape:version="1.0 (4035a4f, 2020-05-01)"
   id="svg3918"
   version="1.1"
   viewBox="0 0 169.33333 127"
   height="480"
   width="640">
  <defs
     id="defs3912" />
  <sodipodi:namedview
     inkscape:window-maximized="1"
     inkscape:window-y="41"
     inkscape:window-x="0"
     inkscape:window-height="1157"
     inkscape:window-width="1916"
     units="px"
     showgrid="false"
     inkscape:document-rotation="0"
     inkscape:current-layer="layer1"
     inkscape:document-units="mm"
     inkscape:cy="308.15413"
     inkscape:cx="400"
     inkscape:zoom="0.7"
     inkscape:pageshadow="2"
     inkscape:pageopacity="0.0"
     borderopacity="1.0"
     bordercolor="#666666"
     pagecolor="#ffffff"
     id="base" />
  <metadata
     id="metadata3915">
    <rdf:RDF>
      <cc:Work
         rdf:about="">
        <dc:format>image/svg+xml</dc:format>
        <dc:type
           rdf:resource="http://purl.org/dc/dcmitype/StillImage" />
        <dc:title></dc:title>
      </cc:Work>
    </rdf:RDF>
  </metadata>
  <g
     id="layer1"
     inkscape:groupmode="layer"
     inkscape:label="Layer 1">
    <g
       transform="matrix(1.2325523,0,0,1.2325523,23.653867,0.16282704)"
       id="document"
       sketch:type="MSArtboardGroup"
       style="fill:#000000;fill-rule:evenodd;stroke:none;stroke-width:1">
      <path
         style="fill:#000000;fill-opacity:1;stroke:none;stroke-width:1.0328"
         d="M 0,13.119141 V 84.625 l 7.2304688,6 H 93.410156 L 100,84.625 V 13.121094 Z m 7.2988281,7.191406 H 47.867188 V 83.679688 H 7.2988281 Z M 67.001953,22.59375 c 0.251186,-0.02454 0.504698,-0.02387 0.755859,0 1.004649,0.0955 1.978495,0.575754 2.683594,1.416016 1.410114,1.680596 1.211077,4.16669 -0.445312,5.55664 -0.386566,0.324014 -1.053375,0.602999 -1.535156,0.75586 l 0.0625,8.894531 c -0.719215,-0.04373 -1.034617,-0.102191 -1.746094,0.01172 l -0.0059,-8.927735 c -0.834787,-0.197691 -1.772882,-0.59799 -2.328125,-1.257812 -1.410111,-1.680595 -1.20912,-4.170601 0.447266,-5.560547 0.621173,-0.5212 1.35777,-0.815037 2.111328,-0.888672 z m -53.068359,2.886719 -0.185547,4.722656 h 0.777344 c 0.321075,-1.493069 0.801829,-2.460733 1.439453,-2.904297 0.637623,-0.443281 1.83695,-0.666016 3.599609,-0.666016 h 1.789063 v 13.900391 c 0,1.198019 -0.166223,1.944875 -0.498047,2.242188 -0.331825,0.297312 -1.171866,0.490403 -2.519531,0.580078 v 0.515625 h 9.285156 v -0.515625 c -1.296181,-0.08091 -2.136219,-0.248999 -2.519532,-0.50586 -0.383592,-0.256294 -0.576171,-0.9209 -0.576171,-1.992187 v -14.22461 h 1.773437 c 1.845262,10e-7 3.055185,0.224065 3.63086,0.671876 0.575106,0.447807 1.050985,1.41442 1.423828,2.898437 h 0.761718 l -0.171875,-4.722656 z m 16.373047,10.367187 -0.105469,2.69336 h 0.441406 c 0.18331,-0.85092 0.456805,-1.403351 0.820313,-1.65625 0.363507,-0.2529 1.048208,-0.378907 2.052734,-0.378907 h 1.019531 v 7.919922 c 0,0.682603 -0.09619,1.110132 -0.285156,1.279297 -0.188968,0.169731 -0.666947,0.278876 -1.435547,0.330078 v 0.294922 h 5.292969 v -0.294922 c -0.738614,-0.04639 -1.218829,-0.142528 -1.4375,-0.289062 -0.218105,-0.145969 -0.326172,-0.524582 -0.326172,-1.134766 v -8.105469 h 1.009766 c 1.051201,0 1.740778,0.12765 2.068359,0.382813 0.328147,0.255162 0.59977,0.806799 0.8125,1.652344 h 0.433594 l -0.09766,-2.69336 z m 37.384765,6.023438 c 5.359322,0 9.722657,4.363333 9.722656,9.722656 0,5.359322 -4.363334,9.722656 -9.722656,9.722656 -5.35933,0 -9.720703,-4.363334 -9.720703,-9.722656 0,-5.359323 4.361373,-9.722656 9.720703,-9.722656 z m 0.832032,1.734375 v 2.871093 h -1.691407 v -2.86914 c -3.761268,0.397783 -6.733478,3.379294 -7.125,7.142578 h 2.939453 v 1.689453 h -2.939453 c 0.391522,3.763123 3.363732,6.743005 7.125,7.140625 v -2.853516 h 1.691407 v 2.855469 c 3.774638,-0.385629 6.761807,-3.370019 7.154296,-7.142578 H 72.796875 V 50.75 h 2.880859 c -0.392489,-3.77272 -3.379658,-6.758745 -7.154296,-7.144531 z m 17.822265,3.359375 c 1.137589,-0.107452 2.310333,0.219023 3.248047,1.005859 1.875421,1.573668 2.102461,4.392168 0.505859,6.294922 -1.5966,1.902751 -4.411671,2.169375 -6.287109,0.595703 -0.742367,-0.62292 -1.254083,-1.3811 -1.4375,-2.478516 l -2.945312,0.01367 c -0.02983,-0.717914 -0.0084,-1.135762 -0.0059,-1.830078 l 3.029297,-0.04883 c 0.138999,-0.844103 0.431204,-1.447494 0.855469,-1.953125 0.7983,-0.951376 1.89952,-1.492158 3.037109,-1.599609 z m -18.835937,2.261718 a 2.375,2.375 0 0 1 2.375,2.375 2.375,2.375 0 0 1 -2.375,2.375 2.375,2.375 0 0 1 -2.375,-2.375 2.375,2.375 0 0 1 2.375,-2.375 z m -56.314454,3.529297 v 2 h 32.830079 v -2 z m 0.06836,6 v 2 h 32.505859 v -2 z M 66.75,63.498047 c 0.711477,0.11391 1.151882,0.08669 1.871094,0.04297 v 8.832031 c 0.48178,0.152861 0.992342,0.494346 1.378906,0.818359 1.65639,1.38995 1.855429,3.876047 0.445312,5.556641 -1.410198,1.680521 -3.894317,1.917207 -5.550781,0.527344 -1.656386,-1.389947 -1.857378,-3.879953 -0.447265,-5.560547 0.555242,-0.659825 1.524588,-1.151919 2.359375,-1.34961 z M 11.380859,64.5625 v 2 h 32.646485 v -2 z m -0.07031,6 v 2 H 44.14258 v -2 z m 0.07031,6 v 2 h 32.50586 v -2 z"
         id="path6"
         transform="matrix(1.0711955,0,0,1.0711955,-3.0051054,-4.3075445)" />
      <g
         transform="matrix(0.29425016,0,0,0.29425016,11.427294,19.073747)"
         style="fill:#000000;fill-rule:evenodd;stroke:none;stroke-width:1"
         id="Page-1-7"
         sketch:type="MSPage">
        <g
           style="fill:#000000"
           id="text"
           sketch:type="MSArtboardGroup" />
      </g>
    </g>
  </g>
</svg>
