<?xml version="1.0" encoding="UTF-8" standalone="no"?>
<svg
   xmlns:dc="http://purl.org/dc/elements/1.1/"
   xmlns:cc="http://creativecommons.org/ns#"
   xmlns:rdf="http://www.w3.org/1999/02/22-rdf-syntax-ns#"
   xmlns:svg="http://www.w3.org/2000/svg"
   xmlns="http://www.w3.org/2000/svg"
   xmlns:sodipodi="http://sodipodi.sourceforge.net/DTD/sodipodi-0.dtd"
   xmlns:inkscape="http://www.inkscape.org/namespaces/inkscape"
   width="640"
   height="480"
   viewBox="0 0 169.33333 127"
   version="1.1"
   id="svg3918"
   inkscape:version="1.0 (4035a4f, 2020-05-01)"
   sodipodi:docname="app-looking-glass.svg">
  <defs
     id="defs3912" />
  <sodipodi:namedview
     id="base"
     pagecolor="#ffffff"
     bordercolor="#666666"
     borderopacity="1.0"
     inkscape:pageopacity="0.0"
     inkscape:pageshadow="2"
     inkscape:zoom="0.7"
     inkscape:cx="400"
     inkscape:cy="308.15413"
     inkscape:document-units="mm"
     inkscape:current-layer="layer1"
     inkscape:document-rotation="0"
     showgrid="false"
     units="px"
     inkscape:window-width="1916"
     inkscape:window-height="1157"
     inkscape:window-x="0"
     inkscape:window-y="41"
     inkscape:window-maximized="1" />
  <metadata
     id="metadata3915">
    <rdf:RDF>
      <cc:Work
         rdf:about="">
        <dc:format>image/svg+xml</dc:format>
        <dc:type
           rdf:resource="http://purl.org/dc/dcmitype/StillImage" />
        <dc:title></dc:title>
      </cc:Work>
    </rdf:RDF>
  </metadata>
  <g
     inkscape:label="Layer 1"
     inkscape:groupmode="layer"
     id="layer1">
    <g
       transform="matrix(0.97049013,0,0,0.97049013,17.272846,-159.4839)"
       id="layer1-3"
       inkscape:label="Layer 1"
       style="fill:#000000">
      <g
         id="g3104"
         transform="matrix(0.04386755,-0.02537182,0.4967771,0.85891974,-238.13578,-184.40135)"
         style="clip-rule:evenodd;fill:#000000;fill-rule:evenodd;stroke-linejoin:round;stroke-miterlimit:1.41421">
        <path
           id="path3100"
           style="fill:#000000"
           d="M 306.074,481.796 H 464.891"
           inkscape:connector-curvature="0" />
        <path
           id="path3102"
           style="fill:#000000"
           d="m 306.074,483.848 v -4.104 h 80.355 v 4.104 z"
           inkscape:connector-curvature="0" />
      </g>
      <g
         id="g3110"
         transform="matrix(0.39539027,-0.22868362,0.4967771,0.85891974,-292.44958,-82.85744)"
         style="clip-rule:evenodd;fill:#000000;fill-rule:evenodd;stroke-linejoin:round;stroke-miterlimit:1.41421">
        <path
           id="path3106"
           style="fill:#000000"
           d="M 306.074,481.796 H 464.891"
           inkscape:connector-curvature="0" />
        <path
           id="path3108"
           style="fill:#000000"
           d="m 306.074,483.848 v -4.104 h 8.915 v 4.104 z m 17.831,0 v -4.104 h 8.915 v 4.104 z m 17.83,0 v -4.104 h 8.915 v 4.104 z m 17.83,0 v -4.104 h 8.916 v 4.104 z m 17.831,0 v -4.104 h 8.915 v 4.104 z m 17.83,0 v -4.104 h 8.916 v 4.104 z m 17.831,0 v -4.104 h 8.915 v 4.104 z m 17.83,0 v -4.104 h 8.915 v 4.104 z m 17.831,0 v -4.104 h 8.915 v 4.104 z"
           inkscape:connector-curvature="0" />
      </g>
      <g
         id="g3116"
         transform="matrix(0.03231675,0.0185237,-0.49342984,0.86084732,347.15823,-200.67176)"
         style="clip-rule:evenodd;fill:#000000;fill-rule:evenodd;stroke-linejoin:round;stroke-miterlimit:1.41421">
        <path
           id="path3112"
           style="fill:#000000"
           d="M 306.074,481.796 H 464.891"
           inkscape:connector-curvature="0" />
        <path
           id="path3114"
           style="fill:#000000"
           d="M 415.395,483.848 H 306.074 v -4.104 h 109.321 z"
           inkscape:connector-curvature="0" />
      </g>
      <g
         id="g3122"
         transform="matrix(0.39431262,0.2260161,-0.49342984,0.86084732,126.83845,-257.3756)"
         style="clip-rule:evenodd;fill:#000000;fill-rule:evenodd;stroke-linejoin:round;stroke-miterlimit:1.41421">
        <path
           id="path3118"
           style="fill:#000000"
           d="M 306.074,481.796 H 464.891"
           inkscape:connector-curvature="0" />
        <path
           id="path3120"
           style="fill:#000000"
           d="m 458.388,483.848 h -8.96 v -4.104 h 8.96 z m -17.919,0 h -8.96 v -4.104 h 8.96 z m -17.919,0 h -8.96 v -4.104 h 8.96 z m -17.92,0 h -8.959 v -4.104 h 8.959 z m -17.919,0 h -8.96 v -4.104 h 8.96 z m -17.919,0 h -8.96 v -4.104 h 8.96 z m -17.92,0 h -8.959 v -4.104 h 8.959 z m -17.919,0 h -8.959 v -4.104 h 8.959 z m -17.919,0 h -8.96 v -4.104 h 8.96 z"
           inkscape:connector-curvature="0" />
      </g>
      <path
         sodipodi:nodetypes="ccccccc"
         id="path3124"
         style="clip-rule:evenodd;fill:#000000;fill-rule:evenodd;stroke-width:1.33196;stroke-linejoin:round;stroke-miterlimit:1.41421"
         d="m 124.04099,243.22056 9.26438,5.53317 -65.163697,37.47881 -65.1623474,-37.47881 9.4561914,-4.84323 55.643553,30.93753 z"
         inkscape:connector-curvature="0" />
      <g
         id="g3130"
         transform="matrix(1.3006641,0,0,1.3006641,4.6655218,160.84694)"
         style="clip-rule:evenodd;fill:#000000;fill-rule:evenodd;stroke-linejoin:round;stroke-miterlimit:1.41421">
        <path
           id="path3128"
           style="fill:#000000"
           d="M 49.588,9.154 0.666,37.293 49.588,65.432 84.614,45.284 98.51,37.293 Z m 0,51.313 L 9.299,37.293 49.588,14.12 89.878,37.293 Z"
           inkscape:connector-curvature="0" />
      </g>
    </g>
  </g>
</svg>
