<?xml version="1.0" encoding="UTF-8" standalone="no"?>
<svg
   xmlns:sketch="http://www.bohemiancoding.com/sketch/ns"
   xmlns:dc="http://purl.org/dc/elements/1.1/"
   xmlns:cc="http://creativecommons.org/ns#"
   xmlns:rdf="http://www.w3.org/1999/02/22-rdf-syntax-ns#"
   xmlns:svg="http://www.w3.org/2000/svg"
   xmlns="http://www.w3.org/2000/svg"
   xmlns:xlink="http://www.w3.org/1999/xlink"
   xmlns:sodipodi="http://sodipodi.sourceforge.net/DTD/sodipodi-0.dtd"
   xmlns:inkscape="http://www.inkscape.org/namespaces/inkscape"
   sodipodi:docname="header-blog.svg"
   inkscape:version="1.0 (4035a4f, 2020-05-01)"
   id="svg3454"
   version="1.1"
   viewBox="0 0 264.58333 132.29167"
   height="500"
   width="1000">
  <defs
     id="defs3448">
    <path
       d="M 100,77.313294 C 100,83.484971 94.657,89 89.046,89 H 13.208 C 3.95,89 0,84.197702 0,74.33824 V 28.907732 c 0,0 0,-5.035637 4,-5.035637 1.4257812,0 9.82,0 9.82,0 v -7.836458 c 0,0 0,-5.035637 4.4925,-5.035637 26.494792,0 50.989584,3.6e-5 77.484375,0 C 100,10.999994 100,16.035637 100,16.035637 V 77.313294 Z M 13,31 H 7 V 72.120167 C 7,78.125493 8.2688394,81 9.880991,81 11.844418,81 13,78.125493 13,72.120167 V 31 Z M 83,41 H 59 V 68 H 83 M 90,24 H 27 v 7 H 90 M 33,72 H 50 V 68 H 33 m 0,-9 H 50 V 54 H 33 M 50,46 V 43.699034 41 H 33 v 5"
       id="path-1"
       inkscape:connector-curvature="0" />
  </defs>
  <sodipodi:namedview
     inkscape:window-maximized="1"
     inkscape:window-y="41"
     inkscape:window-x="0"
     inkscape:window-height="1157"
     inkscape:window-width="1916"
     units="px"
     showgrid="false"
     inkscape:document-rotation="0"
     inkscape:current-layer="layer1"
     inkscape:document-units="mm"
     inkscape:cy="445.93092"
     inkscape:cx="510.18257"
     inkscape:zoom="0.7"
     inkscape:pageshadow="2"
     inkscape:pageopacity="0.0"
     borderopacity="1.0"
     bordercolor="#666666"
     pagecolor="#ffffff"
     id="base" />
  <metadata
     id="metadata3451">
    <rdf:RDF>
      <cc:Work
         rdf:about="">
        <dc:format>image/svg+xml</dc:format>
        <dc:type
           rdf:resource="http://purl.org/dc/dcmitype/StillImage" />
        <dc:title></dc:title>
      </cc:Work>
    </rdf:RDF>
  </metadata>
  <g
     id="layer1"
     inkscape:groupmode="layer"
     inkscape:label="Layer 1">
    <path
       id="path3717"
       d="m 12.452832,28.99424 45.268046,-13.273543 80.206402,10.13331 57.59767,-5.23841 55.17099,-14.6901097 6.4872,35.1915377 2.13856,55.072493 -29.28254,29.434272 -104.78993,-4.88278 -98.853693,5.01864 L 4.9085113,110.85204 4.0553425,37.698314 Z"
       style="fill:#999999;stroke:#000000;stroke-width:1.5875;stroke-linecap:butt;stroke-linejoin:miter;stroke-opacity:1;stroke-miterlimit:4;stroke-dasharray:none;fill-opacity:1" />
    <g
       transform="matrix(0.67333115,0,0,0.67333115,8.2534018,30.87857)"
       style="fill:none;fill-rule:evenodd;stroke:none;stroke-width:1"
       sketch:type="MSArtboardGroup"
       id="news">
      <mask
         fill="#ffffff"
         sketch:name="news"
         id="mask-2">
        <use
           height="100%"
           width="100%"
           y="0"
           x="0"
           id="use14"
           xlink:href="#path-1" />
      </mask>
      <path
         inkscape:connector-curvature="0"
         id="use16"
         d="M 100,79.188294 92.796,89 H 7.5829995 L 0,79.963241 V 24.058203 L 13.82,23.872095 V 10.410636 H 100 Z M 13,31 H 7 V 77.745168 L 9.880991,81 13,77.745168 Z m 71.875,10 h -24 v 27 h 24 M 90,24 H 27 v 7 H 90 M 31.125,72 H 53.75 V 66.900471 H 31.125 M 31.125,59 H 53.75 V 54 H 31.125 M 53.75,46 V 41 H 31.125 v 5"
         style="fill:#000000"
         sodipodi:nodetypes="ccccccccccccccccccccccccccccccccccc" />
    </g>
    <g
       transform="matrix(0.52977061,0,0,0.52977061,206.66229,36.452785)"
       id="g3715">
      <g
         id="g4830"
         transform="translate(-4,-4)">
        <g
           id="g4828">
          <path
             d="m 27.255,11.5 c 0.14,13.444 0.003,34.891 0,48.333 24.060301,25.369718 54.86601,-2.919299 72.153,2.335 L 99.363644,12.804263 C 81.833461,6.2324924 56.324277,35.707052 27.255,11.5 Z"
             id="path4826"
             inkscape:connector-curvature="0"
             sodipodi:nodetypes="ccccc" />
        </g>
      </g>
      <g
         id="g4834"
         transform="translate(-4)">
        <path
           d="M 12.349,100.154 V 0.268 h 10.117 v 99.886 z"
           id="path4832"
           inkscape:connector-curvature="0"
           sodipodi:nodetypes="ccccc" />
      </g>
    </g>
  </g>
</svg>
