<?xml version="1.0" encoding="UTF-8" standalone="no"?>
<!-- Created with Inkscape (http://www.inkscape.org/) -->

<svg
   xmlns:dc="http://purl.org/dc/elements/1.1/"
   xmlns:cc="http://creativecommons.org/ns#"
   xmlns:rdf="http://www.w3.org/1999/02/22-rdf-syntax-ns#"
   xmlns:svg="http://www.w3.org/2000/svg"
   xmlns="http://www.w3.org/2000/svg"
   xmlns:sodipodi="http://sodipodi.sourceforge.net/DTD/sodipodi-0.dtd"
   xmlns:inkscape="http://www.inkscape.org/namespaces/inkscape"
   width="1200"
   height="768"
   id="svg5993"
   version="1.1"
   inkscape:version="0.91 r13725"
   viewBox="0 0 1200 768"
   sodipodi:docname="Spec - Step 0.svg">
  <defs
     id="defs5995" />
  <sodipodi:namedview
     id="base"
     pagecolor="#ffffff"
     bordercolor="#666666"
     borderopacity="1.0"
     inkscape:pageopacity="0.0"
     inkscape:pageshadow="2"
     inkscape:zoom="0.70710678"
     inkscape:cx="646.89553"
     inkscape:cy="411.53468"
     inkscape:current-layer="layer1"
     inkscape:document-units="px"
     showgrid="false"
     inkscape:window-width="1912"
     inkscape:window-height="1002"
     inkscape:window-x="4"
     inkscape:window-y="27"
     inkscape:window-maximized="0" />
  <metadata
     id="metadata5998">
    <rdf:RDF>
      <cc:Work
         rdf:about="">
        <dc:format>image/svg+xml</dc:format>
        <dc:type
           rdf:resource="http://purl.org/dc/dcmitype/StillImage" />
        <dc:title />
      </cc:Work>
    </rdf:RDF>
  </metadata>
  <g
     id="layer1"
     inkscape:label="Layer 1"
     inkscape:groupmode="layer"
     transform="translate(0,168)">
    <g
       style="clip-rule:evenodd;fill-rule:evenodd;stroke-linecap:round;stroke-linejoin:round;stroke-miterlimit:1.41420996"
       id="g108"
       transform="translate(-151.33196,136.24877)" />
    <g
       style="clip-rule:evenodd;fill-rule:evenodd;stroke-linecap:round;stroke-linejoin:round;stroke-miterlimit:1.41420996"
       id="g26"
       transform="matrix(2.3878474,0,0,6.558752,-1077.8866,-4148.0749)">
      <rect
         id="rect28"
         style="fill:#000000"
         height="117.49"
         width="503.026"
         y="606.75098"
         x="450.71201" />
    </g>
    <g
       style="clip-rule:evenodd;fill-rule:evenodd;stroke-linecap:round;stroke-linejoin:round;stroke-miterlimit:1.41420996"
       id="g218"
       transform="matrix(1.3339279,0,0,1.3339279,-110.92284,-57.070076)">
      <text
         id="text220"
         style="font-style:normal;font-variant:normal;font-weight:normal;font-stretch:normal;font-size:20.68199921px;font-family:'Open Sans';-inkscape-font-specification:'Open Sans';fill:#ffffff"
         y="296.44901"
         x="291.616">
        <tspan
           style="font-style:normal;font-variant:normal;font-weight:normal;font-stretch:normal;font-size:20.1070385px;font-family:'Open Sans';-inkscape-font-specification:'Open Sans'"
           id="tspan5798">Text &amp; data mining tools for investigative journalism</tspan>
      </text>
    </g>
    <g
       style="clip-rule:evenodd;fill-rule:evenodd;stroke-linecap:round;stroke-linejoin:round;stroke-miterlimit:1.41420996"
       id="g224"
       transform="matrix(1.3339279,0,0,1.3339279,-404.49775,-92.727516)">
      <text
         id="text226"
         style="font-weight:700;font-size:41.36299896px;font-family:'League Spartan';fill:#ffffff"
         y="293.7713"
         x="381.3187">
        <tspan
           id="tspan228"
           y="293.7713"
           x="487.29071"
           style="font-size:40.214077px">TRANSPARENCY TOOLKIT</tspan>
      </text>
    </g>
    <g
       style="clip-rule:evenodd;fill-rule:evenodd;stroke-linecap:round;stroke-linejoin:round;stroke-miterlimit:1.41420996"
       id="g230"
       transform="matrix(1.4499219,0,0,1.4499219,459.75457,-41.694866)">
      <g
         id="g232"
         transform="matrix(0.542286,0.542286,0.581457,-0.581457,39.9194,132.015)">
        <path
           inkscape:connector-curvature="0"
           id="path234"
           style="fill:#ffffff;fill-rule:nonzero"
           d="m 90.814,82.588 c 3.964,3.967 2.968,11.617 -0.995,15.743 -4.123,3.965 -11.302,4.514 -15.266,0.389 L 21.927,44.017 C 17.638,39.891 14.347,39.161 10.856,40.271 7.365,41.541 0.965,42.51 -3.637,39.494 -13.472,33.15 -19.546,23.063 -19.546,23.063 l 11.105,-8.142 c 0,0 7.894,8.556 9.005,9.192 1.43,1.11 5.213,4.577 9.655,-2.246 4.602,-6.823 1.545,-10.59 0.275,-11.385 C 9.382,9.847 0.687,3.862 0.687,3.862 L 6.819,-7.689 c 0,0 16.856,9.688 17.807,10.482 6.191,5.553 5.43,14.156 4.319,19.233 -0.957,4.602 0,6.188 3.645,10.155 l 58.224,50.407 z m -4.486,4.637 -7.614,0 0,7.455 7.614,0.16 0,-7.615 z" />
      </g>
      <g
         id="g236"
         transform="matrix(0.772788,0.772788,-0.772788,0.772788,300.096,-526.284)">
        <g
           id="g238"
           transform="matrix(0.367474,0,0,0.367474,198.898,457.11)">
          <path
             inkscape:connector-curvature="0"
             id="path240"
             style="fill:#ffffff;fill-rule:nonzero"
             d="m 111.349,152.783 18.6,18.289 -32.603,45.747 -49.956,44.592 c -5.181,5.371 -20.962,-1.45 -20.962,-1.45 0,0 -7.38,-15.52 -2.187,-20.902 l 41.875,-53.469 45.233,-32.807 z" />
        </g>
        <g
           id="g242"
           transform="matrix(0.432589,0,0,0.432589,192.288,445.775)">
          <path
             inkscape:connector-curvature="0"
             id="path244"
             style="fill:#ffffff"
             d="m 122.986,139.793 c -6.434,-9.867 -10.176,-21.642 -10.176,-34.274 0,-34.694 28.211,-62.911 62.911,-62.911 34.688,0 62.911,28.217 62.911,62.911 0,34.687 -28.224,62.91 -62.911,62.91 -11.686,0 -22.636,-3.201 -32.02,-8.772 -0.362,0.464 -10.396,5.738 -10.396,5.738 l -16.734,-16.624 c 0,0 6.228,-8.817 6.415,-8.978 z m 52.735,-81.82 c -26.215,0 -47.557,21.331 -47.557,47.546 0,26.215 21.342,47.545 47.557,47.545 26.215,0 47.534,-21.33 47.534,-47.545 0,-26.215 -21.319,-47.546 -47.534,-47.546 z" />
        </g>
        <g
           id="g246"
           transform="matrix(-0.371436,-0.371436,0.371436,-0.371436,348.245,704.151)">
          <path
             inkscape:connector-curvature="0"
             id="path248"
             style="fill:#ffffff"
             d="m 426.091,181.084 c 0.037,-0.548 0.062,-1.108 0.062,-1.668 l -31.432,31.432 c 0.56,-0.013 1.12,-0.038 1.668,-0.062 l 29.702,-29.702 z m -0.498,3.857 c 0.124,-0.634 0.224,-1.269 0.311,-1.904 l -27.574,27.562 c 0.647,-0.087 1.282,-0.187 1.904,-0.311 l 25.359,-25.347 z m -1.244,4.592 c 0.273,-0.759 0.51,-1.531 0.721,-2.315 l -22.547,22.547 c 0.784,-0.211 1.556,-0.448 2.315,-0.721 l 19.511,-19.511 z m 1.791,-11.859 c -0.025,-0.51 -0.049,-1.008 -0.087,-1.505 l -31.829,31.817 0,1.593 31.916,-31.905 z m -4.977,18.416 c 0.734,-1.145 1.381,-2.339 1.966,-3.571 l -15.305,15.305 c 1.232,-0.585 2.426,-1.244 3.571,-1.966 l 9.768,-9.768 z m 4.704,-21.502 c -0.063,-0.46 -0.137,-0.92 -0.212,-1.381 l -31.431,31.419 0,1.593 31.643,-31.631 z m -0.511,-2.849 c -0.099,-0.423 -0.211,-0.859 -0.323,-1.282 l -30.809,30.81 0,1.592 31.132,-31.12 z m -0.734,-2.626 c -0.124,-0.398 -0.261,-0.796 -0.41,-1.194 l -29.988,29.988 0,1.593 30.398,-30.387 z m -0.908,-2.463 c -0.162,-0.374 -0.324,-0.747 -0.485,-1.108 l -29.005,29.005 0,1.593 29.49,-29.49 z m -1.058,-2.29 c -0.174,-0.348 -0.373,-0.697 -0.56,-1.045 l -27.872,27.873 0,1.592 28.432,-28.42 z m -1.207,-2.152 c -0.199,-0.324 -0.41,-0.66 -0.622,-0.971 l -26.603,26.591 0,1.593 27.225,-27.213 z m -1.356,-2.016 c -0.224,-0.311 -0.448,-0.61 -0.684,-0.909 l -25.185,25.185 0,1.593 25.869,-25.869 z m -1.468,-1.879 c -0.249,-0.286 -0.498,-0.573 -0.747,-0.859 l -23.642,23.642 0,1.605 24.389,-24.388 z m -1.605,-1.755 c -0.262,-0.273 -0.536,-0.535 -0.809,-0.796 l -21.987,21.987 0,1.593 22.796,-22.784 z m -1.73,-1.63 c -0.286,-0.249 -0.572,-0.497 -0.871,-0.734 l -20.195,20.195 0,1.593 21.066,-21.054 z m -1.854,-1.518 c -0.299,-0.224 -0.61,-0.448 -0.933,-0.672 l -18.279,18.292 0,1.592 19.212,-19.212 z m -1.979,-1.381 c -0.323,-0.211 -0.659,-0.411 -0.995,-0.61 l -16.238,16.251 0,1.593 17.233,-17.234 z m -2.115,-1.244 c -0.348,-0.187 -0.697,-0.374 -1.058,-0.548 l -14.06,14.061 0,1.605 15.118,-15.118 z m -2.252,-1.095 c -0.373,-0.162 -0.747,-0.324 -1.132,-0.473 l -11.734,11.734 0,1.593 12.866,-12.854 z m -2.414,-0.946 c -0.398,-0.137 -0.796,-0.274 -1.207,-0.386 l -9.245,9.246 0,1.58 10.452,-10.44 z m -2.588,-0.784 c -0.436,-0.112 -0.859,-0.211 -1.294,-0.299 l -6.558,6.558 0,1.605 7.852,-7.864 z m -2.788,-0.572 c -0.46,-0.075 -0.933,-0.137 -1.406,-0.187 l -3.67,3.671 0,1.593 5.076,-5.077 z m -3.023,-0.336 c -0.51,-0.038 -1.021,-0.05 -1.543,-0.062 l -0.51,0.51 0,1.605 2.053,-2.053 z" />
        </g>
      </g>
    </g>
  </g>
</svg>
