<?xml version="1.0" encoding="UTF-8" standalone="no"?>
<!-- Created with Inkscape (http://www.inkscape.org/) -->

<svg
   xmlns:dc="http://purl.org/dc/elements/1.1/"
   xmlns:cc="http://creativecommons.org/ns#"
   xmlns:rdf="http://www.w3.org/1999/02/22-rdf-syntax-ns#"
   xmlns:svg="http://www.w3.org/2000/svg"
   xmlns="http://www.w3.org/2000/svg"
   xmlns:sodipodi="http://sodipodi.sourceforge.net/DTD/sodipodi-0.dtd"
   xmlns:inkscape="http://www.inkscape.org/namespaces/inkscape"
   width="32"
   height="32"
   viewBox="0 0 8.4666665 8.466666"
   version="1.1"
   id="svg1142"
   inkscape:version="0.92.1 r15371"
   sodipodi:docname="favicon.svg"
   inkscape:export-filename="/home/user/designs/TransparencyToolkit/Themes/neondata/favicon.png"
   inkscape:export-xdpi="96"
   inkscape:export-ydpi="96">
  <defs
     id="defs1136" />
  <sodipodi:namedview
     id="base"
     pagecolor="#ffffff"
     bordercolor="#666666"
     borderopacity="1.0"
     inkscape:pageopacity="0.0"
     inkscape:pageshadow="2"
     inkscape:zoom="14.621429"
     inkscape:cx="14.805531"
     inkscape:cy="14.963504"
     inkscape:document-units="mm"
     inkscape:current-layer="layer1"
     showgrid="false"
     units="px"
     inkscape:window-width="1364"
     inkscape:window-height="743"
     inkscape:window-x="0"
     inkscape:window-y="23"
     inkscape:window-maximized="1"
     showguides="false" />
  <metadata
     id="metadata1139">
    <rdf:RDF>
      <cc:Work
         rdf:about="">
        <dc:format>image/svg+xml</dc:format>
        <dc:type
           rdf:resource="http://purl.org/dc/dcmitype/StillImage" />
        <dc:title />
      </cc:Work>
    </rdf:RDF>
  </metadata>
  <g
     inkscape:label="Layer 1"
     inkscape:groupmode="layer"
     id="layer1"
     transform="translate(0,-288.53334)">
    <rect
       style="opacity:1;fill:#c4114b;fill-opacity:1;stroke:none;stroke-width:0.79374999;stroke-miterlimit:4;stroke-dasharray:none;stroke-opacity:1"
       id="rect1207"
       width="8.477005"
       height="8.5183563"
       x="0.022490231"
       y="288.48682" />
    <path
       inkscape:connector-curvature="0"
       d="m 3.8198619,295.4329 1.7243851,-0.29176 c 0.055295,0.0737 0.1426048,0.12217 0.2418896,0.12217 0.1674088,0 0.3031378,-0.13573 0.3031378,-0.30321 0,-0.0408 -0.00835,-0.0797 -0.023032,-0.11523 l 0.9054487,-0.36701 c 0.065219,0.0732 0.1592089,0.12031 0.2650389,0.12031 0.1965148,0 0.3557936,-0.15907 0.3557936,-0.35579 0,-0.12263 -0.06211,-0.23064 -0.156631,-0.2948 l 0.2991699,-1.40412 c 0.1164817,-0.0238 0.2041222,-0.12672 0.2041222,-0.25028 0,-0.14116 -0.1143651,-0.25545 -0.2554497,-0.25545 -0.044705,0 -0.086252,0.0125 -0.1228306,0.0328 l -1.1511102,-1.11215 c 0.0023,-0.0158 0.00484,-0.0317 0.00484,-0.0482 0,-0.17653 -0.1431359,-0.31967 -0.3197408,-0.31967 -0.1182625,0 -0.220391,0.0649 -0.2756857,0.16047 L 4.3320218,290.1722 c 0.00186,-0.0148 0.00466,-0.0294 0.00466,-0.0448 0,-0.17654 -0.1431358,-0.31967 -0.3197413,-0.31967 -0.1333467,0 -0.2473809,0.0817 -0.2953338,0.19763 l -1.5498311,-0.0216 c -0.045216,-0.12183 -0.1614555,-0.20914 -0.2990349,-0.20914 -0.1766055,0 -0.3197415,0.14314 -0.3197415,0.31967 0,0.16153 0.1120764,0.26943 0.2678497,0.29093 l -1.12165876,2.14609 c -0.0992199,0.0466 -0.16834059,0.14671 -0.16834059,0.26359 0,0.0676 0.023727,0.12878 0.062245,0.17826 l 0.86095045,1.33391 c -0.076859,0.044 -0.1292446,0.12587 -0.1292446,0.22078 0,0.14109 0.1143651,0.25546 0.2554499,0.25546 0.017714,0 0.034728,-0.002 0.051394,-0.005 l 1.6134559,0.65126 c 0.021303,0.14028 0.1414205,0.24803 0.2877308,0.24803 0.1450518,2.1e-4 0.2645073,-0.10589 0.2871947,-0.24453 z m 1.5057102,-2.30756 -1.4686,0.50773 c -0.037106,-0.0306 -0.079707,-0.0537 -0.1268673,-0.0677 l 0.2693413,-1.47184 c 0.029414,-0.012 0.056022,-0.0291 0.080299,-0.0489 l 1.2093832,0.75193 c -0.013377,0.0395 -0.020977,0.0816 -0.020977,0.12554 0,0.0744 0.021257,0.14399 0.057411,0.20319 z m 0.1314305,0.13123 c 0.035519,0.0215 0.074939,0.0369 0.1166123,0.0462 l 0.1166118,1.37109 c -0.037154,0.0125 -0.070776,0.0317 -0.099942,0.0564 l -1.6029442,-0.78558 c -0.00956,-0.005 0.00326,-0.0208 0.00326,-0.0317 0,-0.0471 -0.00965,-0.0916 -0.025871,-0.13281 z m 1.4891057,0.7817 c -0.04074,0.0579 -0.065153,0.12818 -0.065153,0.20424 0,0.0247 0.0023,0.0489 0.00732,0.0723 l -0.9402418,0.3899 c -0.028108,-0.0178 -0.059262,-0.0312 -0.092536,-0.0389 l -0.1165468,-1.36142 c 0.053846,-0.0113 0.1039798,-0.0327 0.1473035,-0.0637 z m 0.6089221,-1.52556 -0.2932172,1.3766 c -0.00848,-4.5e-4 -0.016547,-0.003 -0.025078,-0.003 -0.053775,0 -0.1043103,0.0127 -0.1500117,0.0342 l -1.081528,-0.81564 c 0.023963,-0.045 0.039295,-0.0952 0.04391,-0.14876 0.0028,-0.0179 0.0042,-0.036 0.0042,-0.0547 0,-0.0121 -0.0023,-0.0234 -0.0037,-0.0351 l 1.4211091,-0.43244 c 0.021488,0.0324 0.050535,0.0588 0.08407,0.0785 z m -0.1146265,-0.29309 c -0.0033,0.0115 -0.00634,0.0231 -0.0082,0.0351 l -1.4434648,0.44006 c -0.047622,-0.0689 -0.118794,-0.11899 -0.2012789,-0.14228 -0.00569,-0.002 -0.011326,-0.005 -0.017107,-0.005 v 0 l 0.3766957,-1.32229 c 0.07388,-0.0121 0.1385723,-0.0495 0.1861289,-0.10312 z m -1.474557,-1.01736 -0.3737118,1.33466 c -0.085395,0.0148 -0.1611296,0.0573 -0.2179483,0.11787 L 4.177175,291.91053 c 0.013378,-0.0351 0.021583,-0.073 0.021583,-0.11298 0,-0.008 -0.00186,-0.0157 -0.00233,-0.0237 l 1.6469907,-0.66859 c 0.032354,0.0416 0.073819,0.0754 0.1224994,0.097 z m -0.1904917,-0.29097 c 0,0.0145 0.0023,0.0282 0.0042,0.0421 l -1.6364184,0.66429 c -0.041488,-0.0607 -0.1037835,-0.10511 -0.1761439,-0.12595 l 0.1082773,-1.05043 c 0.077787,-0.0144 0.1447254,-0.0573 0.1916201,-0.11688 z m -3.6288074,-0.65423 c 0.016408,-0.0276 0.029087,-0.0576 0.036732,-0.0898 l 1.5199275,0.02 c 0.021304,0.11251 0.1015973,0.20306 0.2074972,0.2405 l -0.1092701,1.06096 c -0.037898,0.009 -0.073288,0.0251 -0.1045108,0.0469 z m -1.25000839,2.25188 1.11335199,-2.12693 c 0.00587,-0.003 0.01142,-0.006 0.017107,-0.009 l 1.5635219,1.28941 c -0.019438,0.0413 -0.031139,0.0868 -0.031139,0.1354 0,0.0289 0.00509,0.0564 0.012306,0.0831 l -2.59228159,0.66879 c -0.0298805,-0.0191 -0.0998865,-0.008 -0.0828721,-0.0405 z m 0.19234269,0.40494 c 0.016269,-0.0363 0.025778,-0.0764 0.025778,-0.11886 0,-0.0369 -0.00741,-0.0716 -0.019998,-0.10405 l 2.5741578,-0.65423 c 0.041068,0.0362 0.090685,0.0629 0.1465108,0.0741 l -0.2676864,1.44624 c -0.042746,0.009 -0.08255,0.0262 -0.1182016,0.0491 z m 0.565351,1.37088 -0.80615456,-1.20784 c 0.0231677,0.005 0.0468993,0.01 0.0718337,0.01 0.0520549,8e-5 -0.0014,-0.0523 0.0452165,-0.0386 l 2.34073326,0.69242 c -0.027923,0.0516 -0.045263,0.10966 -0.045263,0.17237 0,0.005 0.0014,0.008 0.0014,0.0126 l -1.458876,0.47953 c -0.031838,-0.0575 -0.084732,-0.101 -0.1488275,-0.12045 z m 0.1488277,0.36591 c 0.011047,-0.0202 0.020044,-0.0415 0.025405,-0.0645 l 1.4859313,-0.48488 c 0.05027,0.0827 0.1314961,0.14399 0.2285298,0.16661 l -0.1248162,0.84928 c -0.060254,0.0258 -0.1089392,0.0718 -0.1403577,0.12879 z m 1.7970069,0.45164 0.1252777,-0.83976 c 0.012586,-0.0844 0.152594,-0.0734 0.199885,-0.14194 l 1.568085,0.76502 c 0.033799,-0.0964 -0.010301,0.0485 -0.010301,0.0745 0,0.003 4.968e-4,0.005 4.968e-4,0.007 l -1.6925521,0.28553 c -0.038551,-0.0746 -0.1074196,-0.13043 -0.1910236,-0.15027 z"
       id="path6574"
       sodipodi:nodetypes="ccssccssccssccssccssccssccsccssccccccccccsccccccsccccccccccccscccsccccccccccccccccscccccccccccccccccccscsccccscccccccccccsccccccccccccccsccccccc"
       style="clip-rule:evenodd;fill:#ffffff;fill-opacity:1;fill-rule:evenodd;stroke-width:0.06614429;stroke-linejoin:round;stroke-miterlimit:1.41420996"
       inkscape:export-xdpi="96"
       inkscape:export-ydpi="96" />
  </g>
</svg>
