<?xml version="1.0" encoding="UTF-8" standalone="no"?>
<!-- Created with Inkscape (http://www.inkscape.org/) -->

<svg
   xmlns:dc="http://purl.org/dc/elements/1.1/"
   xmlns:cc="http://creativecommons.org/ns#"
   xmlns:rdf="http://www.w3.org/1999/02/22-rdf-syntax-ns#"
   xmlns:svg="http://www.w3.org/2000/svg"
   xmlns="http://www.w3.org/2000/svg"
   xmlns:sodipodi="http://sodipodi.sourceforge.net/DTD/sodipodi-0.dtd"
   xmlns:inkscape="http://www.inkscape.org/namespaces/inkscape"
   width="64"
   height="50"
   viewBox="0 0 16.933333 13.229166"
   version="1.1"
   id="svg1142"
   inkscape:version="0.92.1 r15371"
   sodipodi:docname="neondata-logo.svg">
  <defs
     id="defs1136" />
  <sodipodi:namedview
     id="base"
     pagecolor="#ffffff"
     bordercolor="#666666"
     borderopacity="1.0"
     inkscape:pageopacity="0.0"
     inkscape:pageshadow="2"
     inkscape:zoom="2.2621893"
     inkscape:cx="44.913309"
     inkscape:cy="1.2849509"
     inkscape:document-units="mm"
     inkscape:current-layer="layer1"
     showgrid="false"
     units="px"
     inkscape:window-width="1364"
     inkscape:window-height="743"
     inkscape:window-x="0"
     inkscape:window-y="23"
     inkscape:window-maximized="1" />
  <metadata
     id="metadata1139">
    <rdf:RDF>
      <cc:Work
         rdf:about="">
        <dc:format>image/svg+xml</dc:format>
        <dc:type
           rdf:resource="http://purl.org/dc/dcmitype/StillImage" />
        <dc:title></dc:title>
      </cc:Work>
    </rdf:RDF>
  </metadata>
  <g
     inkscape:label="Layer 1"
     inkscape:groupmode="layer"
     id="layer1"
     transform="translate(0,-283.77084)">
    <path
       inkscape:connector-curvature="0"
       d="m 7.5473841,296.47357 3.8182829,-0.64605 c 0.122439,0.1633 0.315768,0.27052 0.535613,0.27052 0.370691,0 0.671234,-0.30054 0.671234,-0.67139 0,-0.0904 -0.01847,-0.17649 -0.051,-0.25514 l 2.004923,-0.81267 c 0.144414,0.16213 0.352534,0.26642 0.586872,0.26642 0.43514,0 0.787829,-0.35225 0.787829,-0.78783 0,-0.27154 -0.137529,-0.51071 -0.346826,-0.65278 l 0.662448,-3.10911 c 0.257924,-0.0525 0.451985,-0.28061 0.451985,-0.55421 0,-0.31255 -0.253237,-0.56564 -0.565639,-0.56564 -0.09899,0 -0.190986,0.0279 -0.271982,0.0727 l -2.548888,-2.46262 c 0.0051,-0.035 0.01073,-0.0702 0.01073,-0.10677 0,-0.39091 -0.316944,-0.70786 -0.707998,-0.70786 -0.261867,0 -0.488009,0.14383 -0.610447,0.35533 l -3.293056,-1.28159 c 0.00413,-0.0327 0.010322,-0.0652 0.010322,-0.0992 0,-0.3909 -0.3169439,-0.70785 -0.7079991,-0.70785 -0.2952679,0 -0.5477723,0.18089 -0.6539536,0.43763 l -3.4317703,-0.0478 c -0.1001224,-0.26978 -0.357509,-0.46311 -0.6621492,-0.46311 -0.3910552,0 -0.7079992,0.31694 -0.7079992,0.70785 0,0.35766 0.2481693,0.5966 0.5930959,0.64419 l -2.48367384,4.75206 c -0.21970135,0.10327 -0.37275433,0.32487 -0.37275433,0.58366 0,0.14954 0.0525384,0.28517 0.1378282,0.39472 l 1.90639107,2.95367 c -0.1701873,0.0974 -0.2861847,0.27871 -0.2861847,0.48888 0,0.3124 0.2532372,0.56564 0.5656395,0.56564 0.039223,0 0.076898,-0.004 0.1137989,-0.0115 l 3.5726538,1.44207 c 0.047171,0.31064 0.3131455,0.54922 0.6371186,0.54922 0.3211863,4.5e-4 0.585695,-0.23449 0.6359316,-0.54146 z m 3.3340739,-5.1096 -3.2519013,1.12426 c -0.082163,-0.0678 -0.1764939,-0.11894 -0.2809205,-0.14999 l 0.5963988,-3.25907 c 0.065131,-0.0266 0.1240484,-0.0643 0.1778048,-0.1081 l 2.6779212,1.66498 c -0.02962,0.0875 -0.04645,0.1806 -0.04645,0.278 0,0.16491 0.04707,0.31883 0.127124,0.44992 z m 0.291025,0.29059 c 0.07865,0.0475 0.165935,0.0818 0.258213,0.10249 l 0.258212,3.03598 c -0.08227,0.0276 -0.156717,0.0702 -0.221301,0.12508 l -3.549378,-1.73949 c -0.021159,-0.0104 0.00723,-0.046 0.00723,-0.0702 0,-0.10413 -0.021367,-0.20284 -0.057286,-0.29408 z m 3.297307,1.73089 c -0.09021,0.12815 -0.144269,0.28385 -0.144269,0.45227 0,0.0546 0.0051,0.10824 0.01621,0.15994 l -2.081965,0.86336 c -0.06224,-0.0395 -0.131223,-0.069 -0.204901,-0.0863 l -0.258068,-3.01459 c 0.119229,-0.0249 0.230241,-0.0725 0.326172,-0.14105 z m 1.348328,-3.37801 -0.649267,3.04817 c -0.01878,-9.7e-4 -0.03664,-0.006 -0.05553,-0.006 -0.119074,0 -0.230973,0.0283 -0.332169,0.0759 l -2.394813,-1.80615 c 0.05306,-0.0997 0.08701,-0.21091 0.09723,-0.32941 0.0062,-0.0395 0.0093,-0.0798 0.0093,-0.12112 0,-0.0268 -0.0051,-0.0518 -0.0082,-0.0777 l 3.146743,-0.95772 c 0.04758,0.0717 0.111899,0.1302 0.186155,0.17385 z m -0.253816,-0.64898 c -0.0073,0.0254 -0.01404,0.0512 -0.01816,0.0777 l -3.196245,0.97442 c -0.105448,-0.15263 -0.263044,-0.26349 -0.445689,-0.31505 -0.01259,-0.004 -0.02508,-0.01 -0.03788,-0.0126 v 0 L 12.70044,287.155 c 0.163592,-0.0269 0.306839,-0.10971 0.412143,-0.22834 z m -3.265092,-2.25273 -0.827505,2.95531 c -0.189088,0.0328 -0.356787,0.1267 -0.4826,0.261 l -2.6505274,-1.648 c 0.029623,-0.0779 0.04779,-0.16168 0.04779,-0.25016 0,-0.018 -0.00413,-0.0349 -0.00516,-0.0524 l 3.6469094,-1.48044 c 0.07164,0.092 0.163457,0.16697 0.271249,0.21471 z m -0.421803,-0.64429 c 0,0.0319 0.0051,0.0625 0.0093,0.0931 l -3.6234995,1.47092 c -0.091865,-0.13447 -0.2298065,-0.23274 -0.3900332,-0.27888 l 0.2397569,-2.32596 c 0.1722413,-0.0319 0.3204636,-0.12684 0.4243019,-0.2588 z m -8.03522,-1.44866 c 0.036333,-0.0612 0.064408,-0.12757 0.081336,-0.1989 l 3.3655554,0.0441 c 0.047171,0.24914 0.2249655,0.44964 0.4594582,0.53254 l -0.2419554,2.34926 c -0.083917,0.021 -0.1622807,0.0556 -0.2314168,0.10384 z m -2.7678768,4.98631 2.4652803,-4.70964 c 0.013005,-0.006 0.025288,-0.0136 0.037881,-0.0205 l 3.4620857,2.85514 c -0.043043,0.0914 -0.06895,0.19216 -0.06895,0.29981 0,0.0641 0.011251,0.12493 0.02725,0.18395 l -5.7400545,1.48088 c -0.066164,-0.0423 -0.2211774,-0.0176 -0.1835026,-0.0896 z m 0.4259019,0.89664 c 0.036024,-0.0805 0.05708,-0.16917 0.05708,-0.26318 0,-0.0818 -0.016412,-0.15863 -0.044281,-0.23039 l 5.699923,-1.44867 c 0.090936,0.0801 0.2008022,0.13914 0.3244171,0.16405 l -0.5927345,3.2024 c -0.094652,0.0208 -0.1827904,0.0581 -0.2617322,0.10881 z m 1.2518491,3.03555 -1.78505726,-2.67452 c 0.0513,0.013 0.10384856,0.022 0.15906026,0.022 0.1152645,1.5e-4 -0.0031,-0.11584 0.1001224,-0.0854 l 5.1830543,1.53322 c -0.061829,0.11424 -0.1002255,0.24282 -0.1002255,0.38168 0,0.01 0.0031,0.0189 0.0031,0.028 l -3.2303696,1.06181 c -0.070499,-0.12743 -0.1876209,-0.22366 -0.3295469,-0.26672 z m 0.329547,0.81022 c 0.024463,-0.0447 0.044384,-0.0918 0.056254,-0.1428 l 3.2902779,-1.07367 c 0.1113112,0.18322 0.2911701,0.31885 0.5060306,0.36893 l -0.2763789,1.88054 c -0.1334207,0.057 -0.2412226,0.15891 -0.3107921,0.28516 z m 3.9790885,1.00005 0.2774008,-1.85945 c 0.027869,-0.1868 0.337887,-0.16271 0.4426026,-0.31431 l 3.4721899,1.69395 c 0.07484,-0.2134 -0.02281,0.1075 -0.02281,0.16506 0,0.005 0.0011,0.0104 0.0011,0.0153 l -3.7477958,0.63227 c -0.085362,-0.16521 -0.2378576,-0.28882 -0.4229807,-0.33276 z"
       id="path6574"
       sodipodi:nodetypes="ccssccssccssccssccssccssccsccssccccccccccsccccccsccccccccccccscccsccccccccccccccccscccccccccccccccccccscsccccscccccccccccsccccccccccccccsccccccc"
       style="clip-rule:evenodd;fill:#ffffff;fill-opacity:1;fill-rule:evenodd;stroke-width:0.14646241;stroke-linejoin:round;stroke-miterlimit:1.41420996" />
  </g>
</svg>
