<?xml version="1.0" standalone="no"?>
<!DOCTYPE svg PUBLIC "-//W3C//DTD SVG 1.1//EN" "http://www.w3.org/Graphics/SVG/1.1/DTD/svg11.dtd">
<svg width="100%" height="100%" viewBox="0 0 1050 800" version="1.1" xmlns="http://www.w3.org/2000/svg" xmlns:xlink="http://www.w3.org/1999/xlink" xml:space="preserve" style="fill-rule:evenodd;clip-rule:evenodd;stroke-linejoin:round;stroke-miterlimit:1.41421;">
    <g id="Layer1" transform="matrix(1,0,0,1,24,18)">
        <g transform="matrix(2.859,0,0,1,243.401,-17.957)">
            <rect x="0.711" y="65.562" width="273.266" height="735.86" style="fill:rgb(91,91,91);"/>
        </g>
        <g transform="matrix(1,0,0,1.83868,-28.0156,9.9905)">
            <rect x="299.027" y="96.727" width="729.238" height="110.145" style="fill:white;"/>
        </g>
        <g transform="matrix(1.19646,0,0,1.1356,-100.129,-28.4747)">
            <path d="M385.172,287.6C385.172,286.54 384.355,285.679 383.349,285.679L339.593,285.679C338.586,285.679 337.77,286.54 337.77,287.6L337.77,296.563C337.77,297.623 338.586,298.484 339.593,298.484L383.349,298.484C384.355,298.484 385.172,297.623 385.172,296.563L385.172,287.6Z" style="fill:rgb(255,219,117);"/>
        </g>
        <g transform="matrix(0.728224,0,0,1.1356,466.483,-58.0723)">
            <path d="M385.172,287.6C385.172,286.54 383.83,285.679 382.177,285.679L340.765,285.679C339.112,285.679 337.77,286.54 337.77,287.6L337.77,296.563C337.77,297.623 339.112,298.484 340.765,298.484L382.177,298.484C383.83,298.484 385.172,297.623 385.172,296.563L385.172,287.6Z" style="fill:rgb(255,219,117);"/>
        </g>
        <g transform="matrix(0.784398,0,0,1.1356,538.509,-58.0723)">
            <path d="M385.172,287.6C385.172,286.54 383.926,285.679 382.391,285.679L340.55,285.679C339.016,285.679 337.77,286.54 337.77,287.6L337.77,296.563C337.77,297.623 339.016,298.484 340.55,298.484L382.391,298.484C383.926,298.484 385.172,297.623 385.172,296.563L385.172,287.6Z" style="fill:rgb(255,219,117);"/>
        </g>
        <g transform="matrix(1,0,0,1,652.079,297.121)">
            <text x="0px" y="7.879px" style="font-family:Arial;font-size:11px;fill:black;">APST<tspan x="27.914px 35.25px " y="7.879px 7.879px ">AR</tspan>S, PINW<tspan x="84.955px 92.292px " y="7.879px 7.879px ">AL</tspan>E, INTERACTION, <tspan x="192.328px 199.047px " y="7.879px 7.879px ">TE</tspan>RRAIN</text>
        </g>
        <g transform="matrix(1,0,0,1,313.696,356.067)">
            <text x="0px" y="7.879px" style="font-family:Arial;font-size:11px;fill:black;">Iraq</text>
        </g>
        <g transform="matrix(1,0,0,1,391.044,356.067)">
            <text x="0px" y="7.879px" style="font-family:Arial;font-size:11px;fill:black;">GCHQ</text>
        </g>
        <g transform="matrix(1,0,0,1,-24,-18)">
        </g>
        <g transform="matrix(1,0,0,1,-24,-18)">
        </g>
        <g transform="matrix(0.442763,2.83957e-32,2.83957e-32,0.442763,636.005,253.783)">
            <g transform="matrix(1,0,0,1,-24,93)">
                <rect x="6" y="1" width="6" height="6" style="fill:black;"/>
            </g>
            <g transform="matrix(1,0,0,1,-24,93)">
                <rect x="15" y="1" width="6" height="6" style="fill:black;"/>
            </g>
            <g transform="matrix(1,0,0,1,-24,93)">
                <rect x="24" y="1" width="6" height="6" style="fill:black;"/>
            </g>
            <g transform="matrix(1,0,0,1,-24,93)">
                <rect x="6" y="10" width="6" height="6" style="fill:black;"/>
            </g>
            <g transform="matrix(1,0,0,1,-24,93)">
                <rect x="6" y="19" width="6" height="6" style="fill:black;"/>
            </g>
            <g transform="matrix(1,0,0,1,-24,93)">
                <rect x="15" y="10" width="6" height="6" style="fill:black;"/>
            </g>
            <g transform="matrix(1,0,0,1,-24,102.35)">
                <rect x="15" y="10" width="6" height="6" style="fill:black;"/>
            </g>
            <g transform="matrix(1.33566,0,0,1.33566,-42.5389,-436.812)">
                <g>
                    <path d="M46.931,424.354L45.931,425.851L44.821,427.851L34.661,427.851L32.706,425.851L32.706,425.724L32.663,425.755L28.32,419.722L30.838,417.91L32.706,420.504L32.706,417.616L32.706,404.139L35.7,404.139L35.7,417.616L36.449,417.616L36.449,410.877L39.444,410.877L39.444,417.616L40.192,417.616L40.192,412.375L43.187,412.375L43.187,417.616L43.936,417.616L43.936,413.872L46.931,413.872L46.931,424.354Z" style="fill:black;"/>
                </g>
            </g>
        </g>
        <g transform="matrix(1,0,0,1,285.946,256.621)">
            <g>
                <text x="0px" y="8.596px" style="font-family:Arial;font-size:12px;fill:rgb(85,85,85);">This NSA<tspan x="50.016px 53.35px " y="8.596px 8.596px "> d</tspan>ocument from 2008 describes what the </text>
                <text x="0px" y="22.596px" style="font-family:Arial;font-size:12px;fill:rgb(85,85,85);">agency perceives as the dangers and opportunities </text>
                <text x="0px" y="36.596px" style="font-family:Arial;font-size:12px;fill:rgb(85,85,85);">presented by games and online gaming networks: see </text>
                <text x="0px" y="50.596px" style="font-family:Arial;font-size:12px;fill:rgb(85,85,85);">the </text>
                <text x="20.016px" y="50.596px" style="font-family:Arial;font-size:12px;font-weight:700;fill:rgb(85,85,85);">Guardian </text>
                <text x="76.025px" y="50.596px" style="font-family:Arial;font-size:12px;fill:rgb(85,85,85);">article Spy agencies in covert push to </text>
                <text x="0px" y="64.596px" style="font-family:Arial;font-size:12px;fill:rgb(85,85,85);">inﬁltrate virtual world of online gaming, 9 December </text>
                <text x="0px" y="78.596px" style="font-family:Arial;font-size:12px;fill:rgb(85,85,85);">2013.</text>
            </g>
        </g>
        <g transform="matrix(1,0,0,1,653.946,254.926)">
            <g>
                <text x="0px" y="8.596px" style="font-family:Arial;font-size:12px;fill:rgb(85,85,85);">...etermine how targets are using the communications </text>
                <text x="0px" y="22.596px" style="font-family:Arial;font-size:12px;fill:rgb(85,85,85);">features of </text>
                <text x="60.035px" y="22.596px" style="font-family:Arial;font-size:12px;font-weight:700;fill:rgb(85,85,85);">GVEs</text>
                <text x="92.051px" y="22.596px" style="font-family:Arial;font-size:12px;fill:rgb(85,85,85);">. However<tspan x="145.406px 148.74px " y="22.596px 22.596px ">, </tspan></text>
                <text x="152.074px" y="22.596px" style="font-family:Arial;font-size:12px;font-weight:700;fill:rgb(85,85,85);">GVES</text>
                <text x="185.42px" y="22.596px" style="font-family:Arial;font-size:12px;fill:rgb(85,85,85);"> of<tspan x="198.545px 201.879px " y="22.596px 22.596px ">fe</tspan>r a opportunity<tspan x="284.373px 287.707px " y="22.596px 22.596px ">..</tspan>.</text>
            </g>
        </g>
        <g transform="matrix(1,0,0,1,372.723,521.406)">
            <rect x="33.883" y="182.017" width="218.375" height="34.918" style="fill:rgb(166,32,32);"/>
        </g>
        <g transform="matrix(1,0,0,1,372.723,521.406)">
            <rect x="33.883" y="182.017" width="218.375" height="34.918" style="fill:rgb(198,28,28);"/>
        </g>
        <g transform="matrix(1,0,0,1,606.961,522.348)">
            <rect x="33.883" y="182.017" width="218.375" height="34.918" style="fill:rgb(255,195,28);"/>
        </g>
        <g transform="matrix(1,0,0,1,372.723,470.406)">
            <rect x="33.883" y="182.017" width="218.375" height="34.918" style="fill:rgb(166,32,32);"/>
        </g>
        <g transform="matrix(1,0,0,1,372.723,470.406)">
            <rect x="33.883" y="182.017" width="218.375" height="34.918" style="fill:rgb(60,136,215);"/>
        </g>
        <g transform="matrix(1,0,0,1,606.961,471.348)">
            <rect x="33.883" y="182.017" width="218.375" height="34.918" style="fill:rgb(98,201,71);"/>
        </g>
        <g transform="matrix(1,0,0,1,-7.26407,-76.6531)">
            <text x="291.616px" y="296.449px" style="font-family:Source Sans Pro;font-size:24px;font-weight:700;fill:black;">Exploiting T<tspan x="416.464px " y="296.449px ">e</tspan>rr<tspan x="447.76px " y="296.449px ">o</tspan>rist U<tspan x="517.792px " y="296.449px ">s</tspan>e o<tspan x="559.048px " y="296.449px ">f</tspan> Games &amp; Virtual Envir<tspan x="802.24px " y="296.449px ">o</tspan>nments</text>
        </g>
        <g transform="matrix(1,0,0,1,-6.64297,-56.4071)">
            <text x="291.616px" y="296.449px" style="font-family:Helvetica;font-size:12px;font-weight:700;fill:rgb(156,156,156);">Published Jan 1, 2008 </text>
        </g>
        <g transform="matrix(0.221539,6.37157e-33,7.96446e-33,0.221539,620.802,248.372)">
            <g>
                <path d="M68.75,34.375L85.937,34.375L68.75,17.188L68.75,34.375ZM87.5,40.625L62.5,40.625L62.5,15.625L38.179,15.625L38.179,51.939L31.929,51.933L31.929,9.375L70.313,9.375L93.75,32.813L93.75,90.625L31.929,90.625L31.929,51.964L38.179,51.906L38.179,84.375L87.5,84.375L87.5,40.625Z" style="fill:black;fill-rule:nonzero;stroke-width:0.2px;stroke:black;"/>
            </g>
        </g>
        <g transform="matrix(0.241796,-9.24446e-33,-6.16298e-33,0.241796,281.151,350.32)">
            <path d="M55.823,7.025C35.267,7.025 18.6,23.689 18.6,44.246C18.6,64.804 35.267,81.468 55.823,81.468C76.379,81.468 93.045,64.804 93.045,44.246C93.045,23.688 76.379,7.025 55.823,7.025ZM71.567,55.692C71.567,56.277 71.361,57.189 71.11,57.717L68.392,63.45C68.14,63.978 67.586,64.736 67.158,65.138L58.309,73.401C57.883,73.799 58.012,74.128 58.596,74.128L59.61,74.128C60.194,74.128 60.673,74.547 60.673,75.058C60.673,75.573 60.194,75.993 59.61,75.993L55.26,75.993C54.675,75.993 54.197,75.514 54.197,74.928L54.197,63.612C54.197,63.024 54.675,62.548 55.26,62.548L56.469,62.548C57.055,62.548 57.533,62.069 57.533,61.484L57.533,60.275C57.533,59.689 57.054,59.21 56.469,59.21L55.26,59.21C54.675,59.21 54.197,58.733 54.197,58.148L54.197,51.518C54.197,50.933 53.718,50.455 53.132,50.455L51.333,50.455C50.75,50.455 49.879,50.179 49.403,49.84L43.68,45.792C43.202,45.455 42.568,44.766 42.271,44.261L39.593,39.715C39.296,39.211 38.574,38.798 37.989,38.798L36.711,38.798C36.126,38.798 35.44,38.366 35.186,37.84L32.084,31.414C31.834,30.888 31.623,29.979 31.623,29.392L31.623,25.729C31.623,25.144 31.166,24.805 30.607,24.977L29.359,25.361C34.759,17.813 43.301,12.67 53.06,11.844L53.06,16.262C53.06,16.846 53.451,17.6 53.929,17.935L55.922,19.336C56.401,19.671 57.27,19.947 57.856,19.947L59.432,19.947C60.017,19.947 60.495,20.333 60.495,20.806C60.495,21.277 60.165,22.01 59.763,22.436L57.492,24.83C57.088,25.253 57.239,25.601 57.823,25.603L59.339,25.607C59.922,25.608 60.4,26.087 60.4,26.673L60.397,30.494C60.395,31.078 60.873,31.557 61.458,31.557L63.168,31.557C63.753,31.557 64.232,31.92 64.232,32.365C64.232,32.809 63.753,33.172 63.168,33.172L57.925,33.172C57.341,33.172 56.482,33.463 56.018,33.817L53.869,35.455C53.404,35.809 53.023,36.578 53.024,37.163L53.025,43.518C53.025,44.103 52.548,44.582 51.962,44.582L51.665,44.582C51.081,44.582 50.602,44.103 50.602,43.518L50.602,39.86C50.602,39.275 50.125,38.797 49.539,38.797L46.671,38.797C46.088,38.797 45.608,39.275 45.604,39.86L45.589,42.813C45.585,43.398 45.958,44.175 46.415,44.543L50.649,47.939C51.103,48.306 51.956,48.606 52.54,48.607L59.611,48.611C60.195,48.612 61.099,48.834 61.617,49.105L70.626,53.812C71.144,54.083 71.568,54.783 71.568,55.369L71.568,55.692L71.567,55.692ZM68.835,23.828C68.363,24.175 67.499,24.459 66.914,24.459L66.456,24.459C65.872,24.459 65.393,23.98 65.393,23.395L65.393,19.938C65.393,19.353 64.916,18.875 64.33,18.875L62.79,18.875C62.205,18.875 61.727,18.396 61.727,17.812L61.727,12.269C66.817,13.208 71.5,15.322 75.467,18.338C75.33,18.793 68.835,23.828 68.835,23.828Z" style="fill:black;fill-rule:nonzero;"/>
        </g>
        <g transform="matrix(0.715898,5.64756e-32,5.53246e-32,0.715898,344.292,248.415)">
            <path d="M51.641,164.813L51.641,163.65L50.331,163.65L50.331,152.804L46.933,152.804L46.933,163.65L44.215,163.65L44.215,152.804L40.818,152.804L40.818,163.65L38.1,163.65L38.1,152.804L34.702,152.804L34.702,163.65L31.984,163.65L31.984,152.804L28.586,152.804L28.583,163.65L27.268,163.65L27.268,164.813L26.208,164.813L26.208,167.302L52.701,167.302L52.701,164.813L51.641,164.813ZM52.026,150.061L26.884,150.061L26.884,152.04L52.026,152.04L52.026,150.061ZM39.454,142.159L26.884,149.266L52.026,149.266L39.454,142.159Z" style="fill:black;"/>
        </g>
        <g transform="matrix(0.21676,0,0,1,805.644,115.352)">
            <rect x="477.418" y="30.414" width="276.75" height="30.512" style="fill:rgb(229,229,229);"/>
        </g>
        <g transform="matrix(-1,3.21625e-16,-1.98764e-16,-0.618,1564.86,181.702)">
            <path d="M612.574,27.089L617.945,37.831L607.203,37.831L612.574,27.089Z" style="fill:black;"/>
        </g>
        <g transform="matrix(1,0,0,1,430.16,129.676)">
            <text x="424.758px" y="36.231px" style="font-family:Arial;font-size:14px;font-weight:700;fill:white;">Show</text>
        </g>
        <g transform="matrix(1,0,0,1,496.16,129.676)">
            <text x="424.758px" y="36.231px" style="font-family:Arial;font-size:14px;font-weight:700;fill:black;">10</text>
        </g>
        <g transform="matrix(1,0,0,1,266.654,324.448)">
            <text x="291.616px" y="296.449px" style="font-family:Source Sans Pro;font-size:13px;font-weight:700;fill:rgb(207,207,207);">MISC S<tspan x="329.797px 336.778px " y="296.449px 296.449px ">TY</tspan>LEGUIDE THINGS</text>
        </g>
    </g>
    <g id="Filter">
        <g transform="matrix(0.845884,0,0,0.964583,40.9426,23.3124)">
            <rect x="299.068" y="93.523" width="105.094" height="36.176" style="fill:white;"/>
        </g>
        <g transform="matrix(1,0,0,1,14.0055,-160.001)">
            <text x="291.616px" y="296.449px" style="font-family:Source Sans Pro;font-size:16px;font-weight:700;fill:black;">GCHQ</text>
        </g>
        <g transform="matrix(1.71713,0,0,1.17238,-724.042,-154.45)">
            <rect x="899.73" y="225.954" width="115.238" height="30.207" style="fill:rgb(51,51,51);"/>
        </g>
        <g transform="matrix(1,0,0,1,565.56,-162.778)">
            <text x="291.616px" y="296.449px" style="font-family:Source Sans Pro;font-size:16px;font-weight:700;fill:white;">Sho<tspan x="318.368px " y="296.449px ">w</tspan> / Hide Columns</text>
        </g>
        <g transform="matrix(1,0,0,1,6.85703,-108.841)">
            <text x="291.616px" y="296.449px" style="font-family:League Spartan;font-size:18px;font-weight:700;fill:white;">109 RESUL<tspan x="387.502px " y="296.449px ">T</tspan>S</text>
        </g>
        <g transform="matrix(1,0,0,1,5.34921,-197.864)">
            <text x="291.616px" y="296.449px" style="font-family:Source Sans Pro;font-size:13px;font-weight:700;fill:rgb(160,160,160);">FIL<tspan x="307.463px " y="296.449px ">T</tspan>ERED B<tspan x="355.433px " y="296.449px ">Y</tspan></text>
        </g>
        <g transform="matrix(1,0,0,1,136.375,-125.859)">
            <text x="227.251px" y="263.191px" style="font-family:Source Sans Pro;font-size:18px;font-weight:700;fill:rgb(165,165,165);">X</text>
        </g>
        <g transform="matrix(1,0,0,0.542498,-7,48.22)">
            <path d="M362.86,141.068L362.86,166.054" style="fill:rgb(213,206,206);stroke-width:1.24px;stroke-linecap:round;stroke:rgb(162,162,162);"/>
        </g>
        <g transform="matrix(1.78169,0,0,0.964583,-127.08,23.3124)">
            <rect x="299.068" y="93.523" width="105.094" height="36.176" style="fill:white;"/>
        </g>
        <g transform="matrix(1,0,0,1,120.853,-160.001)">
            <text x="291.616px" y="296.449px" style="font-family:Source Sans Pro;font-size:16px;font-weight:700;fill:black;"> Int<tspan x="314.864px " y="296.449px ">e</tspan>rnal Pr<tspan x="371.008px 379.888px 386.912px " y="296.449px 296.449px 296.449px ">oce</tspan>dur<tspan x="419.664px " y="296.449px ">e</tspan>s</text>
        </g>
        <g transform="matrix(1,0,0,1,344.223,-124.859)">
            <text x="227.251px" y="263.191px" style="font-family:Source Sans Pro;font-size:18px;font-weight:700;fill:rgb(165,165,165);">X</text>
        </g>
        <g transform="matrix(1,0,0,0.542498,200.848,49.22)">
            <path d="M362.86,141.068L362.86,166.054" style="fill:rgb(213,206,206);stroke-width:1.24px;stroke-linecap:round;stroke:rgb(162,162,162);"/>
        </g>
        <g transform="matrix(0.851803,0,0,0.851803,207.955,-157.221)">
            <path d="M750.731,336.504L748.245,336.504C747.752,336.504 747.352,336.904 747.352,337.396L747.352,344.792C747.352,345.284 747.752,345.683 748.245,345.683L750.731,345.683C751.224,345.683 751.624,345.284 751.624,344.792L751.624,337.396C751.624,336.904 751.224,336.504 750.731,336.504ZM743.724,336.504L741.237,336.504C740.744,336.504 740.345,336.904 740.345,337.396L740.345,344.792C740.345,345.284 740.744,345.683 741.237,345.683L743.724,345.683C744.217,345.683 744.616,345.284 744.616,344.792L744.616,337.396C744.616,336.904 744.217,336.504 743.724,336.504ZM736.717,336.504L734.229,336.504C733.736,336.504 733.337,336.904 733.337,337.396L733.337,344.792C733.337,345.284 733.736,345.683 734.229,345.683L736.717,345.683C737.209,345.683 737.609,345.284 737.609,344.792L737.609,337.396C737.609,336.904 737.209,336.504 736.717,336.504ZM737.609,326.67C737.609,326.178 737.209,325.778 736.717,325.778L734.229,325.778C733.736,325.778 733.337,326.178 733.337,326.67L733.337,333.957C733.337,334.449 733.736,334.848 734.229,334.848L736.717,334.848C737.209,334.848 737.609,334.449 737.609,333.957L737.609,326.67ZM743.724,325.778L741.237,325.778C740.744,325.778 740.345,326.178 740.345,326.67L740.345,333.957C740.345,334.449 740.744,334.848 741.237,334.848L743.724,334.848C744.217,334.848 744.616,334.449 744.616,333.957L744.616,326.67C744.616,326.178 744.217,325.778 743.724,325.778ZM750.731,325.778L748.245,325.778C747.752,325.778 747.352,326.178 747.352,326.67L747.352,333.957C747.352,334.449 747.752,334.848 748.245,334.848L750.731,334.848C751.224,334.848 751.624,334.449 751.624,333.957L751.624,326.67C751.624,326.178 751.224,325.778 750.731,325.778Z" style="fill:white;"/>
        </g>
    </g>
    <g id="Sidebar">
        <g transform="matrix(1,0,0,1,-3.04688,0.0429688)">
            <rect x="0.711" y="65.562" width="273.266" height="735.86" style="fill:white;"/>
        </g>
        <g transform="matrix(1,0,0,1,0,-25)">
            <path d="M40.433,398.656L39.645,399.837L38.77,401.414L30.758,401.414L29.216,399.837L29.216,399.737L29.182,399.761L25.758,395.004L27.744,393.575L29.216,395.621L29.216,393.343L29.216,382.717L31.578,382.717L31.578,393.343L32.168,393.343L32.168,388.03L34.53,388.03L34.53,393.343L35.12,393.343L35.12,389.211L37.481,389.211L37.481,393.343L38.072,393.343L38.072,390.391L40.433,390.391L40.433,398.656ZM26.77,388.247L23.227,388.247L23.227,391.789L26.77,391.789L26.77,388.247ZM21.456,388.04L17.914,388.04L17.914,391.582L21.456,391.582L21.456,388.04ZM26.77,382.727L23.227,382.727L23.227,386.269L26.77,386.269L26.77,382.727ZM21.456,382.727L17.914,382.727L17.914,386.269L21.456,386.269L21.456,382.727ZM26.77,377.414L23.227,377.414L23.227,380.956L26.77,380.956L26.77,377.414ZM21.456,377.414L17.914,377.414L17.914,380.956L21.456,380.956L21.456,377.414ZM32.083,377.414L28.541,377.414L28.541,380.956L32.083,380.956L32.083,377.414Z" style="fill:black;"/>
        </g>
        <g transform="matrix(1.02286,0,0,0.938102,-6.91594,-13.9737)">
            <rect x="19.391" y="242.761" width="239.398" height="33.637" style="fill:rgb(207,207,207);"/>
        </g>
        <g transform="matrix(1,0,0,1,9,-27)">
            <text x="227.251px" y="263.191px" style="font-family:Source Sans Pro;font-size:18px;font-weight:700;fill:rgb(143,143,143);">X</text>
        </g>
        <g transform="matrix(1,0,0,1,-273.702,-194.602)">
            <text x="291.616px" y="296.449px" style="font-family:Source Sans Pro;font-size:13px;font-weight:700;fill:rgb(207,207,207);">SELEC<tspan x="327.106px " y="296.449px ">T</tspan> FIL<tspan x="352.872px " y="296.449px ">T</tspan>ER CA<tspan x="392.327px " y="296.449px ">T</tspan>EGORIES</text>
        </g>
        <g transform="matrix(1,0,0,1,-233.358,-155.923)">
            <text x="291.616px" y="296.449px" style="font-family:Source Sans Pro;font-size:21px;font-weight:700;fill:black;">Ag<tspan x="314.443px " y="296.449px ">e</tspan>ncies</text>
        </g>
        <g transform="matrix(1,0,0,1,-233.358,-121.938)">
            <text x="291.616px" y="296.449px" style="font-family:Helvetica;font-size:14px;fill:black;">NSA </text>
            <text x="324.292px" y="296.449px" style="font-family:Helvetica;font-size:14px;fill:rgb(172,172,172);">(6)</text>
            <text x="341.402px" y="296.449px" style="font-family:Helvetica;font-size:14px;fill:black;"> </text>
            <text x="291.616px" y="326.449px" style="font-family:Helvetica;font-size:14px;fill:black;">BND </text>
            <text x="291.616px" y="356.449px" style="font-family:Helvetica;font-size:14px;fill:black;">GCHQ </text>
            <text x="291.616px" y="386.449px" style="font-family:Helvetica;font-size:14px;fill:black;">CSE </text>
            <text x="291.616px" y="416.449px" style="font-family:Helvetica;font-size:14px;fill:black;">GCSB </text>
            <text x="291.616px" y="446.449px" style="font-family:Helvetica;font-size:14px;fill:black;">AIVD</text>
        </g>
        <g transform="matrix(1,0,0,1,-233.358,72.6515)">
            <text x="291.616px" y="296.449px" style="font-family:Source Sans Pro;font-size:21px;font-weight:700;fill:black;">Code<tspan x="338.236px 354.364px 366.019px 374.167px " y="296.449px 296.449px 296.449px 296.449px ">word</tspan>s</text>
        </g>
        <g transform="matrix(1,0,0,1,-233.358,125.632)">
            <text x="291.616px" y="296.449px" style="font-family:Source Sans Pro;font-size:21px;font-weight:700;fill:black;">Document T<tspan x="401.677px " y="296.449px ">o</tspan>pic</text>
        </g>
        <g transform="matrix(0.790079,0,0,0.790079,-8.94771,67.7808)">
            <path d="M64.052,508.656L49.97,494.574C49.538,494.142 48.837,494.142 48.405,494.574L34.323,508.656C33.891,509.088 33.891,509.789 34.323,510.22L48.405,524.302C48.837,524.735 49.538,524.735 49.97,524.302L64.052,510.22C64.484,509.788 64.484,509.088 64.052,508.656ZM57.677,509.02C57.677,509.027 57.676,509.034 57.676,509.041C57.676,509.044 57.675,509.048 57.675,509.051C57.674,509.056 57.685,509.062 57.684,509.066C57.683,509.072 57.693,509.078 57.693,509.084C57.693,509.085 57.693,509.085 57.693,509.086C57.693,509.218 57.598,509.34 57.504,509.435C57.326,509.646 57.125,509.845 56.929,510.039C55.871,511.089 54.655,512.025 53.325,512.705C52.476,513.139 51.567,513.489 50.625,513.657C49.59,513.842 48.553,513.833 47.523,513.614C45.742,513.236 44.128,512.295 42.717,511.17C42.061,510.648 41.416,510.077 40.875,509.435C40.638,509.154 40.638,508.822 40.875,508.541C41.052,508.33 41.248,508.132 41.443,507.938C42.501,506.887 43.715,505.951 45.045,505.272C45.894,504.838 46.801,504.487 47.743,504.319C48.778,504.134 49.814,504.143 50.844,504.362C52.625,504.74 54.24,505.681 55.651,506.806C56.306,507.327 56.962,507.899 57.504,508.54C57.598,508.636 57.693,508.759 57.693,508.89C57.693,508.891 57.693,508.892 57.693,508.893C57.693,508.898 57.683,508.904 57.684,508.91C57.685,508.915 57.68,508.92 57.68,508.925C57.681,508.929 57.678,508.932 57.679,508.936C57.679,508.943 57.678,508.95 57.678,508.957C57.679,508.967 57.679,508.978 57.679,508.988C57.679,508.999 57.678,509.009 57.677,509.02ZM49.188,505.721C47.383,505.721 45.921,507.184 45.921,508.988C45.921,510.793 47.383,512.256 49.188,512.256C50.992,512.256 52.455,510.793 52.455,508.988C52.455,507.184 50.992,505.721 49.188,505.721ZM49.188,509.989C48.59,509.989 48.107,509.505 48.107,508.908C48.107,508.311 48.59,507.826 49.188,507.826C49.785,507.826 50.269,508.311 50.269,508.908C50.269,509.506 49.785,509.989 49.188,509.989Z" style="fill:black;"/>
        </g>
        <g transform="matrix(0.95453,2.61926e-32,2.61926e-32,0.95453,-7.10237,-14.5361)">
            <path d="M51.641,164.813L51.641,163.65L50.331,163.65L50.331,152.804L46.933,152.804L46.933,163.65L44.215,163.65L44.215,152.804L40.818,152.804L40.818,163.65L38.1,163.65L38.1,152.804L34.702,152.804L34.702,163.65L31.984,163.65L31.984,152.804L28.586,152.804L28.583,163.65L27.268,163.65L27.268,164.813L26.208,164.813L26.208,167.302L52.701,167.302L52.701,164.813L51.641,164.813ZM52.026,150.061L26.884,150.061L26.884,152.04L52.026,152.04L52.026,150.061ZM39.454,142.159L26.884,149.266L52.026,149.266L39.454,142.159Z" style="fill:black;"/>
        </g>
        <g transform="matrix(1,0,0,1,-233.358,181.046)">
            <text x="291.616px" y="296.449px" style="font-family:Source Sans Pro;font-size:21px;font-weight:700;fill:black;">Classific<tspan x="367.972px " y="296.449px ">a</tspan>tion</text>
        </g>
        <g transform="matrix(1,0,0,1,-233.358,243.683)">
            <text x="291.616px" y="296.449px" style="font-family:Source Sans Pro;font-size:21px;font-weight:700;fill:black;">Countries Mentioned</text>
        </g>
        <g transform="matrix(1,0,0,1,-233.358,297.508)">
            <text x="291.616px" y="296.449px" style="font-family:Source Sans Pro;font-size:21px;font-weight:700;fill:black;">Countries Shar<tspan x="429.124px " y="296.449px ">e</tspan>d With</text>
        </g>
        <g transform="matrix(1,0,0,1,-232.358,350.508)">
            <text x="291.616px" y="296.449px" style="font-family:Source Sans Pro;font-size:21px;font-weight:700;fill:black;">Generic  It<tspan x="385.57px " y="296.449px ">e</tspan>m</text>
        </g>
        <g transform="matrix(0.322394,9.24446e-33,7.70372e-33,0.322394,11.9177,518.879)">
            <path d="M55.823,7.025C35.267,7.025 18.6,23.689 18.6,44.246C18.6,64.804 35.267,81.468 55.823,81.468C76.379,81.468 93.045,64.804 93.045,44.246C93.045,23.688 76.379,7.025 55.823,7.025ZM71.567,55.692C71.567,56.277 71.361,57.189 71.11,57.717L68.392,63.45C68.14,63.978 67.586,64.736 67.158,65.138L58.309,73.401C57.883,73.799 58.012,74.128 58.596,74.128L59.61,74.128C60.194,74.128 60.673,74.547 60.673,75.058C60.673,75.573 60.194,75.993 59.61,75.993L55.26,75.993C54.675,75.993 54.197,75.514 54.197,74.928L54.197,63.612C54.197,63.024 54.675,62.548 55.26,62.548L56.469,62.548C57.055,62.548 57.533,62.069 57.533,61.484L57.533,60.275C57.533,59.689 57.054,59.21 56.469,59.21L55.26,59.21C54.675,59.21 54.197,58.733 54.197,58.148L54.197,51.518C54.197,50.933 53.718,50.455 53.132,50.455L51.333,50.455C50.75,50.455 49.879,50.179 49.403,49.84L43.68,45.792C43.202,45.455 42.568,44.766 42.271,44.261L39.593,39.715C39.296,39.211 38.574,38.798 37.989,38.798L36.711,38.798C36.126,38.798 35.44,38.366 35.186,37.84L32.084,31.414C31.834,30.888 31.623,29.979 31.623,29.392L31.623,25.729C31.623,25.144 31.166,24.805 30.607,24.977L29.359,25.361C34.759,17.813 43.301,12.67 53.06,11.844L53.06,16.262C53.06,16.846 53.451,17.6 53.929,17.935L55.922,19.336C56.401,19.671 57.27,19.947 57.856,19.947L59.432,19.947C60.017,19.947 60.495,20.333 60.495,20.806C60.495,21.277 60.165,22.01 59.763,22.436L57.492,24.83C57.088,25.253 57.239,25.601 57.823,25.603L59.339,25.607C59.922,25.608 60.4,26.087 60.4,26.673L60.397,30.494C60.395,31.078 60.873,31.557 61.458,31.557L63.168,31.557C63.753,31.557 64.232,31.92 64.232,32.365C64.232,32.809 63.753,33.172 63.168,33.172L57.925,33.172C57.341,33.172 56.482,33.463 56.018,33.817L53.869,35.455C53.404,35.809 53.023,36.578 53.024,37.163L53.025,43.518C53.025,44.103 52.548,44.582 51.962,44.582L51.665,44.582C51.081,44.582 50.602,44.103 50.602,43.518L50.602,39.86C50.602,39.275 50.125,38.797 49.539,38.797L46.671,38.797C46.088,38.797 45.608,39.275 45.604,39.86L45.589,42.813C45.585,43.398 45.958,44.175 46.415,44.543L50.649,47.939C51.103,48.306 51.956,48.606 52.54,48.607L59.611,48.611C60.195,48.612 61.099,48.834 61.617,49.105L70.626,53.812C71.144,54.083 71.568,54.783 71.568,55.369L71.568,55.692L71.567,55.692ZM68.835,23.828C68.363,24.175 67.499,24.459 66.914,24.459L66.456,24.459C65.872,24.459 65.393,23.98 65.393,23.395L65.393,19.938C65.393,19.353 64.916,18.875 64.33,18.875L62.79,18.875C62.205,18.875 61.727,18.396 61.727,17.812L61.727,12.269C66.817,13.208 71.5,15.322 75.467,18.338C75.33,18.793 68.835,23.828 68.835,23.828Z" style="fill:black;fill-rule:nonzero;"/>
        </g>
        <g transform="matrix(1,0,0,1,0,-25)">
            <path d="M19.152,618.132C18.359,616.531 17.914,614.727 17.914,612.82C17.914,606.192 23.288,600.82 29.915,600.82C36.542,600.82 41.915,606.192 41.915,612.82C41.915,619.447 36.542,624.82 29.915,624.82C25.677,624.82 21.951,622.623 19.816,619.305C20.535,618.631 21.38,617.967 22.314,617.389C25.946,615.124 28.51,616.067 28.51,616.067L28.51,620.608L37.593,613.009L28.54,604.957L28.54,609.389C28.54,609.389 23.75,610.292 21.21,614.312C20.319,615.723 19.648,617.03 19.152,618.132Z" style="fill:black;"/>
        </g>
        <g transform="matrix(0.371046,0,0,0.371046,15.1867,401.476)">
            <path d="M49.044,11.676L49.044,37.739L38.775,43.183L35.219,43.177L21.064,43.177L14.957,43.187C13.068,43.024 11.238,44.432 10.581,46.301L-0.002,76.358L9.659,76.358L14.957,61.309L14.957,76.358L41.174,76.358L41.165,52.107C41.261,52.07 41.359,52.048 41.455,52.002L49.045,47.843L49.045,58.365L83.614,58.365L83.614,11.676L49.044,11.676ZM27.997,41.001C33.366,41.001 37.711,36.655 37.711,31.286C37.711,25.95 33.367,21.604 27.997,21.604C22.659,21.604 18.313,25.95 18.313,31.286C18.316,36.656 22.661,41.001 27.997,41.001ZM78.8,53.55L53.861,53.55L53.861,45.538L68.741,38.064C70.859,37.047 71.749,34.506 70.732,32.39L70.467,31.841C69.45,29.725 66.912,28.835 64.793,29.85L53.861,35.433L53.861,16.49L78.8,16.49L78.8,53.55Z" style="fill:black;"/>
        </g>
        <g transform="matrix(0.536907,2.46519e-32,2.46519e-32,0.536907,7.89737,618.597)">
            <path d="M35.367,18.242C35.367,18.242 24.111,18.246 23.286,18.267C21.144,18.322 21.38,20.885 21.38,20.885L21.38,58.23C21.38,59.721 22.6,60.941 24.091,60.941L60.238,60.941C61.73,60.941 62.949,59.721 62.949,58.23L62.949,20.954C62.949,19.463 61.73,18.243 60.238,18.243L47.742,18.304L47.742,40.572L41.252,36.189L35.367,40.572L35.367,18.242Z" style="fill:black;fill-rule:nonzero;"/>
        </g>
        <g transform="matrix(0.282353,-2.46519e-32,-1.84889e-32,0.282353,12.1988,481.675)">
            <path d="M95,778.481L89,778.481L89,772.481L45,772.481L45,778.481L39,778.481L39,772.481L17,772.481C17,780.765 23.716,791.022 32,791.022L102,791.022C110.284,791.022 117,780.765 117,772.481L95,772.481L95,778.481ZM88,723.022L88,715.022C88,710.06 83.963,706.022 79,706.022L55,706.022C50.037,706.022 46,710.06 46,715.022L46,723.022C46,723.022 27.24,723.082 22,723.022C16.76,722.963 17,728.452 17,728.452L17,767.481L39,767.481L39,758.481L45,758.481L45,767.481L89,767.481L89,758.481L95,758.481L95,767.481L117,767.481L117,728.956C117,728.956 116.833,722.966 112,723.022C107.167,723.078 88,723.022 88,723.022ZM54,715.022C54,714.471 54.448,714.022 55,714.022L79,714.022C79.552,714.022 80,714.471 80,715.022L80,723.022L54,723.022L54,715.022Z" style="fill:black;"/>
        </g>
    </g>
    <g id="Topbar">
        <g transform="matrix(0.893379,0,0,1,19.3124,4.74398)">
            <rect x="-21.679" y="-4.743" width="1176.68" height="66.834" style="fill:black;stroke-width:1.05px;stroke-linecap:round;stroke:black;"/>
        </g>
        <g transform="matrix(1,0,0,1,-266.104,-258.743)">
            <text x="291.616px" y="296.449px" style="font-family:League Spartan;font-size:30px;font-weight:700;fill:white;">LOOKING GL<tspan x="494.146px 517.066px 536.626px " y="296.449px 296.449px 296.449px ">ASS</tspan></text>
        </g>
        <g transform="matrix(1,0,0,1,162.344,-12.5352)">
            <rect x="477.418" y="30.414" width="276.75" height="30.512" style="fill:rgb(229,229,229);"/>
        </g>
        <g transform="matrix(0.619142,0,0,1,160.465,-12.8828)">
            <rect x="477.418" y="30.414" width="276.75" height="30.512" style="fill:rgb(229,229,229);"/>
        </g>
        <g transform="matrix(-1,3.21625e-16,-1.98764e-16,-0.618,1223.15,53.4679)">
            <path d="M612.574,27.089L617.945,37.831L607.203,37.831L612.574,27.089Z" style="fill:black;"/>
        </g>
        <g transform="matrix(0.229964,0,0,1.03277,817.854,-14.0554)">
            <rect x="477.418" y="30.414" width="276.75" height="30.512" style="fill:rgb(116,115,115);"/>
        </g>
        <g transform="matrix(1,0,0,1,228.484,0.699219)">
            <text x="424.758px" y="36.231px" style="font-family:Arial;font-size:14px;font-weight:700;fill:black;">Guardian JWICS</text>
        </g>
        <g transform="matrix(1,0,0,1,42.8281,0.699219)">
            <text x="424.758px" y="36.231px" style="font-family:Arial;font-size:14px;fill:black;">All Columns</text>
        </g>
        <g transform="matrix(0.651118,0.201892,-0.201892,0.651118,27.1067,26.103)">
            <g>
                <g>
                    <path d="M26.888,28.144L13.631,32.54C12.521,32.907 12.07,34.553 12.621,36.214C13.174,37.876 14.518,38.924 15.626,38.556L28.878,34.162C28.172,33.39 27.606,32.437 27.248,31.365C26.888,30.276 26.783,29.178 26.888,28.144Z" style="fill:white;fill-rule:nonzero;"/>
                    <path d="M52.709,17.357L31.037,24.541L31.04,24.545C31.03,24.548 31.02,24.548 31.015,24.55C28.799,25.287 27.746,28.127 28.664,30.895C29.581,33.663 32.123,35.311 34.338,34.58C34.345,34.576 34.354,34.572 34.361,34.569L56.028,27.384C54.905,26.196 53.942,24.6 53.317,22.72C52.709,20.882 52.516,19.016 52.709,17.357Z" style="fill:white;fill-rule:nonzero;"/>
                    <path d="M78.797,14.273C77.512,10.394 78.266,6.658 80.477,5.924L56.416,13.901C54.201,14.635 53.447,18.376 54.732,22.25C56.017,26.129 58.855,28.674 61.07,27.938L85.132,19.958C82.916,20.693 80.08,18.147 78.797,14.273Z" style="fill:white;fill-rule:nonzero;"/>
                    <path d="M86.873,11.287C85.727,7.858 83.363,6.997 82.143,6.997C82.03,6.997 81.922,7.014 81.819,7.047C81.174,7.263 80.715,8.216 80.589,9.533C80.671,9.459 80.737,9.37 80.841,9.318C81.181,9.159 81.575,9.191 81.882,9.403C82.718,9.975 83.359,10.912 83.78,12.179C84.309,13.754 84.18,15.043 83.981,15.845C83.883,16.23 83.575,16.526 83.192,16.611C83.118,16.629 83.04,16.637 82.963,16.637C82.871,16.637 82.787,16.601 82.699,16.576C83.562,17.674 84.502,18.306 85.213,18.306C85.326,18.306 85.434,18.288 85.535,18.255C85.633,18.221 85.726,18.168 85.818,18.103C86.715,17.446 88.021,14.711 86.873,11.287Z" style="fill:white;fill-rule:nonzero;"/>
                </g>
            </g>
        </g>
        <g transform="matrix(1,0,0,1,111.18,-65.0234)">
            <text x="-14.644px" y="120.306px" style="font-family:Helvetica;font-size:12px;fill:white;">A Document Search Engine</text>
        </g>
        <g transform="matrix(0.197722,0,0,0.197722,838.759,-57.9082)">
            <path d="M600.023,469.189C603.287,472.334 603.785,477.115 601.14,479.863L589.309,495.667L573.949,508.055C571.304,510.797 566.511,510.469 563.247,507.315C559.983,504.166 559.479,499.391 562.131,496.644L573.366,479.724L589.315,468.458C591.966,465.712 596.759,466.04 600.023,469.189ZM600.389,458.977C597.104,453.94 595.194,447.928 595.194,441.48C595.194,423.768 609.596,409.362 627.311,409.362C645.02,409.362 659.428,423.768 659.428,441.48C659.428,459.188 645.019,473.596 627.311,473.596C621.345,473.596 615.755,471.962 610.964,469.118C610.779,469.355 610.574,469.583 610.348,469.801C608.377,471.704 605.64,472.067 604.221,470.608L599.107,465.321C597.693,463.863 598.142,461.135 600.107,459.233C600.2,459.144 600.293,459.059 600.389,458.977ZM627.324,421.897C638.212,421.897 647.037,430.723 647.037,441.61C647.037,452.497 638.212,461.323 627.324,461.323C616.437,461.323 607.611,452.497 607.611,441.61C607.611,430.723 616.437,421.897 627.324,421.897Z" style="fill:white;"/>
        </g>
    </g>
</svg>
