<?xml version="1.0" encoding="UTF-8" standalone="no"?>
<svg
   xmlns:dc="http://purl.org/dc/elements/1.1/"
   xmlns:cc="http://creativecommons.org/ns#"
   xmlns:rdf="http://www.w3.org/1999/02/22-rdf-syntax-ns#"
   xmlns:svg="http://www.w3.org/2000/svg"
   xmlns="http://www.w3.org/2000/svg"
   xmlns:sodipodi="http://sodipodi.sourceforge.net/DTD/sodipodi-0.dtd"
   xmlns:inkscape="http://www.inkscape.org/namespaces/inkscape"
   width="100%"
   height="100%"
   viewBox="0 0 1280 2200"
   version="1.1"
   xml:space="preserve"
   style="fill-rule:evenodd;clip-rule:evenodd;stroke-linecap:round;stroke-linejoin:round;stroke-miterlimit:1.41421;"
   id="svg2"
   inkscape:version="0.91 r13725"
   sodipodi:docname="Tools Overview.svg"><metadata
     id="metadata371"><rdf:RDF><cc:Work
         rdf:about=""><dc:format>image/svg+xml</dc:format><dc:type
           rdf:resource="http://purl.org/dc/dcmitype/StillImage" /></cc:Work></rdf:RDF></metadata><defs
     id="defs369" /><sodipodi:namedview
     pagecolor="#ffffff"
     bordercolor="#666666"
     borderopacity="1"
     objecttolerance="10"
     gridtolerance="10"
     guidetolerance="10"
     inkscape:pageopacity="0"
     inkscape:pageshadow="2"
     inkscape:window-width="1920"
     inkscape:window-height="1010"
     id="namedview367"
     showgrid="false"
     inkscape:zoom="0.85818182"
     inkscape:cx="658.64407"
     inkscape:cy="1948.9205"
     inkscape:window-x="0"
     inkscape:window-y="23"
     inkscape:window-maximized="0"
     inkscape:current-layer="g82" /><g
     id="Layer2"><rect
       x="-13.109"
       y="73.109"
       width="1299.77"
       height="2140.42"
       style="fill:white;"
       id="rect5" /></g><g
     id="g8"
     transform="translate(-8,0)"><g
       id="g10"
       transform="matrix(0.687754,0,0,0.687754,-138.526,33.394)"><circle
         id="circle12"
         style="fill:none;stroke:#cecece;stroke-width:5.82000017px"
         r="30.618999"
         cy="181.93401"
         cx="300.23499" /></g><g
       id="g14"
       transform="translate(-444.457,-72.0191)"><text
         id="text16"
         style="font-weight:700;font-size:24px;font-family:'Open Sans';fill:#000000"
         y="237.533"
         x="553.78497">Data Collection</text>
</g><g
       id="g18"
       transform="translate(-229.696,-13.9349)"><text
         id="text20"
         style="font-weight:700;font-size:24px;font-family:'League Spartan';fill:#000000"
         y="181.545"
         x="292.24899">1</text>
</g><g
       id="g22"
       transform="matrix(1.12548,0,0,1,-153.673,-888.299)"><path
         inkscape:connector-curvature="0"
         id="path24"
         style="fill:none;stroke:#cecece;stroke-width:3.75999999px;stroke-dasharray:3.76, 11.27, 0, 0"
         d="m 414.092,1043.4 826.548,0" /></g></g><g
     id="g26"
     transform="matrix(1.91239,0,0,0.708826,-862.29,-430.957)"><rect
       id="rect28"
       style="fill:#000000"
       height="117.49"
       width="503.026"
       y="606.75098"
       x="450.71201" /></g><g
     id="g30"
     transform="matrix(0.685619,0,0,0.403479,-228.496,482.537)"><rect
       id="rect32"
       style="fill:#cecece"
       height="410.453"
       width="624.04199"
       y="648.31799"
       x="399.625" /></g><g
     id="g34"
     transform="matrix(0.576601,0,0,0.403479,641.383,482.03)"><rect
       id="rect36"
       style="fill:#cecece"
       height="410.453"
       width="624.04199"
       y="648.31799"
       x="399.625" /></g><g
     id="g38"
     transform="matrix(0.430201,0,0,0.403479,365.909,482.537)"><rect
       id="rect40"
       style="fill:#cecece"
       height="410.453"
       width="624.04199"
       y="648.31799"
       x="399.625" /></g><g
     id="g42"
     transform="translate(-488.185,570.912)"><text
       id="text44"
       style="font-weight:700;font-size:36px;font-family:'Open Sans';fill:#000000"
       y="237.533"
       x="553.78497">Sno<tspan
   id="tspan46"
   y="237.533 237.533"
   x="618.84198 649.65601">wd</tspan>en Documents</text>
</g><g
     id="g48"
     transform="translate(-349.092,631.265)"><text
       id="text50"
       style="font-size:24px;font-family:Arial;fill:#000000"
       y="237.533"
       x="553.78497">PDFs + URLs</text>
</g><g
     id="g52"
     transform="translate(345.055,1244.99)"><text
       id="text54"
       style="font-weight:700;font-size:36px;font-family:'Open Sans';fill:#000000"
       y="237.533"
       x="495.76801">Intuitive + Robust </text>
<text
       id="text56"
       style="font-weight:700;font-size:36px;font-family:'Open Sans';fill:#000000"
       y="282.53299"
       x="573.367">Interface</text>
</g><g
     id="g58"
     transform="translate(235.081,1856.16)"><text
       id="text60"
       style="font-weight:700;font-size:36px;font-family:'Open Sans';fill:#000000"
       y="237.533"
       x="497.728">T<tspan
   id="tspan62"
   y="237.533 237.533 237.533"
   x="516.78302 532.40997 554.15399">rad</tspan>itional Media</text>
</g><g
     id="g64"
     transform="translate(236.081,1792.41)"><text
       id="text66"
       style="font-weight:700;font-size:36px;font-family:'Open Sans';fill:#000000"
       y="237.533"
       x="564.17297">WikiLeaks</text>
</g><g
     id="g68"
     transform="translate(30.0047,630.789)"><text
       id="text70"
       style="font-size:24px;font-family:Arial;fill:#000000"
       y="237.533"
       x="553.78497">Raw JSON Data</text>
</g><g
     id="g72"
     transform="translate(35.274,570.436)"><text
       id="text74"
       style="font-weight:700;font-size:36px;font-family:'Open Sans';fill:#000000"
       y="237.533"
       x="553.78497">ICW<tspan
   id="tspan76"
   y="237.533 237.533 237.533 237.533"
   x="622.00598 644.33002 664.45697 687.39697">ATCH</tspan></text>
</g><g
     id="g78"
     transform="matrix(0.430201,0,0,0.232156,365.671,219.479)"><rect
       id="rect80"
       style="fill:#cecece"
       height="410.453"
       width="624.04199"
       y="648.31799"
       x="399.625" /></g><g
     id="g82"
     transform="translate(29.3196,173.321)"><text
       id="text84"
       style="font-size:24px;font-family:Arial;fill:#000000"
       y="237.533"
       x="559.12299">Scraping Public </text>
<text
       id="text86"
       style="font-size:24px;font-family:Arial;fill:#000000"
       y="267.53299"
       x="568.45099">LinkedIn Data</text>
</g><g
     id="g88"
     transform="translate(403.254,172.909)"><text
       id="text90"
       style="font-size:24px;font-family:Arial;fill:#000000"
       y="237.533"
       x="609.81897">Public </text>
<text
       id="text92"
       style="font-size:24px;font-family:Arial;fill:#000000"
       y="267.53299"
       x="547.11102">Released Dataset</text>
</g><g
     id="g94"
     transform="matrix(0.30996,0,0,0.232156,-74.0907,219.479)"><rect
       id="rect96"
       style="fill:#cecece"
       height="410.453"
       width="624.04199"
       y="648.31799"
       x="399.625" /></g><g
     id="g98"
     transform="translate(-496.011,173.321)"><text
       id="text100"
       style="font-size:24px;font-family:Arial;fill:#000000"
       y="237.533"
       x="589.13501">Download </text>
<text
       id="text102"
       style="font-size:24px;font-family:Arial;fill:#000000"
       y="267.53299"
       x="589.83197">PDF Files</text>
</g><g
     id="g104"
     transform="matrix(0.30996,0,0,0.232156,151.249,219.479)"><rect
       id="rect106"
       style="fill:#cecece"
       height="410.453"
       width="624.04199"
       y="648.31799"
       x="399.625" /></g><g
     id="g108"
     transform="translate(-270.671,173.321)"><text
       id="text110"
       style="font-size:24px;font-family:Arial;fill:#000000"
       y="237.533"
       x="603.81897">Record </text>
<text
       id="text112"
       style="font-size:24px;font-family:Arial;fill:#000000"
       y="267.53299"
       x="603.16199">Articles</text>
</g><g
     id="g114"
     transform="translate(433.608,630.282)"><text
       id="text116"
       style="font-size:24px;font-family:Arial;fill:#000000"
       y="237.533"
       x="553.78497">200 GB Email</text>
</g><g
     id="g118"
     transform="translate(350.328,1364.33)"><text
       id="text120"
       style="font-size:24px;font-family:Arial;fill:#000000"
       y="237.533"
       x="573.13898">Full text search </text>
<text
       id="text122"
       style="font-size:24px;font-family:Arial;fill:#000000"
       y="285.53299"
       x="557.10797">T<tspan
   id="tspan124"
   y="285.53299 285.53299"
   x="569.10797 582.45502">ag</tspan> based ﬁltering </text>
<text
       id="text126"
       style="font-size:24px;font-family:Arial;fill:#000000"
       y="333.53299"
       x="549.789">Force-graph search </text>
<text
       id="text128"
       style="font-size:24px;font-family:Arial;fill:#000000"
       y="381.53299"
       x="594.46698">Themeable</text>
</g><g
     id="g130"
     transform="translate(350.328,1364.33)"><text
       id="text132"
       style="font-size:24px;font-family:Arial;fill:#000000"
       y="237.533"
       x="573.13898">Full text search </text>
<text
       id="text134"
       style="font-size:24px;font-family:Arial;fill:#000000"
       y="285.53299"
       x="557.10797">T<tspan
   id="tspan136"
   y="285.53299 285.53299"
   x="569.10797 582.45502">ag</tspan> based ﬁltering </text>
<text
       id="text138"
       style="font-size:24px;font-family:Arial;fill:#000000"
       y="333.53299"
       x="549.789">Force-graph search </text>
<text
       id="text140"
       style="font-size:24px;font-family:Arial;fill:#000000"
       y="381.53299"
       x="594.46698">Themeable</text>
</g><g
     id="g142"
     transform="translate(354.808,1111.23)"><text
       id="text144"
       style="font-size:20px;font-family:Arial;fill:#cecece"
       y="237.533"
       x="574.453">(used as stopgap)</text>
</g><g
     id="g146"
     transform="translate(375.767,569.929)"><text
       id="text148"
       style="font-weight:700;font-size:36px;font-family:'Open Sans';fill:#000000"
       y="237.533"
       x="553.78497">Hacking T<tspan
   id="tspan150"
   y="237.533 237.533"
   x="726.578 747.84802">ea</tspan>m</text>
</g><g
     id="g152"
     transform="matrix(0.631466,0,0,0.707844,679.231,-430.304)"><rect
       id="rect154"
       style="fill:#000000"
       height="117.49"
       width="503.026"
       y="606.75098"
       x="450.71201" /></g><g
     id="g156"
     transform="matrix(0.613237,0,0,0.613237,873.152,-147.161)"><text
       id="text158"
       style="font-weight:700;font-size:40px;font-family:'League Spartan';fill:#ffffff"
       y="296.44901"
       x="291.616">TRAN<tspan
   id="tspan160"
   y="296.44901 296.44901 296.44901"
   x="407.69601 434.57599 458.65601">SPA</tspan>REN<tspan
   id="tspan162"
   y="296.44901"
   x="573.61603">C</tspan>Y</text>
</g><g
     id="g164"
     transform="matrix(0.613237,0,0,0.613237,872.055,-116.49)"><text
       id="text166"
       style="font-weight:700;font-size:40px;font-family:'League Spartan';fill:#ffffff"
       y="296.44901"
       x="291.616">T<tspan
   id="tspan168"
   y="296.44901"
   x="314.17599">O</tspan>OLKI<tspan
   id="tspan170"
   y="296.44901"
   x="448.81601">T</tspan></text>
</g><g
     id="g172"
     transform="matrix(0.531309,0.531309,-0.531309,0.531309,576.966,839.539)"><g
       id="g174"
       transform="matrix(0.367474,0,0,0.367474,198.898,457.11)"><path
         inkscape:connector-curvature="0"
         id="path176"
         style="fill:#000000;fill-rule:nonzero"
         d="m 111.349,152.783 18.6,18.289 -32.603,45.747 -49.956,44.592 c -5.181,5.371 -20.962,-1.45 -20.962,-1.45 0,0 -7.38,-15.52 -2.187,-20.902 l 41.875,-53.469 45.233,-32.807 z" /></g><g
       id="g178"
       transform="matrix(0.432589,0,0,0.432589,192.288,445.775)"><path
         inkscape:connector-curvature="0"
         id="path180"
         style="fill:#000000"
         d="m 122.986,139.793 c -6.434,-9.867 -10.176,-21.642 -10.176,-34.274 0,-34.694 28.211,-62.911 62.911,-62.911 34.688,0 62.911,28.217 62.911,62.911 0,34.687 -28.224,62.91 -62.911,62.91 -11.686,0 -22.636,-3.201 -32.02,-8.772 -0.362,0.464 -10.396,5.738 -10.396,5.738 l -16.734,-16.624 c 0,0 6.228,-8.817 6.415,-8.978 z m 52.735,-81.82 c -26.215,0 -47.557,21.331 -47.557,47.546 0,26.215 21.342,47.545 47.557,47.545 26.215,0 47.534,-21.33 47.534,-47.545 0,-26.215 -21.319,-47.546 -47.534,-47.546 z" /></g><g
       id="g182"
       transform="matrix(-0.371436,-0.371436,0.371436,-0.371436,348.245,704.151)"><path
         inkscape:connector-curvature="0"
         id="path184"
         style="fill:#000000"
         d="m 426.091,181.084 c 0.037,-0.548 0.062,-1.108 0.062,-1.668 l -31.432,31.432 c 0.56,-0.013 1.12,-0.038 1.668,-0.062 l 29.702,-29.702 z m -0.498,3.857 c 0.124,-0.634 0.224,-1.269 0.311,-1.904 l -27.574,27.562 c 0.647,-0.087 1.282,-0.187 1.904,-0.311 l 25.359,-25.347 z m -1.244,4.592 c 0.273,-0.759 0.51,-1.531 0.721,-2.315 l -22.547,22.547 c 0.784,-0.211 1.556,-0.448 2.315,-0.721 l 19.511,-19.511 z m 1.791,-11.859 c -0.025,-0.51 -0.049,-1.008 -0.087,-1.505 l -31.829,31.817 0,1.593 31.916,-31.905 z m -4.977,18.416 c 0.734,-1.145 1.381,-2.339 1.966,-3.571 l -15.305,15.305 c 1.232,-0.585 2.426,-1.244 3.571,-1.966 l 9.768,-9.768 z m 4.704,-21.502 c -0.063,-0.46 -0.137,-0.92 -0.212,-1.381 l -31.431,31.419 0,1.593 31.643,-31.631 z m -0.511,-2.849 c -0.099,-0.423 -0.211,-0.859 -0.323,-1.282 l -30.809,30.81 0,1.592 31.132,-31.12 z m -0.734,-2.626 c -0.124,-0.398 -0.261,-0.796 -0.41,-1.194 l -29.988,29.988 0,1.593 30.398,-30.387 z m -0.908,-2.463 c -0.162,-0.374 -0.324,-0.747 -0.485,-1.108 l -29.005,29.005 0,1.593 29.49,-29.49 z m -1.058,-2.29 c -0.174,-0.348 -0.373,-0.697 -0.56,-1.045 l -27.872,27.873 0,1.592 28.432,-28.42 z m -1.207,-2.152 c -0.199,-0.324 -0.41,-0.66 -0.622,-0.971 l -26.603,26.591 0,1.593 27.225,-27.213 z m -1.356,-2.016 c -0.224,-0.311 -0.448,-0.61 -0.684,-0.909 l -25.185,25.185 0,1.593 25.869,-25.869 z m -1.468,-1.879 c -0.249,-0.286 -0.498,-0.573 -0.747,-0.859 l -23.642,23.642 0,1.605 24.389,-24.388 z m -1.605,-1.755 c -0.262,-0.273 -0.536,-0.535 -0.809,-0.796 l -21.987,21.987 0,1.593 22.796,-22.784 z m -1.73,-1.63 c -0.286,-0.249 -0.572,-0.497 -0.871,-0.734 l -20.195,20.195 0,1.593 21.066,-21.054 z m -1.854,-1.518 c -0.299,-0.224 -0.61,-0.448 -0.933,-0.672 l -18.279,18.292 0,1.592 19.212,-19.212 z m -1.979,-1.381 c -0.323,-0.211 -0.659,-0.411 -0.995,-0.61 l -16.238,16.251 0,1.593 17.233,-17.234 z m -2.115,-1.244 c -0.348,-0.187 -0.697,-0.374 -1.058,-0.548 l -14.06,14.061 0,1.605 15.118,-15.118 z m -2.252,-1.095 c -0.373,-0.162 -0.747,-0.324 -1.132,-0.473 l -11.734,11.734 0,1.593 12.866,-12.854 z m -2.414,-0.946 c -0.398,-0.137 -0.796,-0.274 -1.207,-0.386 l -9.245,9.246 0,1.58 10.452,-10.44 z m -2.588,-0.784 c -0.436,-0.112 -0.859,-0.211 -1.294,-0.299 l -6.558,6.558 0,1.605 7.852,-7.864 z m -2.788,-0.572 c -0.46,-0.075 -0.933,-0.137 -1.406,-0.187 l -3.67,3.671 0,1.593 5.076,-5.077 z m -3.023,-0.336 c -0.51,-0.038 -1.021,-0.05 -1.543,-0.062 l -0.51,0.51 0,1.605 2.053,-2.053 z" /></g></g><path
     inkscape:connector-curvature="0"
     id="path186"
     style="fill:none;stroke:#000000;stroke-width:1px"
     d="m 1281.76,82.158 -1285.005,0" /><g
     id="g188"
     transform="matrix(0.870342,0,0,0.870342,38.9852,1054.66)"><text
       id="text190"
       style="font-weight:700;font-size:40px;font-family:'League Spartan';fill:#000000"
       y="296.44901"
       x="291.616">LOOKING GL<tspan
   id="tspan192"
   y="296.44901 296.44901 296.44901"
   x="561.65601 592.216 618.29602">ASS</tspan></text>
</g><g
     id="g194"
     transform="matrix(0.870342,0,0,0.870342,46.9019,1781.72)"><text
       id="text196"
       style="font-weight:700;font-size:40px;font-family:'League Spartan';fill:#000000"
       y="296.44901"
       x="291.616">TRAN<tspan
   id="tspan198"
   y="296.44901 296.44901 296.44901"
   x="407.69601 434.57599 458.65601">SPA</tspan>REN<tspan
   id="tspan200"
   y="296.44901"
   x="573.61603">C</tspan>Y </text>
<text
       id="text202"
       style="font-weight:700;font-size:40px;font-family:'League Spartan';fill:#000000"
       y="336.44901"
       x="291.616">T<tspan
   id="tspan204"
   y="336.44901"
   x="314.17599">O</tspan>OLKI<tspan
   id="tspan206"
   y="336.44901"
   x="448.81601">T</tspan></text>
</g><g
     id="g208"
     transform="matrix(0.870342,0,0,0.870342,83.2566,68.0646)"><text
       id="text210"
       style="font-weight:700;font-size:40px;font-family:'League Spartan';fill:#000000"
       y="296.44901"
       x="291.616">DIGGERS</text>
</g><g
     id="g212"
     transform="matrix(0.870342,0,0,0.870342,623.565,1055.03)"><text
       id="text214"
       style="font-weight:700;font-size:40px;font-family:'League Spartan';fill:#cecece"
       y="296.44901"
       x="291.616">ARCHI<tspan
   id="tspan216"
   y="296.44901"
   x="421.13599">V</tspan>E PILE</text>
</g><g
     id="g218"
     transform="matrix(0.870342,0,0,0.870342,-233.117,-189.972)"><text
       id="text220"
       style="font-weight:600;font-size:20.68199921px;font-family:'Open Sans';fill:#ffffff"
       y="296.44901"
       x="291.616">For investigative journalism &amp; open sour<tspan
   id="tspan222"
   y="296.44901 296.44901"
   x="694.401 704.64001">ce</tspan> intelligence analysis</text>
</g><g
     id="g224"
     transform="matrix(0.870342,0,0,0.870342,-234.78,-212.072)"><text
       id="text226"
       style="font-weight:700;font-size:41.36299896px;font-family:'League Spartan';fill:#ffffff"
       y="296.44901"
       x="291.616">OUR <tspan
   id="tspan228"
   y="296.44901 296.44901"
   x="397.58801 420.91699">TO</tspan>OLS</text>
</g><g
     id="g230"
     transform="matrix(0.450985,0,0,0.450985,967.939,-1.10993)"><g
       id="g232"
       transform="matrix(0.542286,0.542286,0.581457,-0.581457,39.9194,132.015)"><path
         inkscape:connector-curvature="0"
         id="path234"
         style="fill:#ffffff;fill-rule:nonzero"
         d="m 90.814,82.588 c 3.964,3.967 2.968,11.617 -0.995,15.743 -4.123,3.965 -11.302,4.514 -15.266,0.389 L 21.927,44.017 C 17.638,39.891 14.347,39.161 10.856,40.271 7.365,41.541 0.965,42.51 -3.637,39.494 -13.472,33.15 -19.546,23.063 -19.546,23.063 l 11.105,-8.142 c 0,0 7.894,8.556 9.005,9.192 1.43,1.11 5.213,4.577 9.655,-2.246 4.602,-6.823 1.545,-10.59 0.275,-11.385 C 9.382,9.847 0.687,3.862 0.687,3.862 L 6.819,-7.689 c 0,0 16.856,9.688 17.807,10.482 6.191,5.553 5.43,14.156 4.319,19.233 -0.957,4.602 0,6.188 3.645,10.155 l 58.224,50.407 z m -4.486,4.637 -7.614,0 0,7.455 7.614,0.16 0,-7.615 z" /></g><g
       id="g236"
       transform="matrix(0.772788,0.772788,-0.772788,0.772788,300.096,-526.284)"><g
         id="g238"
         transform="matrix(0.367474,0,0,0.367474,198.898,457.11)"><path
           inkscape:connector-curvature="0"
           id="path240"
           style="fill:#ffffff;fill-rule:nonzero"
           d="m 111.349,152.783 18.6,18.289 -32.603,45.747 -49.956,44.592 c -5.181,5.371 -20.962,-1.45 -20.962,-1.45 0,0 -7.38,-15.52 -2.187,-20.902 l 41.875,-53.469 45.233,-32.807 z" /></g><g
         id="g242"
         transform="matrix(0.432589,0,0,0.432589,192.288,445.775)"><path
           inkscape:connector-curvature="0"
           id="path244"
           style="fill:#ffffff"
           d="m 122.986,139.793 c -6.434,-9.867 -10.176,-21.642 -10.176,-34.274 0,-34.694 28.211,-62.911 62.911,-62.911 34.688,0 62.911,28.217 62.911,62.911 0,34.687 -28.224,62.91 -62.911,62.91 -11.686,0 -22.636,-3.201 -32.02,-8.772 -0.362,0.464 -10.396,5.738 -10.396,5.738 l -16.734,-16.624 c 0,0 6.228,-8.817 6.415,-8.978 z m 52.735,-81.82 c -26.215,0 -47.557,21.331 -47.557,47.546 0,26.215 21.342,47.545 47.557,47.545 26.215,0 47.534,-21.33 47.534,-47.545 0,-26.215 -21.319,-47.546 -47.534,-47.546 z" /></g><g
         id="g246"
         transform="matrix(-0.371436,-0.371436,0.371436,-0.371436,348.245,704.151)"><path
           inkscape:connector-curvature="0"
           id="path248"
           style="fill:#ffffff"
           d="m 426.091,181.084 c 0.037,-0.548 0.062,-1.108 0.062,-1.668 l -31.432,31.432 c 0.56,-0.013 1.12,-0.038 1.668,-0.062 l 29.702,-29.702 z m -0.498,3.857 c 0.124,-0.634 0.224,-1.269 0.311,-1.904 l -27.574,27.562 c 0.647,-0.087 1.282,-0.187 1.904,-0.311 l 25.359,-25.347 z m -1.244,4.592 c 0.273,-0.759 0.51,-1.531 0.721,-2.315 l -22.547,22.547 c 0.784,-0.211 1.556,-0.448 2.315,-0.721 l 19.511,-19.511 z m 1.791,-11.859 c -0.025,-0.51 -0.049,-1.008 -0.087,-1.505 l -31.829,31.817 0,1.593 31.916,-31.905 z m -4.977,18.416 c 0.734,-1.145 1.381,-2.339 1.966,-3.571 l -15.305,15.305 c 1.232,-0.585 2.426,-1.244 3.571,-1.966 l 9.768,-9.768 z m 4.704,-21.502 c -0.063,-0.46 -0.137,-0.92 -0.212,-1.381 l -31.431,31.419 0,1.593 31.643,-31.631 z m -0.511,-2.849 c -0.099,-0.423 -0.211,-0.859 -0.323,-1.282 l -30.809,30.81 0,1.592 31.132,-31.12 z m -0.734,-2.626 c -0.124,-0.398 -0.261,-0.796 -0.41,-1.194 l -29.988,29.988 0,1.593 30.398,-30.387 z m -0.908,-2.463 c -0.162,-0.374 -0.324,-0.747 -0.485,-1.108 l -29.005,29.005 0,1.593 29.49,-29.49 z m -1.058,-2.29 c -0.174,-0.348 -0.373,-0.697 -0.56,-1.045 l -27.872,27.873 0,1.592 28.432,-28.42 z m -1.207,-2.152 c -0.199,-0.324 -0.41,-0.66 -0.622,-0.971 l -26.603,26.591 0,1.593 27.225,-27.213 z m -1.356,-2.016 c -0.224,-0.311 -0.448,-0.61 -0.684,-0.909 l -25.185,25.185 0,1.593 25.869,-25.869 z m -1.468,-1.879 c -0.249,-0.286 -0.498,-0.573 -0.747,-0.859 l -23.642,23.642 0,1.605 24.389,-24.388 z m -1.605,-1.755 c -0.262,-0.273 -0.536,-0.535 -0.809,-0.796 l -21.987,21.987 0,1.593 22.796,-22.784 z m -1.73,-1.63 c -0.286,-0.249 -0.572,-0.497 -0.871,-0.734 l -20.195,20.195 0,1.593 21.066,-21.054 z m -1.854,-1.518 c -0.299,-0.224 -0.61,-0.448 -0.933,-0.672 l -18.279,18.292 0,1.592 19.212,-19.212 z m -1.979,-1.381 c -0.323,-0.211 -0.659,-0.411 -0.995,-0.61 l -16.238,16.251 0,1.593 17.233,-17.234 z m -2.115,-1.244 c -0.348,-0.187 -0.697,-0.374 -1.058,-0.548 l -14.06,14.061 0,1.605 15.118,-15.118 z m -2.252,-1.095 c -0.373,-0.162 -0.747,-0.324 -1.132,-0.473 l -11.734,11.734 0,1.593 12.866,-12.854 z m -2.414,-0.946 c -0.398,-0.137 -0.796,-0.274 -1.207,-0.386 l -9.245,9.246 0,1.58 10.452,-10.44 z m -2.588,-0.784 c -0.436,-0.112 -0.859,-0.211 -1.294,-0.299 l -6.558,6.558 0,1.605 7.852,-7.864 z m -2.788,-0.572 c -0.46,-0.075 -0.933,-0.137 -1.406,-0.187 l -3.67,3.671 0,1.593 5.076,-5.077 z m -3.023,-0.336 c -0.51,-0.038 -1.021,-0.05 -1.543,-0.062 l -0.51,0.51 0,1.605 2.053,-2.053 z" /></g></g></g><g
     id="g250"
     transform="matrix(0.130408,0,0,0.130408,974.962,1217.45)"><path
       inkscape:connector-curvature="0"
       id="path252"
       style="fill:#cecece"
       d="M 429.021,335.066 442,260 l -52.836,32.923 -26.242,11.678 17.956,35.617 25.829,36.905 -4.902,3.467 -19.025,-21.098 -26.94,-52.21 -31.086,19.405 -25.86,-27.755 -16.111,16.392 -51.753,35.576 -5.265,-6.665 51.247,-35.467 19.619,-17.467 -27.081,-25.885 -24.224,6.009 -19.325,4.42 -13.001,79.07 65.983,25.95 81.605,10.535 42.438,8.6 12.27,-9.406 13.725,-55.528 z" /><path
       inkscape:connector-curvature="0"
       id="path254"
       style="fill:#cecece"
       d="m 305.915,285.6 21.286,28.4 23.6,-14.516 36.273,-16.257 L 445,249.554 367.077,234 l -12.931,19.444 -41.87,4.671 -21.177,1.881 -10.099,2.576 24.915,23.028 z" /><path
       inkscape:connector-curvature="0"
       id="path256"
       style="fill:#cecece"
       d="M 351.692,134.898 332.277,16 l -61.192,76.216 -32.743,30.852 44.869,44.129 57.171,42.013 -5.474,7.694 -38.973,-21.846 -66.651,-64.359 -35.974,44.899 -52.521,-28.307 -15.353,32.732 -58.181,79.623 -11.228,-7.278 57.492,-79.2 20.025,-36.14 -53.37,-24.9 L 15,66.466 21.196,149.947 42.654,274.865 153.508,280 279.564,254.118 346.718,245.323 360,224.98 351.692,134.898 Z" /><path
       inkscape:connector-curvature="0"
       id="path258"
       style="fill:#cecece"
       d="M 142.807,124.605 188.802,156 216.288,122.372 261.59,79.66 330,0 185.764,18.585 86.894,33.859 12,50.539 l 73.676,48.375 57.131,25.691 z" /><path
       inkscape:connector-curvature="0"
       id="path260"
       style="fill:#cecece"
       d="M 554.787,16 472.258,30.726 389.499,47.986 359,52.837 373.65,132.076 388.745,202 444.348,189.295 530.521,174.161 583,162.463 571.718,113.608 554.787,16 Z m -48.614,127.134 0.827,4.792 -29.275,4.553 -62.567,11.521 -0.888,-5.232 -1.27,-5.343 24.76,-5.482 0.343,-0.058 39.509,-6.006 27.958,-3.879 0.603,5.134 z m -95.165,-7.555 -0.008,-4.019 31.965,-6.494 31.323,-5.512 14.83,-3.192 12.764,-2.362 1.118,8.589 -15.583,3.549 -44.49,7.618 -30.295,6.244 -1.624,-4.421 z m 86.916,-40.963 1.076,4.749 -31.214,5.86 -33.792,5.013 L 406.477,115 404,106.132 468.475,94.632 497.493,90 l 0.431,4.616 z M 551,58.909 524.443,63 520.719,50.568 519,35.591 531.193,34.089 546.466,31 550.106,44.992 551,58.909 Z" /></g><g
     id="g262"
     transform="translate(-275.997,733.74)"><rect
       id="rect264"
       style="fill:#cecece"
       height="410.453"
       width="624.04199"
       y="648.31799"
       x="399.625" /></g><g
     id="g266"
     transform="translate(-30.5776,67.3511)"><g
       id="g268"
       transform="matrix(-1,0,0,1,498.267,129.145)"><path
         inkscape:connector-curvature="0"
         id="path270"
         style="fill:#000000;fill-rule:nonzero"
         d="m 95.833,77.778 -5.702,-14.51 c -0.108,-0.216 -0.271,-0.4 -0.472,-0.534 0,0 -6.169,-3.938 -7.714,-5.789 C 80.55,55.273 79.167,51.389 77.631,49.38 77.166,48.77 75,48.611 73.611,50 c 0,0 -1.796,2.778 -2.778,2.778 -2.778,0 -3.278,-1.362 -4.439,-1.362 -1.116,0 -2.313,2.367 -2.505,2.75 l -2.53,6.121 -1.082,1.154 -5.243,-4.194 c -0.256,-0.203 -0.562,-0.304 -0.867,-0.304 -0.408,0 -0.811,0.179 -1.085,0.521 l -2.295,2.87 -9.18,-3.934 c -0.074,-0.375 -0.222,-0.739 -0.458,-1.07 l -6.427,-8.999 0,-11.609 c 0,-0.019 -0.004,-0.035 -0.005,-0.054 C 34.673,29.14 27.76,25 22.222,25 l -0.001,0.002 c -0.377,0 -0.76,0.073 -1.126,0.236 l -12.5,5.555 C 7.79,31.151 7.202,31.87 7.012,32.73 l -2.778,12.5 c -0.333,1.498 0.611,2.981 2.108,3.313 0.204,0.045 0.405,0.067 0.605,0.067 1.273,0 2.421,-0.88 2.708,-2.176 l 0.143,-0.644 3.396,1.455 0,11.347 -10.446,14.364 c -1.119,1.539 -0.787,3.688 0.734,4.822 l 92.351,0 z M 47.527,64.41 c -0.312,0.391 -0.391,0.917 -0.207,1.379 0.183,0.464 0.602,0.793 1.095,0.864 l 6.155,0.879 -1.792,1.913 c 0,0 -4.456,0.838 -5.556,1.389 -2.778,1.389 -2.515,2.328 -2.778,2.778 -1.215,2.083 -4.167,4.167 -4.167,4.167 l -7.657,0 c 0.85,-0.632 1.408,-1.636 1.408,-2.778 l 0,-13.891 c 0,-0.685 -0.203,-1.356 -0.583,-1.926 l -3.042,-4.564 4.918,2.108 1.307,1.831 c 0.542,0.759 1.396,1.164 2.263,1.164 0.559,0 1.123,-0.168 1.612,-0.517 0.073,-0.052 0.13,-0.116 0.197,-0.172 l 8.287,3.551 -1.46,1.825 z M 27.778,43.056 c 0.334,-0.51 0.825,-1.164 1.39,-1.874 l 0,6.039 c 0,0.579 0.181,1.144 0.517,1.614 l 2.527,3.539 -4.629,-1.984 -1.194,-1.791 0,-2.766 c 0.178,-0.755 0.964,-2.128 1.389,-2.777 z M 12.13,35.301 18.99,32.253 13.825,43.844 c -0.114,0.163 -0.211,0.339 -0.296,0.522 L 10.412,43.03 12.13,35.301 Z M 8.365,77.041 19.476,61.763 c 0.431,-0.594 0.664,-1.309 0.664,-2.042 l 0,-7.977 6.944,10.417 0,12.839 c 0,1.142 0.558,2.146 1.408,2.778 l -20.884,0 c 0.28,-0.207 0.541,-0.441 0.757,-0.737 z" /></g><g
       id="g272"
       transform="matrix(-1,0,0,1,498.267,129.145)"><circle
         id="circle274"
         style="fill:#000000"
         r="6.25"
         cy="18.75"
         cx="31.25" /></g></g><g
     id="g276"
     transform="matrix(0,0.508499,-1,0,628.51,417.08)"><path
       inkscape:connector-curvature="0"
       id="path278"
       style="fill:#cecece"
       d="m 148.579,489.877 0,-14.235 113.503,0 0,-13.219 39.992,20.336 -39.992,20.336 0,-13.218 -113.503,0 z" /></g><g
     id="g280"
     transform="matrix(0,0.508499,-1,0,853.378,417.08)"><path
       inkscape:connector-curvature="0"
       id="path282"
       style="fill:#cecece"
       d="m 148.579,489.877 0,-14.235 113.503,0 0,-13.219 39.992,20.336 -39.992,20.336 0,-13.218 -113.503,0 z" /></g><g
     id="g284"
     transform="matrix(0,0.508499,-1,0,725.233,876.148)"><path
       inkscape:connector-curvature="0"
       id="path286"
       style="fill:#cecece"
       d="m 148.579,489.877 0,-14.235 113.503,0 0,-13.219 39.992,20.336 -39.992,20.336 0,-13.218 -113.503,0 z" /></g><g
     id="g288"
     transform="matrix(0,0.508499,-1,0,1156.46,417.08)"><path
       inkscape:connector-curvature="0"
       id="path290"
       style="fill:#cecece"
       d="m 148.579,489.877 0,-14.235 113.503,0 0,-13.219 39.992,20.336 -39.992,20.336 0,-13.218 -113.503,0 z" /></g><g
     id="g292"
     transform="matrix(0,0.508499,-1,0,1534.75,417.08)"><path
       inkscape:connector-curvature="0"
       id="path294"
       style="fill:#cecece"
       d="m 148.579,489.877 0,-14.235 113.503,0 0,-13.219 39.992,20.336 -39.992,20.336 0,-13.218 -113.503,0 z" /></g><g
     id="g296"
     transform="matrix(0,0.508499,-1,0,1156.46,886.457)"><path
       inkscape:connector-curvature="0"
       id="path298"
       style="fill:#cecece"
       d="m 148.579,489.877 0,-14.235 113.503,0 0,-13.219 39.992,20.336 -39.992,20.336 0,-13.218 -113.503,0 z" /></g><g
     id="g300"
     transform="matrix(-0.937614,0,0,-0.663616,939.766,1570.75)"><path
       inkscape:connector-curvature="0"
       id="path302"
       style="fill:#cecece"
       d="m 148.579,489.877 0,-14.235 139.102,0 0,-13.219 14.393,20.336 -14.393,20.336 0,-13.218 -139.102,0 z" /></g><g
     id="g304"
     transform="matrix(0,0.508499,-1,0,1502.11,886.457)"><path
       inkscape:connector-curvature="0"
       id="path306"
       style="fill:#cecece"
       d="m 148.579,489.877 0,-14.235 113.503,0 0,-13.219 39.992,20.336 -39.992,20.336 0,-13.218 -113.503,0 z" /></g><g
     id="g308"
     transform="translate(-8,65)"><g
       id="g310"
       transform="matrix(0.687754,0,0,0.687754,-138.526,922.48)"><circle
         id="circle312"
         style="fill:none;stroke:#cecece;stroke-width:5.82000017px"
         r="30.618999"
         cy="181.93401"
         cx="300.23499" /></g><g
       id="g314"
       transform="translate(-443.457,817.067)"><text
         id="text316"
         style="font-weight:700;font-size:24px;font-family:'Open Sans';fill:#000000"
         y="237.533"
         x="553.78497">Visualization &amp; Analysis</text>
</g><g
       id="g318"
       transform="translate(-229.696,875.151)"><text
         id="text320"
         style="font-weight:700;font-size:24px;font-family:'League Spartan';fill:#000000"
         y="181.545"
         x="289.22501">3</text>
</g><g
       id="g322"
       transform="translate(2,3)"><path
         inkscape:connector-curvature="0"
         id="path324"
         style="fill:none;stroke:#cecece;stroke-width:4px;stroke-dasharray:4, 12, 0, 0"
         d="m 414.092,1043.4 826.548,0" /></g></g><g
     id="g326"
     transform="translate(-8,851.82)"><g
       id="g328"
       transform="matrix(0.687754,0,0,0.687754,-138.526,922.48)"><circle
         id="circle330"
         style="fill:none;stroke:#cecece;stroke-width:5.82000017px"
         r="30.618999"
         cy="181.93401"
         cx="300.23499" /></g><g
       id="g332"
       transform="translate(-443.457,817.067)"><text
         id="text334"
         style="font-weight:700;font-size:24px;font-family:'Open Sans';fill:#000000"
         y="237.533"
         x="553.78497">Publication &amp; Impact</text>
</g><g
       id="g336"
       transform="translate(-229.696,875.151)"><text
         id="text338"
         style="font-weight:700;font-size:24px;font-family:'League Spartan';fill:#000000"
         y="181.545"
         x="289.21301">4</text>
</g><g
       id="g340"
       transform="matrix(1.04458,0,0,1,-53.308,3)"><path
         inkscape:connector-curvature="0"
         id="path342"
         style="fill:none;stroke:#cecece;stroke-width:3.91000009px;stroke-dasharray:3.91, 11.74, 0, 0"
         d="m 414.092,1043.4 826.548,0" /></g></g><g
     id="g344"
     transform="translate(-8,34)"><g
       id="g346"
       transform="matrix(0.687754,0,0,0.687754,-138.526,506.326)"><circle
         id="circle348"
         style="fill:none;stroke:#cecece;stroke-width:5.82000017px"
         r="30.618999"
         cy="181.93401"
         cx="300.23499" /></g><g
       id="g350"
       transform="translate(-444.457,400.913)"><text
         id="text352"
         style="font-weight:700;font-size:24px;font-family:'Open Sans';fill:#000000"
         y="237.533"
         x="553.78497">Import &amp; Or<tspan
   id="tspan354"
   y="237.533 237.533"
   x="696.89502 710.453">ga</tspan>nization</text>
</g><g
       id="g356"
       transform="translate(-229.696,458.997)"><text
         id="text358"
         style="font-weight:700;font-size:24px;font-family:'League Spartan';fill:#000000"
         y="181.545"
         x="288.16901">2</text>
</g><g
       id="g360"
       transform="matrix(1.02667,0,0,1,-31.0843,-415.12)"><path
         inkscape:connector-curvature="0"
         id="path362"
         style="fill:none;stroke:#cecece;stroke-width:3.95000005px;stroke-dasharray:3.95, 11.84, 0, 0"
         d="m 414.092,1043.4 826.548,0" /></g></g><g
     transform="matrix(0.647611,0,0,0.647611,207.737,2009.14)"
     id="path-1"><path
       inkscape:connector-curvature="0"
       id="path365"
       style="fill:#000000"
       d="M 100,77.313 C 100,83.485 94.657,89 89.046,89 L 13.208,89 C 3.95,89 0,84.198 0,74.338 l 0,-45.43 c 0,0 0,-5.036 4,-5.036 1.426,0 9.82,0 9.82,0 l 0,-7.836 c 0,0 0,-5.036 4.493,-5.036 26.494,0 50.989,0 77.484,0 C 100,11 100,16.036 100,16.036 l 0,61.277 z M 13,31 7,31 7,72.12 C 7,78.125 8.269,81 9.881,81 11.844,81 13,78.125 13,72.12 L 13,31 Z m 70,10 -24,0 0,27 24,0 m 7,-44 -63,0 0,7 63,0 m -57,41 17,0 0,-4 -17,0 m 0,-9 17,0 0,-5 -17,0 m 17,-8 0,-2.301 0,-2.699 -17,0 0,5" /></g></svg>